<?xml version="1.0" encoding="UTF-8"?>
<svg version="1.1" xmlns="http://www.w3.org/2000/svg" width="500" height="500">
<path d="M0 0 C5.51167978 1.08072153 8.57475563 4.41950472 11.82421875 8.86328125 C17.56442541 17.92904845 20.40067577 27.08785115 21.79296875 37.6796875 C22.13290414 40.53553901 22.13290414 40.53553901 22.7046423 42.95355511 C23.21912846 45.79998673 23.31046475 48.42160987 23.30775452 51.31343079 C23.30981651 53.01498573 23.30981651 53.01498573 23.31192017 54.75091553 C23.30832489 55.98593811 23.30472961 57.22096069 23.30102539 58.4934082 C23.30117142 59.80111679 23.30131744 61.10882538 23.3014679 62.4561615 C23.30175443 66.0342775 23.29588095 69.61235988 23.28889394 73.19046807 C23.28263645 76.93273768 23.2820547 80.67500808 23.28086853 84.4172821 C23.27776228 91.50031647 23.2695584 98.58333538 23.25951904 105.66636294 C23.24833599 113.73161955 23.24284193 121.79687691 23.23782361 129.86213934 C23.2273752 146.44976861 23.20978943 163.03738233 23.1875 179.625 C24.10184814 179.83539917 24.10184814 179.83539917 25.03466797 180.05004883 C27.72466312 180.76845874 29.8788259 181.96085301 32.3125 183.3125 C33.77236328 184.12267578 33.77236328 184.12267578 35.26171875 184.94921875 C37.91098894 186.46662451 40.5214329 188.03089349 43.125 189.625 C47.63231256 192.36209043 52.27104164 194.71488323 57.00390625 197.03515625 C62.46986402 199.76478178 67.82360532 202.70081226 73.1875 205.625 C73.17009766 204.64660156 73.17009766 204.64660156 73.15234375 203.6484375 C73.13880859 202.33746094 73.13880859 202.33746094 73.125 201 C73.11339844 200.14148438 73.10179687 199.28296875 73.08984375 198.3984375 C73.1875 195.625 73.1875 195.625 74.1875 189.625 C79.7975 189.625 85.4075 189.625 91.1875 189.625 C91.35662828 192.47903975 91.52287163 195.33320002 91.6875 198.1875 C91.73519531 198.98736328 91.78289062 199.78722656 91.83203125 200.61132812 C92.0413843 204.27500658 92.18199393 207.85419027 92.09375 211.52734375 C91.91916902 214.79588587 91.91916902 214.79588587 94.1875 217.625 C96.34213649 218.88949841 96.34213649 218.88949841 99 220.0625 C106.19423634 223.5237952 113.06547893 227.49331564 119.97583008 231.48608398 C120.85005615 231.99083252 121.72428223 232.49558105 122.625 233.015625 C123.79869141 233.6967334 123.79869141 233.6967334 124.99609375 234.39160156 C127.02508386 235.53358664 129.1050148 236.5837574 131.1875 237.625 C131.8475 232.675 132.5075 227.725 133.1875 222.625 C138.7975 222.625 144.4075 222.625 150.1875 222.625 C151.3125 231.625 151.3125 231.625 151.28515625 235.5625 C151.28193359 236.39394531 151.27871094 237.22539062 151.27539062 238.08203125 C151.26701172 238.92121094 151.25863281 239.76039063 151.25 240.625 C151.24548828 241.49511719 151.24097656 242.36523438 151.23632812 243.26171875 C151.2246736 245.38284293 151.20674357 247.5039311 151.1875 249.625 C151.91710937 249.9034375 152.64671875 250.181875 153.3984375 250.46875 C155.9954923 251.54540017 158.36199312 252.75207758 160.8125 254.125 C172.71363488 260.6834211 184.68854672 267.0258731 197.03125 272.71508789 C202.50097855 275.25322254 207.8229011 278.01584349 213.10449219 280.92431641 C217.05323816 283.08522662 221.03352812 284.90739076 225.1875 286.625 C225.1875 287.285 225.1875 287.945 225.1875 288.625 C225.90808594 288.88023437 226.62867188 289.13546875 227.37109375 289.3984375 C231.28035691 291.10094601 234.39634212 293.60548172 237.78515625 296.1640625 C240.28849394 297.97139621 240.28849394 297.97139621 244.1875 297.625 C244.1875 311.485 244.1875 325.345 244.1875 339.625 C243.1975 339.955 242.2075 340.285 241.1875 340.625 C240.5275 334.025 239.8675 327.425 239.1875 320.625 C231.8593224 317.48435246 225.41655028 315.53544387 217.56640625 314.40625 C216.86281479 314.30284302 216.15922333 314.19943604 215.43431091 314.09289551 C213.20683376 313.76577344 210.97855192 313.44471195 208.75 313.125 C206.52505973 312.80504231 204.30039661 312.48356599 202.07640076 312.15710449 C200.05614281 311.86058996 198.03505123 311.56977146 196.01391602 311.27929688 C193.27322006 310.81065238 190.67417467 310.27855796 187.99047852 309.59326172 C185.15283668 308.87078065 182.47804317 308.28600959 179.5859375 307.9140625 C178.77906494 307.80594238 177.97219238 307.69782227 177.14086914 307.58642578 C176.29000732 307.47540527 175.43914551 307.36438477 174.5625 307.25 C167.41116826 306.27797433 160.33471761 305.12132352 153.25 303.75 C142.18327648 301.63961584 131.0396224 300.23223121 119.86935425 298.80480957 C109.82205894 297.52016559 99.80597689 296.16262442 89.8125 294.5 C80.86168427 293.01089636 71.90504453 291.78549255 62.89599609 290.70532227 C55.38192054 289.79845108 47.90320147 288.72654257 40.4284668 287.53881836 C36.95359019 286.99485147 33.71476639 286.625 30.1875 286.625 C30.82816406 287.00269531 31.46882813 287.38039063 32.12890625 287.76953125 C43.13536061 294.77363857 48.45797165 304.88516004 51.375 317.3125 C54.12893542 332.77690659 51.55683343 347.74040015 42.7734375 360.78125 C41.98839844 361.69390625 41.98839844 361.69390625 41.1875 362.625 C40.5275 362.625 39.8675 362.625 39.1875 362.625 C39.1875 363.285 39.1875 363.945 39.1875 364.625 C36.92451547 366.2616755 34.67482888 367.77065511 32.3125 369.25 C31.66152344 369.67023438 31.01054687 370.09046875 30.33984375 370.5234375 C25.45588981 373.625 25.45588981 373.625 23.1875 373.625 C22.6863147 380.39817623 22.30041065 387.17118152 21.99121094 393.95581055 C21.87300512 396.25872463 21.72919162 398.56048088 21.55859375 400.86010742 C20.17255458 413.18220186 20.17255458 413.18220186 23.47253418 424.70529175 C26.61193552 428.11859939 30.24710015 430.40178382 34.3170166 432.56158447 C37.52931498 434.38785461 40.32454257 436.74045901 43.1875 439.0625 C44.34803008 439.97513995 45.50938203 440.88673663 46.671875 441.796875 C50.94511029 445.20113954 55.07426117 448.76807977 59.20556641 452.34204102 C66.15907905 458.35128594 73.28435725 464.08878438 80.7890625 469.3984375 C81.25054687 469.80320312 81.71203125 470.20796875 82.1875 470.625 C82.1875 471.285 82.1875 471.945 82.1875 472.625 C82.8475 472.625 83.5075 472.625 84.1875 472.625 C85.9140625 474.3046875 85.9140625 474.3046875 87.8125 476.5 C88.75996094 477.57894531 88.75996094 477.57894531 89.7265625 478.6796875 C91.1875 480.625 91.1875 480.625 91.1875 482.625 C91.8475 482.625 92.5075 482.625 93.1875 482.625 C94.78162284 485.81324568 94.28924735 489.25396662 94.25 492.75 C94.24548828 493.50410156 94.24097656 494.25820313 94.23632812 495.03515625 C94.22453499 496.89847127 94.20659942 498.76174555 94.1875 500.625 C88.51789625 500.00066723 83.41664811 498.57324751 78.01171875 496.78125 C77.13656113 496.49593918 76.2614035 496.21062836 75.35972595 495.91667175 C72.52952241 494.99198399 69.70223599 494.0587175 66.875 493.125 C64.93092257 492.48774495 62.98674896 491.85078322 61.04248047 491.21411133 C49.21595899 487.33175927 37.41964605 483.37066496 25.69018555 479.203125 C24.28506714 478.70619141 24.28506714 478.70619141 22.8515625 478.19921875 C22.06217285 477.91651123 21.2727832 477.63380371 20.45947266 477.3425293 C18.05483356 476.58310158 15.6669425 476.07588248 13.1875 475.625 C12.878125 477.48125 12.878125 477.48125 12.5625 479.375 C11.04744127 486.19276429 8.16996138 493.49403432 3.3046875 498.6015625 C1.1875 499.625 1.1875 499.625 -1.3671875 499.09765625 C-7.55553909 495.37080553 -10.2749395 487.16060824 -12.3671875 480.53515625 C-12.8125 478.625 -12.8125 478.625 -12.8125 475.625 C-22.43791839 478.24942381 -31.8682993 481.26261445 -41.2880249 484.54284668 C-44.32744707 485.60040893 -47.37041125 486.64759879 -50.41320801 487.69540405 C-52.72446207 488.49133481 -55.03535827 489.2882973 -57.34619141 490.08544922 C-63.95485549 492.36398514 -70.56636909 494.63286823 -77.1875 496.875 C-78.29697998 497.25744873 -79.40645996 497.63989746 -80.54956055 498.03393555 C-81.57218994 498.37851807 -82.59481934 498.72310059 -83.6484375 499.078125 C-84.53063965 499.37879883 -85.4128418 499.67947266 -86.32177734 499.98925781 C-88.91754174 500.65181128 -91.14513722 500.74344311 -93.8125 500.625 C-95.19353212 486.88287791 -95.19353212 486.88287791 -91.84375 481.40625 C-89.60150166 478.99370432 -87.28190576 476.80031774 -84.8125 474.625 C-84.4825 473.965 -84.1525 473.305 -83.8125 472.625 C-83.1525 472.625 -82.4925 472.625 -81.8125 472.625 C-81.8125 471.965 -81.8125 471.305 -81.8125 470.625 C-79.9140625 468.8984375 -79.9140625 468.8984375 -77.4375 467 C-76.21933594 466.05253906 -76.21933594 466.05253906 -74.9765625 465.0859375 C-72.8125 463.625 -72.8125 463.625 -70.8125 463.625 C-70.8125 462.965 -70.8125 462.305 -70.8125 461.625 C-69.1625 460.965 -67.5125 460.305 -65.8125 459.625 C-65.8125 458.965 -65.8125 458.305 -65.8125 457.625 C-63.9140625 455.8984375 -63.9140625 455.8984375 -61.4375 454 C-60.21933594 453.05253906 -60.21933594 453.05253906 -58.9765625 452.0859375 C-56.8125 450.625 -56.8125 450.625 -54.8125 450.625 C-54.4825 449.635 -54.1525 448.645 -53.8125 447.625 C-52.02734375 446.01171875 -52.02734375 446.01171875 -49.75 444.3125 C-48.94304687 443.70664062 -48.13609375 443.10078125 -47.3046875 442.4765625 C-46.07105469 441.56003906 -46.07105469 441.56003906 -44.8125 440.625 C-44.05195313 440.03460938 -43.29140625 439.44421875 -42.5078125 438.8359375 C-41.80398437 438.29195313 -41.10015625 437.74796875 -40.375 437.1875 C-39.73691406 436.69378906 -39.09882813 436.20007813 -38.44140625 435.69140625 C-36.8125 434.625 -36.8125 434.625 -34.8125 434.625 C-34.8125 433.965 -34.8125 433.305 -34.8125 432.625 C-32.6953125 430.8984375 -32.6953125 430.8984375 -29.9375 429 C-29.03257812 428.36835938 -28.12765625 427.73671875 -27.1953125 427.0859375 C-24.8125 425.625 -24.8125 425.625 -22.8125 425.625 C-22.4825 424.635 -22.1525 423.645 -21.8125 422.625 C-21.1525 422.625 -20.4925 422.625 -19.8125 422.625 C-20.1425 421.965 -20.4725 421.305 -20.8125 420.625 C-20.96618297 418.99862845 -21.06219089 417.36662863 -21.12890625 415.734375 C-21.17088135 414.72431396 -21.21285645 413.71425293 -21.25610352 412.67358398 C-21.29533936 411.58505127 -21.3345752 410.49651855 -21.375 409.375 C-21.4174585 408.26648682 -21.45991699 407.15797363 -21.50366211 406.01586914 C-21.88524617 395.21711712 -21.90905797 384.42876384 -21.8125 373.625 C-22.52792969 373.52058594 -23.24335938 373.41617187 -23.98046875 373.30859375 C-27.12413677 372.54977733 -29.36465773 371.36006294 -32.125 369.6875 C-33.00800781 369.16285156 -33.89101562 368.63820313 -34.80078125 368.09765625 C-35.46464844 367.61167969 -36.12851563 367.12570312 -36.8125 366.625 C-36.8125 365.965 -36.8125 365.305 -36.8125 364.625 C-37.4725 364.625 -38.1325 364.625 -38.8125 364.625 C-47.86826242 353.43641323 -52.80457289 340.29188951 -52.19140625 325.75390625 C-50.44703576 311.34936228 -46.16174124 299.41467934 -34.609375 289.96484375 C-33.04744237 288.80018529 -31.43362416 287.70574944 -29.8125 286.625 C-40.40595361 287.56492021 -50.89448802 288.68307366 -61.37280273 290.51879883 C-67.13639736 291.52782527 -72.90978988 292.32668134 -78.71459961 293.06665039 C-82.22400631 293.53127531 -85.71549515 294.07927474 -89.20913696 294.64930725 C-100.94300895 296.56278275 -112.71526406 298.0596195 -124.51464844 299.50268555 C-127.03367037 299.81194261 -129.55199797 300.12644819 -132.0703125 300.44140625 C-132.81733429 300.53104141 -133.56435608 300.62067657 -134.33401489 300.71302795 C-138.86642226 301.28222212 -143.2709596 302.10911384 -147.71621704 303.16311646 C-151.4624431 303.98853946 -155.26171144 304.43772282 -159.0625 304.9375 C-169.02793219 306.30484369 -178.9293762 307.9754841 -188.83618164 309.71362305 C-194.76848319 310.75442574 -200.70107509 311.77899447 -206.6484375 312.73046875 C-207.72182373 312.90328369 -208.79520996 313.07609863 -209.90112305 313.25415039 C-211.8913053 313.57259837 -213.88230177 313.88602121 -215.87426758 314.19311523 C-223.79385553 315.46809315 -231.43370629 317.42752273 -238.8125 320.625 C-238.87308594 321.72199219 -238.93367187 322.81898438 -238.99609375 323.94921875 C-239.08054498 325.40365654 -239.16519066 326.85808305 -239.25 328.3125 C-239.28931641 329.03373047 -239.32863281 329.75496094 -239.36914062 330.49804688 C-239.59435678 334.29207282 -239.94089305 337.91151492 -240.8125 341.625 C-241.4725 341.625 -242.1325 341.625 -242.8125 341.625 C-243.72285504 338.89393489 -243.93465713 337.32606761 -243.92602539 334.52075195 C-243.92594986 333.70012772 -243.92587433 332.87950348 -243.92579651 332.03401184 C-243.92063522 331.15267075 -243.91547394 330.27132965 -243.91015625 329.36328125 C-243.9087413 328.45748825 -243.90732635 327.55169525 -243.90586853 326.61845398 C-243.90027001 323.72476909 -243.88771781 320.83116151 -243.875 317.9375 C-243.86998481 315.97591258 -243.86542193 314.01432394 -243.86132812 312.05273438 C-243.85030107 307.24345979 -243.83303747 302.434243 -243.8125 297.625 C-240.8125 296.625 -240.8125 296.625 -238.8515625 296.22265625 C-236.52462781 295.54062367 -235.09896436 294.54030615 -233.1875 293.0625 C-230.02496459 290.625 -230.02496459 290.625 -227.8125 290.625 C-227.8125 289.965 -227.8125 289.305 -227.8125 288.625 C-226.8225 288.625 -225.8325 288.625 -224.8125 288.625 C-224.8125 287.965 -224.8125 287.305 -224.8125 286.625 C-223.75933594 286.1403125 -222.70617187 285.655625 -221.62109375 285.15625 C-213.78573853 281.52416011 -206.07273225 277.76764682 -198.49121094 273.63134766 C-193.74322632 271.06402123 -188.90193721 268.75733643 -184 266.5 C-178.57282481 263.99603154 -173.43179247 261.33009941 -168.3671875 258.140625 C-164.48032021 255.8346548 -160.42990224 253.87402499 -156.3684082 251.89624023 C-153.3883678 250.56416768 -153.3883678 250.56416768 -150.8125 248.625 C-150.65443469 246.70021187 -150.561365 244.7700079 -150.49609375 242.83984375 C-150.45419922 241.67001953 -150.41230469 240.50019531 -150.36914062 239.29492188 C-150.32982422 238.06322266 -150.29050781 236.83152344 -150.25 235.5625 C-150.20681641 234.32693359 -150.16363281 233.09136719 -150.11914062 231.81835938 C-150.01265889 228.75405159 -149.91203935 225.68954115 -149.8125 222.625 C-144.2025 222.625 -138.5925 222.625 -132.8125 222.625 C-132.02950392 226.5399804 -131.70284841 229.52391782 -131.75 233.4375 C-131.75902344 234.41332031 -131.76804687 235.38914063 -131.77734375 236.39453125 C-131.78894531 237.13058594 -131.80054688 237.86664063 -131.8125 238.625 C-131.29977539 238.32319824 -130.78705078 238.02139648 -130.25878906 237.71044922 C-121.40371446 232.50962954 -112.59265333 227.37043863 -103.33984375 222.90625 C-100.85378787 221.6459311 -98.53225361 220.25465472 -96.1875 218.75 C-92.8125 216.625 -92.8125 216.625 -90.8125 216.625 C-90.8125 207.715 -90.8125 198.805 -90.8125 189.625 C-85.2025 189.625 -79.5925 189.625 -73.8125 189.625 C-72.8225 197.545 -72.8225 197.545 -71.8125 205.625 C-70.70132813 204.96113281 -69.59015625 204.29726562 -68.4453125 203.61328125 C-61.4193794 199.43582761 -54.44055615 195.3133355 -47.0703125 191.765625 C-43.6958444 190.06087641 -40.50103806 188.08225661 -37.2734375 186.1171875 C-34.82318459 184.63147859 -32.36146524 183.17428591 -29.875 181.75 C-29.16472656 181.34007812 -28.45445312 180.93015625 -27.72265625 180.5078125 C-25.8125 179.625 -25.8125 179.625 -22.8125 179.625 C-22.81434359 178.95300347 -22.81618717 178.28100695 -22.81808662 177.58864689 C-22.86231972 161.21221389 -22.89538283 144.83579989 -22.91612434 128.45932102 C-22.92642224 120.53967196 -22.94045407 112.62006286 -22.96337891 104.70043945 C-22.98335839 97.7950082 -22.99622723 90.88960589 -23.00067699 83.98414654 C-23.00327667 80.33020532 -23.00935587 76.67634691 -23.02396011 73.02243233 C-23.04015863 68.93622339 -23.04047677 64.85015699 -23.03955078 60.76391602 C-23.04674133 59.56197601 -23.05393188 58.36003601 -23.06134033 57.12167358 C-23.04720995 51.34972365 -22.75690922 46.04956778 -21.2866497 40.4541769 C-20.59172555 37.77329533 -20.32421634 35.05943187 -20 32.3125 C-18.41848153 21.88664363 -11.93847152 2.65299367 0 0 Z " fill="#4C5055" transform="translate(249.8125,-0.625)"/>
<path d="M0 0 C3.0715519 0.61869049 6.06939616 0.50384645 9.19140625 0.44140625 C10.86698004 0.7266103 12.5395787 1.04096321 14.19140625 1.44140625 C13.20140625 2.10140625 12.21140625 2.76140625 11.19140625 3.44140625 C11.83207031 3.81910156 12.47273438 4.19679688 13.1328125 4.5859375 C24.13926686 11.59004482 29.4618779 21.70156629 32.37890625 34.12890625 C35.13284167 49.59331284 32.56073968 64.5568064 23.77734375 77.59765625 C23.25398437 78.20609375 22.730625 78.81453125 22.19140625 79.44140625 C21.53140625 79.44140625 20.87140625 79.44140625 20.19140625 79.44140625 C20.19140625 80.10140625 20.19140625 80.76140625 20.19140625 81.44140625 C17.92842172 83.07808175 15.67873513 84.58706136 13.31640625 86.06640625 C12.66542969 86.48664063 12.01445312 86.906875 11.34375 87.33984375 C6.45979606 90.44140625 6.45979606 90.44140625 4.19140625 90.44140625 C3.69022095 97.21458248 3.3043169 103.98758777 2.99511719 110.7722168 C2.87691137 113.07513088 2.73309787 115.37688713 2.5625 117.67651367 C1.17646083 129.99860811 1.17646083 129.99860811 4.47644043 141.521698 C7.61584177 144.93500564 11.2510064 147.21819007 15.32092285 149.37799072 C18.53322123 151.20426086 21.32844882 153.55686526 24.19140625 155.87890625 C25.35193633 156.7915462 26.51328828 157.70314288 27.67578125 158.61328125 C31.94901654 162.01754579 36.07816742 165.58448602 40.20947266 169.15844727 C47.1629853 175.16769219 54.2882635 180.90519063 61.79296875 186.21484375 C62.25445312 186.61960937 62.7159375 187.024375 63.19140625 187.44140625 C63.19140625 188.10140625 63.19140625 188.76140625 63.19140625 189.44140625 C63.85140625 189.44140625 64.51140625 189.44140625 65.19140625 189.44140625 C66.91796875 191.12109375 66.91796875 191.12109375 68.81640625 193.31640625 C69.44804687 194.03570312 70.0796875 194.755 70.73046875 195.49609375 C72.19140625 197.44140625 72.19140625 197.44140625 72.19140625 199.44140625 C72.85140625 199.44140625 73.51140625 199.44140625 74.19140625 199.44140625 C75.78552909 202.62965193 75.2931536 206.07037287 75.25390625 209.56640625 C75.24939453 210.32050781 75.24488281 211.07460938 75.24023438 211.8515625 C75.22844124 213.71487752 75.21050567 215.5781518 75.19140625 217.44140625 C69.5218025 216.81707348 64.42055436 215.38965376 59.015625 213.59765625 C58.14046738 213.31234543 57.26530975 213.02703461 56.3636322 212.733078 C53.53342866 211.80839024 50.70614224 210.87512375 47.87890625 209.94140625 C45.93482882 209.3041512 43.99065521 208.66718947 42.04638672 208.03051758 C30.21986524 204.14816552 18.4235523 200.18707121 6.6940918 196.01953125 C5.75734619 195.68824219 4.82060059 195.35695313 3.85546875 195.015625 C3.0660791 194.73291748 2.27668945 194.45020996 1.46337891 194.15893555 C-0.94126019 193.39950783 -3.32915125 192.89228873 -5.80859375 192.44140625 C-6.01484375 193.67890625 -6.22109375 194.91640625 -6.43359375 196.19140625 C-7.94865248 203.00917054 -10.82613237 210.31044057 -15.69140625 215.41796875 C-17.80859375 216.44140625 -17.80859375 216.44140625 -20.36328125 215.9140625 C-26.55163284 212.18721178 -29.27103325 203.97701449 -31.36328125 197.3515625 C-31.80859375 195.44140625 -31.80859375 195.44140625 -31.80859375 192.44140625 C-41.43401214 195.06583006 -50.86439305 198.0790207 -60.28411865 201.35925293 C-63.32354082 202.41681518 -66.366505 203.46400504 -69.40930176 204.5118103 C-71.72055582 205.30774106 -74.03145202 206.10470355 -76.34228516 206.90185547 C-82.95094924 209.18039139 -89.56246284 211.44927448 -96.18359375 213.69140625 C-97.29307373 214.07385498 -98.40255371 214.45630371 -99.5456543 214.8503418 C-100.56828369 215.19492432 -101.59091309 215.53950684 -102.64453125 215.89453125 C-103.5267334 216.19520508 -104.40893555 216.49587891 -105.31787109 216.80566406 C-107.91363549 217.46821753 -110.14123097 217.55984936 -112.80859375 217.44140625 C-114.18962587 203.69928416 -114.18962587 203.69928416 -110.83984375 198.22265625 C-108.59759541 195.81011057 -106.27799951 193.61672399 -103.80859375 191.44140625 C-103.31359375 190.45140625 -103.31359375 190.45140625 -102.80859375 189.44140625 C-102.14859375 189.44140625 -101.48859375 189.44140625 -100.80859375 189.44140625 C-100.80859375 188.78140625 -100.80859375 188.12140625 -100.80859375 187.44140625 C-98.91015625 185.71484375 -98.91015625 185.71484375 -96.43359375 183.81640625 C-95.62148437 183.18476563 -94.809375 182.553125 -93.97265625 181.90234375 C-91.80859375 180.44140625 -91.80859375 180.44140625 -89.80859375 180.44140625 C-89.80859375 179.78140625 -89.80859375 179.12140625 -89.80859375 178.44140625 C-87.33359375 177.45140625 -87.33359375 177.45140625 -84.80859375 176.44140625 C-84.80859375 175.78140625 -84.80859375 175.12140625 -84.80859375 174.44140625 C-82.91015625 172.71484375 -82.91015625 172.71484375 -80.43359375 170.81640625 C-79.62148437 170.18476563 -78.809375 169.553125 -77.97265625 168.90234375 C-75.80859375 167.44140625 -75.80859375 167.44140625 -73.80859375 167.44140625 C-73.47859375 166.45140625 -73.14859375 165.46140625 -72.80859375 164.44140625 C-71.0234375 162.828125 -71.0234375 162.828125 -68.74609375 161.12890625 C-67.53566406 160.22011719 -67.53566406 160.22011719 -66.30078125 159.29296875 C-65.47835937 158.68195313 -64.6559375 158.0709375 -63.80859375 157.44140625 C-63.04804688 156.85101563 -62.2875 156.260625 -61.50390625 155.65234375 C-60.80007812 155.10835937 -60.09625 154.564375 -59.37109375 154.00390625 C-58.41396484 153.26333984 -58.41396484 153.26333984 -57.4375 152.5078125 C-55.80859375 151.44140625 -55.80859375 151.44140625 -53.80859375 151.44140625 C-53.80859375 150.78140625 -53.80859375 150.12140625 -53.80859375 149.44140625 C-51.69140625 147.71484375 -51.69140625 147.71484375 -48.93359375 145.81640625 C-48.02867187 145.18476563 -47.12375 144.553125 -46.19140625 143.90234375 C-43.80859375 142.44140625 -43.80859375 142.44140625 -41.80859375 142.44140625 C-41.47859375 141.45140625 -41.14859375 140.46140625 -40.80859375 139.44140625 C-40.14859375 139.44140625 -39.48859375 139.44140625 -38.80859375 139.44140625 C-39.13859375 138.78140625 -39.46859375 138.12140625 -39.80859375 137.44140625 C-39.96227672 135.8150347 -40.05828464 134.18303488 -40.125 132.55078125 C-40.18796265 131.0356897 -40.18796265 131.0356897 -40.25219727 129.48999023 C-40.29143311 128.40145752 -40.33066895 127.3129248 -40.37109375 126.19140625 C-40.41355225 125.08289307 -40.45601074 123.97437988 -40.49975586 122.83227539 C-40.88133992 112.03352337 -40.90515172 101.24517009 -40.80859375 90.44140625 C-41.52402344 90.33699219 -42.23945313 90.23257813 -42.9765625 90.125 C-46.12023052 89.36618358 -48.36075148 88.17646919 -51.12109375 86.50390625 C-52.00410156 85.97925781 -52.88710937 85.45460938 -53.796875 84.9140625 C-54.46074219 84.42808594 -55.12460938 83.94210937 -55.80859375 83.44140625 C-55.80859375 82.78140625 -55.80859375 82.12140625 -55.80859375 81.44140625 C-56.46859375 81.44140625 -57.12859375 81.44140625 -57.80859375 81.44140625 C-66.86435617 70.25281948 -71.80066664 57.10829576 -71.1875 42.5703125 C-69.44312951 28.16576853 -65.15783499 16.23108559 -53.60546875 6.78125 C-52.04353612 5.61659154 -50.42971791 4.52215569 -48.80859375 3.44140625 C-49.46859375 2.78140625 -50.12859375 2.12140625 -50.80859375 1.44140625 C-47.50859375 1.11140625 -44.20859375 0.78140625 -40.80859375 0.44140625 C-40.80859375 1.10140625 -40.80859375 1.76140625 -40.80859375 2.44140625 C-39.85726562 2.00828125 -39.85726562 2.00828125 -38.88671875 1.56640625 C-26.62161426 -3.31253034 -12.76359554 -2.85632889 0 0 Z " fill="#474B4F" transform="translate(268.80859375,282.55859375)"/>
<path d="M0 0 C4.25946712 0.92143812 7.69996347 2.95847924 11.4375 5.125 C12.87966853 5.94886232 14.32238421 6.77176752 15.765625 7.59375 C16.48169922 8.00238281 17.19777344 8.41101563 17.93554688 8.83203125 C22.90754345 11.64494889 27.96172478 14.30840309 33 17 C35.43844553 18.31074619 37.87548074 19.62410437 40.3125 20.9375 C41.40175781 21.52402344 42.49101562 22.11054688 43.61328125 22.71484375 C44.79470703 23.35099609 44.79470703 23.35099609 46 24 C45.98839844 23.34773438 45.97679687 22.69546875 45.96484375 22.0234375 C45.95582031 21.14945313 45.94679688 20.27546875 45.9375 19.375 C45.92589844 18.51648438 45.91429687 17.65796875 45.90234375 16.7734375 C46 14 46 14 47 8 C52.61 8 58.22 8 64 8 C64.16912828 10.85403975 64.33537163 13.70820002 64.5 16.5625 C64.57154297 17.76229492 64.57154297 17.76229492 64.64453125 18.98632812 C64.8538843 22.65000658 64.99449393 26.22919027 64.90625 29.90234375 C64.73166902 33.17088587 64.73166902 33.17088587 67 36 C69.15463649 37.26449841 69.15463649 37.26449841 71.8125 38.4375 C79.00673634 41.8987952 85.87797893 45.86831564 92.78833008 49.86108398 C94.09966919 50.61820679 94.09966919 50.61820679 95.4375 51.390625 C96.21996094 51.84469727 97.00242187 52.29876953 97.80859375 52.76660156 C99.83758386 53.90858664 101.9175148 54.9587574 104 56 C104.66 51.05 105.32 46.1 106 41 C111.61 41 117.22 41 123 41 C124.125 50 124.125 50 124.09765625 53.9375 C124.09443359 54.76894531 124.09121094 55.60039062 124.08789062 56.45703125 C124.07951172 57.29621094 124.07113281 58.13539063 124.0625 59 C124.05798828 59.87011719 124.05347656 60.74023438 124.04882812 61.63671875 C124.0371736 63.75784293 124.01924357 65.8789311 124 68 C124.72960937 68.2784375 125.45921875 68.556875 126.2109375 68.84375 C128.8079923 69.92040017 131.17449312 71.12707758 133.625 72.5 C145.52613488 79.0584211 157.50104672 85.4008731 169.84375 91.09008789 C175.31347855 93.62822254 180.6354011 96.39084349 185.91699219 99.29931641 C189.86573816 101.46022662 193.84602812 103.28239076 198 105 C198 105.66 198 106.32 198 107 C198.72058594 107.25523437 199.44117188 107.51046875 200.18359375 107.7734375 C204.09285691 109.47594601 207.20884212 111.98048172 210.59765625 114.5390625 C213.10099394 116.34639621 213.10099394 116.34639621 217 116 C217 129.86 217 143.72 217 158 C216.01 158.33 215.02 158.66 214 159 C213.34 152.4 212.68 145.8 212 139 C204.6718224 135.85935246 198.22905028 133.91044387 190.37890625 132.78125 C189.67531479 132.67784302 188.97172333 132.57443604 188.24681091 132.46789551 C186.01933376 132.14077344 183.79105192 131.81971195 181.5625 131.5 C179.33755973 131.18004231 177.11289661 130.85856599 174.88890076 130.53210449 C172.86864281 130.23558996 170.84755123 129.94477146 168.82641602 129.65429688 C164.80464572 128.96659545 160.94425908 128.03653562 157 127 C158.32 126.67 159.64 126.34 161 126 C161 123.36 161 120.72 161 118 C160.28166992 117.88897949 159.56333984 117.77795898 158.82324219 117.66357422 C151.21832646 116.44762206 143.74442759 114.89195608 136.25 113.125 C135.11038818 112.85816406 133.97077637 112.59132813 132.79663086 112.31640625 C129.52999245 111.54882154 126.2649247 110.77483481 123 110 C122.19385254 109.81147461 121.38770508 109.62294922 120.55712891 109.42871094 C111.00777934 107.19287239 101.72763658 104.40052059 92.3984375 101.39453125 C87.309799 99.76288394 82.17644838 98.32610138 77 97 C77 96.34 77 95.68 77 95 C66.02488723 92.22298627 55.02643517 89.5655567 44 87 C44 86.34 44 85.68 44 85 C43.34 85 42.68 85 42 85 C42 85.66 42 86.32 42 87 C39.6875 87.1875 39.6875 87.1875 37 87 C36.56945312 86.50242187 36.13890625 86.00484375 35.6953125 85.4921875 C33.22476049 83.31764633 31.41403291 83.77110019 28.1875 83.9375 C23.66878814 84.06347621 20.20315812 83.86807028 16 82 C16 81.34 16 80.68 16 80 C13.03 79.34 10.06 78.68 7 78 C7 77.34 7 76.68 7 76 C3.37 75.67 -0.26 75.34 -4 75 C-4.84219102 70.78904491 -5.12140299 67.43621421 -5.11352539 63.19018555 C-5.11367142 62.52621262 -5.11381744 61.86223969 -5.1139679 61.17814636 C-5.11327483 58.99763651 -5.10551099 56.81721356 -5.09765625 54.63671875 C-5.09578992 53.1192886 -5.09436703 51.60185785 -5.09336853 50.08442688 C-5.08956032 46.10108765 -5.07974459 42.1177852 -5.06866455 38.13446045 C-5.05841389 34.06555682 -5.05386309 29.99664721 -5.04882812 25.92773438 C-5.03812074 17.95180609 -5.02106478 9.97590763 -5 2 C-3.35 1.67 -1.7 1.34 0 1 C0 0.67 0 0.34 0 0 Z " fill="#5D6169" transform="translate(277,181)"/>
<path d="M0 0 C-0.33 0.66 -0.66 1.32 -1 2 C-0.34 2 0.32 2 1 2 C1 26.09 1 50.18 1 75 C-6.59 76.98 -14.18 78.96 -22 81 C-24.36671875 81.62648438 -26.7334375 82.25296875 -29.171875 82.8984375 C-30.12191406 83.14980469 -31.07195312 83.40117187 -32.05078125 83.66015625 C-33.92906708 84.1575894 -35.80661945 84.65779695 -37.68359375 85.16015625 C-38.60785156 85.40378906 -39.53210938 85.64742188 -40.484375 85.8984375 C-41.28584961 86.11161621 -42.08732422 86.32479492 -42.91308594 86.54443359 C-45 87 -45 87 -48 87 C-48.99 87.66 -49.98 88.32 -51 89 C-53.15464152 89.47494786 -55.32468407 89.88114208 -57.5 90.25 C-64.71254538 91.54903129 -71.55225162 93.63482145 -78.4765625 96.01855469 C-82.80677478 97.47111744 -86.36259748 98.33389298 -91 98 C-91 98.99 -91 99.98 -91 101 C-100.91903097 104.21840898 -110.84773584 107.0722604 -120.98681641 109.50732422 C-123.03178423 110.00777839 -125.06881338 110.53319218 -127.10546875 111.06640625 C-134.40928709 112.96743584 -141.63437755 114.4598514 -149.1171875 115.5078125 C-152.46676452 116.0796915 -155.49279403 117.05066906 -158.6796875 118.203125 C-161.48689425 119.16721621 -164.31525198 119.93944523 -167.1875 120.6875 C-168.15042969 120.93886719 -169.11335938 121.19023437 -170.10546875 121.44921875 C-173.13631959 122.02593936 -175.92221463 122.09575332 -179 122 C-178.67 123.65 -178.34 125.3 -178 127 C-172.1314592 128.14819277 -166.9114744 127.77313045 -161 127 C-164.72614654 129.25828894 -168.68093067 129.76050782 -172.9140625 130.40234375 C-174.06858414 130.58719078 -174.06858414 130.58719078 -175.24642944 130.77577209 C-178.52424867 131.30041464 -181.80438161 131.80985368 -185.08447266 132.32006836 C-195.73429959 133.98683995 -206.03520091 135.6819204 -216 140 C-216.06058594 141.09699219 -216.12117187 142.19398438 -216.18359375 143.32421875 C-216.26804498 144.77865654 -216.35269066 146.23308305 -216.4375 147.6875 C-216.47681641 148.40873047 -216.51613281 149.12996094 -216.55664062 149.87304688 C-216.78185678 153.66707282 -217.12839305 157.28651492 -218 161 C-218.66 161 -219.32 161 -220 161 C-220.91035504 158.26893489 -221.12215713 156.70106761 -221.11352539 153.89575195 C-221.11344986 153.07512772 -221.11337433 152.25450348 -221.11329651 151.40901184 C-221.10813522 150.52767075 -221.10297394 149.64632965 -221.09765625 148.73828125 C-221.0962413 147.83248825 -221.09482635 146.92669525 -221.09336853 145.99345398 C-221.08777001 143.09976909 -221.07521781 140.20616151 -221.0625 137.3125 C-221.05748481 135.35091258 -221.05292193 133.38932394 -221.04882812 131.42773438 C-221.03780107 126.61845979 -221.02053747 121.809243 -221 117 C-218 116 -218 116 -216.0390625 115.59765625 C-213.71212781 114.91562367 -212.28646436 113.91530615 -210.375 112.4375 C-207.21246459 110 -207.21246459 110 -205 110 C-205 109.34 -205 108.68 -205 108 C-204.01 108 -203.02 108 -202 108 C-202 107.34 -202 106.68 -202 106 C-200.94683594 105.5153125 -199.89367187 105.030625 -198.80859375 104.53125 C-190.97323853 100.89916011 -183.26023225 97.14264682 -175.67871094 93.00634766 C-170.93072632 90.43902123 -166.08943721 88.13233643 -161.1875 85.875 C-155.76032481 83.37103154 -150.61929247 80.70509941 -145.5546875 77.515625 C-141.66782021 75.2096548 -137.61740224 73.24902499 -133.5559082 71.27124023 C-130.5758678 69.93916768 -130.5758678 69.93916768 -128 68 C-127.84193469 66.07521187 -127.748865 64.1450079 -127.68359375 62.21484375 C-127.64169922 61.04501953 -127.59980469 59.87519531 -127.55664062 58.66992188 C-127.51732422 57.43822266 -127.47800781 56.20652344 -127.4375 54.9375 C-127.39431641 53.70193359 -127.35113281 52.46636719 -127.30664062 51.19335938 C-127.20015889 48.12905159 -127.09953935 45.06454115 -127 42 C-121.39 42 -115.78 42 -110 42 C-109.21700392 45.9149804 -108.89034841 48.89891782 -108.9375 52.8125 C-108.94652344 53.78832031 -108.95554687 54.76414063 -108.96484375 55.76953125 C-108.97644531 56.50558594 -108.98804687 57.24164063 -109 58 C-108.23091309 57.54729736 -108.23091309 57.54729736 -107.44628906 57.08544922 C-98.59121446 51.88462954 -89.78015333 46.74543863 -80.52734375 42.28125 C-78.04128787 41.0209311 -75.71975361 39.62965472 -73.375 38.125 C-70 36 -70 36 -68 36 C-68 27.09 -68 18.18 -68 9 C-62.39 9 -56.78 9 -51 9 C-50.01 16.92 -50.01 16.92 -49 25 C-47.88882813 24.33613281 -46.77765625 23.67226562 -45.6328125 22.98828125 C-38.6068794 18.81082761 -31.62805615 14.6883355 -24.2578125 11.140625 C-20.03241596 9.0059956 -16.04279693 6.45776385 -12 4 C-10.36164817 3.008366 -8.71612385 2.0284518 -7.0625 1.0625 C-5.99708984 0.43021484 -5.99708984 0.43021484 -4.91015625 -0.21484375 C-3 -1 -3 -1 0 0 Z " fill="#5C6069" transform="translate(227,180)"/>
<path d="M0 0 C3.0715519 0.61869049 6.06939616 0.50384645 9.19140625 0.44140625 C10.86698004 0.7266103 12.5395787 1.04096321 14.19140625 1.44140625 C13.20140625 2.10140625 12.21140625 2.76140625 11.19140625 3.44140625 C11.83207031 3.81910156 12.47273438 4.19679688 13.1328125 4.5859375 C24.13926686 11.59004482 29.4618779 21.70156629 32.37890625 34.12890625 C35.13284167 49.59331284 32.56073968 64.5568064 23.77734375 77.59765625 C23.25398438 78.20609375 22.730625 78.81453125 22.19140625 79.44140625 C21.53140625 79.44140625 20.87140625 79.44140625 20.19140625 79.44140625 C20.19140625 80.10140625 20.19140625 80.76140625 20.19140625 81.44140625 C17.92842172 83.07808175 15.67873513 84.58706136 13.31640625 86.06640625 C12.66542969 86.48664063 12.01445312 86.906875 11.34375 87.33984375 C6.45979606 90.44140625 6.45979606 90.44140625 4.19140625 90.44140625 C3.86140625 102.32140625 3.53140625 114.20140625 3.19140625 126.44140625 C2.86140625 126.44140625 2.53140625 126.44140625 2.19140625 126.44140625 C2.16675615 121.33276729 2.14857018 116.22416266 2.13647461 111.11547852 C2.13143421 109.37621457 2.12460195 107.63695489 2.1159668 105.89770508 C2.10388833 103.40314688 2.09817517 100.90864452 2.09375 98.4140625 C2.08858871 97.63176773 2.08342743 96.84947296 2.07810974 96.04347229 C2.07791399 94.17573511 2.12940931 92.30811421 2.19140625 90.44140625 C2.52140625 90.11140625 2.85140625 89.78140625 3.19140625 89.44140625 C-2.32305779 89.20028226 -2.32305779 89.20028226 -7.640625 90.4296875 C-17.90121913 93.70649869 -31.47410509 91.86012658 -41.171875 87.33984375 C-41.71199219 87.04335938 -42.25210938 86.746875 -42.80859375 86.44140625 C-43.13859375 87.10140625 -43.46859375 87.76140625 -43.80859375 88.44140625 C-42.48859375 88.77140625 -41.16859375 89.10140625 -39.80859375 89.44140625 C-38.91013036 105.45330734 -38.68370603 121.4058228 -38.80859375 137.44140625 C-39.13859375 137.44140625 -39.46859375 137.44140625 -39.80859375 137.44140625 C-40.54823809 121.76330687 -40.94887077 106.13684609 -40.80859375 90.44140625 C-41.88173828 90.28478516 -41.88173828 90.28478516 -42.9765625 90.125 C-46.12023052 89.36618358 -48.36075148 88.17646919 -51.12109375 86.50390625 C-52.00410156 85.97925781 -52.88710937 85.45460938 -53.796875 84.9140625 C-54.79267578 84.18509766 -54.79267578 84.18509766 -55.80859375 83.44140625 C-55.80859375 82.78140625 -55.80859375 82.12140625 -55.80859375 81.44140625 C-56.46859375 81.44140625 -57.12859375 81.44140625 -57.80859375 81.44140625 C-66.86435617 70.25281948 -71.80066664 57.10829576 -71.1875 42.5703125 C-69.44312951 28.16576853 -65.15783499 16.23108559 -53.60546875 6.78125 C-52.04353612 5.61659154 -50.42971791 4.52215569 -48.80859375 3.44140625 C-49.46859375 2.78140625 -50.12859375 2.12140625 -50.80859375 1.44140625 C-47.50859375 1.11140625 -44.20859375 0.78140625 -40.80859375 0.44140625 C-40.80859375 1.10140625 -40.80859375 1.76140625 -40.80859375 2.44140625 C-40.174375 2.15265625 -39.54015625 1.86390625 -38.88671875 1.56640625 C-26.62161426 -3.31253034 -12.76359554 -2.85632889 0 0 Z " fill="#5E626A" transform="translate(268.80859375,282.55859375)"/>
<path d="M0 0 C0 6.6 0 13.2 0 20 C0.99 20.33 1.98 20.66 3 21 C-8.14762575 24.90166901 -19.01986366 27.23720527 -30.72314453 28.66845703 C-39.51952422 29.76133642 -48.26513296 31.10411078 -57.01980591 32.48410034 C-73.42113462 35.06908908 -89.83901174 37.35189218 -106.32226562 39.35107422 C-116.19562562 40.55499754 -116.19562562 40.55499754 -125.9375 42.53564453 C-130.17929389 43.49065068 -134.50616239 43.98485784 -138.8125 44.5625 C-140.65260871 44.81185455 -142.49246449 45.06308451 -144.33203125 45.31640625 C-145.13358643 45.42412354 -145.9351416 45.53184082 -146.76098633 45.64282227 C-148.98699291 45.96395745 -148.98699291 45.96395745 -151.08203125 46.52514648 C-154.71361095 47.42425831 -158.47999162 47.40325497 -162.20410156 47.61425781 C-165.92353099 47.83644811 -169.5672253 48.19181998 -173.25 48.75 C-177 49 -177 49 -178.734375 47.765625 C-180 46 -180 46 -180 42 C-179.21761963 41.823479 -178.43523926 41.64695801 -177.62915039 41.46508789 C-174.10606766 40.6679973 -170.58427993 39.8653262 -167.0625 39.0625 C-165.83080078 38.78470703 -164.59910156 38.50691406 -163.33007812 38.22070312 C-161.5753418 37.81948242 -161.5753418 37.81948242 -159.78515625 37.41015625 C-158.15912476 37.04096069 -158.15912476 37.04096069 -156.50024414 36.66430664 C-154.07708118 36.24435449 -154.07708118 36.24435449 -153 35 C-150.18940153 34.55127446 -147.38097597 34.1427587 -144.5625 33.75 C-135.47090638 32.40921254 -126.82037434 30.20369779 -118.02587891 27.5793457 C-115.93782061 26.9822184 -113.84103051 26.45674971 -111.73046875 25.9453125 C-108.99416451 25.25192441 -106.57613012 24.53580547 -104 23.4375 C-100.0067102 21.86870758 -96.26460239 21.38076807 -92 21 C-92 20.01 -92 19.02 -92 18 C-91.23558594 17.84144531 -90.47117187 17.68289063 -89.68359375 17.51953125 C-83.78788649 16.23538803 -78.25136287 14.74566356 -72.625 12.5625 C-64.18643088 9.62391304 -55.52425598 8.77986026 -46.69607544 7.7635498 C-36.80349479 6.61753277 -27.389262 4.91555113 -17.84765625 2.05078125 C-11.80237345 0.399836 -6.30770861 0 0 0 Z " fill="#1D1F21" transform="translate(228,260)"/>
<path d="M0 0 C4.51564383 0.64509198 7.79456555 1.15707149 11.9375 2.5 C18.02526246 4.23454919 23.91349831 4.52803056 30.203125 4.7890625 C33.87482297 4.99304572 37.37268519 5.42677149 41 6 C41.495 7.485 41.495 7.485 42 9 C43.65 9 45.3 9 47 9 C47 8.34 47 7.68 47 7 C47.66 7 48.32 7 49 7 C49 7.66 49 8.32 49 9 C49.89138672 9.05607422 49.89138672 9.05607422 50.80078125 9.11328125 C57.48798576 9.64368161 63.58842582 11.07198053 70 13 C71.40958984 13.40992188 71.40958984 13.40992188 72.84765625 13.828125 C79.6489547 15.82447735 79.6489547 15.82447735 82 17 C82 17.66 82 18.32 82 19 C82.7321875 19.13535156 83.464375 19.27070313 84.21875 19.41015625 C93.4699092 21.24937481 102.43709258 23.79002527 111.47070312 26.48657227 C116.95269137 28.12248564 122.42976515 29.69015298 128 31 C129.08845215 31.25595947 130.1769043 31.51191895 131.29833984 31.77563477 C135.19793316 32.68793423 139.09871165 33.59498415 143 34.5 C158.88642186 38.1853117 158.88642186 38.1853117 166 40 C166 42.64 166 45.28 166 48 C157.28032544 48.40313564 149.38313551 47.52774115 140.89453125 45.7890625 C136.44541644 44.88763703 131.98918112 44.19301889 127.5 43.52734375 C124.93359644 43.14066464 122.37321449 42.73760681 119.8125 42.31640625 C111.01779058 40.87761642 102.2232518 39.62636183 93.375 38.5625 C85.04783693 37.56003896 76.77502071 36.36701458 68.5 35 C60.24564782 33.63725014 51.99321898 32.44180375 43.6875 31.4375 C36.07111882 30.51462373 28.46658016 29.54796488 20.875 28.4375 C19.65816528 28.26528931 19.65816528 28.26528931 18.41674805 28.08959961 C14.08144197 27.44199629 10.13279532 26.51688471 6 25 C4.02 24.34 2.04 23.68 0 23 C0 15.41 0 7.82 0 0 Z " fill="#1B1D20" transform="translate(272,259)"/>
<path d="M0 0 C0.99 0.495 0.99 0.495 2 1 C1.67 1.33 1.34 1.66 1 2 C1.99 2.66 2.98 3.32 4 4 C4.6159668 6.39501953 4.6159668 6.39501953 4.94921875 9.3828125 C5.13774414 11.01089844 5.13774414 11.01089844 5.33007812 12.671875 C5.50700195 14.38117188 5.50700195 14.38117188 5.6875 16.125 C5.81705078 17.24132812 5.94660156 18.35765625 6.08007812 19.5078125 C6.73123084 25.3509607 7.36647677 31.12254243 7 37 C6.01 37.99 6.01 37.99 5 39 C5 39.99 5 40.98 5 42 C3.75108386 42.48198463 2.50081192 42.96045677 1.25 43.4375 C0.55390625 43.70433594 -0.1421875 43.97117187 -0.859375 44.24609375 C-2.89059003 44.96146693 -4.9035291 45.51365652 -7 46 C-7 46.66 -7 47.32 -7 48 C-9.475 48.495 -9.475 48.495 -12 49 C-12.495 46.03 -12.495 46.03 -13 43 C-16.7952131 44.49097658 -18.61042731 46.75700849 -21 50 C-19.02 50 -17.04 50 -15 50 C-16.51934706 53.03869411 -18.98004772 53.64410306 -22 55 C-22.66 55 -23.32 55 -24 55 C-24.66 57.31 -25.32 59.62 -26 62 C-23.03 61.34 -20.06 60.68 -17 60 C-19.07940929 62.07940929 -20.04876998 62.50454891 -22.77197266 63.37280273 C-23.54683014 63.62323837 -24.32168762 63.87367401 -25.12002563 64.13169861 C-25.9595578 64.39632401 -26.79908997 64.6609494 -27.6640625 64.93359375 C-28.53010101 65.21219742 -29.39613953 65.49080109 -30.28842163 65.77784729 C-33.06546926 66.67017214 -35.84506988 67.5542004 -38.625 68.4375 C-41.38302733 69.31865041 -44.14047618 70.20155847 -46.89730835 71.08644104 C-48.61283913 71.6365742 -50.32912837 72.18434977 -52.04629517 72.72935486 C-55.87507031 73.95254308 -59.65447086 75.22985516 -63.40380859 76.67993164 C-66.62107647 77.86090702 -68.63618039 78.31535809 -72 78 C-73.38103212 64.25787791 -73.38103212 64.25787791 -70.03125 58.78125 C-67.78900166 56.36870432 -65.46940576 54.17531774 -63 52 C-62.67 51.34 -62.34 50.68 -62 50 C-61.34 50 -60.68 50 -60 50 C-60 49.34 -60 48.68 -60 48 C-58.1015625 46.2734375 -58.1015625 46.2734375 -55.625 44.375 C-54.81289062 43.74335938 -54.00078125 43.11171875 -53.1640625 42.4609375 C-51 41 -51 41 -49 41 C-49 40.34 -49 39.68 -49 39 C-47.35 38.34 -45.7 37.68 -44 37 C-44 36.34 -44 35.68 -44 35 C-42.1015625 33.2734375 -42.1015625 33.2734375 -39.625 31.375 C-38.81289062 30.74335938 -38.00078125 30.11171875 -37.1640625 29.4609375 C-35 28 -35 28 -33 28 C-32.505 26.515 -32.505 26.515 -32 25 C-30.21484375 23.38671875 -30.21484375 23.38671875 -27.9375 21.6875 C-27.13054687 21.08164062 -26.32359375 20.47578125 -25.4921875 19.8515625 C-24.66976562 19.24054688 -23.84734375 18.62953125 -23 18 C-22.23945313 17.40960938 -21.47890625 16.81921875 -20.6953125 16.2109375 C-19.99148437 15.66695313 -19.28765625 15.12296875 -18.5625 14.5625 C-17.92441406 14.06878906 -17.28632813 13.57507813 -16.62890625 13.06640625 C-15 12 -15 12 -13 12 C-13 11.34 -13 10.68 -13 10 C-10.8828125 8.2734375 -10.8828125 8.2734375 -8.125 6.375 C-7.22007812 5.74335938 -6.31515625 5.11171875 -5.3828125 4.4609375 C-3 3 -3 3 -1 3 C-0.67 2.01 -0.34 1.02 0 0 Z " fill="#565A62" transform="translate(228,422)"/>
<path d="M0 0 C0.33 0 0.66 0 1 0 C1.03738281 1.21042969 1.07476562 2.42085938 1.11328125 3.66796875 C1.58118268 7.32984104 1.95311155 7.95077743 4.66796875 10.80078125 C5.82444828 11.66093803 6.99896848 12.49720409 8.1875 13.3125 C9.4730201 14.25731764 10.75816616 15.20264439 12.04296875 16.1484375 C13.03176025 16.85758301 13.03176025 16.85758301 14.04052734 17.58105469 C17.08871149 19.78838664 20.04456701 22.10821451 23 24.4375 C23.57355225 24.88625488 24.14710449 25.33500977 24.73803711 25.79736328 C29.61570579 29.63649018 34.32432883 33.65652377 39.01806641 37.71704102 C45.97157905 43.72628594 53.09685725 49.46378438 60.6015625 54.7734375 C61.06304687 55.17820312 61.52453125 55.58296875 62 56 C62 56.66 62 57.32 62 58 C62.66 58 63.32 58 64 58 C65.7265625 59.6796875 65.7265625 59.6796875 67.625 61.875 C68.25664062 62.59429687 68.88828125 63.31359375 69.5390625 64.0546875 C71 66 71 66 71 68 C71.66 68 72.32 68 73 68 C74.59412284 71.18824568 74.10174735 74.62896662 74.0625 78.125 C74.05798828 78.87910156 74.05347656 79.63320313 74.04882812 80.41015625 C74.03703499 82.27347127 74.01909942 84.13674555 74 86 C69.23974086 85.42834741 64.94701652 84.4748238 60.41015625 82.93359375 C59.21455078 82.53076172 58.01894531 82.12792969 56.78710938 81.71289062 C55.55798828 81.29201172 54.32886719 80.87113281 53.0625 80.4375 C51.79380883 80.00790487 50.52493004 79.57886341 49.25585938 79.15039062 C46.16868688 78.10568206 43.08352965 77.05540218 40 76 C40.8971875 75.814375 40.8971875 75.814375 41.8125 75.625 C44.26231348 75.04524015 44.26231348 75.04524015 47 73 C46.67 71.35 46.34 69.7 46 68 C45.38125 67.896875 44.7625 67.79375 44.125 67.6875 C42 67 42 67 40 64 C39.01 63.67 38.02 63.34 37 63 C37.33 64.65 37.66 66.3 38 68 C34.7 67.01 31.4 66.02 28 65 C28 64.34 28 63.68 28 63 C26.02 62.34 24.04 61.68 22 61 C22.33 59.35 22.66 57.7 23 56 C20.36 54.02 17.72 52.04 15 50 C15 50.66 15 51.32 15 52 C14.34 52 13.68 52 13 52 C13 52.66 13 53.32 13 54 C7.69645495 55.35672083 7.69645495 55.35672083 4.4375 53.6875 C3.633125 53.130625 2.82875 52.57375 2 52 C0.34630643 51.30177383 -1.31727014 50.62501395 -3 50 C-3 49.34 -3 48.68 -3 48 C-3.99 48 -4.98 48 -6 48 C-5.04715488 36.40676597 -3.936509 24.84907203 -2.4375 13.3125 C-2.31076904 12.32757568 -2.18403809 11.34265137 -2.0534668 10.32788086 C-1.12905495 3.38716485 -1.12905495 3.38716485 0 0 Z " fill="#585C64" transform="translate(270,414)"/>
<path d="M0 0 C1.43931117 0.45261358 2.87638999 0.91232979 4.3125 1.375 C5.11300781 1.63023437 5.91351563 1.88546875 6.73828125 2.1484375 C9 3 9 3 12 5 C15.12521833 5.16699232 15.12521833 5.16699232 18 5 C18 4.34 18 3.68 18 3 C18.66 3 19.32 3 20 3 C20 2.34 20 1.68 20 1 C23.43595166 2.52708963 26.11912454 4.59927045 29 7 C28.67 8.65 28.34 10.3 28 12 C29.65 12.66 31.3 13.32 33 14 C33 14.66 33 15.32 33 16 C33.7425 16.144375 34.485 16.28875 35.25 16.4375 C37.52027739 16.90187492 39.75759479 17.41863569 42 18 C42 16.68 42 15.36 42 14 C43.875 14.3125 43.875 14.3125 46 15 C46.66 15.99 47.32 16.98 48 18 C48.99 18.33 49.98 18.66 51 19 C51 19.66 51 20.32 51 21 C51.66 21.33 52.32 21.66 53 22 C53 22.99 53 23.98 53 25 C48.92468985 27.40992721 46.71804153 26.91585444 42.24169922 25.890625 C35.76119123 24.11016912 29.39557041 21.98141771 23.02954102 19.83203125 C20.54639456 18.9945683 18.05964041 18.16855869 15.57226562 17.34375 C13.98675491 16.81316968 12.40146029 16.28194304 10.81640625 15.75 C10.0758046 15.50411133 9.33520294 15.25822266 8.57215881 15.00488281 C5.39035629 13.92473534 2.81341392 12.87560928 0 11 C-0.29296875 8.3984375 -0.29296875 8.3984375 -0.1875 5.375 C-0.16042969 4.37210937 -0.13335937 3.36921875 -0.10546875 2.3359375 C-0.07066406 1.56507813 -0.03585937 0.79421875 0 0 Z " fill="#282A2D" transform="translate(265,463)"/>
<path d="M0 0 C4.95 0 9.9 0 15 0 C15 9.24 15 18.48 15 28 C12.36 27.34 9.72 26.68 7 26 C7 25.34 7 24.68 7 24 C6.195625 23.731875 5.39125 23.46375 4.5625 23.1875 C3.716875 22.795625 2.87125 22.40375 2 22 C1.67 21.01 1.34 20.02 1 19 C0.01 18.67 -0.98 18.34 -2 18 C-1.8590651 15.56212615 -1.71245458 13.12482147 -1.5625 10.6875 C-1.52318359 9.99720703 -1.48386719 9.30691406 -1.44335938 8.59570312 C-1.25072585 5.52838465 -0.97677283 2.93031848 0 0 Z " fill="#494E54" transform="translate(325,190)"/>
<path d="M0 0 C4.95 0 9.9 0 15 0 C16.59285922 6.3714369 17.09185874 12.53177356 16 19 C13.00020166 22.96626057 9.23823353 24.92516483 4.828125 27.04296875 C2.82554608 27.9754515 2.82554608 27.9754515 1 30 C-0.03974499 26.58934861 -0.11508506 23.47735158 -0.09765625 19.921875 C-0.09443359 18.76171875 -0.09121094 17.6015625 -0.08789062 16.40625 C-0.07951172 15.1996875 -0.07113281 13.993125 -0.0625 12.75 C-0.05798828 11.52796875 -0.05347656 10.3059375 -0.04882812 9.046875 C-0.03704826 6.03122908 -0.01911301 3.01560835 0 0 Z " fill="#44484E" transform="translate(101,223)"/>
<path d="M0 0 C0.99 0.33 1.98 0.66 3 1 C3.33 2.65 3.66 4.3 4 6 C5.32 6 6.64 6 8 6 C8 5.34 8 4.68 8 4 C12.77357872 1.28608722 16.34388537 -0.56561146 22 0 C23.125 6.625 23.125 6.625 22 10 C21.01 10 20.02 10 19 10 C19 10.66 19 11.32 19 12 C9.0245473 15.79903468 -0.31950025 18.92266263 -11 20 C-9.98130841 14.26168224 -9.98130841 14.26168224 -7 12 C-5.02379014 10.95377125 -3.0262871 9.94560065 -1 9 C-2.65 8.67 -4.3 8.34 -6 8 C-4.55746343 4.63408134 -2.66735273 2.48952921 0 0 Z " fill="#1F2122" transform="translate(213,464)"/>
<path d="M0 0 C4.95 0 9.9 0 15 0 C15.33 8.91 15.66 17.82 16 27 C11.91014616 25.63671539 8.87691685 24.55108401 5.25 22.5 C4.49203125 22.0771875 3.7340625 21.654375 2.953125 21.21875 C1 20 1 20 -1 18 C-1.65653817 12.0132621 -0.87803974 5.92676823 0 0 Z " fill="#47494F" transform="translate(384,223)"/>
<path d="M0 0 C1.5 1.125 1.5 1.125 3 3 C3.3125 6.0625 3.3125 6.0625 3 9 C2.34 9.66 1.68 10.32 1 11 C0.83202164 13.20043513 0.83202164 13.20043513 1.05859375 15.734375 C1.14270508 17.18650391 1.14270508 17.18650391 1.22851562 18.66796875 C1.29748047 19.68503906 1.36644531 20.70210937 1.4375 21.75 C1.86081527 28.06200781 2.06341517 34.18000404 1.53515625 40.4921875 C0.69602767 50.66530929 0.9421722 60.84637128 1.02050781 71.04492188 C1.09987777 82.41571283 0.89397505 93.65968707 0 105 C-0.33 105 -0.66 105 -1 105 C-1 98.4 -1 91.8 -1 85 C-13.98860309 87.01204115 -13.98860309 87.01204115 -26.75 90.0625 C-35.30872094 92.46446362 -44.07551727 94.19905909 -53 94 C-52.01 92.68 -51.02 91.36 -50 90 C-49.01 90.33 -48.02 90.66 -47 91 C-44.7732913 90.66633592 -44.7732913 90.66633592 -42.34375 89.9609375 C-41.41216064 89.71230957 -40.48057129 89.46368164 -39.52075195 89.20751953 C-38.02547974 88.79542236 -38.02547974 88.79542236 -36.5 88.375 C-35.4793042 88.10155762 -34.4586084 87.82811523 -33.40698242 87.54638672 C-30.26922896 86.70513853 -27.13442977 85.85353924 -24 85 C-21.26400731 84.25876009 -18.52745501 83.51992264 -15.7890625 82.78759766 C-14.1717958 82.35490229 -12.55583414 81.91729086 -10.94140625 81.47412109 C-7.47194482 80.54293364 -4.62051947 80 -1 80 C-1 55.91 -1 31.82 -1 7 C-1.66 7 -2.32 7 -3 7 C-2.67 6.01 -2.34 5.02 -2 4 C-1.34 4 -0.68 4 0 4 C0 2.68 0 1.36 0 0 Z " fill="#3E3E36" transform="translate(229,175)"/>
<path d="M0 0 C4.95 0 9.9 0 15 0 C15 2.64 15 5.28 15 8 C14.01 8.495 14.01 8.495 13 9 C13 6.69 13 4.38 13 2 C11.02 2 9.04 2 7 2 C7.33 2.515625 7.66 3.03125 8 3.5625 C9.32010877 6.78026512 9.13242105 9.5570528 9 13 C8.01 13 7.02 13 6 13 C6 15.97 6 18.94 6 22 C6.94875 21.505 7.8975 21.01 8.875 20.5 C12 19 12 19 14 19 C14.33 15.7 14.66 12.4 15 9 C15.33 9 15.66 9 16 9 C16 11.64 16 14.28 16 17 C16.66 17.33 17.32 17.66 18 18 C18.33 18.66 18.66 19.32 19 20 C14.54207439 22.76391388 11.28723418 24.42530063 6 25 C3.27497035 25.37722015 3.27497035 25.37722015 1 26 C0.67 26.66 0.34 27.32 0 28 C-1.02170487 18.40327208 -1.36845584 9.57919087 0 0 Z " fill="#3C3F41" transform="translate(160,190)"/>
<path d="M0 0 C0 6.6 0 13.2 0 20 C0.99 20.33 1.98 20.66 3 21 C1.54293274 21.50367757 0.08429904 22.00282556 -1.375 22.5 C-2.18710938 22.7784375 -2.99921875 23.056875 -3.8359375 23.34375 C-6 24 -6 24 -8 24 C-8 16.74 -8 9.48 -8 2 C-10.64 2.66 -13.28 3.32 -16 4 C-17.32 3.67 -18.64 3.34 -20 3 C-13.21491418 0.45559282 -7.21139198 0 0 0 Z " fill="#2D2E31" transform="translate(228,260)"/>
<path d="M0 0 C5.13967832 0.69152036 9.9940683 1.68264955 15 3 C11.98968256 3.93423645 11.13349732 4.04449911 8 3 C8 10.26 8 17.52 8 25 C1 24 1 24 0 23 C-0.08713831 21.29227642 -0.10700007 19.58101351 -0.09765625 17.87109375 C-0.09443359 16.83662109 -0.09121094 15.80214844 -0.08789062 14.73632812 C-0.07951172 13.64771484 -0.07113281 12.55910156 -0.0625 11.4375 C-0.05798828 10.34501953 -0.05347656 9.25253906 -0.04882812 8.12695312 C-0.03699826 5.41791505 -0.02051543 2.70898401 0 0 Z " fill="#282A2D" transform="translate(272,259)"/>
<path d="M0 0 C5.61 0 11.22 0 17 0 C17.66 5.28 18.32 10.56 19 16 C19.99 16 20.98 16 22 16 C21.67 16.66 21.34 17.32 21 18 C22.65 17.67 24.3 17.34 26 17 C26 17.66 26 18.32 26 19 C23.03 19.33 20.06 19.66 17 20 C16.67 18.68 16.34 17.36 16 16 C15.95875 16.598125 15.9175 17.19625 15.875 17.8125 C15 20 15 20 12.0625 21.75 C9 23 9 23 7 23 C7 20.03 7 17.06 7 14 C7.99 14 8.98 14 10 14 C9.34 10.37 8.68 6.74 8 3 C9.98 3 11.96 3 14 3 C14.33 4.98 14.66 6.96 15 9 C15.33 6.36 15.66 3.72 16 1 C11.05 1 6.1 1 1 1 C1 3.31 1 5.62 1 8 C0.67 8 0.34 8 0 8 C0 5.36 0 2.72 0 0 Z " fill="#74767B" transform="translate(159,189)"/>
<path d="M0 0 C-0.94340956 2.35852391 -1.55256965 3.72373428 -3.74609375 5.078125 C-6.29714019 6.12153394 -8.58153492 6.50482769 -11.3125 6.875 C-16.1193248 7.61091728 -20.69443598 8.68221868 -25.375 10 C-34.0656564 12.39618921 -42.94676496 14.20193089 -52 14 C-51.01 12.68 -50.02 11.36 -49 10 C-48.01 10.33 -47.02 10.66 -46 11 C-43.7732913 10.66633592 -43.7732913 10.66633592 -41.34375 9.9609375 C-40.41216064 9.71230957 -39.48057129 9.46368164 -38.52075195 9.20751953 C-37.52390381 8.93278809 -36.52705566 8.65805664 -35.5 8.375 C-34.4793042 8.10155762 -33.4586084 7.82811523 -32.40698242 7.54638672 C-29.26922896 6.70513853 -26.13442977 5.85353924 -23 5 C-20.26400731 4.25876009 -17.52745501 3.51992264 -14.7890625 2.78759766 C-13.1717958 2.35490229 -11.55583414 1.91729086 -9.94140625 1.47412109 C-6.47194482 0.54293364 -3.62051947 0 0 0 Z " fill="#40444A" transform="translate(228,255)"/>
<path d="M0 0 C4.95 0 9.9 0 15 0 C15 8.91 15 17.82 15 27 C13.68 26.34 12.36 25.68 11 25 C11 21.88494815 11.24012346 18.85408086 11.5 15.75 C11.86551618 11.1424369 12.10742184 6.61913914 12 2 C9.03 2 6.06 2 3 2 C3 6.95 3 11.9 3 17 C1.35 17.33 -0.3 17.66 -2 18 C-1.8590651 15.56212615 -1.71245458 13.12482147 -1.5625 10.6875 C-1.52318359 9.99720703 -1.48386719 9.30691406 -1.44335938 8.59570312 C-1.25072585 5.52838465 -0.97677283 2.93031848 0 0 Z " fill="#303135" transform="translate(325,190)"/>
<path d="M0 0 C-0.33 0.66 -0.66 1.32 -1 2 C-0.34 2 0.32 2 1 2 C0.5 3.8125 0.5 3.8125 -1 6 C-2.97631776 6.90492304 -4.94666879 7.56525921 -7.02734375 8.19140625 C-9.07267846 8.87254403 -9.07267846 8.87254403 -10.41796875 10.4921875 C-12.5603132 12.5340269 -14.51558936 12.87702485 -17.375 13.5625 C-20.24852692 14.26307061 -22.93140593 14.97226196 -25.67578125 16.08203125 C-28.27077195 17.10694354 -30.23518654 17.15798934 -33 17 C-31.65985455 14.3197091 -30.26023466 14.01259032 -27.5625 12.75 C-23.9105083 10.98122909 -20.40464921 9.10854842 -16.9375 7 C-16.12023437 6.50371094 -15.30296875 6.00742188 -14.4609375 5.49609375 C-13.64882812 5.00238281 -12.83671875 4.50867188 -12 4 C-10.36164817 3.008366 -8.71612385 2.0284518 -7.0625 1.0625 C-6.35222656 0.64097656 -5.64195312 0.21945313 -4.91015625 -0.21484375 C-3 -1 -3 -1 0 0 Z " fill="#40454C" transform="translate(227,180)"/>
<path d="M0 0 C0 1.32 0 2.64 0 4 C2.64 3.34 5.28 2.68 8 2 C7.34 3.98 6.68 5.96 6 8 C5.34 8 4.68 8 4 8 C4 8.66 4 9.32 4 10 C-9.49983121 14.76595026 -9.49983121 14.76595026 -15 15 C-15.99 14.34 -16.98 13.68 -18 13 C-17.37351563 12.68546875 -16.74703125 12.3709375 -16.1015625 12.046875 C-15.28429687 11.61890625 -14.46703125 11.1909375 -13.625 10.75 C-12.40683594 10.12351562 -12.40683594 10.12351562 -11.1640625 9.484375 C-8.79198795 7.85732025 -8.02905196 6.64613361 -7 4 C-6.34 4 -5.68 4 -5 4 C-5 3.34 -5 2.68 -5 2 C-2 0 -2 0 0 0 Z " fill="#414345" transform="translate(192,478)"/>
<path d="M0 0 C4.95 0 9.9 0 15 0 C15 8.25 15 16.5 15 25 C14.01 25 13.02 25 12 25 C12.0721875 24.42894531 12.144375 23.85789063 12.21875 23.26953125 C13.03217777 16.16333588 13.10081943 9.14697766 13 2 C10.03 2 7.06 2 4 2 C4 7.94 4 13.88 4 20 C0 19 0 19 -1 18 C-1.40182396 11.93718558 -0.88789523 5.99329281 0 0 Z " fill="#3C3E3E" transform="translate(384,223)"/>
<path d="M0 0 C0.33 0.99 0.66 1.98 1 3 C2.65 3 4.3 3 6 3 C6 2.34 6 1.68 6 1 C6.66 1 7.32 1 8 1 C8 1.66 8 2.32 8 3 C8.89138672 3.05716187 8.89138672 3.05716187 9.80078125 3.11547852 C16.47292086 3.64922374 22.59249937 5.04251577 29 6.9375 C30.40958984 7.33485352 30.40958984 7.33485352 31.84765625 7.74023438 C38.73791318 9.73791318 38.73791318 9.73791318 41 12 C30.47330564 11.95959042 20.94243951 9.31407853 10.859375 6.56640625 C2.96994437 4.42219961 -5.00462448 2.69689618 -13 1 C-13 0.67 -13 0.34 -13 0 C-8.37078475 -1.0161692 -4.65537393 -0.83796731 0 0 Z " fill="#2D3036" transform="translate(313,265)"/>
<path d="M0 0 C6.8637946 0.65998025 13.3393552 2.24920194 20 4 C20.70898438 4.16757812 21.41796875 4.33515625 22.1484375 4.5078125 C24 5 24 5 27.375 6.375 C37.41681345 10.19424259 48.41489151 11.50542488 59 13 C59.495 14.485 59.495 14.485 60 16 C66.93 16.495 66.93 16.495 74 17 C74 17.66 74 18.32 74 19 C74.66 19.33 75.32 19.66 76 20 C69.46674673 19.40007462 63.29947989 18.26820822 56.9375 16.6875 C55.56005615 16.35093384 55.56005615 16.35093384 54.15478516 16.00756836 C52.29938426 15.55331949 50.44455327 15.09673574 48.59033203 14.63769531 C46.31162167 14.07671591 44.030245 13.5304732 41.74609375 12.9921875 C33.62509295 11.04183615 25.7026871 8.71460969 17.75610352 6.15405273 C11.88082145 4.26133217 5.98078565 2.53215632 0 1 C0 0.67 0 0.34 0 0 Z " fill="#3C4047" transform="translate(354,277)"/>
<path d="M0 0 C6.01618347 1.88005734 11.42532955 4.06062831 17 7 C15.68 9.31 14.36 11.62 13 14 C11.0625 13.625 11.0625 13.625 9 13 C8.67 12.34 8.34 11.68 8 11 C6.576875 11.2784375 6.576875 11.2784375 5.125 11.5625 C2 12 2 12 0 11 C0 7.37 0 3.74 0 0 Z " fill="#121415" transform="translate(265,463)"/>
<path d="M0 0 C2.60334924 2.71182212 2.99456691 3.89133813 3.1875 7.75 C3.125625 8.8225 3.06375 9.895 3 11 C2.01 11 1.02 11 0 11 C0 13.97 0 16.94 0 20 C0.94875 19.505 1.8975 19.01 2.875 18.5 C6 17 6 17 8 17 C8.33 13.7 8.66 10.4 9 7 C9.33 7 9.66 7 10 7 C10 9.64 10 12.28 10 15 C10.66 15.33 11.32 15.66 12 16 C12.33 16.66 12.66 17.32 13 18 C8.28216236 20.98475442 4.72534569 22.7797944 -1 23 C-1.99 22.34 -2.98 21.68 -4 21 C-2.70020121 2.70020121 -2.70020121 2.70020121 0 0 Z " fill="#3F434A" transform="translate(166,192)"/>
<path d="M0 0 C-2.53537568 2.53537568 -4.3978727 2.71785889 -7.875 3.5 C-12.00450065 4.39100749 -12.00450065 4.39100749 -15.88745117 5.97485352 C-18.17274401 7.08382666 -20.26726819 7.63841326 -22.74609375 8.18359375 C-23.6602002 8.38774902 -24.57430664 8.5919043 -25.51611328 8.80224609 C-26.4801709 9.01187988 -27.44422852 9.22151367 -28.4375 9.4375 C-30.423275 9.87585877 -32.40895252 10.31465932 -34.39453125 10.75390625 C-35.35568848 10.96547363 -36.3168457 11.17704102 -37.30712891 11.39501953 C-39.61223752 11.91288527 -41.90675274 12.45665027 -44.19921875 13.02734375 C-45.32972656 13.30707031 -46.46023437 13.58679688 -47.625 13.875 C-48.58664063 14.11992187 -49.54828125 14.36484375 -50.5390625 14.6171875 C-53.06314327 15.00982229 -54.60459299 14.82096109 -57 14 C-55.31368008 13.37182296 -53.62587549 12.74763107 -51.9375 12.125 C-50.52791016 11.60292969 -50.52791016 11.60292969 -49.08984375 11.0703125 C-42.45011476 8.77033052 -35.87095944 7.35099822 -28.9609375 6.23242188 C-24.28903823 5.41619237 -20.3561499 3.93948723 -16 2 C-10.71094094 0.54764458 -5.49799447 -0.28936813 0 0 Z " fill="#3E4148" transform="translate(136,280)"/>
<path d="M0 0 C4.57559385 1.25828831 8.09934317 3.20207306 12.03125 5.7578125 C14.59311964 7.37423025 17.26590252 8.7013037 20 10 C20 6.7 20 3.4 20 0 C20.33 0 20.66 0 21 0 C20.97679687 0.91523438 20.95359375 1.83046875 20.9296875 2.7734375 C20.91164063 3.96195313 20.89359375 5.15046875 20.875 6.375 C20.85179687 7.55835938 20.82859375 8.74171875 20.8046875 9.9609375 C20.67133771 13.11153817 20.67133771 13.11153817 23 15 C18.31007994 14.41731296 14.5322407 13.10824973 10.25 11.125 C9.12078125 10.61195313 7.9915625 10.09890625 6.828125 9.5703125 C4 8 4 8 2 5 C1.01 4.34 0.02 3.68 -1 3 C-0.67 2.01 -0.34 1.02 0 0 Z " fill="#5F6368" transform="translate(303,195)"/>
<path d="M0 0 C2.31 0 4.62 0 7 0 C5.48065294 3.03869411 3.01995228 3.64410306 0 5 C-0.66 5 -1.32 5 -2 5 C-2.66 7.31 -3.32 9.62 -4 12 C-1.03 11.34 1.94 10.68 5 10 C2.83900627 12.16099373 1.4789582 12.71563716 -1.375 13.6875 C-2.53128906 14.09548828 -2.53128906 14.09548828 -3.7109375 14.51171875 C-6.20055308 15.04278009 -7.61553018 14.81115526 -10 14 C-9.34 14 -8.68 14 -8 14 C-7.67 12.35 -7.34 10.7 -7 9 C-9.31 9.33 -11.62 9.66 -14 10 C-14 8.68 -14 7.36 -14 6 C-14.66 5.67 -15.32 5.34 -16 5 C-15.01 5 -14.02 5 -13 5 C-12.34 5.66 -11.68 6.32 -11 7 C-10.236875 6.319375 -9.47375 5.63875 -8.6875 4.9375 C-7.800625 4.298125 -6.91375 3.65875 -6 3 C-5.01 3.33 -4.02 3.66 -3 4 C-3 3.34 -3 2.68 -3 2 C-2.01 2 -1.02 2 0 2 C0 1.34 0 0.68 0 0 Z " fill="#404449" transform="translate(206,472)"/>
<path d="M0 0 C5.625 -0.25 5.625 -0.25 9 2 C10.71383721 2.58837246 12.44519841 3.12719954 14.1875 3.625 C15.53908203 4.01558594 15.53908203 4.01558594 16.91796875 4.4140625 C17.60503906 4.60742188 18.29210937 4.80078125 19 5 C19 5.66 19 6.32 19 7 C19.99 7.66 20.98 8.32 22 9 C14.21038876 9.46530864 7.47321608 8.15721701 0 6 C0 4.02 0 2.04 0 0 Z " fill="#1B1C1F" transform="translate(447,303)"/>
<path d="M0 0 C4.95 0 9.9 0 15 0 C15 2.31 15 4.62 15 7 C14.67 7 14.34 7 14 7 C14 5.35 14 3.7 14 2 C11.36 2 8.72 2 6 2 C3.68822069 9.55181241 3.3876613 17.16516106 3 25 C2.01 25.33 1.02 25.66 0 26 C0 17.42 0 8.84 0 0 Z " fill="#36393B" transform="translate(101,223)"/>
<path d="M0 0 C-0.99 0 -1.98 0 -3 0 C-3 2.31 -3 4.62 -3 7 C-7.76052962 8.97387813 -10.96488101 9.0070238 -16 8 C-17 5 -17 5 -17 2 C-14.91952703 1.4678559 -12.83547707 0.94968214 -10.75 0.4375 C-9.58984375 0.14746094 -8.4296875 -0.14257812 -7.234375 -0.44140625 C-4.27909017 -0.95179964 -2.75565899 -1.02996165 0 0 Z " fill="#2F3136" transform="translate(65,300)"/>
<path d="M0 0 C1.4800841 0.11362262 2.95910074 0.24122908 4.4375 0.375 C5.26121094 0.44460938 6.08492188 0.51421875 6.93359375 0.5859375 C7.95646484 0.79089844 7.95646484 0.79089844 9 1 C10.43088528 3.86177057 9.59991697 5.93375773 9 9 C10.85625 9.185625 10.85625 9.185625 12.75 9.375 C15.92393362 9.69239336 18.20625977 10.4521169 21 12 C12.55467195 11.24595285 4.31258777 9.62171958 -4 8 C-2.68 7.67 -1.36 7.34 0 7 C0 4.69 0 2.38 0 0 Z " fill="#595A5D" transform="translate(438,300)"/>
<path d="M0 0 C1.65 0 3.3 0 5 0 C6.05399717 3.16199151 6.23445913 5.61460186 6.3125 8.9375 C6.34988281 9.97777344 6.38726562 11.01804688 6.42578125 12.08984375 C5.89862648 15.69287407 4.88400078 16.84349491 2 19 C1.01 19 0.02 19 -1 19 C-0.9278125 17.79601562 -0.855625 16.59203125 -0.78125 15.3515625 C-0.68746911 13.77604351 -0.5937208 12.20052257 -0.5 10.625 C-0.45230469 9.8309375 -0.40460938 9.036875 -0.35546875 8.21875 C-0.09644667 4.11223696 -0.09644667 4.11223696 0 0 Z " fill="#5F636C" transform="translate(108,225)"/>
<path d="M0 0 C0.33 0 0.66 0 1 0 C1 11.88 1 23.76 1 36 C0.67 36 0.34 36 0 36 C-0.66 30.39 -1.32 24.78 -2 19 C-3.32 18.67 -4.64 18.34 -6 18 C-6.33 17.34 -6.66 16.68 -7 16 C-7.66 16 -8.32 16 -9 16 C-9 15.01 -9 14.02 -9 13 C-3.25 13.875 -3.25 13.875 -1 15 C-1.01160156 14.00097656 -1.02320313 13.00195312 -1.03515625 11.97265625 C-1.04417969 10.68230469 -1.05320312 9.39195312 -1.0625 8.0625 C-1.07410156 6.77472656 -1.08570313 5.48695313 -1.09765625 4.16015625 C-1 1 -1 1 0 0 Z " fill="#53565A" transform="translate(492,300)"/>
<path d="M0 0 C1.875 0.3125 1.875 0.3125 4 1 C4.66 1.99 5.32 2.98 6 4 C6.99 4.33 7.98 4.66 9 5 C9 5.66 9 6.32 9 7 C9.66 7.33 10.32 7.66 11 8 C11 8.99 11 9.98 11 11 C9.5 12.1875 9.5 12.1875 7 13 C4.21175762 12.27101296 1.62334908 11.1843275 -1 10 C-0.34 9.67 0.32 9.34 1 9 C0.649375 8.443125 0.29875 7.88625 -0.0625 7.3125 C-1.21845993 4.46113217 -0.80967438 2.91482778 0 0 Z " fill="#2F3239" transform="translate(307,477)"/>
<path d="M0 0 C0 0.99 0 1.98 0 3 C-3.24027843 4.84494322 -6.20447945 5.53659594 -9.875 6.125 C-11.38707031 6.37636719 -11.38707031 6.37636719 -12.9296875 6.6328125 C-15.98561748 6.99827995 -18.92557891 7.06424163 -22 7 C-21.34 6.67 -20.68 6.34 -20 6 C-20 5.01 -20 4.02 -20 3 C-17.41932437 2.30081695 -14.83627153 1.61538951 -12.25 0.9375 C-11.15558594 0.63875977 -11.15558594 0.63875977 -10.0390625 0.33398438 C-6.28968956 -0.63744407 -3.69725762 -1.15449387 0 0 Z " fill="#17181B" transform="translate(47,306)"/>
<path d="M0 0 C3.625 0.25 3.625 0.25 5.5625 1.5 C6.625 3.25 6.625 3.25 6.625 7.25 C8.275 7.25 9.925 7.25 11.625 7.25 C11.625 7.91 11.625 8.57 11.625 9.25 C12.285 9.25 12.945 9.25 13.625 9.25 C13.625 9.91 13.625 10.57 13.625 11.25 C10.985 10.59 8.345 9.93 5.625 9.25 C5.625 8.59 5.625 7.93 5.625 7.25 C-0.03255469 5.44003784 -5.4620696 3.89270983 -11.375 3.25 C-11.375 2.59 -11.375 1.93 -11.375 1.25 C-10.240625 1.270625 -9.10625 1.29125 -7.9375 1.3125 C-3.94764356 1.24250252 -3.91238294 0.28980614 0 0 Z " fill="#41464C" transform="translate(329.375,487.75)"/>
<path d="M0 0 C5.94 0.99 5.94 0.99 12 2 C12 2.66 12 3.32 12 4 C15.3 4.33 18.6 4.66 22 5 C22 6.32 22 7.64 22 9 C16.87475334 8.36684209 12.03469229 7.31839344 7.0625 5.9375 C6.37865234 5.75123047 5.69480469 5.56496094 4.99023438 5.37304688 C3.32579707 4.91910943 1.66274688 4.46009084 0 4 C0 2.68 0 1.36 0 0 Z " fill="#3A3D43" transform="translate(272,255)"/>
<path d="M0 0 C0.33 0 0.66 0 1 0 C1 13.86 1 27.72 1 42 C-0.485 42.495 -0.485 42.495 -2 43 C-2.04487549 42.40461426 -2.08975098 41.80922852 -2.13598633 41.19580078 C-2.34701735 38.50416974 -2.57948074 35.81481282 -2.8125 33.125 C-2.91788086 31.71927734 -2.91788086 31.71927734 -3.02539062 30.28515625 C-3.14624023 28.94130859 -3.14624023 28.94130859 -3.26953125 27.5703125 C-3.37164917 26.32918701 -3.37164917 26.32918701 -3.47583008 25.06298828 C-3.85280761 22.61436414 -3.85280761 22.61436414 -7 21 C-5.35 21.33 -3.7 21.66 -2 22 C-1.67 25.63 -1.34 29.26 -1 33 C-0.67 22.11 -0.34 11.22 0 0 Z " fill="#DADCDE" transform="translate(493,297)"/>
<path d="M0 0 C1.32 0 2.64 0 4 0 C4.02712351 2.39591038 4.0468982 4.79150957 4.0625 7.1875 C4.07087891 7.86103516 4.07925781 8.53457031 4.08789062 9.22851562 C4.10606538 12.95434131 3.89299392 16.3788042 3 20 C1.68 19.67 0.36 19.34 -1 19 C-0.42978066 13.6496441 0.20734361 8.32212148 1 3 C0.34 3 -0.32 3 -1 3 C-0.67 2.01 -0.34 1.02 0 0 Z " fill="#5B5F65" transform="translate(332,192)"/>
<path d="M0 0 C0 0.66 0 1.32 0 2 C2.97 2.495 2.97 2.495 6 3 C6 3.99 6 4.98 6 6 C7.65 6.33 9.3 6.66 11 7 C7.09547658 8.30150781 3.79539691 7.62254053 -0.1875 7.0625 C-0.93708984 6.96259766 -1.68667969 6.86269531 -2.45898438 6.75976562 C-4.30681482 6.51260359 -6.1535266 6.25710389 -8 6 C-7.01 5.34 -6.02 4.68 -5 4 C-5.99 3.01 -6.98 2.02 -8 1 C-4.93251126 -0.86240388 -3.40254489 -1.2151946 0 0 Z " fill="#404347" transform="translate(471,307)"/>
<path d="M0 0 C1.32 0 2.64 0 4 0 C4.22307542 2.2277397 4.42788178 4.45731364 4.625 6.6875 C4.74101562 7.92886719 4.85703125 9.17023438 4.9765625 10.44921875 C4.99983595 13.97514623 4.81854093 15.99327128 3 19 C1.68 19.33 0.36 19.66 -1 20 C-1 17.03 -1 14.06 -1 11 C-0.01 11 0.98 11 2 11 C1.34 7.37 0.68 3.74 0 0 Z " fill="#5D6269" transform="translate(167,192)"/>
<path d="M0 0 C5.61 0 11.22 0 17 0 C17.16912828 2.85403975 17.33537163 5.70820002 17.5 8.5625 C17.54769531 9.36236328 17.59539062 10.16222656 17.64453125 10.98632812 C17.8538843 14.65000658 17.99449393 18.22919027 17.90625 21.90234375 C17.73166902 25.17088587 17.73166902 25.17088587 20 28 C22.05003955 29.19232613 22.05003955 29.19232613 24 30 C22 31 22 31 18 31 C17.01 30.67 16.02 30.34 15 30 C15.33 20.43 15.66 10.86 16 1 C11.05 1 6.1 1 1 1 C0.67 1.99 0.34 2.98 0 4 C0 2.68 0 1.36 0 0 Z " fill="#9A9A9A" transform="translate(324,189)"/>
<path d="M0 0 C0.33 0.99 0.66 1.98 1 3 C1.66 3 2.32 3 3 3 C3.33 3.99 3.66 4.98 4 6 C6.01508358 6.73323796 6.01508358 6.73323796 8 7 C8.89846339 23.01190109 9.12488772 38.96441655 9 55 C8.67 55 8.34 55 8 55 C7.26035566 39.32190062 6.85972298 23.69543984 7 8 C6.24332031 7.87753906 5.48664063 7.75507813 4.70703125 7.62890625 C1.21976933 6.81873429 -1.11900935 5.07699326 -4 3 C-3.34 2.67 -2.68 2.34 -2 2 C-1.34 2.33 -0.68 2.66 0 3 C0 2.01 0 1.02 0 0 Z " fill="#949592" transform="translate(221,365)"/>
<path d="M0 0 C0.33 0 0.66 0 1 0 C1.33 2.97 1.66 5.94 2 9 C4.64 8.01 7.28 7.02 10 6 C8.84421742 9.46734775 8.21466028 9.77091534 5.1875 11.5625 C4.15689453 12.18318359 4.15689453 12.18318359 3.10546875 12.81640625 C-1.27891324 15.28109594 -3.85452911 16.23388504 -9 16 C-7.549046 12.17475764 -5.61818068 10.80909034 -2 9 C-1.34 9 -0.68 9 0 9 C0 6.03 0 3.06 0 0 Z " fill="#464B52" transform="translate(159,207)"/>
<path d="M0 0 C0.33 0 0.66 0 1 0 C1 8.91 1 17.82 1 27 C-0.32 26.34 -1.64 25.68 -3 25 C-3 21.88494815 -2.75987654 18.85408086 -2.5 15.75 C-2.13448382 11.1424369 -1.89257816 6.61913914 -2 2 C-1.34 2 -0.68 2 0 2 C0 1.34 0 0.68 0 0 Z " fill="#3E4143" transform="translate(339,190)"/>
<path d="M0 0 C1.32 0 2.64 0 4 0 C4 0.66 4 1.32 4 2 C3.34 2 2.68 2 2 2 C1.67 4.97 1.34 7.94 1 11 C3.33075929 10.04134491 3.33075929 10.04134491 5 7 C5 11.29 5 15.58 5 20 C2.525 19.01 2.525 19.01 0 18 C0 12.06 0 6.12 0 0 Z " fill="#5A5F64" transform="translate(389,225)"/>
<path d="M0 0 C0.33 0.99 0.66 1.98 1 3 C2.65 3 4.3 3 6 3 C6 2.34 6 1.68 6 1 C6.66 1 7.32 1 8 1 C8 1.66 8 2.32 8 3 C11.3 3.33 14.6 3.66 18 4 C18 4.33 18 4.66 18 5 C7.10433786 5.69301031 -2.49495637 3.64099862 -13 1 C-13 0.67 -13 0.34 -13 0 C-8.37078475 -1.0161692 -4.65537393 -0.83796731 0 0 Z " fill="#383D43" transform="translate(313,265)"/>
<path d="M0 0 C0 1.32 0 2.64 0 4 C2.64 3.34 5.28 2.68 8 2 C7.34 3.98 6.68 5.96 6 8 C4.02 8.33 2.04 8.66 0 9 C0 8.34 0 7.68 0 7 C-2.31 6.67 -4.62 6.34 -7 6 C-7 5.34 -7 4.68 -7 4 C-6.34 4 -5.68 4 -5 4 C-5 3.34 -5 2.68 -5 2 C-2 0 -2 0 0 0 Z " fill="#282A30" transform="translate(192,478)"/>
<path d="M0 0 C-0.33 0.66 -0.66 1.32 -1 2 C-2.890625 2.37890625 -2.890625 2.37890625 -5.25 2.5625 C-8.56286973 2.85838629 -11.74945701 3.26600642 -15 4 C-15 4.66 -15 5.32 -15 6 C-18.62420124 6.8368335 -22.24948637 7.66887234 -25.875 8.5 C-26.90753906 8.73847656 -27.94007813 8.97695313 -29.00390625 9.22265625 C-29.99003906 9.44824219 -30.97617188 9.67382812 -31.9921875 9.90625 C-32.90339355 10.11572266 -33.81459961 10.32519531 -34.75341797 10.54101562 C-37 11 -37 11 -39 11 C-39 10.34 -39 9.68 -39 9 C-38.23558594 8.84144531 -37.47117188 8.68289063 -36.68359375 8.51953125 C-29.0389912 6.85446138 -21.77414862 4.68499363 -14.41015625 2.0859375 C-9.56516668 0.54308859 -5.07614854 -0.14929849 0 0 Z " fill="#3B3F45" transform="translate(175,269)"/>
<path d="M0 0 C-0.99 0.495 -0.99 0.495 -2 1 C-2.33 1.99 -2.66 2.98 -3 4 C-3.66 4 -4.32 4 -5 4 C-5.33 3.34 -5.66 2.68 -6 2 C-6.99 3.485 -6.99 3.485 -8 5 C-8.33 4.67 -8.66 4.34 -9 4 C-11.08607309 4.06482148 -13.17006513 4.20244935 -15.25 4.375 C-16.38953125 4.46523438 -17.5290625 4.55546875 -18.703125 4.6484375 C-21.93387849 4.93436082 -21.93387849 4.93436082 -24.796875 5.6015625 C-27 6 -27 6 -29 5 C-29 4.34 -29 3.68 -29 3 C-27.62328125 2.92652344 -27.62328125 2.92652344 -26.21875 2.8515625 C-18.6016268 2.38749407 -6.93789374 -2.15313944 0 0 Z " fill="#3D4147" transform="translate(274,372)"/>
<path d="M0 0 C4.62 0 9.24 0 14 0 C14 0.33 14 0.66 14 1 C10.37 1.33 6.74 1.66 3 2 C2.67 7.28 2.34 12.56 2 18 C1.01 18 0.02 18 -1 18 C-1.11269443 11.8894576 -0.89604368 6.04829486 0 0 Z " fill="#2C2E31" transform="translate(384,223)"/>
<path d="M0 0 C2.60334924 2.71182212 2.99456691 3.89133813 3.1875 7.75 C3.125625 8.8225 3.06375 9.895 3 11 C2.01 11 1.02 11 0 11 C0 13.97 0 16.94 0 20 C-0.66 18.68 -1.32 17.36 -2 16 C-2.33 15.67 -2.66 15.34 -3 15 C-2.71917202 12.65976685 -2.37531446 10.32694964 -2 8 C-1.835 6.72125 -1.67 5.4425 -1.5 4.125 C-1 1 -1 1 0 0 Z " fill="#494D52" transform="translate(166,192)"/>
<path d="M0 0 C0.99 0.33 1.98 0.66 3 1 C3.12375 1.804375 3.2475 2.60875 3.375 3.4375 C3.58125 4.283125 3.7875 5.12875 4 6 C4.66 6.33 5.32 6.66 6 7 C1.53763531 8.80619523 -1.31034294 9.11658501 -6 8 C-4.55746343 4.63408134 -2.66735273 2.48952921 0 0 Z " fill="#2E3139" transform="translate(213,464)"/>
<path d="M0 0 C0.99 1.32 1.98 2.64 3 4 C2.67 4.99 2.34 5.98 2 7 C1.9528484 8.93751893 1.9528484 8.93751893 2.12109375 11.01171875 C2.16943359 11.76904297 2.21777344 12.52636719 2.26757812 13.30664062 C2.32365234 14.09232422 2.37972656 14.87800781 2.4375 15.6875 C2.48970703 16.48478516 2.54191406 17.28207031 2.59570312 18.10351562 C2.72519022 20.06936522 2.86190041 22.03473665 3 24 C3.66 24 4.32 24 5 24 C4.34 25.32 3.68 26.64 3 28 C1 25 1 25 1 21 C0.34 21 -0.32 21 -1 21 C-1.33 19.68 -1.66 18.36 -2 17 C-1.01 16.67 -0.02 16.34 1 16 C0.67 10.72 0.34 5.44 0 0 Z " fill="#3C4042" transform="translate(234,443)"/>
<path d="M0 0 C1.5 1.125 1.5 1.125 3 3 C3.3125 6.0625 3.3125 6.0625 3 9 C2.34 9.66 1.68 10.32 1 11 C0.75622117 14.35744112 0.75622117 14.35744112 0.875 18.125 C0.89304688 19.40632813 0.91109375 20.68765625 0.9296875 22.0078125 C0.95289063 22.99523437 0.97609375 23.98265625 1 25 C0.67 25 0.34 25 0 25 C-0.95619733 21.00204108 -1.1039592 17.29196078 -1.0625 13.1875 C-1.05347656 12.02605469 -1.04445312 10.86460937 -1.03515625 9.66796875 C-1.01775391 8.34732422 -1.01775391 8.34732422 -1 7 C-1.66 7 -2.32 7 -3 7 C-2.67 6.01 -2.34 5.02 -2 4 C-1.34 4 -0.68 4 0 4 C0 2.68 0 1.36 0 0 Z " fill="#3E3F36" transform="translate(229,175)"/>
<path d="M0 0 C3.9745504 0.69849772 7.26574098 2.62892769 10.75 4.5625 C11.65298828 5.0565332 11.65298828 5.0565332 12.57421875 5.56054688 C14.05170503 6.3696465 15.52616036 7.18427662 17 8 C15.1875 9.0625 15.1875 9.0625 13 10 C12.01 9.67 11.02 9.34 10 9 C9.29875 8.855625 8.5975 8.71125 7.875 8.5625 C7.25625 8.376875 6.6375 8.19125 6 8 C5.67 7.34 5.34 6.68 5 6 C5.33 5.34 5.66 4.68 6 4 C3.69 4 1.38 4 -1 4 C-0.67 2.68 -0.34 1.36 0 0 Z " fill="#707378" transform="translate(277,181)"/>
<path d="M0 0 C4.95 0 9.9 0 15 0 C15 2.31 15 4.62 15 7 C14.67 7 14.34 7 14 7 C14 5.35 14 3.7 14 2 C10.04 2 6.08 2 2 2 C1.67 7.28 1.34 12.56 1 18 C0.67 18 0.34 18 0 18 C0 12.06 0 6.12 0 0 Z " fill="#2C2E2E" transform="translate(101,223)"/>
<path d="M0 0 C1.32 0.33 2.64 0.66 4 1 C4 1.66 4 2.32 4 3 C9.8685408 4.14819277 15.0885256 3.77313045 21 3 C17.28528034 5.21343399 13.32097818 5.87049383 9.125 6.625 C8.43019531 6.7590625 7.73539063 6.893125 7.01953125 7.03125 C2.96157144 7.78017667 -0.87652641 8.14218874 -5 8 C-2 6 -2 6 1 5 C0.67 3.35 0.34 1.7 0 0 Z " fill="#77797A" transform="translate(45,304)"/>
<path d="M0 0 C-3.50584257 2.33722838 -7.07550049 3.41233172 -11.0625 4.625 C-11.79533203 4.85445313 -12.52816406 5.08390625 -13.28320312 5.3203125 C-18.72719029 7 -18.72719029 7 -21 7 C-21 6.01 -21 5.02 -21 4 C-13.8036691 0.93540281 -7.83534611 -0.61187085 0 0 Z " fill="#6B6D6F" transform="translate(182,492)"/>
<path d="M0 0 C0.66 0 1.32 0 2 0 C3.0024305 5.34629602 2.84888195 9.62374766 2 15 C1.67 15 1.34 15 1 15 C0.67 13.35 0.34 11.7 0 10 C-0.99 10.33 -1.98 10.66 -3 11 C-2.67 8.03 -2.34 5.06 -2 2 C-1.34 2 -0.68 2 0 2 C0 1.34 0 0.68 0 0 Z " fill="#4E5257" transform="translate(393,225)"/>
<path d="M0 0 C7.32627475 -0.47266289 12.37384327 0.90133798 19 4 C19 4.66 19 5.32 19 6 C19.66 6.33 20.32 6.66 21 7 C16.13451192 6.34065816 11.74092364 5.03428754 7.125 3.4375 C6.43664062 3.20353516 5.74828125 2.96957031 5.0390625 2.72851562 C3.35796355 2.15647501 1.67877837 1.57881544 0 1 C0 0.67 0 0.34 0 0 Z " fill="#696B6C" transform="translate(316,491)"/>
<path d="M0 0 C0.33 0 0.66 0 1 0 C1.12375 0.969375 1.2475 1.93875 1.375 2.9375 C1.58125 3.948125 1.7875 4.95875 2 6 C2.66 6.33 3.32 6.66 4 7 C3.67 8.32 3.34 9.64 3 11 C3.66 11 4.32 11 5 11 C5 10.34 5 9.68 5 9 C6.65 9 8.3 9 10 9 C7.61426621 10.89213369 5.92824652 12.02391783 3 13 C2.67 18.28 2.34 23.56 2 29 C1.67 29 1.34 29 1 29 C1.01740234 27.12054688 1.01740234 27.12054688 1.03515625 25.203125 C1.04453716 23.55208483 1.05363704 21.90104304 1.0625 20.25 C1.07087891 19.425 1.07925781 18.6 1.08789062 17.75 C1.09272461 16.55117188 1.09272461 16.55117188 1.09765625 15.328125 C1.10289307 14.5949707 1.10812988 13.86181641 1.11352539 13.10644531 C0.99718964 10.94785416 0.52974895 9.08989728 0 7 C-0.03888349 4.66699067 -0.0448635 2.33290199 0 0 Z " fill="#A3A5A9" transform="translate(8,307)"/>
<path d="M0 0 C0.33 0.66 0.66 1.32 1 2 C4.63 2 8.26 2 12 2 C4.54443609 5.72778195 -2.85790521 6.5362443 -11 5 C-10.34 4.67 -9.68 4.34 -9 4 C-8.67 3.34 -8.34 2.68 -8 2 C-6.0085944 1.61866701 -4.00720923 1.28674418 -2 1 C-1.34 0.67 -0.68 0.34 0 0 Z " fill="#76797B" transform="translate(26,310)"/>
<path d="M0 0 C0.99 0.33 1.98 0.66 3 1 C2.67 4.96 2.34 8.92 2 13 C1.01 13.33 0.02 13.66 -1 14 C-1.22331199 12.41870971 -1.42804644 10.83478911 -1.625 9.25 C-1.74101562 8.36828125 -1.85703125 7.4865625 -1.9765625 6.578125 C-2.00207817 3.77140122 -1.44843844 2.36615134 0 0 Z " fill="#3B3E3D" transform="translate(266,416)"/>
<path d="M0 0 C0.33 0 0.66 0 1 0 C1.04125 1.216875 1.0825 2.43375 1.125 3.6875 C1.53199637 7.21271475 2.31016733 8.75280133 5.0625 11 C6.031875 11.66 7.00125 12.32 8 13 C6.8125 14.5625 6.8125 14.5625 5 16 C2.3125 15.6875 2.3125 15.6875 0 15 C-0.38218767 13.34385343 -0.71395102 11.67542976 -1 10 C-0.67 9.67 -0.34 9.34 0 9 C0.07179964 7.48071962 0.08392007 5.95832518 0.0625 4.4375 C0.05347656 3.61121094 0.04445313 2.78492188 0.03515625 1.93359375 C0.02355469 1.29550781 0.01195312 0.65742188 0 0 Z " fill="#939699" transform="translate(270,414)"/>
<path d="M0 0 C0 0.99 0 1.98 0 3 C-3.4019487 5.09350689 -6.05272412 5.17942163 -10 5 C-10.33 3.68 -10.66 2.36 -11 1 C-3.57142857 -1.42857143 -3.57142857 -1.42857143 0 0 Z " fill="#0F1214" transform="translate(47,306)"/>
<path d="M0 0 C-2.86109078 1.90739385 -4.54431608 2.52422265 -7.81640625 3.2890625 C-9.20956055 3.61777344 -9.20956055 3.61777344 -10.63085938 3.953125 C-11.59830078 4.17484375 -12.56574219 4.3965625 -13.5625 4.625 C-15.01946289 4.96917969 -15.01946289 4.96917969 -16.50585938 5.3203125 C-23.69952102 7 -23.69952102 7 -26 7 C-26 6.34 -26 5.68 -26 5 C-22.0814603 3.10393241 -18.5380966 2.67478457 -14.2734375 2.28515625 C-9.29290989 1.6604509 -5.10819772 -0.30958774 0 0 Z " fill="#2B2E33" transform="translate(186,268)"/>
<path d="M0 0 C0.66 0.33 1.32 0.66 2 1 C-1.0622744 3.48627517 -4.1457054 5.09989404 -7.75 6.6875 C-8.73484375 7.12449219 -9.7196875 7.56148437 -10.734375 8.01171875 C-11.48203125 8.33785156 -12.2296875 8.66398438 -13 9 C-13.33 8.34 -13.66 7.68 -14 7 C-13.67 6.67 -13.34 6.34 -13 6 C-13.33 5.34 -13.66 4.68 -14 4 C-13.11248047 3.81824219 -13.11248047 3.81824219 -12.20703125 3.6328125 C-8.69180288 2.88733177 -5.40231099 2.16263636 -2.0625 0.8125 C-1.381875 0.544375 -0.70125 0.27625 0 0 Z " fill="#454B52" transform="translate(208,193)"/>
<path d="M0 0 C0.66 0.33 1.32 0.66 2 1 C1.34 2.65 0.68 4.3 0 6 C2.97 5.34 5.94 4.68 9 4 C6.83900627 6.16099373 5.4789582 6.71563716 2.625 7.6875 C1.85414063 7.95949219 1.08328125 8.23148437 0.2890625 8.51171875 C-2.20055308 9.04278009 -3.61553018 8.81115526 -6 8 C-5.34 8 -4.68 8 -4 8 C-3.67 5.69 -3.34 3.38 -3 1 C-2.01 0.67 -1.02 0.34 0 0 Z " fill="#5D5F60" transform="translate(202,478)"/>
<path d="M0 0 C1.32 0.66 2.64 1.32 4 2 C4 2.99 4 3.98 4 5 C4.66 5.66 5.32 6.32 6 7 C0.47293087 6.27275406 -4.69960141 4.66554027 -10 3 C-7.77316603 2.43023438 -5.57406672 1.9207566 -3.3125 1.5 C-1.04844958 1.22901669 -1.04844958 1.22901669 0 0 Z " fill="#616263" transform="translate(304,482)"/>
<path d="M0 0 C2.08229108 3.12343663 2.23770457 3.53852922 1.9765625 7.01171875 C1.925 7.76904297 1.8734375 8.52636719 1.8203125 9.30664062 C1.75585938 10.09232422 1.69140625 10.87800781 1.625 11.6875 C1.56828125 12.48478516 1.5115625 13.28207031 1.453125 14.10351562 C1.31183972 16.06973581 1.15720094 18.03498824 1 20 C0.34 20.33 -0.32 20.66 -1 21 C-1.02888146 17.68751813 -1.04675799 14.37506833 -1.0625 11.0625 C-1.07087891 10.11697266 -1.07925781 9.17144531 -1.08789062 8.19726562 C-1.09111328 7.29814453 -1.09433594 6.39902344 -1.09765625 5.47265625 C-1.10289307 4.64000244 -1.10812988 3.80734863 -1.11352539 2.94946289 C-1 1 -1 1 0 0 Z " fill="#66686A" transform="translate(8,316)"/>
<path d="M0 0 C4.62 0 9.24 0 14 0 C14 2.64 14 5.28 14 8 C13.01 8.495 13.01 8.495 12 9 C12 6.69 12 4.38 12 2 C8.04 2 4.08 2 0 2 C0 1.34 0 0.68 0 0 Z " fill="#282A2D" transform="translate(161,190)"/>
<path d="M0 0 C0.66 0 1.32 0 2 0 C4 2 4 2 4.1953125 5.2578125 C4.16050781 7.17207031 4.16050781 7.17207031 4.125 9.125 C4.10695313 10.40632812 4.08890625 11.68765625 4.0703125 13.0078125 C4.04710938 13.99523437 4.02390625 14.98265625 4 16 C1.42380724 14.08684881 1.01604768 13.0983686 0.48828125 9.86328125 C0.43027344 8.69152344 0.37226562 7.51976562 0.3125 6.3125 C0.24675781 5.13300781 0.18101563 3.95351562 0.11328125 2.73828125 C0.07589844 1.83464844 0.03851563 0.93101562 0 0 Z " fill="#404347" transform="translate(113,225)"/>
<path d="M0 0 C-1.1875 2.4375 -1.1875 2.4375 -3 5 C-6.32018016 6.13585111 -9.51129849 6.09967719 -13 6 C-11.68171852 3.36343704 -10.17641328 2.75334666 -7.625 1.3125 C-6.83351562 0.85488281 -6.04203125 0.39726562 -5.2265625 -0.07421875 C-3 -1 -3 -1 0 0 Z " fill="#777A7E" transform="translate(227,180)"/>
<path d="M0 0 C1.98 0.66 3.96 1.32 6 2 C6 2.66 6 3.32 6 4 C6.78375 4.268125 7.5675 4.53625 8.375 4.8125 C11 6 11 6 13 9 C12.01 9 11.02 9 10 9 C10 8.34 10 7.68 10 7 C8.02 7.99 8.02 7.99 6 9 C5.7525 8.38125 5.505 7.7625 5.25 7.125 C3.79371361 4.64931313 2.62187494 4.04874998 0 3 C0 2.01 0 1.02 0 0 Z " fill="#7E8287" transform="translate(469,284)"/>
<path d="M0 0 C0.33 0 0.66 0 1 0 C1 4.29 1 8.58 1 13 C1.99 13.33 2.98 13.66 4 14 C3.360625 14.28875 2.72125 14.5775 2.0625 14.875 C-0.15206079 15.82823451 -0.15206079 15.82823451 -1 18 C-1.02684312 15.18743719 -1.04676188 12.37512759 -1.0625 9.5625 C-1.07087891 8.76005859 -1.07925781 7.95761719 -1.08789062 7.13085938 C-1.0965143 5.08704779 -1.0522815 3.04316098 -1 1 C-0.67 0.67 -0.34 0.34 0 0 Z " fill="#333637" transform="translate(161,200)"/>
<path d="M0 0 C3.72433382 1.2125738 7.37802806 2.50859979 11 4 C9.5 5.6875 9.5 5.6875 7 7 C4.17076078 6.35208262 1.61783117 5.23902204 -1 4 C-0.34 3.67 0.32 3.34 1 3 C0.67 2.01 0.34 1.02 0 0 Z " fill="#131618" transform="translate(307,483)"/>
<path d="M0 0 C3.2826932 1.49076434 5.93077441 3.38620321 8.75 5.625 C9.94882812 6.57246094 9.94882812 6.57246094 11.171875 7.5390625 C11.77515625 8.02117187 12.3784375 8.50328125 13 9 C12.01 9 11.02 9 10 9 C8.32900023 9.31088368 6.66128463 9.64080332 5 10 C5 8.02 5 6.04 5 4 C4.67 4.66 4.34 5.32 4 6 C3.34 6 2.68 6 2 6 C2 5.34 2 4.68 2 4 C1.34 3.67 0.68 3.34 0 3 C0 2.01 0 1.02 0 0 Z " fill="#9C9FA3" transform="translate(278,428)"/>
<path d="M0 0 C0.66 0.33 1.32 0.66 2 1 C1.67 1.33 1.34 1.66 1 2 C1.99 2.66 2.98 3.32 4 4 C3.67 4.66 3.34 5.32 3 6 C2.01 6.33 1.02 6.66 0 7 C0 7.99 0 8.98 0 10 C-1.65 10.66 -3.3 11.32 -5 12 C-5.33 11.01 -5.66 10.02 -6 9 C-4.02 7.68 -2.04 6.36 0 5 C-0.99 4.34 -1.98 3.68 -3 3 C-2.34 3 -1.68 3 -1 3 C-0.67 2.01 -0.34 1.02 0 0 Z " fill="#6A6E75" transform="translate(228,422)"/>
<path d="M0 0 C0.33 0 0.66 0 1 0 C1.33 5.94 1.66 11.88 2 18 C3.32 18.66 4.64 19.32 6 20 C6 20.66 6 21.32 6 22 C0.25 20.25 0.25 20.25 -2 18 C-1.34 18 -0.68 18 0 18 C-0.185625 17.2575 -0.37125 16.515 -0.5625 15.75 C-1.18327251 10.42909275 -0.55856674 5.31068067 0 0 Z " fill="#4B4E57" transform="translate(388,225)"/>
<path d="M0 0 C1.98 0 3.96 0 6 0 C5.01 0.495 5.01 0.495 4 1 C3.67 1.99 3.34 2.98 3 4 C0.0625 5.625 0.0625 5.625 -3 7 C-3.99 7.495 -3.99 7.495 -5 8 C-4.67 6.35 -4.34 4.7 -4 3 C-2.68 2.67 -1.36 2.34 0 2 C0 1.34 0 0.68 0 0 Z " fill="#474B54" transform="translate(145,224)"/>
<path d="M0 0 C0.61488281 0.19078125 1.22976562 0.3815625 1.86328125 0.578125 C-5.97174723 7.55513883 -5.97174723 7.55513883 -10.13671875 9.578125 C-10.79671875 9.248125 -11.45671875 8.918125 -12.13671875 8.578125 C-10.76171875 7.078125 -10.76171875 7.078125 -9.13671875 5.578125 C-8.47671875 5.578125 -7.81671875 5.578125 -7.13671875 5.578125 C-6.80671875 4.588125 -6.47671875 3.598125 -6.13671875 2.578125 C-2.87799152 -0.56823233 -2.87799152 -0.56823233 0 0 Z " fill="#7F8187" transform="translate(202.13671875,444.421875)"/>
<path d="M0 0 C0.99 0.33 1.98 0.66 3 1 C1.125 5.75 1.125 5.75 0 8 C-0.66 8 -1.32 8 -2 8 C-2 8.66 -2 9.32 -2 10 C-3.32 9.34 -4.64 8.68 -6 8 C-6 7.34 -6 6.68 -6 6 C-5.01 5.67 -4.02 5.34 -3 5 C-1.30117552 2.50240018 -1.30117552 2.50240018 0 0 Z " fill="#727579" transform="translate(291,354)"/>
<path d="M0 0 C0.66 0 1.32 0 2 0 C2 5.94 2 11.88 2 18 C0.68 17.67 -0.64 17.34 -2 17 C-1.34 16.67 -0.68 16.34 0 16 C0 10.72 0 5.44 0 0 Z " fill="#41444C" transform="translate(386,225)"/>
<path d="M0 0 C1.33332095 2.6666419 0.67102033 4.16680303 0 7 C-0.66 7 -1.32 7 -2 7 C-2.33 9.31 -2.66 11.62 -3 14 C-3.66 14 -4.32 14 -5 14 C-5.33 14.66 -5.66 15.32 -6 16 C-5.05407718 9.70214541 -3.97841864 5.03933027 0 0 Z " fill="#909296" transform="translate(206,300)"/>
<path d="M0 0 C0 0.66 0 1.32 0 2 C-0.639375 2.268125 -1.27875 2.53625 -1.9375 2.8125 C-4.33131686 3.88667752 -4.33131686 3.88667752 -5 7 C-7.875 7.625 -7.875 7.625 -11 8 C-11.66 7.34 -12.32 6.68 -13 6 C-11.21118264 4.99491199 -9.41885304 3.99607264 -7.625 3 C-6.62726563 2.443125 -5.62953125 1.88625 -4.6015625 1.3125 C-2 0 -2 0 0 0 Z " fill="#7C8085" transform="translate(145,224)"/>
<path d="M0 0 C3 1.8125 3 1.8125 6 4 C6 4.99 6 5.98 6 7 C5.34 6.34 4.68 5.68 4 5 C3.34 5.66 2.68 6.32 2 7 C1.01 6.67 0.02 6.34 -1 6 C-1 5.34 -1 4.68 -1 4 C-1.66 3.67 -2.32 3.34 -3 3 C-2.01 2.67 -1.02 2.34 0 2 C0 1.34 0 0.68 0 0 Z " fill="#7B7E84" transform="translate(323,464)"/>
<path d="M0 0 C0.66 0.33 1.32 0.66 2 1 C0.41450777 5.75647668 0.41450777 5.75647668 -1 8 C-4.1875 9.4375 -4.1875 9.4375 -7 10 C-5.6062718 5.56541027 -3.39417765 3.12621626 0 0 Z " fill="#7D8184" transform="translate(214,290)"/>
<path d="M0 0 C-0.33 0.99 -0.66 1.98 -1 3 C-7.625 4.25 -7.625 4.25 -11 2 C-6.89657963 -0.38570952 -4.61380251 -1.49270081 0 0 Z " fill="#232528" transform="translate(185,489)"/>
<path d="M0 0 C-0.1875 1.8125 -0.1875 1.8125 -1 4 C-5.28571429 7 -5.28571429 7 -7 7 C-7 5.35 -7 3.7 -7 2 C-2.25 0 -2.25 0 0 0 Z " fill="#525760" transform="translate(38,282)"/>
<path d="M0 0 C1.2065625 0.0309375 1.2065625 0.0309375 2.4375 0.0625 C1.6875 2.5 1.6875 2.5 0.4375 5.0625 C-1.71592034 5.93732701 -3.25260775 6.0625 -5.5625 6.0625 C-3.26136364 0.07954545 -3.26136364 0.07954545 0 0 Z " fill="#4B4F57" transform="translate(134.5625,230.9375)"/>
<path d="M0 0 C0.33 0.66 0.66 1.32 1 2 C1.66 2 2.32 2 3 2 C3.33 2.99 3.66 3.98 4 5 C3.34 5.66 2.68 6.32 2 7 C1.83286431 9.37468476 1.83286431 9.37468476 2 12 C2.125 14.6875 2.125 14.6875 2 17 C1.34 17.66 0.68 18.32 0 19 C0 12.73 0 6.46 0 0 Z " fill="#4D5055" transform="translate(7,298)"/>
<path d="M0 0 C0.33 0 0.66 0 1 0 C0.97679688 0.91523438 0.95359375 1.83046875 0.9296875 2.7734375 C0.91164063 3.96195313 0.89359375 5.15046875 0.875 6.375 C0.85179688 7.55835938 0.82859375 8.74171875 0.8046875 9.9609375 C0.67133771 13.11153817 0.67133771 13.11153817 3 15 C1.35 15.33 -0.3 15.66 -2 16 C-1.42978066 10.6496441 -0.79265639 5.32212148 0 0 Z " fill="#54595E" transform="translate(109,228)"/>
<path d="M0 0 C0.66 0.33 1.32 0.66 2 1 C1.375 3.4375 1.375 3.4375 0 6 C-3.125 6.8125 -3.125 6.8125 -6 7 C-5.8125 5.1875 -5.8125 5.1875 -5 3 C-2.5625 1.1875 -2.5625 1.1875 0 0 Z " fill="#101113" transform="translate(198,480)"/>
<path d="M0 0 C0.33 0 0.66 0 1 0 C1 3.63 1 7.26 1 11 C2.65 10.67 4.3 10.34 6 10 C5.67 11.32 5.34 12.64 5 14 C3.35 14.33 1.7 14.66 0 15 C0 10.05 0 5.1 0 0 Z " fill="#878B8D" transform="translate(117,227)"/>
<path d="M0 0 C0.33 0 0.66 0 1 0 C1 3.96 1 7.92 1 12 C-2.375 11.75 -2.375 11.75 -6 11 C-7.4375 8.9375 -7.4375 8.9375 -8 7 C-2.25 8.875 -2.25 8.875 0 10 C0 6.7 0 3.4 0 0 Z " fill="#A6A9A7" transform="translate(323,195)"/>
<path d="M0 0 C1.98 0.66 3.96 1.32 6 2 C4.25 4.0625 4.25 4.0625 2 6 C-0.25 5.75 -0.25 5.75 -2 5 C-2 2 -2 2 0 0 Z " fill="#17181B" transform="translate(300,479)"/>
<path d="M0 0 C0.33 0 0.66 0 1 0 C1 3.96 1 7.92 1 12 C-1.70879335 13.35439668 -4.00933268 13.06501451 -7 13 C-2.25 9 -2.25 9 0 9 C0 6.03 0 3.06 0 0 Z " fill="#747677" transform="translate(159,207)"/>
<path d="M0 0 C0.99 0 1.98 0 3 0 C3.66 0.66 4.32 1.32 5 2 C5.66 2.33 6.32 2.66 7 3 C7 3.66 7 4.32 7 5 C7.66 5.33 8.32 5.66 9 6 C7.35 6.33 5.7 6.66 4 7 C4 6.01 4 5.02 4 4 C2.35 3.67 0.7 3.34 -1 3 C-0.67 2.01 -0.34 1.02 0 0 Z " fill="#3D4146" transform="translate(225,368)"/>
<path d="M0 0 C-0.33 1.65 -0.66 3.3 -1 5 C-2.32 4.67 -3.64 4.34 -5 4 C-5.33 4.66 -5.66 5.32 -6 6 C-7.65 6 -9.3 6 -11 6 C-9.73083275 3.46166551 -8.58375191 3.10599099 -6.0625 1.875 C-5.35222656 1.52179688 -4.64195313 1.16859375 -3.91015625 0.8046875 C-2 0 -2 0 0 0 Z " fill="#898D92" transform="translate(94,252)"/>
<path d="M0 0 C2.61885488 2.36944013 4.41866551 4.83733102 6 8 C5.67 8.99 5.34 9.98 5 11 C5 10.34 5 9.68 5 9 C4.34 9 3.68 9 3 9 C3 8.34 3 7.68 3 7 C1.68 6.34 0.36 5.68 -1 5 C-0.67 3.35 -0.34 1.7 0 0 Z " fill="#A7A7A4" transform="translate(260,8)"/>
<path d="M0 0 C1.5 1.125 1.5 1.125 3 3 C3.375 6.0625 3.375 6.0625 3 9 C2.01 9.66 1.02 10.32 0 11 C-1.28571429 3.57142857 -1.28571429 3.57142857 0 0 Z " fill="#2F3027" transform="translate(229,175)"/>
<path d="M0 0 C0 0.66 0 1.32 0 2 C-1.57914015 2.53341184 -3.16354387 3.05125763 -4.75 3.5625 C-5.63171875 3.85253906 -6.5134375 4.14257812 -7.421875 4.44140625 C-10.07834316 5.01697435 -11.47031106 4.89248371 -14 4 C-12.23141309 3.32739649 -10.46003984 2.66211605 -8.6875 2 C-7.70136719 1.62875 -6.71523437 1.2575 -5.69921875 0.875 C-3 0 -3 0 0 0 Z " fill="#43484D" transform="translate(93,290)"/>
<path d="M0 0 C0.99 0 1.98 0 3 0 C2.34 4.95 1.68 9.9 1 15 C0.67 15 0.34 15 0 15 C0 10.05 0 5.1 0 0 Z " fill="#3C3E45" transform="translate(103,225)"/>
<path d="M0 0 C0 1.32 0 2.64 0 4 C-0.66 4 -1.32 4 -2 4 C-2 4.66 -2 5.32 -2 6 C-3.98 6 -5.96 6 -8 6 C-7.01 5.67 -6.02 5.34 -5 5 C-4.6278958 3.67696283 -4.29369827 2.34262065 -4 1 C-2 0 -2 0 0 0 Z " fill="#6C6C69" transform="translate(240,469)"/>
<path d="M0 0 C4.62 0 9.24 0 14 0 C14 0.99 14 1.98 14 3 C4.58997722 2.03644647 4.58997722 2.03644647 0 1 C0 0.67 0 0.34 0 0 Z " fill="#8E8E90" transform="translate(391,300)"/>
<path d="M0 0 C3.48539917 0.64544429 6.02819057 2.10134397 9 4 C8.01 4.66 7.02 5.32 6 6 C6 5.34 6 4.68 6 4 C3.69 4 1.38 4 -1 4 C-0.67 2.68 -0.34 1.36 0 0 Z " fill="#84878A" transform="translate(277,181)"/>
<path d="M0 0 C1.98 0 3.96 0 6 0 C6.66 1.32 7.32 2.64 8 4 C6.35 4 4.7 4 3 4 C3 3.34 3 2.68 3 2 C2.01 2.33 1.02 2.66 0 3 C0 2.01 0 1.02 0 0 Z " fill="#40423E" transform="translate(247,2)"/>
<path d="M0 0 C-1.2748209 2.84383123 -2.45137078 5.13754018 -5 7 C-7.1875 6.6875 -7.1875 6.6875 -9 6 C-8.01 5.67 -7.02 5.34 -6 5 C-6 4.34 -6 3.68 -6 3 C-2.53846154 0 -2.53846154 0 0 0 Z " fill="#7F8188" transform="translate(190,454)"/>
<path d="M0 0 C0 1.98 0 3.96 0 6 C-2.475 5.01 -2.475 5.01 -5 4 C-5 3.01 -5 2.02 -5 1 C-3 0 -3 0 0 0 Z " fill="#121418" transform="translate(53,303)"/>
<path d="M0 0 C1.98 0.66 3.96 1.32 6 2 C5.34 3.32 4.68 4.64 4 6 C2.02 5.01 0.04 4.02 -2 3 C-1.34 2.01 -0.68 1.02 0 0 Z " fill="#787B7F" transform="translate(348,220)"/>
<path d="M0 0 C0.66 0.33 1.32 0.66 2 1 C1.2890625 2.953125 1.2890625 2.953125 0 5 C-2.1640625 5.609375 -2.1640625 5.609375 -4.625 5.75 C-5.44226563 5.80671875 -6.25953125 5.8634375 -7.1015625 5.921875 C-7.72804687 5.94765625 -8.35453125 5.9734375 -9 6 C-7.73295613 3.46591226 -6.56876843 3.06790028 -4.0625 1.8125 C-3.35222656 1.44769531 -2.64195312 1.08289063 -1.91015625 0.70703125 C-1.27980469 0.47371094 -0.64945313 0.24039063 0 0 Z " fill="#888B8D" transform="translate(203,191)"/>
<path d="M0 0 C0.33 1.32 0.66 2.64 1 4 C-0.8125 5.0625 -0.8125 5.0625 -3 6 C-3.99 5.67 -4.98 5.34 -6 5 C-3.375 1.125 -3.375 1.125 0 0 Z " fill="#3F4348" transform="translate(171,489)"/>
<path d="M0 0 C3.3 0 6.6 0 10 0 C10.33 1.32 10.66 2.64 11 4 C9.54119891 3.85892253 8.08296449 3.71197585 6.625 3.5625 C5.40683594 3.44068359 5.40683594 3.44068359 4.1640625 3.31640625 C2 3 2 3 0 2 C0 1.34 0 0.68 0 0 Z " fill="#25282B" transform="translate(318,489)"/>
<path d="M0 0 C0.5775 0.2475 1.155 0.495 1.75 0.75 C1.42 1.74 1.09 2.73 0.75 3.75 C0.0075 3.853125 -0.735 3.95625 -1.5 4.0625 C-4.42014018 4.79253504 -5.98187554 5.81789398 -8.25 7.75 C-6.64613593 4.0076505 -4.56199942 -0.50688882 0 0 Z " fill="#96999D" transform="translate(167.25,474.25)"/>
<path d="M0 0 C0.66 0.33 1.32 0.66 2 1 C1.67 2.98 1.34 4.96 1 7 C-3.875 5.25 -3.875 5.25 -5 3 C-3.35 2.67 -1.7 2.34 0 2 C0 1.34 0 0.68 0 0 Z " fill="#393C42" transform="translate(292,469)"/>
<path d="M0 0 C0.33 1.32 0.66 2.64 1 4 C-0.65 5.32 -2.3 6.64 -4 8 C-4.33 7.01 -4.66 6.02 -5 5 C-3.35 3.35 -1.7 1.7 0 0 Z " fill="#4A4D53" transform="translate(211,297)"/>
<path d="M0 0 C2.97 0 5.94 0 9 0 C9.33 0.99 9.66 1.98 10 3 C4.58461538 3.36923077 4.58461538 3.36923077 1.625 1.5 C1.08875 1.005 0.5525 0.51 0 0 Z " fill="#454950" transform="translate(404,290)"/>
<path d="M0 0 C-0.66 1.32 -1.32 2.64 -2 4 C-4.64 3.34 -7.28 2.68 -10 2 C-6.5980513 -0.09350689 -3.94727588 -0.17942163 0 0 Z " fill="#9FA0A6" transform="translate(228,283)"/>
<path d="M0 0 C0.66 0.33 1.32 0.66 2 1 C1.67 1.99 1.34 2.98 1 4 C-0.32 4 -1.64 4 -3 4 C-2.67 4.66 -2.34 5.32 -2 6 C-4.31 6 -6.62 6 -9 6 C-7.73295613 3.46591226 -6.56876843 3.06790028 -4.0625 1.8125 C-3.35222656 1.44769531 -2.64195313 1.08289063 -1.91015625 0.70703125 C-1.27980469 0.47371094 -0.64945313 0.24039062 0 0 Z " fill="#93969A" transform="translate(61,268)"/>
<path d="M0 0 C3.45925163 1.2491742 6.14693203 2.67527795 9 5 C7.35 5.33 5.7 5.66 4 6 C3.67 5.01 3.34 4.02 3 3 C2.01 3 1.02 3 0 3 C0 2.01 0 1.02 0 0 Z " fill="#828488" transform="translate(368,231)"/>
<path d="M0 0 C2.20914 3.31371 2.22481553 4.3446021 2.125 8.1875 C2.10695313 9.08855469 2.08890625 9.98960937 2.0703125 10.91796875 C2.03550781 11.94857422 2.03550781 11.94857422 2 13 C1.34 12.67 0.68 12.34 0 12 C-0.44921875 10.0390625 -0.44921875 10.0390625 -0.6875 7.625 C-0.77386719 6.83351562 -0.86023438 6.04203125 -0.94921875 5.2265625 C-1 3 -1 3 0 0 Z " fill="#52565F" transform="translate(112,225)"/>
<path d="M0 0 C0.66 0 1.32 0 2 0 C2.66 0.99 3.32 1.98 4 3 C6.05003955 4.19232613 6.05003955 4.19232613 8 5 C6 6 6 6 2 6 C1.01 5.67 0.02 5.34 -1 5 C-0.67 3.35 -0.34 1.7 0 0 Z " fill="#8C9093" transform="translate(340,214)"/>
<path d="M0 0 C0.33 0 0.66 0 1 0 C1 4.95 1 9.9 1 15 C-0.32 14.34 -1.64 13.68 -3 13 C-2.67 12.34 -2.34 11.68 -2 11 C-1.34 11 -0.68 11 0 11 C0 7.37 0 3.74 0 0 Z " fill="#373B3D" transform="translate(339,202)"/>
<path d="M0 0 C2.64 0.33 5.28 0.66 8 1 C8 1.66 8 2.32 8 3 C8.66 3 9.32 3 10 3 C10 3.66 10 4.32 10 5 C7.36 4.34 4.72 3.68 2 3 C2 2.34 2 1.68 2 1 C1.34 0.67 0.68 0.34 0 0 Z " fill="#3C3F42" transform="translate(333,494)"/>
<path d="M0 0 C1.65 0.33 3.3 0.66 5 1 C5 1.99 5 2.98 5 4 C3.35 4 1.7 4 0 4 C0 4.66 0 5.32 0 6 C-0.66 6 -1.32 6 -2 6 C-1.34 4.02 -0.68 2.04 0 0 Z " fill="#4D5258" transform="translate(282,360)"/>
<path d="M0 0 C0.66 0.33 1.32 0.66 2 1 C0.48890239 3.3422013 -0.46097908 4.77132446 -3.0625 5.875 C-3.701875 5.91625 -4.34125 5.9575 -5 6 C-5.66 5.34 -6.32 4.68 -7 4 C-1.7265625 0.77734375 -1.7265625 0.77734375 0 0 Z " fill="#484C52" transform="translate(54,273)"/>
<path d="M0 0 C2.02045442 0.60183749 4.02111039 1.27306096 6 2 C6.33 2.66 6.66 3.32 7 4 C5.02 4.66 3.04 5.32 1 6 C0.67 4.02 0.34 2.04 0 0 Z " fill="#808386" transform="translate(357,225)"/>
<path d="M0 0 C0.33 1.32 0.66 2.64 1 4 C-3.455 5.485 -3.455 5.485 -8 7 C-5.79419342 2.58838683 -5.35118592 2.45039531 -1 1 C-0.67 0.67 -0.34 0.34 0 0 Z " fill="#3F4249" transform="translate(187,201)"/>
<path d="M0 0 C0.66 0.33 1.32 0.66 2 1 C1 4 1 4 -1.0625 5.1875 C-1.701875 5.455625 -2.34125 5.72375 -3 6 C-3 5.34 -3 4.68 -3 4 C-4.32 4.33 -5.64 4.66 -7 5 C-4.88437775 2.67281553 -2.94982021 1.14186589 0 0 Z " fill="#86898D" transform="translate(212,186)"/>
<path d="M0 0 C0.66 0.99 1.32 1.98 2 3 C-0.12780579 5.34058637 -2.11562221 6.70700306 -5 8 C-4.6875 6.0625 -4.6875 6.0625 -4 4 C-3.01 3.67 -2.02 3.34 -1 3 C-0.67 2.01 -0.34 1.02 0 0 Z " fill="#3B3D39" transform="translate(237,25)"/>
<path d="M0 0 C1.2065625 0.0309375 1.2065625 0.0309375 2.4375 0.0625 C2.7675 0.7225 3.0975 1.3825 3.4375 2.0625 C2.1175 1.7325 0.7975 1.4025 -0.5625 1.0625 C-0.5625 1.7225 -0.5625 2.3825 -0.5625 3.0625 C-3.4375 3.1875 -3.4375 3.1875 -6.5625 3.0625 C-7.2225 2.4025 -7.8825 1.7425 -8.5625 1.0625 C-7.3559375 1.0934375 -7.3559375 1.0934375 -6.125 1.125 C-3.0866539 1.050894 -3.0383461 0.074106 0 0 Z " fill="#515253" transform="translate(318.5625,487.9375)"/>
<path d="M0 0 C1.32 0 2.64 0 4 0 C4 1.32 4 2.64 4 4 C4.66 4 5.32 4 6 4 C5.34 5.32 4.68 6.64 4 8 C2 5 2 5 2 1 C1.34 0.67 0.68 0.34 0 0 Z " fill="#333532" transform="translate(233,463)"/>
<path d="M0 0 C0.66 0 1.32 0 2 0 C2 2.64 2 5.28 2 8 C1.01 7.67 0.02 7.34 -1 7 C-0.67 4.69 -0.34 2.38 0 0 Z " fill="#4A4E53" transform="translate(210,353)"/>
<path d="M0 0 C2.475 0.495 2.475 0.495 5 1 C5 1.66 5 2.32 5 3 C5.99 3.66 6.98 4.32 8 5 C2.25 5.125 2.25 5.125 0 4 C0 2.68 0 1.36 0 0 Z " fill="#121216" transform="translate(461,307)"/>
<path d="M0 0 C0 0.66 0 1.32 0 2 C-2.3125 3.6875 -2.3125 3.6875 -5 5 C-5.99 4.67 -6.98 4.34 -8 4 C-4.5 0 -4.5 0 0 0 Z " fill="#7B7E84" transform="translate(224,286)"/>
<path d="M0 0 C2.475 0.99 2.475 0.99 5 2 C4.01 2.495 4.01 2.495 3 3 C1.86649466 5.01669827 1.86649466 5.01669827 1 7 C1 6.34 1 5.68 1 5 C-0.32 5.33 -1.64 5.66 -3 6 C-2.505 5.566875 -2.01 5.13375 -1.5 4.6875 C0.33218192 3.00259517 0.33218192 3.00259517 0 0 Z " fill="#7A7E84" transform="translate(445,272)"/>
<path d="M0 0 C-1.423125 0.928125 -1.423125 0.928125 -2.875 1.875 C-5.94445109 3.81970969 -5.94445109 3.81970969 -8 6 C-8.33 5.34 -8.66 4.68 -9 4 C-8.67 3.01 -8.34 2.02 -8 1 C-2.59770115 -1.29885057 -2.59770115 -1.29885057 0 0 Z " fill="#4B5058" transform="translate(110,247)"/>
<path d="M0 0 C0.33 0 0.66 0 1 0 C1.33 4.29 1.66 8.58 2 13 C1.01 13 0.02 13 -1 13 C-0.67 8.71 -0.34 4.42 0 0 Z " fill="#BABAB3" transform="translate(269,27)"/>
<path d="M0 0 C-0.33 0.99 -0.66 1.98 -1 3 C-2.175625 2.9690625 -2.175625 2.9690625 -3.375 2.9375 C-5.98114961 2.81315937 -5.98114961 2.81315937 -8 4 C-7 1 -7 1 -5.125 -0.25 C-3 -1 -3 -1 0 0 Z M0 -1 C2 0 2 0 2 0 Z " fill="#565855" transform="translate(248,5)"/>
<path d="M0 0 C1.32 1.65 2.64 3.3 4 5 C-2.75 4.25 -2.75 4.25 -5 2 C-3.35 1.34 -1.7 0.68 0 0 Z " fill="#6E6F71" transform="translate(273,473)"/>
<path d="M0 0 C0.66 0 1.32 0 2 0 C2.33 1.98 2.66 3.96 3 6 C3.66 6 4.32 6 5 6 C4.67 6.99 4.34 7.98 4 9 C1.47740939 7.02579865 1.0070192 6.03254358 0.3125 2.8125 C0.209375 1.884375 0.10625 0.95625 0 0 Z " fill="#494B4F" transform="translate(204,347)"/>
<path d="M0 0 C-2.31 1.32 -4.62 2.64 -7 4 C-7.33 3.01 -7.66 2.02 -8 1 C-4.93251126 -0.86240388 -3.40254489 -1.2151946 0 0 Z " fill="#464C55" transform="translate(179,210)"/>
<path d="M0 0 C-1.1875 1.5 -1.1875 1.5 -3 3 C-5.6875 3.1875 -5.6875 3.1875 -8 3 C-5.45189726 -0.82215411 -4.39145359 -1.46381786 0 0 Z " fill="#4A4D55" transform="translate(47,279)"/>
<path d="M0 0 C6.625 0.75 6.625 0.75 10 3 C7.03 3 4.06 3 1 3 C0.67 2.01 0.34 1.02 0 0 Z " fill="#363B3F" transform="translate(331,270)"/>
<path d="M0 0 C0.33 0 0.66 0 1 0 C1 2.64 1 5.28 1 8 C1.66 8.33 2.32 8.66 3 9 C1.35 9.66 -0.3 10.32 -2 11 C-1.34 7.37 -0.68 3.74 0 0 Z " fill="#333639" transform="translate(175,199)"/>
<path d="M0 0 C0.66 0 1.32 0 2 0 C1.375 1.875 1.375 1.875 0 4 C-3.125 5.25 -3.125 5.25 -6 6 C-6.33 5.34 -6.66 4.68 -7 4 C-5.824375 3.566875 -5.824375 3.566875 -4.625 3.125 C-1.90328368 2.15087746 -1.90328368 2.15087746 0 0 Z " fill="#494C54" transform="translate(226,182)"/>
</svg>
