<?xml version="1.0" encoding="UTF-8"?>
<svg version="1.1" xmlns="http://www.w3.org/2000/svg" width="499" height="446">
<path d="M0 0 C3 2 3 2 3.625 4.27734375 C3.74875 5.15519531 3.8725 6.03304688 4 6.9375 C4.42068346 10.63144436 4.42068346 10.63144436 6.55078125 13.4921875 C8 15 8 15 8.29296875 17.48046875 C8.1953125 19.98697917 8.09765625 22.49348958 8 25 C19.05063962 22.68941171 29.24116935 18.56965036 39.68017578 14.3894043 C41.91630185 13.49709712 44.15702009 12.61719477 46.3984375 11.73828125 C47.07353363 11.46333328 47.74862976 11.18838531 48.44418335 10.90510559 C52.44763489 9.34130152 55.70805937 8.70908428 60 9 C62.00849574 13.14252247 62.48262992 16.4150158 62 21 C59.41073984 25.56750332 56.6340738 28.35206899 52.375 31.375 C51.3128125 32.14585938 50.250625 32.91671875 49.15625 33.7109375 C48.1146875 34.46632812 47.073125 35.22171875 46 36 C39.92760482 40.6614563 34.18314368 45.5938704 28.53125 50.75390625 C25.13769889 53.76515916 21.60219283 56.57423188 18.03125 59.37109375 C15.93909047 60.9880648 15.93909047 60.9880648 14 63 C13.61049233 72.0696041 16.34240582 81.85186204 17.8125 90.8125 C17.94628052 91.63536499 18.08006104 92.45822998 18.21789551 93.30603027 C19.89651533 103.62831193 21.68691123 113.91320898 23.73266602 124.16992188 C25.27579933 132.06201754 26.20335133 140.00206667 27 148 C29.54465533 145.74419743 30.00129849 144.99480606 30.875 141.5 C32 138 32 138 34.25 135.9375 C37.91342298 134.6886058 39.55326263 135.35156039 43 137 C44.875 138.625 44.875 138.625 46 140 C46.66 139.175 47.32 138.35 48 137.5 C50.97558694 135.02034421 51.52319401 134.59034417 55.125 134.4375 C59 135 59 135 60.67578125 136.71875 C62.15316715 139.26386317 62.63170867 141.15570411 63.0625 144.0625 C63.21976562 145.11050781 63.37703125 146.15851563 63.5390625 147.23828125 C63.88601995 150.06980684 64.19206169 152.89138976 64.4609375 155.73046875 C64.54077881 156.55861084 64.62062012 157.38675293 64.70288086 158.23999023 C64.85572894 159.87519436 64.99771938 161.51146126 65.12719727 163.14868164 C65.62041868 168.56618943 66.89605397 172.97804708 69 178 C76.216676 175.75927619 82.95804694 172.88643583 89.80078125 169.69140625 C91.49295525 168.90546837 91.49295525 168.90546837 93.21931458 168.10365295 C106.33494924 161.9697374 119.26213443 155.46083823 132.1875 148.9375 C136.92924104 146.54730019 141.67300088 144.16113228 146.41796875 141.77734375 C147.56575806 141.20051849 148.71354736 140.62369324 149.89611816 140.02938843 C158.30272189 135.81792932 166.76537728 131.73576469 175.25868225 127.70262146 C182.45981693 124.27737284 189.56512863 120.70921438 196.625 117 C197.73891113 116.42185547 198.85282227 115.84371094 200.00048828 115.24804688 C205.43504434 112.42179851 210.8394963 109.55251888 216.203125 106.59375 C217.16395996 106.07039063 218.12479492 105.54703125 219.11474609 105.0078125 C220.90747815 104.02851715 222.69226706 103.03448567 224.46728516 102.0234375 C230.24513137 98.88235814 230.24513137 98.88235814 234.0078125 99.46875 C236 101 236 101 236.7890625 102.7578125 C236.85867188 103.49773437 236.92828125 104.23765625 237 105 C237.09023438 105.92554687 237.18046875 106.85109375 237.2734375 107.8046875 C237.32371094 109.32449219 237.32371094 109.32449219 237.375 110.875 C237.42398437 111.88304688 237.47296875 112.89109375 237.5234375 113.9296875 C236.69703011 118.77712189 234.04190384 121.53509655 230.17529297 124.30908203 C228.06298752 125.63886146 225.91841848 126.88892932 223.75 128.125 C217.4114212 131.86350088 211.29085713 135.77046995 205.3125 140.0625 C200.25828466 143.68622273 195.19002564 147.26056192 190 150.6875 C169.84529621 164.01976048 149.89849001 177.66472512 130.4440918 192.00195312 C126.38258133 194.99413521 122.29710369 197.94925946 118.1875 200.875 C100.2468291 213.48077253 100.2468291 213.48077253 83 227 C81.88818359 227.89332031 81.88818359 227.89332031 80.75390625 228.8046875 C64.77609937 242.15183293 54.07254912 262.1085856 44.875 280.4375 C44.1219438 281.92035387 43.36803848 283.40277684 42.61328125 284.88476562 C40.75956322 288.53059678 38.9203445 292.18350121 37.08642578 295.83932495 C35.99517261 298.00960068 34.89672667 300.17611202 33.796875 302.34204102 C30.35138595 309.1458945 26.95463452 315.92254514 24.25 323.0625 C23.98574219 323.72314453 23.72148437 324.38378906 23.44921875 325.06445312 C22.56434857 327.35784854 21.77034754 329.66551297 21 332 C20.66073486 333.01731201 20.32146973 334.03462402 19.97192383 335.08276367 C16.79739329 345.62681832 16.06976072 356.06822785 15.3888855 367.02072144 C14.32935707 383.68176182 12.76476257 400.06684298 9.4375 416.4375 C9.28961029 417.17036224 9.14172058 417.90322449 8.98934937 418.65829468 C7.37368652 426.55341598 5.50205878 434.3340935 3 442 C1.35 442 -0.3 442 -2 442 C-4.84997231 432.55404166 -7.20362244 423.14844109 -9 413.4375 C-9.12695251 412.75800293 -9.25390503 412.07850586 -9.38470459 411.37841797 C-12.15799582 396.29861995 -13.44766661 381.10489626 -14.53125 365.82202148 C-15.61737385 351.08873116 -17.93237816 337.07357338 -23.375 323.25 C-23.70314697 322.40276367 -24.03129395 321.55552734 -24.36938477 320.68261719 C-29.51021618 307.80017715 -35.7892642 295.3914952 -42 283 C-42.43489746 282.12762695 -42.86979492 281.25525391 -43.31787109 280.35644531 C-51.61951395 263.80894552 -60.84441277 248.1364379 -74 235 C-74.81339844 234.11570313 -75.62679687 233.23140625 -76.46484375 232.3203125 C-84.66776263 223.59918149 -94.27381373 216.90785026 -104 210 C-105.23487284 209.11527779 -106.46929513 208.22992615 -107.703125 207.34375 C-109.94028461 205.73949431 -112.18148231 204.14112566 -114.42578125 202.546875 C-118.54889835 199.61457081 -122.64944204 196.65123055 -126.75 193.6875 C-127.50804932 193.14029297 -128.26609863 192.59308594 -129.04711914 192.02929688 C-132.87694687 189.26337758 -136.70117825 186.49022293 -140.515625 183.703125 C-141.2674707 183.15567627 -142.01931641 182.60822754 -142.79394531 182.04418945 C-144.17566314 181.03787194 -145.55552557 180.02899642 -146.93261719 179.01635742 C-154.31406076 173.64926054 -161.95599074 168.66303277 -169.55993652 163.61965942 C-173.52593312 160.98711981 -177.48532091 158.34468497 -181.4453125 155.703125 C-183.04204869 154.63871593 -184.63880997 153.57434451 -186.2355957 152.51000977 C-189.57333187 150.28492236 -192.91030905 148.05870203 -196.24682617 145.83178711 C-203.750643 140.82456028 -211.25706095 135.82211319 -218.79296875 130.86328125 C-219.92506259 130.11635512 -221.05706543 129.36929104 -222.18896484 128.62207031 C-224.21346453 127.28717275 -226.24095984 125.95680289 -228.27197266 124.63183594 C-229.14772949 124.05336914 -230.02348633 123.47490234 -230.92578125 122.87890625 C-231.67255127 122.3897876 -232.41932129 121.90066895 -233.1887207 121.39672852 C-235 120 -235 120 -237 117 C-237.51764583 110.89177922 -236.79260773 106.48891864 -234 101 C-230.78682247 99.67726084 -229.31857407 99.87783045 -226.06640625 101.125 C-224.91011719 101.74375 -223.75382812 102.3625 -222.5625 103 C-221.12961132 103.75004642 -219.69594853 104.49861495 -218.26171875 105.24609375 C-217.03267822 105.89360596 -217.03267822 105.89360596 -215.77880859 106.55419922 C-210.81491673 109.13688834 -205.79843558 111.61536666 -200.78933716 114.1088562 C-197.53992682 115.72757838 -194.29358014 117.35242327 -191.046875 118.9765625 C-189.71030074 119.64488533 -188.37371212 120.31317945 -187.03710938 120.98144531 C-178.96289064 125.01855468 -178.96289064 125.01855468 -176.95233345 126.02383423 C-175.62554588 126.68722738 -174.29875731 127.35061851 -172.9719677 128.01400757 C-169.74212169 129.6289196 -166.5122925 131.24386524 -163.28250122 132.85888672 C-155.8427662 136.57905705 -155.8427662 136.57905705 -148.40185547 140.296875 C-141.80459259 143.59226011 -135.21264496 146.89794738 -128.62530518 150.21313477 C-124.50934509 152.28373743 -120.3917366 154.35104954 -116.27392578 156.41796875 C-114.17750051 157.47122009 -112.08179442 158.52590417 -109.98681641 159.58203125 C-99.65654966 164.78834358 -89.31448547 169.97599314 -78.8046875 174.8125 C-78.08088898 175.15635742 -77.35709045 175.50021484 -76.61135864 175.85449219 C-72.69436733 177.61687672 -70.13558089 178.43706669 -66 177 C-65.72735625 175.27111786 -65.45709605 173.54186001 -65.1875 171.8125 C-64.91292969 170.05679688 -64.91292969 170.05679688 -64.6328125 168.265625 C-64.14693041 165.07268556 -63.71788445 161.87500504 -63.3046875 158.671875 C-63.18198486 157.74656982 -63.05928223 156.82126465 -62.93286133 155.86791992 C-62.68962647 154.02545997 -62.45481679 152.18186431 -62.22924805 150.3371582 C-61.56654425 145.39158682 -60.80632222 141.25365063 -58 137 C-54.625 135.8125 -54.625 135.8125 -51 136 C-48.3125 138.5 -48.3125 138.5 -46 141 C-42.88810326 140.90847363 -41.65325623 139.76883749 -39 138 C-35.7264018 138.16787683 -34.28190382 138.76508015 -31.75 140.875 C-30 143 -30 143 -29 146 C-28.01 146 -27.02 146 -26 146 C-22.63970622 127.60514357 -19.46913617 109.18141904 -16.54299927 90.71224976 C-16.22314618 88.69877 -15.90029884 86.68576358 -15.57443237 84.67324829 C-15.11503115 81.82905185 -14.66725651 78.98326152 -14.22265625 76.13671875 C-14.08340729 75.286008 -13.94415833 74.43529724 -13.8006897 73.55880737 C-12.91065626 67.74014768 -12.91065626 67.74014768 -14 62 C-16.05378054 59.56643049 -16.05378054 59.56643049 -18.75 57.3125 C-19.23807129 56.88316162 -19.72614258 56.45382324 -20.22900391 56.01147461 C-24.35024361 52.43682361 -28.65746655 49.11475528 -33.00952148 45.828125 C-39.21471866 41.12902582 -45.10514931 36.07935751 -51 31 C-52.26650391 29.92105469 -52.26650391 29.92105469 -53.55859375 28.8203125 C-58.87275391 24.25449219 -58.87275391 24.25449219 -60 22 C-60.2370668 17.10061947 -60.28757342 14.3416863 -58 10 C-49.39660429 10.39664393 -41.89713736 13.34035798 -33.9375 16.375 C-32.6012657 16.87594592 -31.26467883 17.37595245 -29.92773438 17.875 C-20.60995554 21.36163782 -20.60995554 21.36163782 -16.42626953 23.02050781 C-12.99455575 24.37222659 -10.75797245 25 -7 25 C-7.03480469 24.31292969 -7.06960937 23.62585938 -7.10546875 22.91796875 C-7.13253906 22.01691406 -7.15960938 21.11585937 -7.1875 20.1875 C-7.22230469 19.29417969 -7.25710937 18.40085937 -7.29296875 17.48046875 C-6.93819561 14.4767228 -6.11545829 14.03041474 -4 12 C-3.28419121 9.57039105 -3.28419121 9.57039105 -2.9375 6.9375 C-2.20833333 2.20833333 -2.20833333 2.20833333 0 0 Z " fill="#4D3538" transform="translate(243,4)"/>
<path d="M0 0 C0.99 0.495 0.99 0.495 2 1 C2 1.99 2 2.98 2 4 C2.99 4 3.98 4 5 4 C5 5.65 5 7.3 5 9 C5.66 9 6.32 9 7 9 C7.15855469 9.74121094 7.31710938 10.48242188 7.48046875 11.24609375 C9.10568318 18.58200638 11.02811446 25.74458582 13.28588867 32.90991211 C15.75611451 40.95998736 16.1543687 48.62978582 16 57 C16.58491211 56.99476318 17.16982422 56.98952637 17.77246094 56.98413086 C20.43162963 56.96329842 23.09078111 56.95031993 25.75 56.9375 C26.67039063 56.92912109 27.59078125 56.92074219 28.5390625 56.91210938 C29.87324219 56.90727539 29.87324219 56.90727539 31.234375 56.90234375 C32.05131836 56.89710693 32.86826172 56.89187012 33.70996094 56.88647461 C35.93968135 56.99700979 37.86133755 57.37944433 40 58 C39.97679687 57.06542969 39.95359375 56.13085938 39.9296875 55.16796875 C39.78056624 44.31407145 40.68898065 33.76908755 42 23 C43.32 22.67 44.64 22.34 46 22 C46.103125 20.72125 46.20625 19.4425 46.3125 18.125 C46.48828125 15.9453125 46.48828125 15.9453125 47 14 C47.99 13.34 48.98 12.68 50 12 C49.36771225 15.65944316 48.34550284 19.11123628 47.22927856 22.64901733 C43.92009086 33.45354137 42.97493872 44.00904776 42.31344604 55.24703979 C41.31395943 71.83722277 39.75239716 88.14146729 36.4375 104.4375 C36.28951965 105.17063416 36.14153931 105.90376831 35.98907471 106.65911865 C34.37350894 114.5539771 32.50197364 122.33435436 30 130 C28.35 130 26.7 130 25 130 C22.15002769 120.55404166 19.79637756 111.14844109 18 101.4375 C17.87304749 100.75800293 17.74609497 100.07850586 17.61529541 99.37841797 C14.84200418 84.29861995 13.55233339 69.10489626 12.46875 53.82202148 C11.37369447 38.96105763 9.15063998 24.92692614 3.25 11.125 C0 3.33826531 0 3.33826531 0 0 Z " fill="#4B3338" transform="translate(216,316)"/>
<path d="M0 0 C1.875 1.625 1.875 1.625 3 3 C3.66 2.175 4.32 1.35 5 0.5 C7.97558694 -1.97965579 8.52319401 -2.40965583 12.125 -2.5625 C16 -2 16 -2 17.67578125 -0.28125 C19.15316715 2.26386317 19.63170867 4.15570411 20.0625 7.0625 C20.21976562 8.11050781 20.37703125 9.15851563 20.5390625 10.23828125 C20.88601995 13.06980684 21.19206169 15.89138976 21.4609375 18.73046875 C21.54077881 19.55861084 21.62062012 20.38675293 21.70288086 21.23999023 C21.85572894 22.87519436 21.99771938 24.51146126 22.12719727 26.14868164 C22.62041868 31.56618943 23.89605397 35.97804708 26 41 C28.31 40.67 30.62 40.34 33 40 C32.505 40.99 32.505 40.99 32 42 C31.34 42 30.68 42 30 42 C30 42.99 30 43.98 30 45 C27.1875 45.25 27.1875 45.25 24 45 C20.84063943 42.16746984 20.46625359 39.10303158 20 35 C18.09415804 35.20376178 18.09415804 35.20376178 16 36 C15.3503125 37.0209375 15.3503125 37.0209375 14.6875 38.0625 C13 40 13 40 9.75 40.4375 C2.99381034 39.64927787 -1.74804388 37.33817012 -6 32 C-6.69112209 29.14130077 -6.65604273 26.42763453 -6.5625 23.5 C-6.57893555 22.38044922 -6.57893555 22.38044922 -6.59570312 21.23828125 C-6.52791158 16.13131845 -5.48660256 13.88546439 -2 10 C-1.66534111 6.29059225 -1.66534111 6.29059225 -2 3 C-3.98 3 -5.96 3 -8 3 C-9.88391785 6.26545761 -10.49287967 9.28111761 -11 13 C-12.65 12.67 -14.3 12.34 -16 12 C-15.54625 11.484375 -15.0925 10.96875 -14.625 10.4375 C-12.77731802 7.9654459 -12.77731802 7.9654459 -12.125 4.4375 C-11 1 -11 1 -8.75 -1.0625 C-5.08657702 -2.3113942 -3.44673737 -1.64843961 0 0 Z " fill="#776768" transform="translate(286,141)"/>
<path d="M0 0 C0.99 0.495 0.99 0.495 2 1 C2 1.99 2 2.98 2 4 C2.99 4 3.98 4 5 4 C5 5.65 5 7.3 5 9 C5.66 9 6.32 9 7 9 C7.15855469 9.74121094 7.31710938 10.48242188 7.48046875 11.24609375 C9.10568318 18.58200638 11.02811446 25.74458582 13.28588867 32.90991211 C15.75611451 40.95998736 16.1543687 48.62978582 16 57 C16.58491211 56.99476318 17.16982422 56.98952637 17.77246094 56.98413086 C20.43162963 56.96329842 23.09078111 56.95031993 25.75 56.9375 C26.67039063 56.92912109 27.59078125 56.92074219 28.5390625 56.91210938 C29.87324219 56.90727539 29.87324219 56.90727539 31.234375 56.90234375 C32.05131836 56.89710693 32.86826172 56.89187012 33.70996094 56.88647461 C35.93968135 56.99700979 37.86133755 57.37944433 40 58 C39.97679687 57.06542969 39.95359375 56.13085938 39.9296875 55.16796875 C39.78056624 44.31407145 40.68898065 33.76908755 42 23 C43.32 22.67 44.64 22.34 46 22 C46.103125 20.72125 46.20625 19.4425 46.3125 18.125 C46.48828125 15.9453125 46.48828125 15.9453125 47 14 C47.99 13.34 48.98 12.68 50 12 C49.37359726 15.62340452 48.36322502 19.03455839 47.25138855 22.53530884 C43.40282693 35.04438428 42.57032267 47.62741234 41.6875 60.625 C41.51923716 62.90376894 41.34932547 65.18241676 41.17773438 67.4609375 C40.76618995 72.97271049 40.37482186 78.48561421 40 84 C39.67 84 39.34 84 39 84 C39 77.4 39 70.8 39 64 C37.35 64.99 35.7 65.98 34 67 C33.01 67.33 32.02 67.66 31 68 C31 68.66 31 69.32 31 70 C26.57179377 70.56771875 24.03480872 69.65945529 20.27734375 67.48046875 C19.47417725 67.01922607 18.67101074 66.5579834 17.84350586 66.08276367 C17.23514893 65.72545166 16.62679199 65.36813965 16 65 C16.3074354 68.41714219 16.62183088 71.83360937 16.9375 75.25 C17.02451172 76.21808594 17.11152344 77.18617188 17.20117188 78.18359375 C17.28818359 79.11816406 17.37519531 80.05273438 17.46484375 81.015625 C17.543396 81.87446289 17.62194824 82.73330078 17.70288086 83.61816406 C17.97736831 85.81857453 18.4520383 87.85570358 19 90 C19.06624507 91.74886981 19.08552595 93.50002748 19.0625 95.25 C19.05347656 96.14203125 19.04445312 97.0340625 19.03515625 97.953125 C19.02355469 98.62859375 19.01195312 99.3040625 19 100 C18.67 100 18.34 100 18 100 C15.17226211 85.92352311 13.90491236 71.87968988 12.84594727 57.57470703 C11.63399226 41.44503154 9.66359238 26.12675042 3.25 11.125 C0 3.33826531 0 3.33826531 0 0 Z " fill="#888283" transform="translate(216,316)"/>
<path d="M0 0 C3 2 3 2 3.625 4.27734375 C3.74875 5.15519531 3.8725 6.03304688 4 6.9375 C4.42068346 10.63144436 4.42068346 10.63144436 6.55078125 13.4921875 C8 15 8 15 8.29296875 17.48046875 C8.1953125 19.98697917 8.09765625 22.49348958 8 25 C19.05063962 22.68941171 29.24116935 18.56965036 39.68017578 14.3894043 C41.91630185 13.49709712 44.15702009 12.61719477 46.3984375 11.73828125 C47.07353363 11.46333328 47.74862976 11.18838531 48.44418335 10.90510559 C52.44763489 9.34130152 55.70805937 8.70908428 60 9 C62.00849574 13.14252247 62.48262992 16.4150158 62 21 C58.94736842 26.68421053 58.94736842 26.68421053 55 28 C55 27.34 55 26.68 55 26 C55.99 25.34 56.98 24.68 58 24 C58.36498034 21.10391601 58.36498034 21.10391601 58.1875 17.875 C58.16042969 16.77929688 58.13335937 15.68359375 58.10546875 14.5546875 C58.07066406 13.71164063 58.03585937 12.86859375 58 12 C52.0370935 12.50634737 47.37846189 13.82147936 41.9375 16.25 C21.53969922 25 21.53969922 25 15 25 C14.505 26.485 14.505 26.485 14 28 C6.25 28.125 6.25 28.125 4 27 C4 23.04 4 19.08 4 15 C2.02 15.33 0.04 15.66 -2 16 C-2.09087891 17.17369141 -2.09087891 17.17369141 -2.18359375 18.37109375 C-2.26738281 19.38300781 -2.35117188 20.39492188 -2.4375 21.4375 C-2.51871094 22.44683594 -2.59992188 23.45617187 -2.68359375 24.49609375 C-3 27 -3 27 -4 28 C-11.45978137 28.60159527 -17.1834119 27.03094721 -24 24 C-24.33 23.67 -24.66 23.34 -25 23 C-26.258125 22.87625 -27.51625 22.7525 -28.8125 22.625 C-32.49537185 22.20856219 -34.07865919 21.30166245 -37 19 C-39.22973356 18.16653505 -41.48425111 17.46615007 -43.7578125 16.76171875 C-46 16 -46 16 -49.25 14.3125 C-52.17360705 12.91714209 -53.82444012 12.88810947 -57 13 C-57.73309959 19.35700087 -57.73309959 19.35700087 -55.6640625 25.22265625 C-54.18027954 26.91890579 -52.67546697 28.49407433 -51 30 C-54.98684727 28.17695445 -57.86556129 25.87770538 -60 22 C-60.84792263 17.54626499 -60.18296919 13.94512504 -58 10 C-49.39660429 10.39664393 -41.89713736 13.34035798 -33.9375 16.375 C-32.6012657 16.87594592 -31.26467883 17.37595245 -29.92773438 17.875 C-20.60995554 21.36163782 -20.60995554 21.36163782 -16.42626953 23.02050781 C-12.99455575 24.37222659 -10.75797245 25 -7 25 C-7.03480469 24.31292969 -7.06960937 23.62585938 -7.10546875 22.91796875 C-7.13253906 22.01691406 -7.15960938 21.11585937 -7.1875 20.1875 C-7.23970703 18.84751953 -7.23970703 18.84751953 -7.29296875 17.48046875 C-6.93819561 14.4767228 -6.11545829 14.03041474 -4 12 C-3.28419121 9.57039105 -3.28419121 9.57039105 -2.9375 6.9375 C-2.20833333 2.20833333 -2.20833333 2.20833333 0 0 Z " fill="#60565A" transform="translate(243,4)"/>
<path d="M0 0 C1.258125 -0.04125 2.51625 -0.0825 3.8125 -0.125 C4.52019531 -0.14820313 5.22789062 -0.17140625 5.95703125 -0.1953125 C8 0 8 0 11 2 C11.51171875 5.0390625 11.51171875 5.0390625 11.6875 8.625 C11.78611328 10.40777344 11.78611328 10.40777344 11.88671875 12.2265625 C11.92410156 13.14179688 11.96148437 14.05703125 12 15 C11.01 15 10.02 15 9 15 C9 14.34 9 13.68 9 13 C3.30958807 15.02326989 3.30958807 15.02326989 -1 19 C-1.72197162 21.60611077 -1.72197162 21.60611077 -2 24 C0.26432237 23.12762523 0.26432237 23.12762523 1.1875 20.4375 C1.785625 19.633125 2.38375 18.82875 3 18 C6.5625 17.5 6.5625 17.5 10 18 C12.36666763 21.55000144 12.65591047 22.81857078 12 27 C10.40231401 29.64323049 8.67670028 31.44706207 6 33 C1.99091257 33.57601831 -1.00548792 32.54698164 -4.5 30.625 C-6.98044226 26.28422605 -6.71605309 21.86494895 -6 17 C-4.94304699 14.4070078 -3.93084464 13.10121329 -2 11 C-1.34 11 -0.68 11 0 11 C0 10.34 0 9.68 0 9 C1.98 9 3.96 9 6 9 C6 8.34 6 7.68 6 7 C3.69 7 1.38 7 -1 7 C-0.67 4.69 -0.34 2.38 0 0 Z " fill="#675457" transform="translate(292,142)"/>
<path d="M0 0 C1 1 1 1 1.09765625 3.72265625 C1.08605469 4.82480469 1.07445312 5.92695313 1.0625 7.0625 C1.05347656 8.16722656 1.04445313 9.27195312 1.03515625 10.41015625 C1.02355469 11.26480469 1.01195312 12.11945312 1 13 C0.360625 13.2475 -0.27875 13.495 -0.9375 13.75 C-1.618125 14.1625 -2.29875 14.575 -3 15 C-3.14203857 15.63156006 -3.28407715 16.26312012 -3.43041992 16.91381836 C-4.1407812 19.51563454 -4.99195954 20.10139664 -7.17578125 21.62890625 C-7.83368652 22.10166992 -8.4915918 22.57443359 -9.16943359 23.06152344 C-9.87664551 23.5568457 -10.58385742 24.05216797 -11.3125 24.5625 C-17.91137278 29.31937887 -23.8906493 34.371362 -29.7421875 40.015625 C-32 42 -32 42 -34 42 C-33.34 37.71 -32.68 33.42 -32 29 C-30.02 28.34 -28.04 27.68 -26 27 C-24.9590934 25.35857037 -23.95495674 23.69287785 -23 22 C-21.9790625 21.7525 -21.9790625 21.7525 -20.9375 21.5 C-19.9784375 21.2525 -19.9784375 21.2525 -19 21 C-18.690625 20.175 -18.38125 19.35 -18.0625 18.5 C-17.5365625 17.2625 -17.5365625 17.2625 -17 16 C-15.824375 15.7834375 -15.824375 15.7834375 -14.625 15.5625 C-11.64760691 15.2374335 -11.64760691 15.2374335 -9.875 11.9375 C-9.25625 10.968125 -8.6375 9.99875 -8 9 C-7.01 9 -6.02 9 -5 9 C-5.37596209 11.78211944 -5.67318459 13.5879284 -7.4375 15.8125 C-9 17 -9 17 -11 17 C-11 17.99 -11 18.98 -11 20 C-10.21625 19.505 -9.4325 19.01 -8.625 18.5 C-6 17 -6 17 -4 17 C-4 15.68 -4 14.36 -4 13 C-3.01 13 -2.02 13 -1 13 C-1.495 8.545 -1.495 8.545 -2 4 C-8.435 4.495 -8.435 4.495 -15 5 C-11.18983365 1.18983365 -5.35801413 -0.64945626 0 0 Z " fill="#66565B" transform="translate(301,15)"/>
<path d="M0 0 C5.85632824 1.69329316 11.10479479 4.42587274 16.5234375 7.1640625 C18.05189804 7.93041519 18.05189804 7.93041519 19.61123657 8.71224976 C22.86772784 10.34607461 26.12140368 11.98541899 29.375 13.625 C31.52455321 14.70479817 33.67429107 15.78422885 35.82421875 16.86328125 C39.98761819 18.9534914 44.1500218 21.04566251 48.31152344 23.13964844 C55.5343294 26.7731685 62.7663867 30.38805828 70 34 C71.68756049 34.843629 73.37507048 35.68735906 75.0625 36.53125 C75.7328125 36.86640625 76.403125 37.2015625 77.09375 37.546875 C80.0625 39.03125 83.03125 40.515625 86 42 C82.57056481 43.18771723 80.62215325 42.80226223 77.25 41.5625 C76.45078125 41.27503906 75.6515625 40.98757812 74.828125 40.69140625 C74.22484375 40.46324219 73.6215625 40.23507813 73 40 C73 39.34 73 38.68 73 38 C72.16855469 37.81824219 71.33710937 37.63648438 70.48046875 37.44921875 C69.39378906 37.19785156 68.30710937 36.94648438 67.1875 36.6875 C66.10855469 36.44386719 65.02960938 36.20023438 63.91796875 35.94921875 C60.94328648 34.98155102 60.03944912 34.23174004 58 32 C56.03657878 31.04796003 56.03657878 31.04796003 53.9375 30.375 C51.87387384 29.66022446 49.95515745 28.97757872 48 28 C48 27.34 48 26.68 48 26 C46.35 25.67 44.7 25.34 43 25 C42.505 23.515 42.505 23.515 42 22 C40.20898285 21.07726519 40.20898285 21.07726519 38 20.5 C37.18660156 20.2525 36.37320313 20.005 35.53515625 19.75 C34.69855469 19.5025 33.86195312 19.255 33 19 C31.47692732 18.50686348 29.95599857 18.00704648 28.4375 17.5 C27.70273437 17.25507813 26.96796875 17.01015625 26.2109375 16.7578125 C17.64044944 13.82022472 17.64044944 13.82022472 14 12 C14 11.34 14 10.68 14 10 C13.2575 9.87625 12.515 9.7525 11.75 9.625 C5.51891561 8.20884446 3.38883547 5.19436256 0 0 Z " fill="#63595A" transform="translate(36,116)"/>
<path d="M0 0 C3 2 3 2 3.625 4.27734375 C3.74875 5.15519531 3.8725 6.03304688 4 6.9375 C4.42068346 10.63144436 4.42068346 10.63144436 6.55078125 13.4921875 C8 15 8 15 8.29296875 17.48046875 C8.1953125 19.98697917 8.09765625 22.49348958 8 25 C19.05063962 22.68941171 29.24116935 18.56965036 39.68017578 14.3894043 C41.91630185 13.49709712 44.15702009 12.61719477 46.3984375 11.73828125 C47.4110817 11.3258593 47.4110817 11.3258593 48.44418335 10.90510559 C52.44763489 9.34130152 55.70805937 8.70908428 60 9 C62.00849574 13.14252247 62.48262992 16.4150158 62 21 C58.94736842 26.68421053 58.94736842 26.68421053 55 28 C55 27.34 55 26.68 55 26 C55.99 25.34 56.98 24.68 58 24 C58.36498034 21.10391601 58.36498034 21.10391601 58.1875 17.875 C58.16042969 16.77929688 58.13335937 15.68359375 58.10546875 14.5546875 C58.07066406 13.71164063 58.03585937 12.86859375 58 12 C52.14986746 12.50701149 47.58504403 13.73743702 42.25 16.125 C35.67458985 18.94049329 29.0509756 21.53693359 22.3125 23.9375 C21.47557617 24.24381348 20.63865234 24.55012695 19.77636719 24.86572266 C15.3658505 26.41770333 11.7481278 27.37586149 7 27 C6.97421875 26.24074219 6.9484375 25.48148438 6.921875 24.69921875 C6.86515625 23.70535156 6.8084375 22.71148438 6.75 21.6875 C6.70359375 20.70136719 6.6571875 19.71523438 6.609375 18.69921875 C6.22990791 15.89444455 6.22990791 15.89444455 4.12109375 14.1328125 C2.00374174 12.76058305 2.00374174 12.76058305 -0.6875 13.1875 C-3.16891382 13.75815152 -3.16891382 13.75815152 -4 16 C-4.22622081 17.70363822 -4.40888473 19.41328701 -4.5625 21.125 C-4.64628906 22.03507812 -4.73007813 22.94515625 -4.81640625 23.8828125 C-4.87699219 24.58148437 -4.93757812 25.28015625 -5 26 C-5.66 25.67 -6.32 25.34 -7 25 C-7.08121924 23.39667209 -7.13929134 21.79215974 -7.1875 20.1875 C-7.22230469 19.29417969 -7.25710937 18.40085937 -7.29296875 17.48046875 C-6.93819561 14.4767228 -6.11545829 14.03041474 -4 12 C-3.28419121 9.57039105 -3.28419121 9.57039105 -2.9375 6.9375 C-2.20833333 2.20833333 -2.20833333 2.20833333 0 0 Z " fill="#9A9497" transform="translate(243,4)"/>
<path d="M0 0 C2.2199707 1.25195312 2.2199707 1.25195312 3.02856445 2.98632812 C3.26943382 5.8374349 3.31357416 8.64043477 3.2824707 11.50195312 C3.27344727 12.57960938 3.26442383 13.65726563 3.25512695 14.76757812 C3.24352539 15.58742188 3.23192383 16.40726563 3.2199707 17.25195312 C2.8899707 17.25195312 2.5599707 17.25195312 2.2199707 17.25195312 C1.5599707 12.30195312 0.8999707 7.35195312 0.2199707 2.25195312 C-3.94894394 3.08573605 -6.71493101 4.01750633 -10.4675293 5.81445312 C-15.57039757 8.25195312 -15.57039757 8.25195312 -17.7800293 8.25195312 C-17.7800293 8.91195312 -17.7800293 9.57195312 -17.7800293 10.25195312 C-29.4987793 16.11132812 -29.4987793 16.11132812 -31.6315918 17.171875 C-33.09101728 17.90556799 -34.54401152 18.65216643 -35.9909668 19.41015625 C-36.69479492 19.77560547 -37.39862305 20.14105469 -38.1237793 20.51757812 C-39.07027344 21.01692871 -39.07027344 21.01692871 -40.03588867 21.52636719 C-41.7800293 22.25195312 -41.7800293 22.25195312 -44.7800293 22.25195312 C-44.7800293 22.91195312 -44.7800293 23.57195312 -44.7800293 24.25195312 C-47.48790378 25.69032298 -50.19631091 27.12767405 -52.9050293 28.56445312 C-53.66557617 28.96857422 -54.42612305 29.37269531 -55.2097168 29.7890625 C-61.40711891 33.07475414 -67.48733512 36.22359798 -74.0925293 38.62695312 C-79.02982524 40.47562101 -83.44243242 42.58831137 -87.87768555 45.43164062 C-90.26867451 46.46266256 -91.34055856 45.96685577 -93.7800293 45.25195312 C-93.23340134 44.98601349 -92.68677338 44.72007385 -92.12358093 44.44607544 C-86.32833384 41.62588572 -80.53519909 38.80138986 -74.74316406 35.97460938 C-72.59394126 34.92634866 -70.444218 33.87911324 -68.29394531 32.83300781 C-52.21794866 25.01083246 -36.32695133 16.92120882 -20.6315918 8.36132812 C-19.58745117 7.79800781 -18.54331055 7.2346875 -17.4675293 6.65429688 C-15.36387382 5.51928888 -13.26785939 4.3700391 -11.1784668 3.20898438 C-9.63932617 2.38720703 -9.63932617 2.38720703 -8.0690918 1.54882812 C-7.16884277 1.05737305 -6.26859375 0.56591797 -5.34106445 0.05957031 C-2.7800293 -0.74804688 -2.7800293 -0.74804688 0 0 Z " fill="#948F90" transform="translate(476.780029296875,103.748046875)"/>
<path d="M0 0 C6.35869565 3.13858696 6.35869565 3.13858696 9 6 C9.678127 9.71942385 9.82710274 13.42648747 8.0390625 16.828125 C6.56407249 19.91118683 6.33904418 22.86218185 5.9375 26.25 C5.85298584 26.94875244 5.76847168 27.64750488 5.68139648 28.36743164 C5.10273861 33.38676951 4.79877515 38.39236587 4.5625 43.4375 C4.30761402 48.6228756 3.63214016 53.16474347 1.7578125 58.0234375 C-0.88732056 64.92259899 -1.49492264 72.38100369 -2.21508789 79.67993164 C-2.40948196 81.46191284 -2.69712342 83.23321993 -3 85 C-3.99 85.495 -3.99 85.495 -5 86 C-5.25787268 78.86061055 -4.29060146 72.53232525 -2.8125 65.5625 C-0.618017 54.72743867 1.16393017 43.87556018 2.75 32.9375 C2.85645844 32.20798126 2.96291687 31.47846252 3.07260132 30.72683716 C3.56863551 27.31738942 4.05195099 23.90716794 4.51782227 20.4934082 C4.80929054 18.38170214 5.11941234 16.27229382 5.46459961 14.16870117 C5.97890852 10.76546357 6.25071232 8.54253823 4.78515625 5.37109375 C4.21667969 4.73300781 3.64820313 4.09492187 3.0625 3.4375 C2.21365234 2.44556641 2.21365234 2.44556641 1.34765625 1.43359375 C0.90292969 0.96050781 0.45820313 0.48742188 0 0 Z " fill="#6A5D60" transform="translate(224,60)"/>
<path d="M0 0 C5.54854369 -0.61650485 5.54854369 -0.61650485 8 0 C10.74735565 2.78551336 11.49757483 5.25062627 12.0625 9.0625 C12.21976562 10.11050781 12.37703125 11.15851563 12.5390625 12.23828125 C12.88601995 15.06980684 13.19206169 17.89138976 13.4609375 20.73046875 C13.54077881 21.55861084 13.62062012 22.38675293 13.70288086 23.23999023 C13.85572894 24.87519436 13.99771938 26.51146126 14.12719727 28.14868164 C14.62041868 33.56618943 15.89605397 37.97804708 18 43 C21.465 42.505 21.465 42.505 25 42 C24.67 42.66 24.34 43.32 24 44 C23.34 44 22.68 44 22 44 C22 44.99 22 45.98 22 47 C19.1875 47.25 19.1875 47.25 16 47 C12.84063943 44.16746984 12.46625359 41.10303158 12 37 C10.02 37 8.04 37 6 37 C6.65355469 36.16855469 7.30710937 35.33710938 7.98046875 34.48046875 C10.43116872 30.79955415 10.43992332 27.72837708 10.3125 23.3125 C10.28800781 22.00925781 10.26351563 20.70601562 10.23828125 19.36328125 C10.14045807 16.0073859 10.14045807 16.0073859 9 13 C8.87218214 10.32605036 8.95608129 7.67904143 9 5 C5.37 4.34 1.74 3.68 -2 3 C-1.34 2.01 -0.68 1.02 0 0 Z " fill="#8C8587" transform="translate(294,139)"/>
<path d="M0 0 C4.22828483 1.31629714 8.0815002 2.92788668 12.02734375 4.93359375 C13.71053711 5.7834082 13.71053711 5.7834082 15.42773438 6.65039062 C16.58595703 7.24013672 17.74417969 7.82988281 18.9375 8.4375 C28.83769566 13.50122938 28.83769566 13.50122938 39 18 C36.05802582 19.0591107 34.71715608 18.9382886 31.5625 18.25 C30.386875 18.1675 29.21125 18.085 28 18 C25.29151077 20.37505218 25.29151077 20.37505218 23 23 C21.68 23 20.36 23 19 23 C18.1875 21.3125 18.1875 21.3125 18 19 C20.4375 16.25 20.4375 16.25 23 14 C22.13117188 13.67386719 21.26234375 13.34773437 20.3671875 13.01171875 C19.21476562 12.57472656 18.06234375 12.13773438 16.875 11.6875 C15.73804688 11.25824219 14.60109375 10.82898438 13.4296875 10.38671875 C10.16544232 9.06689297 7.05072683 7.76073106 4 6 C3.67 5.01 3.34 4.02 3 3 C1.50014391 1.33289654 1.50014391 1.33289654 0 0 Z " fill="#695E60" transform="translate(122,159)"/>
<path d="M0 0 C0.99 0.33 1.98 0.66 3 1 C1.69791667 2.46484375 0.39583333 3.9296875 -0.90625 5.39453125 C-2.28151241 7.089448 -2.28151241 7.089448 -2 10 C2.35535069 8.83857315 4.64619703 7.92300495 7 4 C9.31 4.33 11.62 4.66 14 5 C14 5.33 14 5.66 14 6 C11.69 6 9.38 6 7 6 C6.7525 6.61875 6.505 7.2375 6.25 7.875 C4.430817 10.96761109 2.09295303 11.54996052 -1.125 12.875 C-3.44605837 14.26763502 -3.93169197 15.55815307 -5 18 C-5.66 18.66 -6.32 19.32 -7 20 C-7.99 20 -8.98 20 -10 20 C-10.66 18.68 -11.32 17.36 -12 16 C-12.33 16 -12.66 16 -13 16 C-13 13.69 -13 11.38 -13 9 C-11.906875 8.566875 -10.81375 8.13375 -9.6875 7.6875 C-6.87429624 6.48184124 -4.98486073 5.38183288 -3 3 C-2 2 -1 1 0 0 Z " fill="#5E464A" transform="translate(143,172)"/>
<path d="M0 0 C0.66 0.33 1.32 0.66 2 1 C1.814375 1.5775 1.62875 2.155 1.4375 2.75 C0.95976454 5.20692525 1.24270636 6.64397534 2 9 C-0.31 8.67 -2.62 8.34 -5 8 C-4.608125 9.11375 -4.21625 10.2275 -3.8125 11.375 C-3.5 13.5546875 -3.5 13.5546875 -4 16 C-7.2526675 19.87902576 -10.9018639 23.03719938 -15 26 C-15.66 26 -16.32 26 -17 26 C-16.34 21.71 -15.68 17.42 -15 13 C-13.02 12.34 -11.04 11.68 -9 11 C-7.9590934 9.35857037 -6.95495674 7.69287785 -6 6 C-5.319375 5.835 -4.63875 5.67 -3.9375 5.5 C-3.298125 5.335 -2.65875 5.17 -2 5 C-0.70339566 2.50965614 -0.70339566 2.50965614 0 0 Z " fill="#544243" transform="translate(284,31)"/>
<path d="M0 0 C0 0.99 0 1.98 0 3 C-0.495 2.505 -0.495 2.505 -1 2 C-3.32817964 1.63239269 -5.6618385 1.29758419 -8 1 C-8.13535156 2.29292969 -8.27070313 3.58585938 -8.41015625 4.91796875 C-9.03988709 10.57890589 -9.92797562 16.18619307 -10.84399414 21.80664062 C-11.43968665 25.46604815 -12.01537629 29.11664356 -12.5 32.79296875 C-12.644375 33.85128906 -12.78875 34.90960938 -12.9375 36 C-13.10572266 37.36125 -13.10572266 37.36125 -13.27734375 38.75 C-14.21238839 41.66127412 -15.3534147 42.5339756 -18 44 C-23.75395891 43.88934694 -28.08808163 41.74301935 -33 39 C-33 38.34 -33 37.68 -33 37 C-32.41992188 37.20496094 -31.83984375 37.40992188 -31.2421875 37.62109375 C-26.8378016 39.14009813 -22.64322223 40.4047151 -18 41 C-15.86269575 37.4406027 -15.49099367 34.13335006 -15.03515625 30.0390625 C-14.87322517 28.66664562 -14.71111002 27.29425044 -14.54882812 25.921875 C-14.30390071 23.77416315 -14.06262363 21.62611996 -13.82543945 19.47753906 C-13.59248068 17.39264188 -13.34571844 15.30970884 -13.09765625 13.2265625 C-12.95851807 11.98471191 -12.81937988 10.74286133 -12.67602539 9.46337891 C-11.96846459 5.83843939 -10.88674195 3.16499113 -9 0 C-5.93109813 -1.53445094 -3.29905734 -0.54984289 0 0 Z " fill="#746D6E" transform="translate(194,141)"/>
<path d="M0 0 C11.16516827 1.69523497 21.96705443 12.2396364 28.94140625 20.65234375 C32.2578916 24.43452154 35.87525483 27.91623577 39.4699707 31.43237305 C45.00892279 36.88718916 45.00892279 36.88718916 47 40 C47 40.66 47 41.32 47 42 C47.99 42.33 48.98 42.66 50 43 C51.25 45.375 51.25 45.375 52 48 C51.67 48.99 51.34 49.98 51 51 C50.52691406 50.24976563 50.05382812 49.49953125 49.56640625 48.7265625 C44.92120708 41.536917 39.94540164 35.19233525 34 29 C33.15179688 28.07703125 32.30359375 27.1540625 31.4296875 26.203125 C23.47912238 17.73843557 14.37578915 11.09525215 4.89428711 4.43530273 C3.09586457 3.07263665 1.55038268 1.63528531 0 0 Z " fill="#736A6C" transform="translate(136,211)"/>
<path d="M0 0 C1.35738036 3.78459996 0.67757799 6.71751706 -0.109375 10.6015625 C-0.30058929 11.55631973 -0.30058929 11.55631973 -0.4956665 12.53036499 C-0.76740837 13.87768825 -1.0433661 15.22416714 -1.32324219 16.56982422 C-1.74385751 18.59541904 -2.15038886 20.62343676 -2.5546875 22.65234375 C-4.01734545 29.88763395 -5.69118987 36.98412922 -8 44 C-9.65 44 -11.3 44 -13 44 C-19.2006689 23.3812709 -19.2006689 23.3812709 -19 14 C-16.10192464 16.89807536 -16.10055205 20.28391164 -15.5 24.1875 C-14.64640497 29.59516524 -13.60946703 34.7622948 -12 40 C-11.01 40 -10.02 40 -9 40 C-8.86464844 39.31035156 -8.72929687 38.62070312 -8.58984375 37.91015625 C-7.94822781 34.74456769 -7.25519127 31.59229599 -6.5625 28.4375 C-5.32697474 22.72394903 -4.30009032 17.01024887 -3.4296875 11.23046875 C-3 9 -3 9 -2 8 C-1.835 6.845 -1.67 5.69 -1.5 4.5 C-1 1 -1 1 0 0 Z " fill="#8E888A" transform="translate(254,402)"/>
<path d="M0 0 C1.20434179 5.57008077 1.88474868 11.34454767 1 17 C-1.14149612 19.47095706 -2.3003447 20.42929146 -5 22 C-6.62731457 23.10075262 -8.25224927 24.20503031 -9.875 25.3125 C-11.24773513 26.21180008 -12.62195209 27.10886235 -14 28 C-14.66 27.67 -15.32 27.34 -16 27 C-15.34 26.62875 -14.68 26.2575 -14 25.875 C-11.64696955 24.09105222 -11.64696955 24.09105222 -11.75 20.8125 C-11.8325 19.884375 -11.915 18.95625 -12 18 C-11.01 17.67 -10.02 17.34 -9 17 C-8.67 17.66 -8.34 18.32 -8 19 C-7.01 19.33 -6.02 19.66 -5 20 C-4.67 18.35 -4.34 16.7 -4 15 C-3.67 15.66 -3.34 16.32 -3 17 C-2.34 17 -1.68 17 -1 17 C-1.495 10.565 -1.495 10.565 -2 4 C-7.83589515 4 -9.19198407 4.44254472 -14 7 C-16.875 7.6875 -16.875 7.6875 -19 8 C-19 7.34 -19 6.68 -19 6 C-16.58967749 4.79783666 -14.17316521 3.61325022 -11.75 2.4375 C-11.06808594 2.09525391 -10.38617188 1.75300781 -9.68359375 1.40039062 C-5.97831091 -0.38030356 -3.92128522 -1.3058334 0 0 Z " fill="#5E5051" transform="translate(478,106)"/>
<path d="M0 0 C9.54456597 1.73537563 17.38395155 5.40937954 25.86523438 9.88427734 C29.54979455 11.80999097 33.27711143 13.64981949 37 15.5 C38.35435342 16.17670969 39.70853802 16.85375744 41.0625 17.53125 C42.5165625 18.25828125 42.5165625 18.25828125 44 19 C40.57056481 20.18771723 38.62215325 19.80226223 35.25 18.5625 C34.45078125 18.27503906 33.6515625 17.98757812 32.828125 17.69140625 C32.22484375 17.46324219 31.6215625 17.23507813 31 17 C31 16.34 31 15.68 31 15 C30.16855469 14.81824219 29.33710937 14.63648438 28.48046875 14.44921875 C27.39378906 14.19785156 26.30710937 13.94648438 25.1875 13.6875 C24.10855469 13.44386719 23.02960938 13.20023438 21.91796875 12.94921875 C18.94328648 11.98155102 18.03944912 11.23174004 16 9 C14.03657878 8.04796003 14.03657878 8.04796003 11.9375 7.375 C9.87387384 6.66022446 7.95515745 5.97757872 6 5 C6 4.34 6 3.68 6 3 C5.195625 2.87625 4.39125 2.7525 3.5625 2.625 C2.716875 2.41875 1.87125 2.2125 1 2 C0.67 1.34 0.34 0.68 0 0 Z " fill="#665B5D" transform="translate(78,139)"/>
<path d="M0 0 C5.28 0 10.56 0 16 0 C15.67 1.65 15.34 3.3 15 5 C14.01 5.33 13.02 5.66 12 6 C10.31461399 7.99665314 10.31461399 7.99665314 9 10 C7.35 9.67 5.7 9.34 4 9 C4 7.68 4 6.36 4 5 C2.35 4.67 0.7 4.34 -1 4 C-0.67 2.68 -0.34 1.36 0 0 Z " fill="#AF9E9F" transform="translate(236,375)"/>
<path d="M0 0 C6.51488803 0.2682092 11.30933658 2.95096023 16.9375 6.0625 C17.81212891 6.53494141 18.68675781 7.00738281 19.58789062 7.49414062 C21.73062992 8.65332746 23.86754529 9.82203317 26 11 C22.75175285 11.91799207 21.2061706 12.00099405 18.0625 10.6875 C17.36769531 10.40261719 16.67289063 10.11773437 15.95703125 9.82421875 C14.98830078 9.41623047 14.98830078 9.41623047 14 9 C13.0925 8.67 12.185 8.34 11.25 8 C9 7 9 7 7 5.375 C4.51246105 3.66481697 2.95602718 3.7536644 0 4 C-1.36112895 6.72225791 -1.09560957 8.90245585 -1.0625 11.9375 C-1.05347656 12.99839844 -1.04445313 14.05929688 -1.03515625 15.15234375 C-1.02355469 16.09207031 -1.01195312 17.03179687 -1 18 C-1 18.99 -1 19.98 -1 21 C-3.60096003 18.39903997 -4.00224498 16.97755023 -4.375 13.25 C-4.21990652 8.89921984 -3.17151468 3.17151468 0 0 Z " fill="#9B9899" transform="translate(10,104)"/>
<path d="M0 0 C7.940966 0.46315284 14.65052636 2.76964438 22.0625 5.5625 C23.21427734 5.98724609 24.36605469 6.41199219 25.55273438 6.84960938 C28.37197391 7.89073933 31.18742835 8.94101812 34 10 C34 10.33 34 10.66 34 11 C28.94029601 11.518944 25.87021423 10.1455777 21.4453125 8.015625 C18.09144804 6.62264615 14.73967525 6.04839393 11.1640625 5.4921875 C9 5 9 5 6 3 C3.37468476 2.83286431 3.37468476 2.83286431 1 3 C0.26690041 9.35700087 0.26690041 9.35700087 2.3359375 15.22265625 C3.81972046 16.91890579 5.32453303 18.49407433 7 20 C3.01315273 18.17695445 0.13443871 15.87770538 -2 12 C-2.84792263 7.54626499 -2.18296919 3.94512504 0 0 Z " fill="#928F91" transform="translate(185,14)"/>
<path d="M0 0 C1.78125 0.078125 1.78125 0.078125 4 1 C5.34710994 3.25699999 6.4422264 5.36397189 7.5 7.75 C9.56800412 12.30149765 11.83536565 16.11069097 15 20 C15.765625 21.89453125 15.765625 21.89453125 16.25 23.8125 C17.90687146 29.30146523 20.51683968 34.24725486 23.13183594 39.32739258 C27.03212034 46.91590889 27.03212034 46.91590889 28 50 C27.67 50.99 27.34 51.98 27 53 C26.62302979 52.21052979 26.24605957 51.42105957 25.85766602 50.60766602 C17.67336025 33.49276142 9.46815583 16.4535508 0 0 Z " fill="#746C6E" transform="translate(188,263)"/>
<path d="M0 0 C2.475 0.495 2.475 0.495 5 1 C2.06328322 4.12726048 -0.99606355 6.49051427 -4.5703125 8.85546875 C-5.63121094 9.55994141 -6.69210937 10.26441406 -7.78515625 10.99023438 C-8.88730469 11.71533203 -9.98945313 12.44042969 -11.125 13.1875 C-12.24636 13.93123935 -13.36745641 14.67537628 -14.48828125 15.41992188 C-22.66259398 20.83129699 -22.66259398 20.83129699 -25 22 C-24.505 20.515 -24.505 20.515 -24 19 C-21.4375 17.8125 -21.4375 17.8125 -19 17 C-19.33 15.68 -19.66 14.36 -20 13 C-17.69 11.68 -15.38 10.36 -13 9 C-13 9.66 -13 10.32 -13 11 C-11.68 10.67 -10.36 10.34 -9 10 C-8.9175 9.401875 -8.835 8.80375 -8.75 8.1875 C-7.77590452 5.34638817 -6.59505753 4.45017921 -4 3 C-3.01 3.33 -2.02 3.66 -1 4 C-0.67 2.68 -0.34 1.36 0 0 Z " fill="#4D4043" transform="translate(433,149)"/>
<path d="M0 0 C2.61461568 2.61461568 2.58506928 4.36618053 3.125 8 C3.29257813 9.0725 3.46015625 10.145 3.6328125 11.25 C4.0796204 15.81314452 4 20.4150327 4 25 C10.6 25 17.2 25 24 25 C24 25.33 24 25.66 24 26 C15.585 26.495 15.585 26.495 7 27 C7 28.98 7 30.96 7 33 C6.01 33 5.02 33 4 33 C4 35.31 4 37.62 4 40 C3.67 40 3.34 40 3 40 C2.01 26.8 1.02 13.6 0 0 Z " fill="#716668" transform="translate(228,348)"/>
<path d="M0 0 C3.26011642 0.69378511 4.79038253 1.45893991 7 4 C5.35 4 3.7 4 2 4 C2.33 5.65 2.66 7.3 3 9 C3.66 9 4.32 9 5 9 C4.83322754 9.57202148 4.66645508 10.14404297 4.49462891 10.73339844 C3.98964639 13.04744468 3.95318837 14.90762268 4.0859375 17.265625 C4.12976563 18.07386719 4.17359375 18.88210938 4.21875 19.71484375 C4.2703125 20.55144531 4.321875 21.38804687 4.375 22.25 C4.41882813 23.07113281 4.46265625 23.89226562 4.5078125 24.73828125 C4.80018955 29.86300113 5.30856997 34.91388758 6 40 C2.75242583 35.12863874 2.26584779 30.97299482 1.4375 25.25 C1.30110107 24.30874268 1.16470215 23.36748535 1.02416992 22.39770508 C-0.00489535 14.87069928 -0.3448826 7.60019056 0 0 Z " fill="#564A4D" transform="translate(232,381)"/>
<path d="M0 0 C2 3 2 3 2.25 6.75 C2.73940849 11.74566027 5.38373953 14.69069002 9 18 C9.66 18.33 10.32 18.66 11 19 C11 19.66 11 20.32 11 21 C7.75 21.3125 7.75 21.3125 4 21 C0.87818497 17.87818497 -0.93692455 15.42661831 -1.1328125 10.99609375 C-1.13023437 9.82175781 -1.12765625 8.64742187 -1.125 7.4375 C-1.12757813 6.26058594 -1.13015625 5.08367187 -1.1328125 3.87109375 C-1 1 -1 1 0 0 Z " fill="#7E6B6C" transform="translate(282,156)"/>
<path d="M0 0 C0 0.66 0 1.32 0 2 C-1.423125 2.12375 -1.423125 2.12375 -2.875 2.25 C-4.421875 2.62125 -4.421875 2.62125 -6 3 C-6.309375 3.66 -6.61875 4.32 -6.9375 5 C-7.4634375 5.99 -7.4634375 5.99 -8 7 C-11.625 7.75 -11.625 7.75 -15 8 C-15 8.66 -15 9.32 -15 10 C-17.98851709 11.68795873 -20.99023478 13.35023739 -24 15 C-24.72703125 15.40347656 -25.4540625 15.80695313 -26.203125 16.22265625 C-29.93334538 18.20878504 -32.64995197 19.543756 -37 19 C-33.8745041 16.35534962 -30.91211733 15.15585285 -27 14 C-27 13.34 -27 12.68 -27 12 C-26.32453125 11.74605469 -25.6490625 11.49210937 -24.953125 11.23046875 C-24.06109375 10.88628906 -23.1690625 10.54210937 -22.25 10.1875 C-21.36828125 9.85105469 -20.4865625 9.51460937 -19.578125 9.16796875 C-17.04667768 8.0211464 -15.20570544 6.66918249 -13 5 C-11.14778005 4.05796836 -9.27084526 3.16333083 -7.375 2.3125 C-5.93253906 1.65701172 -5.93253906 1.65701172 -4.4609375 0.98828125 C-2 0 -2 0 0 0 Z " fill="#564A4B" transform="translate(459,114)"/>
<path d="M0 0 C1.36297018 4.08891053 -0.00645065 6.94623365 -1.3125 10.875 C-1.53873047 11.58269531 -1.76496094 12.29039062 -1.99804688 13.01953125 C-2.92804556 15.89797098 -3.8628606 18.69302248 -5.09765625 21.45703125 C-6.41517146 25.17002865 -6.72568642 28.90773692 -7.125 32.8125 C-7.21136719 33.60076172 -7.29773438 34.38902344 -7.38671875 35.20117188 C-7.59751064 37.13343084 -7.79962896 39.06663263 -8 41 C-8.33 41 -8.66 41 -9 41 C-9.40820882 30.90817093 -8.16108676 21.00400644 -7 11 C-5.68 10.67 -4.36 10.34 -3 10 C-2.814375 8.081875 -2.814375 8.081875 -2.625 6.125 C-2.25 2.25 -2.25 2.25 0 0 Z " fill="#5E5355" transform="translate(265,328)"/>
<path d="M0 0 C1.65 0 3.3 0 5 0 C1.79782699 3.30546892 -1.47159486 6.20814413 -5.125 9 C-10.72428024 13.50673775 -15.17350504 18.60944138 -19.6875 24.1796875 C-21.38905178 26.25489086 -23.05120951 28.16659842 -25 30 C-23.79503053 24.09564958 -21.53881294 20.05779744 -17 16 C-16.34 16 -15.68 16 -15 16 C-15 15.34 -15 14.68 -15 14 C-13.4609375 12.44921875 -13.4609375 12.44921875 -11.375 10.6875 C-10.64925781 10.06875 -9.92351562 9.45 -9.17578125 8.8125 C-7.31277164 7.26054945 -5.4397254 5.72216602 -3.5625 4.1875 C-0.96768028 2.26028607 -0.96768028 2.26028607 0 0 Z " fill="#726B6C" transform="translate(331,222)"/>
<path d="M0 0 C3 2 3 2 4 5 C4.03954234 7.33299825 4.04401732 9.66708189 4 12 C3.34 11.67 2.68 11.34 2 11 C2 10.01 2 9.02 2 8 C-1.6558368 10.43722454 -2.39818793 11.92266019 -4 16 C-4.5211814 19.32563367 -4.80745645 22.64044698 -5 26 C-5.66 25.67 -6.32 25.34 -7 25 C-7.08121924 23.39667209 -7.13929134 21.79215974 -7.1875 20.1875 C-7.22230469 19.29417969 -7.25710937 18.40085937 -7.29296875 17.48046875 C-6.93819561 14.4767228 -6.11545829 14.03041474 -4 12 C-3.28419121 9.57039105 -3.28419121 9.57039105 -2.9375 6.9375 C-2.20833333 2.20833333 -2.20833333 2.20833333 0 0 Z " fill="#A7A4A5" transform="translate(243,4)"/>
<path d="M0 0 C3.51166495 1.56073998 6.37910355 3.16069552 9 6 C9.67281934 9.69031211 9.85473797 13.42202221 8.03515625 16.78125 C6.51070886 20.04874478 6.34696829 23.453213 6 27 C5.16494845 35.53608247 5.16494845 35.53608247 3 39 C1.85253872 35.55761617 2.17863179 33.95106992 2.8125 30.4140625 C3.00070313 29.31835938 3.18890625 28.22265625 3.3828125 27.09375 C3.7929235 24.78882237 4.20437309 22.48413249 4.6171875 20.1796875 C4.89949219 18.53226563 4.89949219 18.53226563 5.1875 16.8515625 C5.36667969 15.84947754 5.54585937 14.84739258 5.73046875 13.81494141 C6.07889853 10.17599632 5.84806697 7.28183236 3.80859375 4.19921875 C3.35613281 3.70035156 2.90367187 3.20148437 2.4375 2.6875 C1.633125 1.800625 0.82875 0.91375 0 0 Z " fill="#7C7374" transform="translate(224,60)"/>
<path d="M0 0 C1.875 1.625 1.875 1.625 3 3 C3.99 2.34 4.98 1.68 6 1 C5.34 2.32 4.68 3.64 4 5 C2.9790625 4.7834375 2.9790625 4.7834375 1.9375 4.5625 C-1.36273082 3.93054091 -4.67144426 3.45686059 -8 3 C-9.88391785 6.26545761 -10.49287967 9.28111761 -11 13 C-12.65 12.67 -14.3 12.34 -16 12 C-15.54625 11.484375 -15.0925 10.96875 -14.625 10.4375 C-12.77731802 7.9654459 -12.77731802 7.9654459 -12.125 4.4375 C-11 1 -11 1 -8.75 -1.0625 C-5.08657702 -2.3113942 -3.44673737 -1.64843961 0 0 Z " fill="#7D7676" transform="translate(286,141)"/>
<path d="M0 0 C0.639375 0.28875 1.27875 0.5775 1.9375 0.875 C5.26842379 2.09860466 8.53155541 2.78241043 12.01171875 3.4375 C14 4 14 4 16 6 C15.26394531 5.86980469 14.52789062 5.73960937 13.76953125 5.60546875 C10.78465967 5.18356484 8.01469148 4.88077491 5 5 C2.03949126 7.29199403 2.03949126 7.29199403 0 10 C-1.32 10 -2.64 10 -4 10 C-4.8125 8.3125 -4.8125 8.3125 -5 6 C-2.5625 3.3125 -2.5625 3.3125 0 1 C0 0.67 0 0.34 0 0 Z " fill="#6A575C" transform="translate(145,172)"/>
<path d="M0 0 C2.625 -0.1875 2.625 -0.1875 5 0 C2.7229355 2.42993037 0.30451528 4.27009367 -2.44921875 6.13671875 C-3.72055664 7.00200195 -3.72055664 7.00200195 -5.01757812 7.88476562 C-5.89865234 8.47966797 -6.77972656 9.07457031 -7.6875 9.6875 C-9.02651367 10.59725586 -9.02651367 10.59725586 -10.39257812 11.52539062 C-12.59308996 13.01985589 -14.79560826 14.51126631 -17 16 C-17.66 15.67 -18.32 15.34 -19 15 C-19 12.36 -19 9.72 -19 7 C-17.35 7 -15.7 7 -14 7 C-14 7.99 -14 8.98 -14 10 C-5.98491107 6.25209614 -5.98491107 6.25209614 0 0 Z " fill="#645B5D" transform="translate(457,134)"/>
<path d="M0 0 C0 0.66 0 1.32 0 2 C0.99 2 1.98 2 3 2 C3.33 1.34 3.66 0.68 4 0 C4 2.64 4 5.28 4 8 C3.01 7.67 2.02 7.34 1 7 C1 6.34 1 5.68 1 5 C-2.40080577 5.10407917 -2.40080577 5.10407917 -6 6 C-7.84434349 8.46115547 -7.84434349 8.46115547 -9 11 C-9.66 11 -10.32 11 -11 11 C-11.3125 8.8125 -11.3125 8.8125 -11 6 C-7.62481966 1.98627203 -5.36488237 0 0 0 Z " fill="#726467" transform="translate(301,155)"/>
<path d="M0 0 C0.33 0 0.66 0 1 0 C2.00251278 5.46163781 2.99925802 10.92428522 3.99072266 16.38793945 C4.32866471 18.24564875 4.66816842 20.10307467 5.00927734 21.96020508 C5.49990172 24.63289212 5.98486204 27.30655494 6.46875 29.98046875 C6.62186646 30.80773972 6.77498291 31.63501068 6.93273926 32.48735046 C7.63075117 36.374393 8.19616821 40.03109669 8 44 C1.66633333 37.66633333 2.19198583 25.72031409 1.4296875 17.29296875 C1.1408913 14.13517021 0.63592404 11.10773311 0 8 C-0.11678799 5.32321927 -0.0454506 2.68158543 0 0 Z " fill="#716769" transform="translate(259,91)"/>
<path d="M0 0 C3.01087626 1.1290786 4.46545046 2.46697556 6.5 4.9375 C6.83 5.9275 7.16 6.9175 7.5 7.9375 C8.49 7.9375 9.48 7.9375 10.5 7.9375 C10.83 6.9475 11.16 5.9575 11.5 4.9375 C12.16 4.9375 12.82 4.9375 13.5 4.9375 C12.75 9.6875 12.75 9.6875 10.5 11.9375 C7.875 12.0625 7.875 12.0625 5.5 11.9375 C5.27957031 11.08865234 5.27957031 11.08865234 5.0546875 10.22265625 C4.36492509 7.96705389 3.67012391 5.9884552 2.5 3.9375 C-0.47919865 2.62041229 -0.47919865 2.62041229 -3.5 2.9375 C-4.16 3.5975 -4.82 4.2575 -5.5 4.9375 C-8.125 5.0625 -8.125 5.0625 -10.5 4.9375 C-10.5 3.9475 -10.5 2.9575 -10.5 1.9375 C-9.9225 2.164375 -9.345 2.39125 -8.75 2.625 C-7.63625 2.7796875 -7.63625 2.7796875 -6.5 2.9375 C-5.860625 2.4425 -5.22125 1.9475 -4.5625 1.4375 C-2.5 -0.0625 -2.5 -0.0625 0 0 Z " fill="#8B8787" transform="translate(206.5,142.0625)"/>
<path d="M0 0 C1.2375 0.1546875 1.2375 0.1546875 2.5 0.3125 C4.82749345 3.80374017 5.00299316 5.20472251 4.5 9.3125 C2.625 11.6875 2.625 11.6875 0.5 13.3125 C-0.16 13.3125 -0.82 13.3125 -1.5 13.3125 C-1.190625 12.735 -0.88125 12.1575 -0.5625 11.5625 C0.42583364 9.46955816 1.0168613 7.56714725 1.5 5.3125 C-0.81 5.6425 -3.12 5.9725 -5.5 6.3125 C-4.75209413 2.57297064 -4.13310341 0.51663793 0 0 Z " fill="#5A4A4C" transform="translate(299.5,159.6875)"/>
<path d="M0 0 C0.02887512 3.64581687 0.04675585 7.29160463 0.0625 10.9375 C0.07087891 11.97841797 0.07925781 13.01933594 0.08789062 14.09179688 C0.09111328 15.08115234 0.09433594 16.07050781 0.09765625 17.08984375 C0.10289307 18.00628662 0.10812988 18.92272949 0.11352539 19.86694336 C0 22 0 22 -1 23 C-1.144375 24.155 -1.28875 25.31 -1.4375 26.5 C-1.623125 27.655 -1.80875 28.81 -2 30 C-2.66 30.33 -3.32 30.66 -4 31 C-3.42878014 21.24416608 -2.39476293 11.66855081 -1 2 C-1.598125 2.515625 -2.19625 3.03125 -2.8125 3.5625 C-3.534375 4.036875 -4.25625 4.51125 -5 5 C-5.99 4.67 -6.98 4.34 -8 4 C-3.375 0 -3.375 0 0 0 Z " fill="#5E5455" transform="translate(255,380)"/>
<path d="M0 0 C0.99 0.495 0.99 0.495 2 1 C2 1.99 2 2.98 2 4 C2.99 4 3.98 4 5 4 C5 5.65 5 7.3 5 9 C5.66 9 6.32 9 7 9 C8.69857238 16.32650887 10.38168081 23.65532059 12 31 C9.29990411 28.66307767 8.31479344 26.63817612 7.24609375 23.25390625 C6.94896484 22.33416016 6.65183594 21.41441406 6.34570312 20.46679688 C6.04599609 19.50837891 5.74628906 18.54996094 5.4375 17.5625 C4.83471339 15.66711366 4.22933841 13.77254811 3.62109375 11.87890625 C3.3573999 11.0391626 3.09370605 10.19941895 2.82202148 9.33422852 C2.05819209 6.99072019 2.05819209 6.99072019 0.89868164 4.88256836 C0 3 0 3 0 0 Z " fill="#797172" transform="translate(216,316)"/>
<path d="M0 0 C0 0.66 0 1.32 0 2 C-2.90600261 3.25664978 -4.79604584 4 -8 4 C-8 4.66 -8 5.32 -8 6 C-8.969375 6.2475 -9.93875 6.495 -10.9375 6.75 C-11.948125 7.1625 -12.95875 7.575 -14 8 C-14.96877057 10.03243548 -14.96877057 10.03243548 -15 12 C-16.8253125 12.2165625 -16.8253125 12.2165625 -18.6875 12.4375 C-21.82670377 12.82780953 -24.9075134 13.32351856 -28 14 C-24.50000645 11.16456219 -20.65572922 9.09226754 -16.6875 7 C-16.04876953 6.65710938 -15.41003906 6.31421875 -14.75195312 5.9609375 C-3.52400406 0 -3.52400406 0 0 0 Z " fill="#5C4F52" transform="translate(391,148)"/>
<path d="M0 0 C2.00849574 4.14252247 2.48262992 7.4150158 2 12 C-1.05263158 17.68421053 -1.05263158 17.68421053 -5 19 C-5 18.34 -5 17.68 -5 17 C-4.01 16.34 -3.02 15.68 -2 15 C-1.63501966 12.10391601 -1.63501966 12.10391601 -1.8125 8.875 C-1.874375 6.93625 -1.93625 4.9975 -2 3 C-7.94 3.495 -7.94 3.495 -14 4 C-9.2157506 0.8105004 -5.77575443 -0.26863974 0 0 Z " fill="#A4A0A1" transform="translate(303,13)"/>
<path d="M0 0 C0 1.97581653 -0.04576869 3.95224299 -0.140625 5.92578125 C-0.60942046 13.10655383 -0.60942046 13.10655383 1.75 19.6875 C4.66943083 22.68802613 6.58261167 23.90102037 10.796875 24.1953125 C11.77140625 24.17210937 12.7459375 24.14890625 13.75 24.125 C14.73484375 24.10695312 15.7196875 24.08890625 16.734375 24.0703125 C17.48203125 24.04710937 18.2296875 24.02390625 19 24 C18.34 24.99 17.68 25.98 17 27 C10.37522588 27.77938519 5.54092509 25.96024789 0.31640625 21.9296875 C-2.81470334 17.96959949 -2.64912267 15.20471812 -2.4375 10.3125 C-2.43169922 9.54099609 -2.42589844 8.76949219 -2.41992188 7.97460938 C-2.29593331 2.29593331 -2.29593331 2.29593331 0 0 Z " fill="#624E4E" transform="translate(282,154)"/>
<path d="M0 0 C5.54854369 -0.61650485 5.54854369 -0.61650485 8 0 C11.0537882 2.97709489 11.43974068 5.58764343 11.6875 9.75 C11.75324219 10.73484375 11.81898438 11.7196875 11.88671875 12.734375 C11.92410156 13.48203125 11.96148437 14.2296875 12 15 C11.01 14.34 10.02 13.68 9 13 C8.59156077 10.28796348 8.86663133 7.7562858 9 5 C5.37 4.34 1.74 3.68 -2 3 C-1.34 2.01 -0.68 1.02 0 0 Z " fill="#9E9698" transform="translate(294,139)"/>
<path d="M0 0 C1.64696604 0.4752588 3.29254728 0.95531891 4.9375 1.4375 C6.31228516 1.83775391 6.31228516 1.83775391 7.71484375 2.24609375 C10 3 10 3 11 4 C12.9490625 4.1546875 12.9490625 4.1546875 14.9375 4.3125 C21.84193216 4.99632555 27.87848923 7.87620846 34 11 C18.28571429 9.28571429 18.28571429 9.28571429 16 7 C14.741875 6.87625 13.48375 6.7525 12.1875 6.625 C8.59637577 6.22171867 6.73711933 5.44385654 4 3 C2.68163705 2.30419733 1.35208914 1.62775567 0 1 C0 0.67 0 0.34 0 0 Z " fill="#7D7477" transform="translate(202,20)"/>
<path d="M0 0 C5.3589909 0.33493693 9.10743856 3.57127181 13 7 C13.33 7.66 13.66 8.32 14 9 C14.94875 9.433125 15.8975 9.86625 16.875 10.3125 C20.29727082 12.16052625 21.32747369 13.56202925 23 17 C18.19923267 14.74208941 14.09525284 11.60188383 9.8125 8.5 C8.98041016 7.90574219 8.14832031 7.31148437 7.29101562 6.69921875 C6.50017578 6.12816406 5.70933594 5.55710938 4.89453125 4.96875 C4.17112549 4.44732422 3.44771973 3.92589844 2.70239258 3.38867188 C1 2 1 2 0 0 Z " fill="#6D5E61" transform="translate(113,194)"/>
<path d="M0 0 C0.66 0.33 1.32 0.66 2 1 C1.319375 1.45375 0.63875 1.9075 -0.0625 2.375 C-2.67454639 5.91390156 -2.04719824 7.83532526 -1.4296875 12.05078125 C-0.94096392 15.40520219 -0.680823 18.74428496 -0.4375 22.125 C-0.35371094 23.24132812 -0.26992188 24.35765625 -0.18359375 25.5078125 C-0.12300781 26.33023438 -0.06242187 27.15265625 0 28 C-4.02880429 21.95679356 -6.20904229 12.25425373 -5 5 C-2.5 2.0625 -2.5 2.0625 0 0 Z " fill="#6E6465" transform="translate(259,62)"/>
<path d="M0 0 C2.97 0 5.94 0 9 0 C9 1.32 9 2.64 9 4 C8.01 4.33 7.02 4.66 6 5 C5.01 6.485 5.01 6.485 4 8 C2.68 8 1.36 8 0 8 C0 5.36 0 2.72 0 0 Z " fill="#C4B2B4" transform="translate(242,376)"/>
<path d="M0 0 C0.33 0 0.66 0 1 0 C1.13277344 1.04800781 1.26554687 2.09601563 1.40234375 3.17578125 C1.58057235 4.55470778 1.75896641 5.93361293 1.9375 7.3125 C2.02451172 8.00279297 2.11152344 8.69308594 2.20117188 9.40429688 C2.59210135 12.40142288 3.0415004 15.12450119 4 18 C6.01508358 18.73323796 6.01508358 18.73323796 8 19 C8.04898437 18.36191406 8.09796875 17.72382813 8.1484375 17.06640625 C8.22320312 16.24011719 8.29796875 15.41382813 8.375 14.5625 C8.44460938 13.73878906 8.51421875 12.91507813 8.5859375 12.06640625 C8.72257812 11.38449219 8.85921875 10.70257813 9 10 C9.66 9.67 10.32 9.34 11 9 C10.67 12.63 10.34 16.26 10 20 C7.1875 20.625 7.1875 20.625 4 21 C3.01 20.34 2.02 19.68 1 19 C-0.25882672 12.70586638 -0.10585439 6.39830969 0 0 Z " fill="#66575A" transform="translate(267,135)"/>
<path d="M0 0 C1.85528715 5.48434618 -0.12510988 10.99984663 -1.25 16.5 C-1.46785156 17.64082031 -1.68570313 18.78164063 -1.91015625 19.95703125 C-2.13058594 21.05402344 -2.35101563 22.15101563 -2.578125 23.28125 C-2.77825195 24.28220703 -2.97837891 25.28316406 -3.18457031 26.31445312 C-4.03164031 29.1042046 -5.11295529 30.80345384 -7 33 C-6.26745732 27.6890656 -5.4197278 22.40660521 -4.5 17.125 C-4.36980469 16.35414063 -4.23960937 15.58328125 -4.10546875 14.7890625 C-3.11682103 9.11682103 -3.11682103 9.11682103 -2 8 C-1.835 6.845 -1.67 5.69 -1.5 4.5 C-1 1 -1 1 0 0 Z " fill="#857C7D" transform="translate(254,402)"/>
<path d="M0 0 C2.20227882 3.30341823 2.97797336 6.18443389 4 10 C4.33 10.99 4.66 11.98 5 13 C5.66 13 6.32 13 7 13 C7.66 11.68 8.32 10.36 9 9 C9.22036864 12.85645121 8.60355101 15.49223216 7 19 C6.01 19 5.02 19 4 19 C1.30292366 12.44995746 -0.53699151 7.11513755 0 0 Z " fill="#62585B" transform="translate(238,423)"/>
<path d="M0 0 C2.475 0.495 2.475 0.495 5 1 C5 1.99 5 2.98 5 4 C5.66 4 6.32 4 7 4 C7.66 5.32 8.32 6.64 9 8 C12.465 7.505 12.465 7.505 16 7 C15.67 7.66 15.34 8.32 15 9 C14.34 9 13.68 9 13 9 C13 9.99 13 10.98 13 12 C10.1875 12.25 10.1875 12.25 7 12 C3.84063943 9.16746984 3.46625359 6.10303158 3 2 C2.01 2 1.02 2 0 2 C0 1.34 0 0.68 0 0 Z " fill="#6E5F63" transform="translate(303,174)"/>
<path d="M0 0 C1.98 0 3.96 0 6 0 C6.83089395 3.3235758 7.3884002 5.79599954 6 9 C3.44549506 11.38420461 2.5595477 12 -1 12 C-1 11.01 -1 10.02 -1 9 C-0.195625 8.360625 0.60875 7.72125 1.4375 7.0625 C4.12438713 5.26565739 4.12438713 5.26565739 4.8125 2.75 C4.874375 2.1725 4.93625 1.595 5 1 C1.17053157 2.45255699 -0.12050295 4.42895561 -2 8 C-2.99 7.67 -3.98 7.34 -5 7 C-4.54625 6.5875 -4.0925 6.175 -3.625 5.75 C-1.94049626 3.93591905 -1.00734029 2.24714373 0 0 Z " fill="#594149" transform="translate(291,23)"/>
<path d="M0 0 C0.33 0 0.66 0 1 0 C1.33608711 8.05364285 1.0517291 14.49783264 -2 22 C-2.33 22 -2.66 22 -3 22 C-3.23933376 14.81998705 -2.56216724 8.02405122 -1 1 C-0.67 0.67 -0.34 0.34 0 0 Z " fill="#5E5556" transform="translate(227,98)"/>
<path d="M0 0 C5.8100941 1.67932952 11.00868579 4.39208392 16.375 7.125 C17.30183594 7.59292969 18.22867188 8.06085938 19.18359375 8.54296875 C21.45759406 9.69169056 23.72963282 10.84411881 26 12 C21.84846448 13.38384517 19.51948051 11.64988084 15.8125 9.8125 C14.8069104 9.32801392 14.8069104 9.32801392 13.78100586 8.83374023 C11.84870727 7.89954233 9.92341451 6.95232983 8 6 C7.08734375 5.55140625 6.1746875 5.1028125 5.234375 4.640625 C3.4839358 3.77170194 1.74076491 2.88814536 0 2 C0 1.34 0 0.68 0 0 Z " fill="#8E8989" transform="translate(60,128)"/>
<path d="M0 0 C0.66 0.33 1.32 0.66 2 1 C0.515 3.475 0.515 3.475 -1 6 C0.98 5.67 2.96 5.34 5 5 C4.67 6.65 4.34 8.3 4 10 C1.36 10 -1.28 10 -4 10 C-4.33 8.68 -4.66 7.36 -5 6 C-4.34 5.67 -3.68 5.34 -3 5 C-1.9590934 3.35857037 -0.95495674 1.69287785 0 0 Z " fill="#6B5959" transform="translate(295,160)"/>
<path d="M0 0 C0.66 0 1.32 0 2 0 C0.44347945 5.3537465 -1.9817509 10.00150947 -4.625 14.875 C-5.04523438 15.65875 -5.46546875 16.4425 -5.8984375 17.25 C-6.9281022 19.16892057 -7.96347567 21.08477603 -9 23 C-10.61245225 19.77509551 -9.81573082 17.43772273 -9 14 C-7.35570171 12.31126121 -5.68615782 10.64694485 -4 9 C-2.45812676 6.07933626 -1.19933701 3.0753949 0 0 Z " fill="#777374" transform="translate(287,280)"/>
<path d="M0 0 C0.33 0 0.66 0 1 0 C1.48280024 7.36270368 1.48280024 7.36270368 -0.5625 10.0625 C-4.73956932 11.66906512 -8.19559918 10.78369773 -12.23046875 9.03125 C-14.18150662 8.06436398 -16.09907336 7.06155644 -18 6 C-18 5.34 -18 4.68 -18 4 C-17.41992188 4.20496094 -16.83984375 4.40992188 -16.2421875 4.62109375 C-11.8378016 6.14009813 -7.64322223 7.4047151 -3 8 C-2.01 5.36 -1.02 2.72 0 0 Z " fill="#716567" transform="translate(179,174)"/>
<path d="M0 0 C0.66 0 1.32 0 2 0 C0.45614871 4.14032846 -1.51028938 7.93553053 -3.625 11.8125 C-4.11226563 12.7087207 -4.11226563 12.7087207 -4.609375 13.62304688 C-5.40379151 15.08337135 -6.20155376 16.54187491 -7 18 C-7.33 18 -7.66 18 -8 18 C-8 15.69 -8 13.38 -8 11 C-7.34 11 -6.68 11 -6 11 C-5.896875 10.360625 -5.79375 9.72125 -5.6875 9.0625 C-5.460625 8.381875 -5.23375 7.70125 -5 7 C-4.01 6.67 -3.02 6.34 -2 6 C-0.77479736 2.99152582 -0.77479736 2.99152582 0 0 Z " fill="#676063" transform="translate(297,262)"/>
<path d="M0 0 C-2.93296341 2.15208923 -5.87211164 4.2955695 -8.8125 6.4375 C-9.64587891 7.04916016 -10.47925781 7.66082031 -11.33789062 8.29101562 C-12.14033203 8.87431641 -12.94277344 9.45761719 -13.76953125 10.05859375 C-14.87711792 10.86768188 -14.87711792 10.86768188 -16.00708008 11.69311523 C-18 13 -18 13 -21 14 C-21 13.34 -21 12.68 -21 12 C-20.34 12 -19.68 12 -19 12 C-19 11.34 -19 10.68 -19 10 C-17.02 9.34 -15.04 8.68 -13 8 C-13 7.01 -13 6.02 -13 5 C-10.91796875 3.359375 -10.91796875 3.359375 -8.1875 1.75 C-7.29417969 1.20859375 -6.40085937 0.6671875 -5.48046875 0.109375 C-3 -1 -3 -1 0 0 Z " fill="#736C6C" transform="translate(365,202)"/>
<path d="M0 0 C5.45593671 1.60676453 10.3302147 4.05030894 15.375 6.625 C16.20644531 7.04523438 17.03789063 7.46546875 17.89453125 7.8984375 C19.93156359 8.92866075 21.96662189 9.96258821 24 11 C20.72749955 12.06279492 20.12672178 12.05135328 16.72265625 10.671875 C15.49628056 10.04344032 14.27633658 9.40232525 13.0625 8.75 C12.45470703 8.43675781 11.84691406 8.12351562 11.22070312 7.80078125 C1.32867734 2.65735468 1.32867734 2.65735468 0 0 Z " fill="#9C9898" transform="translate(36,116)"/>
<path d="M0 0 C-0.99936512 2.22935295 -1.74171995 3.78145534 -3.625 5.375 C-5.66072503 7.78085685 -5.06509425 9.94057033 -5 13 C-5.66 13.66 -6.32 14.32 -7 15 C-8.55950551 13.44049449 -8.28196698 11.91122869 -8.375 9.75 C-8.34448531 5.92345776 -8.1177385 5.15592396 -5.6875 1.9375 C-3 0 -3 0 0 0 Z " fill="#594748" transform="translate(294,154)"/>
<path d="M0 0 C0.66 0 1.32 0 2 0 C2.33 0.99 2.66 1.98 3 3 C3.845625 3.515625 4.69125 4.03125 5.5625 4.5625 C8 7 8 7 8.328125 9.48046875 C8.3138899 12.00363983 8.21585617 14.48647485 8 17 C9.65 17.33 11.3 17.66 13 18 C13 18.33 13 18.66 13 19 C11.02 19 9.04 19 7 19 C6.97421875 18.24074219 6.9484375 17.48148438 6.921875 16.69921875 C6.86515625 15.70535156 6.8084375 14.71148437 6.75 13.6875 C6.70359375 12.70136719 6.6571875 11.71523438 6.609375 10.69921875 C6.23768392 7.89015369 6.23768392 7.89015369 4.09375 6.1875 C2.03863238 5.0219109 0.31696666 4.41374405 -2 4 C-1.34 2.68 -0.68 1.36 0 0 Z " fill="#938F91" transform="translate(243,12)"/>
<path d="M0 0 C1.58206057 0.00667536 3.16410534 0.0186375 4.74609375 0.03515625 C5.55240234 0.03966797 6.35871094 0.04417969 7.18945312 0.04882812 C9.18753131 0.06065107 11.18557158 0.07858711 13.18359375 0.09765625 C13.18359375 0.42765625 13.18359375 0.75765625 13.18359375 1.09765625 C5.26359375 1.59265625 5.26359375 1.59265625 -2.81640625 2.09765625 C-2.81640625 3.08765625 -2.81640625 4.07765625 -2.81640625 5.09765625 C-1.49640625 5.42765625 -0.17640625 5.75765625 1.18359375 6.09765625 C1.51359375 7.74765625 1.84359375 9.39765625 2.18359375 11.09765625 C-1.46957296 9.84788869 -2.59706461 9.42666872 -4.81640625 6.09765625 C-5.00390625 3.47265625 -5.00390625 3.47265625 -4.81640625 1.09765625 C-3.81640625 0.09765625 -3.81640625 0.09765625 0 0 Z " fill="#948485" transform="translate(238.81640625,373.90234375)"/>
<path d="M0 0 C0.66 0.33 1.32 0.66 2 1 C1.814375 1.5775 1.62875 2.155 1.4375 2.75 C0.95976454 5.20692525 1.24270636 6.64397534 2 9 C-0.31 8.67 -2.62 8.34 -5 8 C-5 8.99 -5 9.98 -5 11 C-5.66 11 -6.32 11 -7 11 C-6.67 9.35 -6.34 7.7 -6 6 C-5.38125 5.938125 -4.7625 5.87625 -4.125 5.8125 C-1.72238859 5.171081 -1.72238859 5.171081 -0.75 2.4375 C-0.5025 1.633125 -0.255 0.82875 0 0 Z " fill="#5A4349" transform="translate(284,31)"/>
<path d="M0 0 C0.66 0.33 1.32 0.66 2 1 C-0.3141221 3.67990269 -2.24352307 4.598724 -5.625 5.5625 C-7.98406223 6.20135682 -7.98406223 6.20135682 -10 7 C-10.33 7.66 -10.66 8.32 -11 9 C-13.32156597 9.40729228 -15.6568787 9.74438677 -18 10 C-14.56861368 7.20661013 -10.81217239 5.22264513 -6.875 3.25 C-5.92560547 2.75693359 -5.92560547 2.75693359 -4.95703125 2.25390625 C-3.33560094 1.43802731 -1.66987872 0.71147715 0 0 Z " fill="#584A4C" transform="translate(361,162)"/>
<path d="M0 0 C0.66 0.33 1.32 0.66 2 1 C1.85962479 2.81293089 1.71255111 4.6253443 1.5625 6.4375 C1.48128906 7.44683594 1.40007812 8.45617187 1.31640625 9.49609375 C1 12 1 12 0 13 C-1.92578125 13.16796875 -1.92578125 13.16796875 -4.3125 13.1875 C-5.09238281 13.20167969 -5.87226563 13.21585938 -6.67578125 13.23046875 C-9.2032668 12.97984413 -10.81718031 12.26373772 -13 11 C-10.5990143 9.79950715 -9.61479284 10.04816504 -7 10.4375 C-4.95991865 10.73376181 -3.06251649 11 -1 11 C-1.01160156 10.28972656 -1.02320313 9.57945313 -1.03515625 8.84765625 C-1.04869141 7.46900391 -1.04869141 7.46900391 -1.0625 6.0625 C-1.07410156 5.14597656 -1.08570313 4.22945312 -1.09765625 3.28515625 C-1 1 -1 1 0 0 Z " fill="#594B50" transform="translate(239,19)"/>
<path d="M0 0 C-0.54161908 3.79133356 -1.99283725 5.66109564 -5 8 C-7.75 8.25 -7.75 8.25 -10 8 C-5.13043478 0 -5.13043478 0 0 0 Z " fill="#412F34" transform="translate(378,187)"/>
<path d="M0 0 C4.73789165 1.44323469 8.98858151 3.37226733 13.375 5.625 C14.01566406 5.94984375 14.65632812 6.2746875 15.31640625 6.609375 C16.87947501 7.40257407 18.44000622 8.20077031 20 9 C15.53576387 10.45551681 13.19039989 8.98492627 9 7 C7.6696875 6.566875 7.6696875 6.566875 6.3125 6.125 C3.31776782 4.66810326 1.90697066 2.68388464 0 0 Z " fill="#756B6D" transform="translate(134,165)"/>
<path d="M0 0 C16 4 16 4 21 9 C12.80697059 7.92196981 5.3624355 6.61367045 0 0 Z " fill="#847B7D" transform="translate(15,107)"/>
<path d="M0 0 C6.78082192 5.42465753 6.78082192 5.42465753 9 9 C9 9.66 9 10.32 9 11 C9.99 11.33 10.98 11.66 12 12 C13.25 14.375 13.25 14.375 14 17 C13.67 17.99 13.34 18.98 13 20 C12.48050781 19.20335937 11.96101562 18.40671875 11.42578125 17.5859375 C7.00236883 10.76679119 7.00236883 10.76679119 2 4.375 C0 2 0 2 0 0 Z " fill="#6E6767" transform="translate(174,242)"/>
<path d="M0 0 C0.99 0.33 1.98 0.66 3 1 C3 5.29 3 9.58 3 14 C2.34 14 1.68 14 1 14 C-0.38226016 11.23547967 -0.09525387 8.9538637 -0.0625 5.875 C-0.05347656 4.77929688 -0.04445313 3.68359375 -0.03515625 2.5546875 C-0.02355469 1.71164063 -0.01195312 0.86859375 0 0 Z " fill="#3D3133" transform="translate(474,109)"/>
<path d="M0 0 C-0.33 0.66 -0.66 1.32 -1 2 C-2.0209375 2.185625 -2.0209375 2.185625 -3.0625 2.375 C-5.78972209 2.95526002 -7.56147662 3.71850756 -10 5 C-12.99405649 6.56507498 -15.61057299 7.57632162 -19 8 C-19 7.34 -19 6.68 -19 6 C-16.58967749 4.79783666 -14.17316521 3.61325022 -11.75 2.4375 C-11.06808594 2.09525391 -10.38617188 1.75300781 -9.68359375 1.40039062 C-5.97831091 -0.38030356 -3.92128522 -1.3058334 0 0 Z " fill="#6A6466" transform="translate(478,106)"/>
<path d="M0 0 C1.98 0 3.96 0 6 0 C6.33 1.65 6.66 3.3 7 5 C4.36 5 1.72 5 -1 5 C-0.67 3.35 -0.34 1.7 0 0 Z " fill="#524348" transform="translate(294,142)"/>
<path d="M0 0 C0.66 0.33 1.32 0.66 2 1 C-1.3 3.64 -4.6 6.28 -8 9 C-10 5 -10 5 -10 2 C-8.3603125 2.061875 -8.3603125 2.061875 -6.6875 2.125 C-2.91107771 2.32074666 -2.91107771 2.32074666 0 0 Z " fill="#776C6F" transform="translate(289,37)"/>
<path d="M0 0 C1.00109515 3.31070838 1.10356134 6.30084769 1.0625 9.75 C1.05347656 10.73484375 1.04445313 11.7196875 1.03515625 12.734375 C1.02355469 13.48203125 1.01195312 14.2296875 1 15 C0.34 15.33 -0.32 15.66 -1 16 C-1.03867187 14.51886719 -1.03867187 14.51886719 -1.078125 13.0078125 C-1.13484375 11.72648437 -1.1915625 10.44515625 -1.25 9.125 C-1.29640625 7.84882812 -1.3428125 6.57265625 -1.390625 5.2578125 C-1.62555056 1.90811895 -1.62555056 1.90811895 -4.046875 0.5546875 C-4.69140625 0.37164062 -5.3359375 0.18859375 -6 0 C-3.50907189 -1.24546405 -2.58919267 -0.7767578 0 0 Z " fill="#5C5657" transform="translate(478,108)"/>
<path d="M0 0 C0 0.99 0 1.98 0 3 C-1.63631892 4.04892238 -3.30485863 5.04906703 -5 6 C-5.33 6.66 -5.66 7.32 -6 8 C-7.98 8 -9.96 8 -12 8 C-4.43243243 0 -4.43243243 0 0 0 Z " fill="#402F31" transform="translate(414,163)"/>
<path d="M0 0 C0 0.66 0 1.32 0 2 C-1.423125 2.12375 -1.423125 2.12375 -2.875 2.25 C-4.421875 2.62125 -4.421875 2.62125 -6 3 C-6.2990625 3.6496875 -6.598125 4.299375 -6.90625 4.96875 C-8 7 -8 7 -10.1640625 7.828125 C-10.97617187 7.96734375 -11.78828125 8.1065625 -12.625 8.25 C-13.44226563 8.39953125 -14.25953125 8.5490625 -15.1015625 8.703125 C-16.04128906 8.85007812 -16.04128906 8.85007812 -17 9 C-14.07284059 5.75376635 -11.37089537 3.99483841 -7.375 2.25 C-6.41335938 1.82203125 -5.45171875 1.3940625 -4.4609375 0.953125 C-2 0 -2 0 0 0 Z " fill="#665B5C" transform="translate(459,114)"/>
<path d="M0 0 C6.35869565 3.13858696 6.35869565 3.13858696 9 6 C9.53961166 9.05779941 9.56039987 11.94434595 9 15 C8.34 15.66 7.68 16.32 7 17 C6.99742187 16.443125 6.99484375 15.88625 6.9921875 15.3125 C6.65417419 8.64237066 4.39376037 4.93122341 0 0 Z " fill="#695557" transform="translate(224,60)"/>
<path d="M0 0 C-1.78628831 1.67277835 -3.5785075 3.33824443 -5.375 5 C-6.13683594 5.71542969 -6.13683594 5.71542969 -6.9140625 6.4453125 C-10.7734375 10 -10.7734375 10 -13 10 C-12 7 -12 7 -9.9375 5.5 C-9.298125 5.005 -8.65875 4.51 -8 4 C-8 3.01 -8 2.02 -8 1 C-4.85571151 -0.9090323 -3.47925125 -1.04523725 0 0 Z " fill="#6D6566" transform="translate(280,47)"/>
<path d="M0 0 C3.26011642 0.69378511 4.79038253 1.45893991 7 4 C4.03 3.505 4.03 3.505 1 3 C1.33 8.94 1.66 14.88 2 21 C1.67 21 1.34 21 1 21 C-0.32719886 14.03220597 -0.08825381 7.07011089 0 0 Z " fill="#665C5D" transform="translate(232,381)"/>
<path d="M0 0 C1.875 1.625 1.875 1.625 3 3 C3.99 2.34 4.98 1.68 6 1 C5.34 2.32 4.68 3.64 4 5 C1.625 4.6875 1.625 4.6875 -1 4 C-1.66 3.01 -2.32 2.02 -3 1 C-6.72301503 0.52269038 -7.79191085 0.8612739 -11 3 C-10.1875 1.0625 -10.1875 1.0625 -9 -1 C-5.17456525 -2.27514492 -3.66576992 -1.52740413 0 0 Z " fill="#A9A2A7" transform="translate(286,141)"/>
<path d="M0 0 C1.3672322 4.1016966 -0.0094502 6.9930376 -1.3125 10.9375 C-1.53873047 11.65357422 -1.76496094 12.36964844 -1.99804688 13.10742188 C-3.10467058 16.54847944 -4.23588099 19.82789868 -6 23 C-4.45454545 4.45454545 -4.45454545 4.45454545 0 0 Z " fill="#7A7777" transform="translate(265,328)"/>
<path d="M0 0 C13.75862069 3.13793103 13.75862069 3.13793103 17 8 C12.76677156 7.37954537 9.47709705 5.89476441 5.6875 3.9375 C4.61886719 3.38964844 3.55023437 2.84179688 2.44921875 2.27734375 C1.64097656 1.85582031 0.83273438 1.43429688 0 1 C0 0.67 0 0.34 0 0 Z " fill="#655658" transform="translate(22,112)"/>
<path d="M0 0 C0.99 0 1.98 0 3 0 C3.33 0.99 3.66 1.98 4 3 C0.73239437 8.63380282 0.73239437 8.63380282 -2 10 C-2.25 3.375 -2.25 3.375 0 0 Z " fill="#5A494B" transform="translate(271,44)"/>
<path d="M0 0 C0.66 0 1.32 0 2 0 C1.25 4.75 1.25 4.75 -1 7 C-3.625 7.125 -3.625 7.125 -6 7 C-6.33 5.02 -6.66 3.04 -7 1 C-6.67 1.66 -6.34 2.32 -6 3 C-4.35 3 -2.7 3 -1 3 C-0.67 2.01 -0.34 1.02 0 0 Z " fill="#6D6061" transform="translate(218,147)"/>
<path d="M0 0 C0.66 0 1.32 0 2 0 C1.66753345 3.07531556 1.36895244 4.61832506 -0.8125 6.875 C-3 8 -3 8 -5.25 7.6875 C-5.8275 7.460625 -6.405 7.23375 -7 7 C-6.67 6.01 -6.34 5.02 -6 4 C-4.66923011 3.65657551 -3.33568021 3.32380126 -2 3 C-1.34 2.01 -0.68 1.02 0 0 Z " fill="#3F2D30" transform="translate(452,134)"/>
<path d="M0 0 C1.31571603 0.2547514 2.62760376 0.52934141 3.9375 0.8125 C4.66839844 0.96332031 5.39929688 1.11414063 6.15234375 1.26953125 C6.76207031 1.51058594 7.37179688 1.75164062 8 2 C8.33 2.99 8.66 3.98 9 5 C9.825 5.33 10.65 5.66 11.5 6 C12.325 6.33 13.15 6.66 14 7 C14.33 7.99 14.66 8.98 15 10 C11.13518578 8.61423779 8.03192572 6.81080359 4.6875 4.4375 C3.80449219 3.81746094 2.92148438 3.19742188 2.01171875 2.55859375 C1.34785156 2.04425781 0.68398437 1.52992187 0 1 C0 0.67 0 0.34 0 0 Z " fill="#605456" transform="translate(10,124)"/>
<path d="M0 0 C1.4540625 0.0309375 1.4540625 0.0309375 2.9375 0.0625 C3.2675 1.3825 3.5975 2.7025 3.9375 4.0625 C2.9475 4.5575 2.9475 4.5575 1.9375 5.0625 C1.9375 4.4025 1.9375 3.7425 1.9375 3.0625 C0.6175 3.0625 -0.7025 3.0625 -2.0625 3.0625 C-2.7225 4.3825 -3.3825 5.7025 -4.0625 7.0625 C-4.10504356 5.06295254 -4.10330783 3.06208364 -4.0625 1.0625 C-3.0625 0.0625 -3.0625 0.0625 0 0 Z " fill="#3C2E36" transform="translate(244.0625,18.9375)"/>
<path d="M0 0 C1.37478516 0.01740234 1.37478516 0.01740234 2.77734375 0.03515625 C3.69644531 0.04417969 4.61554688 0.05320312 5.5625 0.0625 C6.27277344 0.07410156 6.98304688 0.08570313 7.71484375 0.09765625 C7.71484375 0.75765625 7.71484375 1.41765625 7.71484375 2.09765625 C2.63397579 2.94446758 -2.13344002 3.18803724 -7.28515625 3.09765625 C-6.64578125 2.78828125 -6.00640625 2.47890625 -5.34765625 2.16015625 C-1.25884046 0.0537966 -1.25884046 0.0537966 0 0 Z " fill="#3F2A2D" transform="translate(241.28515625,368.90234375)"/>
<path d="M0 0 C0.99 0.495 0.99 0.495 2 1 C2 1.99 2 2.98 2 4 C2.99 4 3.98 4 5 4 C5 5.65 5 7.3 5 9 C5.66 9 6.32 9 7 9 C6.67 10.32 6.34 11.64 6 13 C5.67 12.01 5.34 11.02 5 10 C4.34 10 3.68 10 3 10 C0 3.375 0 3.375 0 0 Z " fill="#6A5E64" transform="translate(216,316)"/>
<path d="M0 0 C4.10457819 0.52383603 6.21510512 1.65165184 9.25 4.4375 C9.93578125 5.05496094 10.6215625 5.67242187 11.328125 6.30859375 C13 8 13 8 14 10 C10.67312232 8.45315734 7.75296022 6.54045021 4.75 4.4375 C3.85796875 3.81746094 2.9659375 3.19742188 2.046875 2.55859375 C1.37140625 2.04425781 0.6959375 1.52992188 0 1 C0 0.67 0 0.34 0 0 Z " fill="#7E7777" transform="translate(136,211)"/>
<path d="M0 0 C0.99 0.33 1.98 0.66 3 1 C2.21718695 2.33855056 1.42348123 3.67073644 0.625 5 C0.18414062 5.7425 -0.25671875 6.485 -0.7109375 7.25 C-1.34902344 8.11625 -1.34902344 8.11625 -2 9 C-2.66 9 -3.32 9 -4 9 C-4.25 6.75 -4.25 6.75 -4 4 C-2 1.6875 -2 1.6875 0 0 Z " fill="#806B6D" transform="translate(294,157)"/>
<path d="M0 0 C1.65 0 3.3 0 5 0 C4.30058404 3.14737182 3.23921302 6.02588876 2 9 C1.34 8.67 0.68 8.34 0 8 C0 5.36 0 2.72 0 0 Z " fill="#655054" transform="translate(438,141)"/>
<path d="M0 0 C0.99 0 1.98 0 3 0 C2.39254603 4.85963179 0.27241033 8.7405518 -2 13 C-3.13615308 9.22349118 -2.62179534 7.60398964 -1 4 C-0.64141484 2.67323492 -0.2981424 1.34164079 0 0 Z " fill="#746D70" transform="translate(274,303)"/>
<path d="M0 0 C1.98 0.495 1.98 0.495 4 1 C4 1.99 4 2.98 4 4 C2.35 4 0.7 4 -1 4 C-0.67 2.68 -0.34 1.36 0 0 Z M-2 4 C-1.67 4.99 -1.34 5.98 -1 7 C-2.65 7 -4.3 7 -6 7 C-6 6.34 -6 5.68 -6 5 C-4.68 4.67 -3.36 4.34 -2 4 Z " fill="#402C2E" transform="translate(433,146)"/>
<path d="M0 0 C4.28379643 0.71260094 8.25093853 2.06921736 12.3125 3.5625 C12.95767578 3.79646484 13.60285156 4.03042969 14.26757812 4.27148438 C15.84621219 4.84447007 17.42327026 5.42179464 19 6 C19 6.33 19 6.66 19 7 C12.31784662 7.68534906 6.84642031 4.94389679 1.4375 1.25 C0.963125 0.8375 0.48875 0.425 0 0 Z " fill="#999697" transform="translate(200,18)"/>
<path d="M0 0 C5.452999 1.56818272 9.76486783 3.03810217 14 7 C8.93001981 6.34580901 4.58009223 4.1453591 0 2 C0 1.34 0 0.68 0 0 Z " fill="#928D8E" transform="translate(86,141)"/>
<path d="M0 0 C2.70931419 0.15481795 4.46584039 0.48172081 6.4453125 2.40234375 C7.67679642 3.89771708 8.8429837 5.4462924 10 7 C6.433255 7 5.89456323 6.36308045 3.3125 4.0625 C2.68988281 3.51722656 2.06726563 2.97195312 1.42578125 2.41015625 C0.95527344 1.94480469 0.48476562 1.47945312 0 1 C0 0.67 0 0.34 0 0 Z " fill="#686162" transform="translate(203,43)"/>
<path d="M0 0 C3 2 3 2 4 5 C4.03954234 7.33299825 4.04401732 9.66708189 4 12 C3.34 11.67 2.68 11.34 2 11 C1.59270772 8.67843403 1.25561323 6.3431213 1 4 C0.01 4 -0.98 4 -2 4 C-1.34 2.68 -0.68 1.36 0 0 Z " fill="#CACACA" transform="translate(243,4)"/>
<path d="M0 0 C0 3.37027852 -0.49824008 4.06702696 -2.4375 6.6875 C-2.88996094 7.31011719 -3.34242188 7.93273437 -3.80859375 8.57421875 C-4.20175781 9.04472656 -4.59492188 9.51523437 -5 10 C-5.33 10 -5.66 10 -6 10 C-6 8.02 -6 6.04 -6 4 C-5.01 4 -4.02 4 -3 4 C-2.67 3.01 -2.34 2.02 -2 1 C-1.34 0.67 -0.68 0.34 0 0 Z " fill="#6C6466" transform="translate(305,252)"/>
<path d="M0 0 C2.97 0.33 5.94 0.66 9 1 C9 1.66 9 2.32 9 3 C9.66 3.33 10.32 3.66 11 4 C3.375 3.375 3.375 3.375 0 0 Z " fill="#837F81" transform="translate(191,16)"/>
<path d="M0 0 C0.66 0 1.32 0 2 0 C2.86627399 1.59766103 3.71766465 3.20339944 4.5625 4.8125 C5.27599609 6.15248047 5.27599609 6.15248047 6.00390625 7.51953125 C7 10 7 10 6 13 C4.99491199 11.21118264 3.99607264 9.41885304 3 7.625 C2.1646875 6.12839844 2.1646875 6.12839844 1.3125 4.6015625 C0 2 0 2 0 0 Z " fill="#54484C" transform="translate(203,286)"/>
<path d="M0 0 C7.57142857 1.85714286 7.57142857 1.85714286 10 5 C4.25 5.125 4.25 5.125 2 4 C2 3.34 2 2.68 2 2 C1.34 2 0.68 2 0 2 C0 1.34 0 0.68 0 0 Z " fill="#56484B" transform="translate(116,158)"/>
<path d="M0 0 C4.23429756 1.31061591 8.07407404 2.94356259 12 5 C8.84979535 6.38609004 7.68081978 5.89180331 4.3125 4.75 C1 3 1 3 0 0 Z " fill="#5B4F51" transform="translate(66,133)"/>
<path d="M0 0 C0.66 0 1.32 0 2 0 C2.33 0.99 2.66 1.98 3 3 C2.34 3 1.68 3 1 3 C1.0825 3.763125 1.165 4.52625 1.25 5.3125 C1 8 1 8 -1 9.8125 C-1.66 10.204375 -2.32 10.59625 -3 11 C-3.66 10.67 -4.32 10.34 -5 10 C-4.34 9.62875 -3.68 9.2575 -3 8.875 C-0.64671481 7.09923049 -0.64671481 7.09923049 -0.8125 3.875 C-0.874375 2.92625 -0.93625 1.9775 -1 1 C-0.67 0.67 -0.34 0.34 0 0 Z " fill="#5C464A" transform="translate(467,123)"/>
<path d="M0 0 C0.99 0 1.98 0 3 0 C2.67 1.65 2.34 3.3 2 5 C0.68 5.33 -0.64 5.66 -2 6 C-1.125 1.125 -1.125 1.125 0 0 Z " fill="#70515C" transform="translate(293,24)"/>
<path d="M0 0 C0.66 0 1.32 0 2 0 C0.31326082 4.49797113 -1.81673892 8.72886302 -4 13 C-5.0169313 10.34501768 -5.13022151 9.30844625 -4.00390625 6.640625 C-3.52824219 5.85171875 -3.05257813 5.0628125 -2.5625 4.25 C-2.08941406 3.45078125 -1.61632812 2.6515625 -1.12890625 1.828125 C-0.75636719 1.22484375 -0.38382812 0.6215625 0 0 Z " fill="#787476" transform="translate(297,262)"/>
<path d="M0 0 C1.60746056 0.42523816 3.21089836 0.86570126 4.8125 1.3125 C6.15248047 1.67794922 6.15248047 1.67794922 7.51953125 2.05078125 C10.05247738 3.0200819 11.2716496 3.95009604 13 6 C8.82354339 6.34803805 7.17413843 5.66218062 4 3 C2.68163705 2.30419733 1.35208914 1.62775567 0 1 C0 0.67 0 0.34 0 0 Z " fill="#61575A" transform="translate(202,20)"/>
<path d="M0 0 C1 2 1 2 0.22265625 4.3828125 C-0.16019531 5.28773438 -0.54304688 6.19265625 -0.9375 7.125 C-1.31777344 8.03507812 -1.69804687 8.94515625 -2.08984375 9.8828125 C-2.39019531 10.58148438 -2.69054687 11.28015625 -3 12 C-3.33 12 -3.66 12 -4 12 C-4.29554656 4.31578947 -4.29554656 4.31578947 -2 1 C-1.34 0.67 -0.68 0.34 0 0 Z " fill="#6F6265" transform="translate(270,316)"/>
<path d="M0 0 C6.52307692 1.35384615 6.52307692 1.35384615 8.9375 4.625 C9.288125 5.40875 9.63875 6.1925 10 7 C5.56541027 5.6062718 3.12621626 3.39417765 0 0 Z " fill="#5A5050" transform="translate(96,182)"/>
<path d="M0 0 C3.91211733 1.15585285 6.8745041 2.35534962 10 5 C6.63295715 5.2295711 4.58629732 5.33943529 1.625 3.625 C1.08875 3.08875 0.5525 2.5525 0 2 C0 1.34 0 0.68 0 0 Z " fill="#7C7375" transform="translate(100,148)"/>
<path d="M0 0 C-2.93828597 2.50298434 -5.17902761 3.46930939 -9 4 C-8 1 -8 1 -6.1875 -0.25 C-3.66056586 -1.11637742 -2.47778006 -0.88492145 0 0 Z " fill="#7A7174" transform="translate(416,136)"/>
<path d="M0 0 C3.40320742 1.01176437 4.75725331 1.64843582 6.8125 4.625 C7.204375 5.40875 7.59625 6.1925 8 7 C5.05043472 5.63055898 2.47531189 4.12169591 0 2 C0 1.34 0 0.68 0 0 Z " fill="#6F6869" transform="translate(128,204)"/>
<path d="M0 0 C1.4835001 0.42257276 2.96176424 0.86356322 4.4375 1.3125 C5.67306641 1.67794922 5.67306641 1.67794922 6.93359375 2.05078125 C7.61550781 2.36402344 8.29742187 2.67726562 9 3 C9.33 3.99 9.66 4.98 10 6 C6.00452264 5.38531118 3.22493358 3.34540624 0 1 C0 0.67 0 0.34 0 0 Z " fill="#5C4F53" transform="translate(40,144)"/>
<path d="M0 0 C2.31 0 4.62 0 7 0 C7.66 1.32 8.32 2.64 9 4 C4.545 3.01 4.545 3.01 0 2 C0 1.34 0 0.68 0 0 Z " fill="#5C5356" transform="translate(186,142)"/>
<path d="M0 0 C0 0.66 0 1.32 0 2 C-2.31 3.32 -4.62 4.64 -7 6 C-7 5.01 -7 4.02 -7 3 C-2.77777778 0 -2.77777778 0 0 0 Z " fill="#524447" transform="translate(422,133)"/>
<path d="M0 0 C0.33 0.99 0.66 1.98 1 3 C0.34 3.66 -0.32 4.32 -1 5 C-3.125 4.625 -3.125 4.625 -5 4 C-5 3.34 -5 2.68 -5 2 C-3.35 1.34 -1.7 0.68 0 0 Z " fill="#432E32" transform="translate(464,128)"/>
<path d="M0 0 C1.32 0 2.64 0 4 0 C4 0.66 4 1.32 4 2 C0.53846154 5 0.53846154 5 -2 5 C-1.125 1.125 -1.125 1.125 0 0 Z " fill="#534041" transform="translate(296,161)"/>
<path d="M0 0 C0.33 0 0.66 0 1 0 C1 1.98 1 3.96 1 6 C0.34 6 -0.32 6 -1 6 C-1.66 7.32 -2.32 8.64 -3 10 C-2.49287967 6.28111761 -1.88391785 3.26545761 0 0 Z " fill="#504749" transform="translate(288,274)"/>
<path d="M0 0 C1.32 0.33 2.64 0.66 4 1 C1.69 2.65 -0.62 4.3 -3 6 C-3 5.01 -3 4.02 -3 3 C-2.01 2.67 -1.02 2.34 0 2 C0 1.34 0 0.68 0 0 Z " fill="#706A6B" transform="translate(340,216)"/>
<path d="M0 0 C1.65 0 3.3 0 5 0 C5 0.99 5 1.98 5 3 C3.02 3 1.04 3 -1 3 C-0.67 2.01 -0.34 1.02 0 0 Z " fill="#433337" transform="translate(295,143)"/>
</svg>
