<?xml version="1.0" encoding="UTF-8"?>
<svg version="1.1" xmlns="http://www.w3.org/2000/svg" width="447" height="266">
<path d="M0 0 C2.42523996 0.36557742 3.65292539 0.5552019 5.19311523 2.52905273 C7.59930819 7.6294728 9.05052313 12.52240295 10.0625 18.0625 C10.2260498 18.90868896 10.38959961 19.75487793 10.55810547 20.62670898 C12.03665139 28.56109127 13.0655146 36.55313511 13.96118164 44.57250977 C14.06938232 45.49862061 14.17758301 46.42473145 14.2890625 47.37890625 C14.42368896 48.60975952 14.42368896 48.60975952 14.56103516 49.86547852 C14.919581 52.28640803 14.919581 52.28640803 17 55 C18.65 54.67 20.3 54.34 22 54 C26.29711199 60.44566798 25.29441785 69.5311459 25.51757812 77.0859375 C25.86355504 86.06828157 26.45881572 94.27723211 33 101 C35.49482175 103.00598091 38.13378551 104.66490972 40.875 106.3125 C42.39000266 107.25672273 43.90431143 108.2020596 45.41796875 109.1484375 C46.18028809 109.61991211 46.94260742 110.09138672 47.72802734 110.57714844 C51.26339202 112.79121521 54.72578131 115.11057734 58.1875 117.4375 C59.368449 118.22792522 60.54943659 119.01829279 61.73046875 119.80859375 C62.80941406 120.53175781 63.88835937 121.25492187 65 122 C66.66675781 122.81791016 66.66675781 122.81791016 68.3671875 123.65234375 C71.34814072 126.31043408 71.44899087 126.89809098 71.83984375 130.6953125 C71.90209012 132.5044305 71.93365944 134.31481553 71.9375 136.125 C71.96650391 137.04410156 71.99550781 137.96320313 72.02539062 138.91015625 C72.18805804 145.62388393 72.18805804 145.62388393 71 148 C68.67773438 148.80615234 68.67773438 148.80615234 65.59375 149.5859375 C64.46428955 149.87525146 63.3348291 150.16456543 62.17114258 150.46264648 C60.95966553 150.76372314 59.74818848 151.0647998 58.5 151.375 C56.67021606 151.83918335 56.67021606 151.83918335 54.8034668 152.31274414 C45.56006742 154.64571541 36.29656754 156.88893177 27 159 C29.76207886 163.58808326 32.37671951 166.35680253 36.8125 169.5 C37.86566406 170.27214844 38.91882813 171.04429687 40.00390625 171.83984375 C41.77341066 173.11564028 43.54949187 174.38253441 45.33984375 175.62890625 C49.73949694 178.93089546 49.73949694 178.93089546 50.48828125 182.00390625 C50.61976247 185.76150117 50.18915237 188.94725162 48 192 C45.29785156 193.09667969 45.29785156 193.09667969 41.890625 193.921875 C40.66085937 194.22480469 39.43109375 194.52773437 38.1640625 194.83984375 C37.52114258 194.98921387 36.87822266 195.13858398 36.21582031 195.29248047 C34.26720678 195.74599534 32.32491778 196.22640924 30.3828125 196.70703125 C24.79853695 198.05355281 19.77121158 199.19404527 14 199 C12.51342575 192.73515139 11.40588272 186.48279297 10.46484375 180.11328125 C10.01049071 177.07026133 9.50581502 174.03489013 9 171 C4.38 171 -0.24 171 -5 171 C-5.268125 172.835625 -5.53625 174.67125 -5.8125 176.5625 C-6.96577261 184.09610812 -8.45210356 191.53913917 -10 199 C-17.11989974 199.57334478 -23.50574404 197.47467828 -30.3125 195.5625 C-31.50423828 195.23701172 -32.69597656 194.91152344 -33.92382812 194.57617188 C-42.65943031 192.17028485 -42.65943031 192.17028485 -45 191 C-46.13155405 186.88216422 -46.4675199 183.16879975 -44.875 179.1875 C-40.64266646 174.24977753 -35.19726698 171.2683374 -29.62109375 168.07421875 C-26.24704216 165.40414216 -24.93903361 162.8187556 -23 159 C-24.423125 158.67128906 -24.423125 158.67128906 -25.875 158.3359375 C-34.88922759 156.24185962 -43.8872892 154.079967 -52.875 151.875 C-53.926875 151.62153809 -54.97875 151.36807617 -56.0625 151.10693359 C-57.54363281 150.74075928 -57.54363281 150.74075928 -59.0546875 150.3671875 C-59.93624512 150.15175293 -60.81780273 149.93631836 -61.72607422 149.71435547 C-64 149 -64 149 -67 147 C-68.62362154 140.444013 -68.98423676 130.36955691 -65.51171875 124.47265625 C-63.12227961 122.63220313 -60.69507044 121.356483 -58 120 C-56.22840517 118.86227376 -54.49692612 117.67445854 -52.76147461 116.48242188 C-48.20219785 113.35282385 -43.56667131 110.34470973 -38.875 107.41796875 C-30.87347829 102.36732178 -25.12056408 98.36169225 -22 89 C-21.86386257 87.40670082 -21.77579203 85.80902445 -21.71875 84.2109375 C-21.68136719 83.26863281 -21.64398438 82.32632813 -21.60546875 81.35546875 C-21.57066406 80.37191406 -21.53585938 79.38835937 -21.5 78.375 C-20.75261142 57.75261142 -20.75261142 57.75261142 -17 54 C-15.35 54.66 -13.7 55.32 -12 56 C-9.74730342 52.34593697 -9.45552918 48.62398597 -9.0703125 44.4453125 C-8.91299885 42.92705861 -8.75543832 41.40883028 -8.59765625 39.890625 C-8.36091327 37.52416748 -8.12811268 35.15742888 -7.90087891 32.79003906 C-5.51542228 8.27313342 -5.51542228 8.27313342 0 0 Z " fill="#939393" transform="translate(231,53)"/>
<path d="M0 0 C3 1 3 1 4.1328125 2.7421875 C4.62394531 3.79792969 4.62394531 3.79792969 5.125 4.875 C5.45757812 5.57367188 5.79015625 6.27234375 6.1328125 6.9921875 C7 9 7 9 8 12 C8.66 12 9.32 12 10 12 C11.39919623 18.1720418 11.40371539 24.38414269 11.625 30.6875 C11.6765625 31.91662109 11.728125 33.14574219 11.78125 34.41210938 C12.00437647 40.56449368 12.00739893 46.50225631 11.27148438 52.61547852 C10.77935001 56.93802916 10.62580871 61.28033836 10.4375 65.625 C10.3748999 67.06613159 10.3748999 67.06613159 10.31103516 68.53637695 C9.84285715 79.99718336 9.86222287 91.3604843 10.5 102.8125 C10.63020112 105.19348828 10.76015781 107.57448644 10.88867188 109.95556641 C10.97989059 111.63071018 11.07529165 113.30562572 11.171875 114.98046875 C11.47388123 124.72016951 10.08868242 135.73395275 7 145 C-0.11989974 145.57334478 -6.50574404 143.47467828 -13.3125 141.5625 C-14.50423828 141.23701172 -15.69597656 140.91152344 -16.92382812 140.57617188 C-25.65943031 138.17028485 -25.65943031 138.17028485 -28 137 C-29.13155405 132.88216422 -29.4675199 129.16879975 -27.875 125.1875 C-23.64266646 120.24977753 -18.19726698 117.2683374 -12.62109375 114.07421875 C-9.24704216 111.40414216 -7.93903361 108.8187556 -6 105 C-6.94875 104.78085938 -7.8975 104.56171875 -8.875 104.3359375 C-17.88922759 102.24185962 -26.8872892 100.079967 -35.875 97.875 C-36.926875 97.62153809 -37.97875 97.36807617 -39.0625 97.10693359 C-40.04992187 96.86281738 -41.03734375 96.61870117 -42.0546875 96.3671875 C-42.93624512 96.15175293 -43.81780273 95.93631836 -44.72607422 95.71435547 C-47 95 -47 95 -50 93 C-51.62362154 86.444013 -51.98423676 76.36955691 -48.51171875 70.47265625 C-46.12227961 68.63220313 -43.69507044 67.356483 -41 66 C-39.22840517 64.86227376 -37.49692612 63.67445854 -35.76147461 62.48242188 C-31.20219785 59.35282385 -26.56667131 56.34470973 -21.875 53.41796875 C-13.87347829 48.36732178 -8.12056408 44.36169225 -5 35 C-4.86386257 33.40670082 -4.77579203 31.80902445 -4.71875 30.2109375 C-4.68136719 29.26863281 -4.64398438 28.32632813 -4.60546875 27.35546875 C-4.57066406 26.37191406 -4.53585938 25.38835937 -4.5 24.375 C-3.75261142 3.75261142 -3.75261142 3.75261142 0 0 Z " fill="#9B9B9B" transform="translate(214,107)"/>
<path d="M0 0 C0.66 0 1.32 0 2 0 C6.29711199 6.44566798 5.29441785 15.5311459 5.51757812 23.0859375 C5.86355504 32.06828157 6.45881572 40.27723211 13 47 C15.49482175 49.00598091 18.13378551 50.66490972 20.875 52.3125 C22.39000266 53.25672273 23.90431143 54.2020596 25.41796875 55.1484375 C26.18028809 55.61991211 26.94260742 56.09138672 27.72802734 56.57714844 C31.26339202 58.79121521 34.72578131 61.11057734 38.1875 63.4375 C39.368449 64.22792522 40.54943659 65.01829279 41.73046875 65.80859375 C42.80941406 66.53175781 43.88835937 67.25492187 45 68 C46.11117187 68.54527344 47.22234375 69.09054688 48.3671875 69.65234375 C51.34814072 72.31043408 51.44899087 72.89809098 51.83984375 76.6953125 C51.90209012 78.5044305 51.93365944 80.31481553 51.9375 82.125 C51.96650391 83.04410156 51.99550781 83.96320313 52.02539062 84.91015625 C52.18805804 91.62388393 52.18805804 91.62388393 51 94 C48.66186523 94.82202148 48.66186523 94.82202148 45.55859375 95.62109375 C44.42421875 95.91556396 43.28984375 96.21003418 42.12109375 96.51342773 C40.90550781 96.81837158 39.68992187 97.12331543 38.4375 97.4375 C37.21289062 97.74953369 35.98828125 98.06156738 34.7265625 98.38305664 C12.37092137 104 12.37092137 104 5 104 C4.80664062 103.43410156 4.61328125 102.86820312 4.4140625 102.28515625 C4.15367187 101.55167969 3.89328125 100.81820312 3.625 100.0625 C3.36976563 99.33160156 3.11453125 98.60070312 2.8515625 97.84765625 C2.14728587 95.81317884 2.14728587 95.81317884 0 95 C-0.66 103.58 -1.32 112.16 -2 121 C-3.98 121 -5.96 121 -8 121 C-9.15694035 116.85001719 -9.14768702 112.83439656 -9.14526367 108.55395508 C-9.15030159 107.27730736 -9.15030159 107.27730736 -9.15544128 105.97486877 C-9.16494919 103.15640809 -9.16689526 100.33800699 -9.16796875 97.51953125 C-9.17118478 95.54815141 -9.17454911 93.5767718 -9.17805481 91.60539246 C-9.18404803 87.46356658 -9.18589484 83.32176155 -9.18530273 79.17993164 C-9.18520186 73.91743572 -9.19877476 68.65507703 -9.21607494 63.39261341 C-9.22730074 59.31291616 -9.22921862 55.23325076 -9.22869301 51.15353966 C-9.22986031 49.21661602 -9.23421037 47.2796912 -9.24202538 45.34278297 C-9.27602369 36.03463756 -9.18575472 26.75929104 -8.2980957 17.48706055 C-8.24565547 16.79953359 -8.19321524 16.11200663 -8.13918591 15.40364552 C-7.56590712 10.37713729 -5.71439098 8.27913151 -2 5 C-0.680982 2.33466965 -0.680982 2.33466965 0 0 Z " fill="#989898" transform="translate(251,107)"/>
<path d="M0 0 C0.99 0.33 1.98 0.66 3 1 C4.17236192 3.50581174 5.14935504 5.90102659 6.0625 8.5 C6.32708008 9.23613525 6.59166016 9.97227051 6.86425781 10.73071289 C9.94733517 19.46577718 11.33318283 27.86145907 12.21582031 37.06225586 C12.73999952 42.3349497 12.73999952 42.3349497 15 47 C17.64663184 48.72927551 17.64663184 48.72927551 20.84765625 50.19921875 C22.00974609 50.76833984 23.17183594 51.33746094 24.36914062 51.92382812 C25.60004106 52.5121779 26.83116365 53.10006309 28.0625 53.6875 C30.47182858 54.85444455 32.87829156 56.02719191 35.28515625 57.19921875 C36.89209351 57.97011841 36.89209351 57.97011841 38.53149414 58.7565918 C41 60 41 60 42 61 C42.125 64.5 42.125 64.5 42 68 C41.67 68.33 41.34 68.66 41 69 C39.33526309 68.9678448 37.6717481 68.86745358 36.01171875 68.73828125 C34.99529297 68.67189453 33.97886719 68.60550781 32.93164062 68.53710938 C30.77969944 68.38811887 28.62857538 68.2267806 26.47851562 68.05273438 C25.45822266 67.99021484 24.43792969 67.92769531 23.38671875 67.86328125 C22.45045654 67.79407471 21.51419434 67.72486816 20.54956055 67.65356445 C17.18772559 68.11037225 16.09927181 69.4108581 14 72 C11.98150404 77.17171398 12.24416513 83.59443101 13 89 C14.28532254 91.01547892 14.28532254 91.01547892 16.0625 92.4375 C17.031875 93.283125 18.00125 94.12875 19 95 C19 99.0108799 18.22912939 100.65630592 16 104 C11.31261335 103.09276387 6.65806256 102.0452733 2 101 C2 103.31 2 105.62 2 108 C0.35 107.67 -1.3 107.34 -3 107 C-3 105.68 -3 104.36 -3 103 C-6.83225427 102.91087781 -10.26562152 103.12132271 -14 104 C-16.13630675 101.68566769 -16.96438371 100.18599621 -17.5625 97.0625 C-17 94 -17 94 -13.96875 91.8125 C-11.04061869 89.49303741 -11.02397579 89.19517482 -10.52734375 85.15234375 C-10.63157128 83.74461249 -10.76921515 82.33901735 -10.9375 80.9375 C-10.98712891 80.23044922 -11.03675781 79.52339844 -11.08789062 78.79492188 C-11.46486573 74.65596844 -12.05324991 71.95806044 -15 69 C-17.46001646 68.48168099 -17.46001646 68.48168099 -20.21875 68.6796875 C-21.23324219 68.70160156 -22.24773437 68.72351563 -23.29296875 68.74609375 C-24.35128906 68.78863281 -25.40960938 68.83117187 -26.5 68.875 C-28.59347476 68.94384753 -30.68725361 69.00413358 -32.78125 69.0546875 C-34.1744043 69.10858643 -34.1744043 69.10858643 -35.59570312 69.16357422 C-38 69 -38 69 -41 67 C-41.5 64.625 -41.5 64.625 -41 62 C-36.58574456 57.65038847 -30.92217648 55.38581552 -25.375 52.8125 C-24.42109375 52.36197266 -23.4671875 51.91144531 -22.484375 51.44726562 C-15.50065889 48.1668863 -15.50065889 48.1668863 -12 47 C-11.83564453 45.5459375 -11.83564453 45.5459375 -11.66796875 44.0625 C-7.39580716 7.39580716 -7.39580716 7.39580716 0 0 Z " fill="#8A8F8D" transform="translate(378,4)"/>
<path d="M0 0 C3 1 3 1 4.5 3.78125 C5.01714102 5.01378073 5.51592298 6.25411225 6 7.5 C6.26200195 8.16563965 6.52400391 8.8312793 6.79394531 9.51708984 C8.64733996 14.48063305 9.85825221 19.40833466 10.75 24.625 C10.87777832 25.33865723 11.00555664 26.05231445 11.13720703 26.78759766 C11.69771431 30.1575802 11.99529579 33.14363514 11.8828125 36.578125 C11.87347381 40.51905288 12.0384266 42.54261492 14 46 C19.59408409 50.2990336 26.14529577 53.11428675 32.57226562 55.93457031 C40.34623656 59.34623656 40.34623656 59.34623656 42 61 C42.04092937 63.33297433 42.04241723 65.66705225 42 68 C36.16871998 69.69570695 30.08033908 68.61570775 24.12890625 68.05273438 C19.1621661 67.50817849 19.1621661 67.50817849 14.9453125 69.66796875 C12.49635281 75.70941062 11.99697899 82.57887442 13 89 C14.30063148 90.70361305 14.30063148 90.70361305 16.0625 91.8125 C17.031875 92.534375 18.00125 93.25625 19 94 C19 97.6875 19 97.6875 18 101 C17.34 101.66 16.68 102.32 16 103 C12.9609375 102.9765625 12.9609375 102.9765625 9.375 102.625 C8.18648437 102.51414062 6.99796875 102.40328125 5.7734375 102.2890625 C4.85820313 102.19367188 3.94296875 102.09828125 3 102 C2.34 103.98 1.68 105.96 1 108 C-0.32 107.67 -1.64 107.34 -3 107 C-3 105.35 -3 103.7 -3 102 C-6.83225427 101.91087781 -10.26562152 102.12132271 -14 103 C-15.88658269 100.87759447 -16.91956289 99.34856081 -17.5625 96.5625 C-17 94 -17 94 -14 91.8125 C-11.86885422 90.2002857 -11.10348488 89.44923671 -10.49609375 86.8125 C-10.35003247 80.58055204 -11.74295724 74.78878842 -14 69 C-15.04871253 67.72694444 -15.04871253 67.72694444 -17.40844727 67.88647461 C-18.97163696 67.89432983 -18.97163696 67.89432983 -20.56640625 67.90234375 C-21.69111328 67.90556641 -22.81582031 67.90878906 -23.97460938 67.91210938 C-25.75061523 67.92467773 -25.75061523 67.92467773 -27.5625 67.9375 C-28.75037109 67.94201172 -29.93824219 67.94652344 -31.16210938 67.95117188 C-34.10812226 67.96300325 -37.05403681 67.97948713 -40 68 C-40.375 64.75 -40.375 64.75 -40 61 C-37.91121795 59.12929634 -36.46467409 58.19114558 -34 57 C-32.89712646 56.44046631 -32.89712646 56.44046631 -31.77197266 55.86962891 C-29.30204344 54.64542924 -26.81264999 53.47362551 -24.3125 52.3125 C-23.45849609 51.90966797 -22.60449219 51.50683594 -21.72460938 51.09179688 C-18.50115867 49.58009218 -15.38085778 48.12695259 -12 47 C-11.88724731 46.09459473 -11.88724731 46.09459473 -11.7722168 45.17089844 C-6.95310285 6.95310285 -6.95310285 6.95310285 0 0 Z " fill="#828785" transform="translate(87,4)"/>
<path d="M0 0 C3 1 3 1 4.5 3.78125 C5.01714102 5.01378073 5.51592298 6.25411225 6 7.5 C6.26200195 8.16563965 6.52400391 8.8312793 6.79394531 9.51708984 C8.64733996 14.48063305 9.85825221 19.40833466 10.75 24.625 C10.87777832 25.33865723 11.00555664 26.05231445 11.13720703 26.78759766 C11.69771431 30.1575802 11.99529579 33.14363514 11.8828125 36.578125 C11.87347381 40.51905288 12.0384266 42.54261492 14 46 C19.59408409 50.2990336 26.14529577 53.11428675 32.57226562 55.93457031 C40.34623656 59.34623656 40.34623656 59.34623656 42 61 C42.04092937 63.33297433 42.04241723 65.66705225 42 68 C36.16871998 69.69570695 30.08033908 68.61570775 24.12890625 68.05273438 C19.1621661 67.50817849 19.1621661 67.50817849 14.9453125 69.66796875 C12.49635281 75.70941062 11.99697899 82.57887442 13 89 C14.30063148 90.70361305 14.30063148 90.70361305 16.0625 91.8125 C17.031875 92.534375 18.00125 93.25625 19 94 C19 97.6875 19 97.6875 18 101 C17.34 101.66 16.68 102.32 16 103 C12.9609375 102.9765625 12.9609375 102.9765625 9.375 102.625 C8.18648437 102.51414062 6.99796875 102.40328125 5.7734375 102.2890625 C4.85820313 102.19367188 3.94296875 102.09828125 3 102 C2.34 103.98 1.68 105.96 1 108 C-0.32 107.67 -1.64 107.34 -3 107 C-3 105.35 -3 103.7 -3 102 C-6.83225427 101.91087781 -10.26562152 102.12132271 -14 103 C-15.88658269 100.87759447 -16.91956289 99.34856081 -17.5625 96.5625 C-17 94 -17 94 -14 91.8125 C-11.80690683 90.17155029 -11.0905364 89.4714418 -10.56640625 86.7421875 C-10.56240651 84.12636036 -10.72065863 81.60062877 -11 79 C-11.08121094 78.19949219 -11.16242188 77.39898437 -11.24609375 76.57421875 C-11.46113839 74.71160137 -11.72522272 72.85474665 -12 71 C-7.73500918 75.26499082 -8.70184868 82.29744066 -8.48242188 88.02929688 C-8.26585497 92.3402041 -7.5558443 95.9749615 -6 100 C-2.37471432 100.20140476 -0.13498292 99.85776765 3 98 C2.83693359 97.50653076 2.67386719 97.01306152 2.50585938 96.50463867 C1.79445491 92.98229388 1.87541706 89.50247357 1.90625 85.92578125 C1.90983521 85.13295242 1.91342041 84.3401236 1.91711426 83.52326965 C1.97008699 75.54572359 2.18635915 67.57354254 2.42807007 59.59985352 C3.75130991 31.19298642 3.75130991 31.19298642 1 3 C0.01 3.99 -0.98 4.98 -2 6 C-1.125 1.125 -1.125 1.125 0 0 Z " fill="#555A59" transform="translate(87,4)"/>
<path d="M0 0 C0.99 0.33 1.98 0.66 3 1 C4.17236192 3.50581174 5.14935504 5.90102659 6.0625 8.5 C6.32708008 9.23613525 6.59166016 9.97227051 6.86425781 10.73071289 C9.94733517 19.46577718 11.33318283 27.86145907 12.21582031 37.06225586 C12.73999952 42.3349497 12.73999952 42.3349497 15 47 C17.64663184 48.72927551 17.64663184 48.72927551 20.84765625 50.19921875 C22.00974609 50.76833984 23.17183594 51.33746094 24.36914062 51.92382812 C25.60004106 52.5121779 26.83116365 53.10006309 28.0625 53.6875 C30.47182858 54.85444455 32.87829156 56.02719191 35.28515625 57.19921875 C36.89209351 57.97011841 36.89209351 57.97011841 38.53149414 58.7565918 C41 60 41 60 42 61 C42.125 64.5 42.125 64.5 42 68 C41.67 68.33 41.34 68.66 41 69 C39.33526309 68.9678448 37.6717481 68.86745358 36.01171875 68.73828125 C34.99529297 68.67189453 33.97886719 68.60550781 32.93164062 68.53710938 C30.77969944 68.38811887 28.62857538 68.2267806 26.47851562 68.05273438 C25.45822266 67.99021484 24.43792969 67.92769531 23.38671875 67.86328125 C22.45045654 67.79407471 21.51419434 67.72486816 20.54956055 67.65356445 C17.18772559 68.11037225 16.09927181 69.4108581 14 72 C11.98150404 77.17171398 12.24416513 83.59443101 13 89 C14.28532254 91.01547892 14.28532254 91.01547892 16.0625 92.4375 C17.031875 93.283125 18.00125 94.12875 19 95 C19 99.0108799 18.22912939 100.65630592 16 104 C11.31261335 103.09276387 6.65806256 102.0452733 2 101 C2 103.31 2 105.62 2 108 C0.68 107.67 -0.64 107.34 -2 107 C-1.34 107 -0.68 107 0 107 C0 104.36 0 101.72 0 99 C0.99 99 1.98 99 3 99 C2.82586578 97.99806107 2.65173157 96.99612213 2.47232056 95.96382141 C2.00079946 92.00670923 2.11113006 88.54328182 2.44287109 84.57885742 C3.06080201 76.28227515 3.05867957 68.05345025 2.9140625 59.73828125 C2.89220282 58.24855631 2.8707578 56.75882524 2.84970093 55.26908875 C2.80475861 52.18428123 2.75560049 49.09958091 2.703125 46.01489258 C2.63626246 42.07000285 2.57920684 38.12504221 2.52509499 34.1799593 C2.48224127 31.11983031 2.43483707 28.05978513 2.38599777 24.99974632 C2.36320364 23.54416016 2.34168287 22.08855344 2.32149124 20.63292885 C2.29260211 18.6071854 2.25704 16.58154045 2.22119141 14.5559082 C2.20263092 13.40725784 2.18407043 12.25860748 2.16494751 11.07514954 C2.0149216 8.27818642 1.63344188 5.72341041 1 3 C-1.55330579 8.59912742 -3.89680715 14.21621965 -6 20 C-6.33 20 -6.66 20 -7 20 C-6.40373356 13.29200257 -4.87551498 4.87551498 0 0 Z " fill="#585D5C" transform="translate(378,4)"/>
<path d="M0 0 C1.65 0 3.3 0 5 0 C4.44210432 7.01524148 3.81552077 14.00982196 3 21 C2.34 21 1.68 21 1 21 C1 21.66 1 22.32 1 23 C1.99 23 2.98 23 4 23 C4.04898438 22.08476562 4.09796875 21.16953125 4.1484375 20.2265625 C4.22320312 19.03804687 4.29796875 17.84953125 4.375 16.625 C4.47941406 14.84996094 4.47941406 14.84996094 4.5859375 13.0390625 C5 10 5 10 7 8 C7.93940685 12.75207924 8.14253528 17.3594088 8.12939453 22.18579102 C8.13114685 22.9850853 8.13289917 23.78437958 8.13470459 24.6078949 C8.13909062 27.23992105 8.13619459 29.87187945 8.1328125 32.50390625 C8.13348694 34.34748853 8.13445813 36.19107073 8.13571167 38.03465271 C8.13718464 41.89884284 8.13504867 45.76300983 8.13037109 49.62719727 C8.12470211 54.54696551 8.12793732 59.46667886 8.13394356 64.38644505 C8.13758401 68.19661358 8.13639422 72.00676945 8.13381577 75.8169384 C8.13315464 77.62877344 8.13394603 79.44060968 8.13629532 81.25244331 C8.14637935 91.22335156 7.98408619 101.06844508 7 111 C0.06640625 111.09765625 0.06640625 111.09765625 -2 111 C-6.51775537 106.48224463 -4.13335299 87.89197797 -4.13894653 81.48660278 C-4.13715707 79.84783906 -4.1351062 78.2090756 -4.1328125 76.5703125 C-4.13348836 74.84211209 -4.13446071 73.11391176 -4.13571167 71.38571167 C-4.13717304 67.7939156 -4.13508334 64.20214467 -4.13037109 60.61035156 C-4.12464874 56.0278685 -4.12797854 51.4454437 -4.13394356 46.86296272 C-4.13756954 43.30603603 -4.13640168 39.74912301 -4.13381577 36.19219589 C-4.13315347 34.50265369 -4.13395024 32.8131102 -4.13629532 31.12356949 C-4.15381564 14.97358793 -4.15381564 14.97358793 -3 7 C-2.34 7.33 -1.68 7.66 -1 8 C-0.67 5.36 -0.34 2.72 0 0 Z " fill="#9C9C9C" transform="translate(231,112)"/>
<path d="M0 0 C0.99 0 1.98 0 3 0 C3.33 1.98 3.66 3.96 4 6 C4.66 6 5.32 6 6 6 C7.00496852 9.01490557 7.10335303 11.04181692 7.0625 14.1875 C7.05347656 15.08855469 7.04445312 15.98960938 7.03515625 16.91796875 C7.02355469 17.60503906 7.01195312 18.29210937 7 19 C6.01 19 5.02 19 4 19 C4.33 19.66 4.66 20.32 5 21 C5.04589502 22.9161171 5.03813507 24.83371275 5 26.75 C4.9595185 30.97019593 5.12721276 34.85426063 6 39 C6 39.66 6 40.32 6 41 C6.66 41 7.32 41 8 41 C8.33 43.31 8.66 45.62 9 48 C9.66 46.68 10.32 45.36 11 44 C13.29633824 47.44450737 13.54016485 49.93812283 14 54 C14.99 54 15.98 54 17 54 C17.33 53.01 17.66 52.02 18 51 C18.33 51.99 18.66 52.98 19 54 C18.20190918 54.65315186 17.40381836 55.30630371 16.58154297 55.97924805 C13.41807305 59.68093268 13.01528291 62.65190751 12.6953125 67.33203125 C12.62434357 68.15629105 12.55337463 68.98055084 12.48025513 69.82978821 C11.66485103 80.43256763 11.78419136 91.06203205 11.875 101.6875 C11.88506515 103.76887583 11.89418466 105.85025645 11.90234375 107.93164062 C11.92404208 112.95454895 11.95837032 117.97721897 12 123 C11.67 123 11.34 123 11 123 C10.505 120.525 10.505 120.525 10 118 C9.97494385 119.06847168 9.9498877 120.13694336 9.92407227 121.23779297 C9.82909373 125.2448902 9.72910318 129.25185006 9.62768555 133.25878906 C9.58467542 134.98499309 9.54298052 136.71123046 9.50268555 138.4375 C9.29416265 147.3344768 9.08043574 156.15676965 8 165 C7.67 165 7.34 165 7 165 C7.00333092 163.19048859 7.00333092 163.19048859 7.00672913 161.34442139 C7.02698655 149.98480441 7.04198472 138.62519108 7.05181217 127.26556015 C7.05703436 121.42524209 7.06412004 115.58493859 7.07543945 109.74462891 C7.08629182 104.11013902 7.09228185 98.47566316 7.09487724 92.84116364 C7.09672724 90.68974843 7.10033973 88.538334 7.10573006 86.38692474 C7.1129716 83.377399 7.11398961 80.36793147 7.11352539 77.35839844 C7.11712067 76.4657579 7.12071594 75.57311737 7.12442017 74.65342712 C7.1230455 73.83175552 7.12167084 73.01008392 7.12025452 72.16351318 C7.12163721 71.09607691 7.12163721 71.09607691 7.12304783 70.00707626 C7.03923332 67.6392378 7.03923332 67.6392378 6 64 C5.34 68.29 4.68 72.58 4 77 C3.01 77 2.02 77 1 77 C1 76.34 1 75.68 1 75 C1.66 75 2.32 75 3 75 C2.95875 73.7625 2.9175 72.525 2.875 71.25 C2.85628808 65.38381252 3.91081967 59.74737122 5 54 C3.35 54 1.7 54 0 54 C0 55.65 0 57.3 0 59 C-0.33 59 -0.66 59 -1 59 C-1 56.36 -1 53.72 -1 51 C-1.66 51 -2.32 51 -3 51 C-4.69832609 45.16200408 -5.25287193 40.06892629 -5 34 C-3.02 33.505 -3.02 33.505 -1 33 C-1.01160156 32.15695313 -1.02320313 31.31390625 -1.03515625 30.4453125 C-1.04417969 29.34960938 -1.05320313 28.25390625 -1.0625 27.125 C-1.07410156 26.03445312 -1.08570313 24.94390625 -1.09765625 23.8203125 C-1 21 -1 21 0 19 C-0.99 19 -1.98 19 -3 19 C-3.33693273 12.03672362 -2.3030887 6.56654456 0 0 Z " fill="#717170" transform="translate(231,58)"/>
<path d="M0 0 C3 1 3 1 4.1328125 2.7421875 C4.46023437 3.44601563 4.78765625 4.14984375 5.125 4.875 C5.45757812 5.57367188 5.79015625 6.27234375 6.1328125 6.9921875 C7 9 7 9 8 12 C8.66 12 9.32 12 10 12 C11.39919623 18.1720418 11.40371539 24.38414269 11.625 30.6875 C11.70234375 32.53118164 11.70234375 32.53118164 11.78125 34.41210938 C12.00518446 40.5867729 12.00773397 46.5497517 11.27148438 52.68579102 C10.80590933 56.6544833 10.62387913 60.6348793 10.4375 64.625 C10.37381226 65.98359131 10.37381226 65.98359131 10.30883789 67.36962891 C9.74014054 81.23577477 9.91493628 95.12545257 10 109 C9.67 109 9.34 109 9 109 C8.11148643 98.2091935 7.71113215 87.44519715 7.4375 76.625 C7.39416449 75.00259655 7.3505463 73.38020062 7.30664062 71.7578125 C7.20117994 67.83862046 7.09950344 63.91934763 7 60 C5.19533017 61.80466983 5.58507442 64.73102816 5.37890625 67.1875 C5.25386719 67.785625 5.12882812 68.38375 5 69 C4.01 69.495 4.01 69.495 3 70 C2.505 63.565 2.505 63.565 2 57 C1.34 57.66 0.68 58.32 0 59 C-2.42479736 55.36280395 -2.38662577 53.14296518 -2.625 48.8125 C-2.73714844 46.90404297 -2.73714844 46.90404297 -2.8515625 44.95703125 C-2.90054688 43.98121094 -2.94953125 43.00539062 -3 42 C-6.0927781 44.06185207 -6.68076198 44.90369802 -8.1875 48.125 C-8.53167969 48.84945312 -8.87585938 49.57390625 -9.23046875 50.3203125 C-9.48441406 50.87460938 -9.73835937 51.42890625 -10 52 C-10.66 52 -11.32 52 -12 52 C-12 51.34 -12 50.68 -12 50 C-13.98 50.66 -15.96 51.32 -18 52 C-15.92318478 49.8462657 -13.98755761 47.99160139 -11.5 46.3125 C-6.68581725 41.85938096 -4.84374607 36.08377209 -4.42578125 29.625 C-4.36949283 27.75046473 -4.33192624 25.87527957 -4.3125 24 C-4.26976712 22.12493312 -4.22422562 20.24992801 -4.17578125 18.375 C-4.15265869 17.47579834 -4.12953613 16.57659668 -4.10571289 15.65014648 C-3.62607945 3.62607945 -3.62607945 3.62607945 0 0 Z " fill="#8E8E8E" transform="translate(214,107)"/>
<path d="M0 0 C0.66 0.33 1.32 0.66 2 1 C3.26916772 8.71828678 3.23295205 16.51828542 3.3515625 24.32421875 C3.37477249 25.71597077 3.39816294 27.10771979 3.42172241 28.49946594 C3.46996111 31.41342421 3.51487546 34.32741121 3.55761719 37.24145508 C3.60108577 40.18231859 3.64955755 43.12302392 3.703125 46.0637207 C4.01269451 63.07727563 4.08243477 80.00577411 3 97 C2.01 97 1.02 97 0 97 C0 99.64 0 102.28 0 105 C-0.66 105 -1.32 105 -2 105 C-2 102.69 -2 100.38 -2 98 C-3.98 98.495 -3.98 98.495 -6 99 C-6.33 96.69 -6.66 94.38 -7 92 C-7.66 92 -8.32 92 -9 92 C-9 85.73 -9 79.46 -9 73 C-7.02 72.505 -7.02 72.505 -5 72 C-4.83236258 66.78575406 -4.67180531 61.57135652 -4.51782227 56.35668945 C-4.46443392 54.58254115 -4.40910702 52.80845009 -4.35180664 51.03442383 C-4.26980731 48.48531435 -4.19476856 45.93608072 -4.12109375 43.38671875 C-4.08054115 42.19594978 -4.08054115 42.19594978 -4.03916931 40.98112488 C-3.94995568 37.69363284 -3.95116594 35.14650219 -5 32 C-5.03920815 30.00038436 -5.04443347 27.99950636 -5 26 C-5.33 26.66 -5.66 27.32 -6 28 C-6.66 28 -7.32 28 -8 28 C-7.83607641 17.83673751 -3.85688417 9.24443778 0 0 Z " fill="#818585" transform="translate(378,6)"/>
<path d="M0 0 C3.58706303 3.58706303 3.05691921 8.3449806 3.09765625 13.1796875 C3.09106437 15.07814972 3.07922033 16.97659996 3.0625 18.875 C3.05798828 19.84953125 3.05347656 20.8240625 3.04882812 21.828125 C3.03710906 24.21881434 3.02070219 26.6093744 3 29 C2.36191406 29.12842285 1.72382813 29.2568457 1.06640625 29.38916016 C-1.14585311 29.78960167 -1.14585311 29.78960167 -2.0625 31.7734375 C-2.371875 32.50820312 -2.68125 33.24296875 -3 34 C-3.97726026 35.55618074 -4.97833212 37.09760652 -6 38.625 C-6.7734375 39.78902344 -6.7734375 39.78902344 -7.5625 40.9765625 C-9 43 -9 43 -11 45 C-11.33 45.99 -11.66 46.98 -12 48 C-17.86809507 47.47606294 -22.54873741 46.23891142 -28 44 C-29.43210803 36.08027007 -29.43210803 36.08027007 -27.875 32.1875 C-23.64266646 27.24977753 -18.19726698 24.2683374 -12.62109375 21.07421875 C-9.24704216 18.40414216 -7.93903361 15.8187556 -6 12 C-7.57974609 11.63648438 -7.57974609 11.63648438 -9.19140625 11.265625 C-18.8485643 9.02726308 -28.43808993 6.61665079 -38 4 C-38 3.67 -38 3.34 -38 3 C-31.63259647 3.65612589 -25.58224394 4.95700612 -19.375 6.5 C-11.24268298 8.51471195 -11.24268298 8.51471195 -3 10 C-3.061875 9.278125 -3.12375 8.55625 -3.1875 7.8125 C-2.96476068 4.47141026 -1.8717754 2.72967245 0 0 Z " fill="#969696" transform="translate(214,200)"/>
<path d="M0 0 C2.42523996 0.36557742 3.65292539 0.5552019 5.19311523 2.52905273 C7.59930819 7.6294728 9.05052313 12.52240295 10.0625 18.0625 C10.2260498 18.90868896 10.38959961 19.75487793 10.55810547 20.62670898 C12.03665139 28.56109127 13.0655146 36.55313511 13.96118164 44.57250977 C14.06938232 45.49862061 14.17758301 46.42473145 14.2890625 47.37890625 C14.37881348 48.1994751 14.46856445 49.02004395 14.56103516 49.86547852 C14.919581 52.28640803 14.919581 52.28640803 17 55 C18.485 54.505 18.485 54.505 20 54 C20 56 20 56 18.6875 57.625 C17 59 17 59 14 59 C12.515 54.545 12.515 54.545 11 50 C10.01 52.475 10.01 52.475 9 55 C8.67 55 8.34 55 8 55 C8 52.03 8 49.06 8 46 C7.34 46 6.68 46 6 46 C4.16282685 38.58569409 3.76423264 31.62314474 4 24 C4.99 24 5.98 24 7 24 C6.505 17.565 6.505 17.565 6 11 C5.34 11 4.68 11 4 11 C3.67 9.02 3.34 7.04 3 5 C2.01 5 1.02 5 0 5 C-1.35991738 11.32427599 -2.37679879 17.56025419 -3 24 C-2.01 24 -1.02 24 0 24 C-0.33 28.62 -0.66 33.24 -1 38 C-2.485 38.495 -2.485 38.495 -4 39 C-4.12036664 44.77759884 -3.8320582 50.27959989 -3 56 C-2.34 56 -1.68 56 -1 56 C-0.67 61.28 -0.34 66.56 0 72 C-0.33 72 -0.66 72 -1 72 C-2.13764351 67.73383684 -3 64.43513689 -3 60 C-7.43093198 58.18698242 -7.43093198 58.18698242 -12 59 C-12.66 58.67 -13.32 58.34 -14 58 C-14 57.34 -14 56.68 -14 56 C-12.515 55.505 -12.515 55.505 -11 55 C-8.39126123 46.29495326 -8.06027354 37.11669873 -7.3203125 28.09960938 C-6.44618984 18.67795773 -5.35949002 8.03923503 0 0 Z " fill="#443F39" transform="translate(231,53)"/>
<path d="M0 0 C3 1 3 1 4.60546875 3.88671875 C5.15182637 5.14556307 5.67805943 6.41326848 6.1875 7.6875 C6.45578613 8.35144775 6.72407227 9.01539551 7.00048828 9.69946289 C9.54106598 16.52514832 9.60370045 22.74441494 9 30 C8.34 29.34 7.68 28.68 7 28 C7 27.01 7 26.02 7 25 C6.01 25 5.02 25 4 25 C4.23553589 26.70410034 4.23553589 26.70410034 4.47583008 28.44262695 C5.03524217 32.934009 5.2524722 37.39631572 5.38671875 41.91796875 C5.41224319 42.73824051 5.43776764 43.55851227 5.46406555 44.40364075 C5.51570651 46.12376706 5.56517286 47.84395992 5.61254883 49.56420898 C5.68760091 52.19103186 5.77822311 54.81704385 5.86914062 57.44335938 C5.91762525 59.12236843 5.96518352 60.80140454 6.01171875 62.48046875 C6.04077805 63.2607695 6.06983734 64.04107025 6.09977722 64.84501648 C6.196569 69.04129228 5.912884 72.23358609 4 76 C7.465 76.495 7.465 76.495 11 77 C11.05380578 79.79192205 11.09357669 82.5828141 11.125 85.375 C11.14175781 86.1690625 11.15851563 86.963125 11.17578125 87.78125 C11.19335473 89.85492015 11.10335168 91.92883241 11 94 C10.01 94.99 10.01 94.99 9 96 C8.566875 97.2684375 8.566875 97.2684375 8.125 98.5625 C7.75375 99.366875 7.3825 100.17125 7 101 C6.01 101.2165625 6.01 101.2165625 5 101.4375 C4.34 101.623125 3.68 101.80875 3 102 C1.6954344 104.99615946 1.6954344 104.99615946 1 108 C-0.32 107.67 -1.64 107.34 -3 107 C-3 105.35 -3 103.7 -3 102 C-6.83225427 101.91087781 -10.26562152 102.12132271 -14 103 C-15.88658269 100.87759447 -16.91956289 99.34856081 -17.5625 96.5625 C-17 94 -17 94 -14 91.8125 C-11.80690683 90.17155029 -11.0905364 89.4714418 -10.56640625 86.7421875 C-10.56240651 84.12636036 -10.72065863 81.60062877 -11 79 C-11.08121094 78.19949219 -11.16242188 77.39898437 -11.24609375 76.57421875 C-11.46113839 74.71160137 -11.72522272 72.85474665 -12 71 C-7.73500918 75.26499082 -8.70184868 82.29744066 -8.48242188 88.02929688 C-8.26585497 92.3402041 -7.5558443 95.9749615 -6 100 C-2.37471432 100.20140476 -0.13498292 99.85776765 3 98 C2.83693359 97.50653076 2.67386719 97.01306152 2.50585938 96.50463867 C1.79445491 92.98229388 1.87541706 89.50247357 1.90625 85.92578125 C1.90983521 85.13295242 1.91342041 84.3401236 1.91711426 83.52326965 C1.97008699 75.54572359 2.18635915 67.57354254 2.42807007 59.59985352 C3.75130991 31.19298642 3.75130991 31.19298642 1 3 C0.01 3.99 -0.98 4.98 -2 6 C-1.125 1.125 -1.125 1.125 0 0 Z " fill="#666A69" transform="translate(87,4)"/>
<path d="M0 0 C0.66 0.33 1.32 0.66 2 1 C2.94586823 4.43952082 2.99049668 7.07279324 2.52783203 10.61669922 C1.62629777 18.24840368 1.85653704 25.9595434 1.8671875 33.6328125 C1.86651233 35.35521458 1.86554053 37.07761656 1.86428833 38.80001831 C1.86281903 42.40249543 1.86493956 46.00494766 1.86962891 49.60742188 C1.87529985 54.1827603 1.87205904 58.75803971 1.86605644 63.33337593 C1.86240788 66.89055815 1.86360937 70.44772685 1.86618423 74.00490952 C1.86684303 75.68949262 1.86606251 77.37407702 1.86370468 79.0586586 C1.85239111 89.41946412 2.16022241 99.67019689 3 110 C6.3 110.33 9.6 110.66 13 111 C13.33 93.51 13.66 76.02 14 58 C14.33 58 14.66 58 15 58 C17.07707615 66.66487913 17.27848396 75.16240499 17.20581055 84.0144043 C17.1876145 86.29812946 17.18530133 88.58144429 17.18554688 90.86523438 C17.16308829 99.95359668 16.78742524 108.94143831 16 118 C14 114.25 14 114.25 14 112 C9.38 112 4.76 112 0 112 C-0.33 112.99 -0.66 113.98 -1 115 C-4.10927974 92.00700694 -3.99994232 67.91532038 -1.4375 44.875 C-0.72339544 37.35589902 -1.14223033 29.84397965 -1.4375 22.3125 C-1.49086684 20.82098604 -1.54360554 19.32944946 -1.59570312 17.83789062 C-1.72324144 14.22497138 -1.85923107 10.61243082 -2 7 C-2.66 7 -3.32 7 -4 7 C-6.26396123 4.46436342 -7.40312566 2.34249629 -8 -1 C-4.57256769 -2.22408297 -3.08891118 -1.85334671 0 0 Z " fill="#6C6C6C" transform="translate(226,112)"/>
<path d="M0 0 C0.99 0.33 1.98 0.66 3 1 C3.53920822 2.88722879 4.05963918 4.78265963 4.46484375 6.703125 C4.9961445 8.98345229 5.73590205 11.06171171 6.5625 13.25 C8.45650032 18.71199083 8.71842266 24.26164805 9 30 C8.01 30 7.02 30 6 30 C6 30.66 6 31.32 6 32 C6.66 32 7.32 32 8 32 C8.75 33.75 8.75 33.75 9 36 C8.35160156 36.50917969 7.70320313 37.01835938 7.03515625 37.54296875 C3.92729525 41.29506965 4.52708375 44.84582878 4.6875 49.5625 C4.70441895 50.45767334 4.72133789 51.35284668 4.73876953 52.27514648 C4.4108587 63.6672932 4.4108587 63.6672932 8 74 C8 74.99 8 75.98 8 77 C8.66 77 9.32 77 10 77 C10.495 85.415 10.495 85.415 11 94 C11.99 94 12.98 94 14 94 C14.33 95.65 14.66 97.3 15 99 C15 97.68 15 96.36 15 95 C15.66 95 16.32 95 17 95 C17 96.65 17 98.3 17 100 C14.75 101.125 14.75 101.125 12 102 C9.6875 101.125 9.6875 101.125 8 100 C7.505 100.495 7.505 100.495 7 101 C5.33382885 101.04063832 3.66611905 101.042721 2 101 C2 103.31 2 105.62 2 108 C0.68 107.67 -0.64 107.34 -2 107 C-1.34 107 -0.68 107 0 107 C0 104.36 0 101.72 0 99 C0.99 99 1.98 99 3 99 C2.82586578 97.99806107 2.65173157 96.99612213 2.47232056 95.96382141 C2.00079946 92.00670923 2.11113006 88.54328182 2.44287109 84.57885742 C3.06080201 76.28227515 3.05867957 68.05345025 2.9140625 59.73828125 C2.89220282 58.24855631 2.8707578 56.75882524 2.84970093 55.26908875 C2.80475861 52.18428123 2.75560049 49.09958091 2.703125 46.01489258 C2.63626246 42.07000285 2.57920684 38.12504221 2.52509499 34.1799593 C2.48224127 31.11983031 2.43483707 28.05978513 2.38599777 24.99974632 C2.36320364 23.54416016 2.34168287 22.08855344 2.32149124 20.63292885 C2.29260211 18.6071854 2.25704 16.58154045 2.22119141 14.5559082 C2.20263092 13.40725784 2.18407043 12.25860748 2.16494751 11.07514954 C2.0149216 8.27818642 1.63344188 5.72341041 1 3 C-1.55330579 8.59912742 -3.89680715 14.21621965 -6 20 C-6.33 20 -6.66 20 -7 20 C-6.40373356 13.29200257 -4.87551498 4.87551498 0 0 Z " fill="#676B69" transform="translate(378,4)"/>
<path d="M0 0 C0.97591583 3.38317487 0.85856655 5.5657338 0 9 C0.66 9 1.32 9 2 9 C2.33 7.02 2.66 5.04 3 3 C3.33 3 3.66 3 4 3 C3.98839844 3.80824219 3.97679687 4.61648437 3.96484375 5.44921875 C3.95582031 6.51785156 3.94679688 7.58648437 3.9375 8.6875 C3.92589844 9.74324219 3.91429687 10.79898438 3.90234375 11.88671875 C3.89295491 14.86863446 3.89295491 14.86863446 4.51367188 17.18554688 C5.14889219 20.86166123 5.01448456 24.43462476 4.87890625 28.14453125 C4.85529526 28.91431808 4.83168427 29.68410492 4.80735779 30.47721863 C4.73112309 32.92251905 4.6469275 35.36747011 4.5625 37.8125 C4.50923899 39.47589468 4.4564989 41.13930613 4.40429688 42.80273438 C4.2755628 46.86870849 4.13969106 50.93438818 4 55 C2.68 55 1.36 55 0 55 C-0.33 60.94 -0.66 66.88 -1 73 C-0.34 73 0.32 73 1 73 C1.33 75.31 1.66 77.62 2 80 C3.98 79.505 3.98 79.505 6 79 C6 81.31 6 83.62 6 86 C5.67 84.68 5.34 83.36 5 82 C1.16774573 81.91087781 -2.26562152 82.12132271 -6 83 C-8.13630675 80.68566769 -8.96438371 79.18599621 -9.5625 76.0625 C-9 73 -9 73 -5.95703125 70.890625 C-3.90197639 69.26664084 -3.09838277 68.51465924 -2.60083008 65.91186523 C-2.63424225 63.46971609 -2.83409894 61.11231347 -3.125 58.6875 C-3.19976562 57.85154297 -3.27453125 57.01558594 -3.3515625 56.15429688 C-3.53937689 54.10007702 -3.76589752 52.04946078 -4 50 C-3.01 49.505 -3.01 49.505 -2 49 C-2 42.07 -2 35.14 -2 28 C-3.65 28 -5.3 28 -7 28 C-6.67 27.34 -6.34 26.68 -6 26 C-5.34 26 -4.68 26 -4 26 C-3.87882812 24.96101563 -3.75765625 23.92203125 -3.6328125 22.8515625 C-2.71583919 15.1615328 -1.70901188 7.5632866 0 0 Z " fill="#717675" transform="translate(370,25)"/>
<path d="M0 0 C0.99 0 1.98 0 3 0 C3.33 1.98 3.66 3.96 4 6 C4.66 6 5.32 6 6 6 C7.00496852 9.01490557 7.10335303 11.04181692 7.0625 14.1875 C7.05347656 15.08855469 7.04445312 15.98960938 7.03515625 16.91796875 C7.02355469 17.60503906 7.01195312 18.29210937 7 19 C6.01 19 5.02 19 4 19 C4.33 19.66 4.66 20.32 5 21 C5.04589502 22.9161171 5.03813507 24.83371275 5 26.75 C4.9595185 30.97019593 5.12721276 34.85426063 6 39 C6 39.66 6 40.32 6 41 C6.66 41 7.32 41 8 41 C8 43.64 8 46.28 8 49 C7.34 49 6.68 49 6 49 C5.67 49.99 5.34 50.98 5 52 C-0.4180602 52.36120401 -0.4180602 52.36120401 -2.8125 50.875 C-5.91162218 45.98164918 -5.11177308 39.58865401 -5 34 C-3.02 33.505 -3.02 33.505 -1 33 C-1.01160156 32.15695313 -1.02320313 31.31390625 -1.03515625 30.4453125 C-1.04417969 29.34960938 -1.05320313 28.25390625 -1.0625 27.125 C-1.07410156 26.03445312 -1.08570313 24.94390625 -1.09765625 23.8203125 C-1 21 -1 21 0 19 C-0.99 19 -1.98 19 -3 19 C-3.33693273 12.03672362 -2.3030887 6.56654456 0 0 Z " fill="#6F6A64" transform="translate(231,58)"/>
<path d="M0 0 C3.3 1.65 6.6 3.3 10 5 C13.33638694 6.11271136 13.33638694 6.11271136 16.6875 7.1796875 C26.7486911 10.7486911 26.7486911 10.7486911 30 14 C30.04092937 16.33297433 30.04241723 18.66705225 30 21 C26.37749325 21.85319945 23.19270837 22.06555517 19.48046875 21.87890625 C18.45888672 21.83056641 17.43730469 21.78222656 16.38476562 21.73242188 C15.32966797 21.67634766 14.27457031 21.62027344 13.1875 21.5625 C12.11306641 21.51029297 11.03863281 21.45808594 9.93164062 21.40429688 C7.28743696 21.2750247 4.64364973 21.14007564 2 21 C1.67 21.99 1.34 22.98 1 24 C0.67 24 0.34 24 0 24 C0 16.08 0 8.16 0 0 Z " fill="#7E817F" transform="translate(99,51)"/>
<path d="M0 0 C4.67704804 0.93540961 7.5856241 2.18176203 11.75 4.375 C17.06166118 7.12619318 22.27970347 9.25482479 28 11 C29 12 29 12 29.125 15.5 C29 19 29 19 28 20 C26.3590596 19.98005965 24.71885884 19.89124437 23.08203125 19.7734375 C21.57092773 19.680625 21.57092773 19.680625 20.02929688 19.5859375 C17.90368387 19.44655304 15.77863327 19.2982752 13.65429688 19.140625 C12.13352539 19.05167969 12.13352539 19.05167969 10.58203125 18.9609375 C9.19334839 18.86498291 9.19334839 18.86498291 7.77661133 18.76708984 C4.30124525 18.88577247 4.30124525 18.88577247 -1 22 C-0.67 14.74 -0.34 7.48 0 0 Z " fill="#979B98" transform="translate(391,53)"/>
<path d="M0 0 C1.65 0 3.3 0 5 0 C4.44210432 7.01524148 3.81552077 14.00982196 3 21 C2.34 21 1.68 21 1 21 C1 21.66 1 22.32 1 23 C1.99 23 2.98 23 4 23 C4.04898438 22.08476562 4.09796875 21.16953125 4.1484375 20.2265625 C4.22320312 19.03804687 4.29796875 17.84953125 4.375 16.625 C4.47941406 14.84996094 4.47941406 14.84996094 4.5859375 13.0390625 C5 10 5 10 7 8 C7.95981 12.82041344 8.1365687 17.49606351 8.11352539 22.39208984 C8.11367142 23.21226593 8.11381744 24.03244202 8.1139679 24.87747192 C8.11327462 27.57198792 8.10550972 30.26643367 8.09765625 32.9609375 C8.09578999 34.83566246 8.09436707 36.7103879 8.09336853 38.58511353 C8.08955973 43.50715493 8.07974346 48.42916659 8.06866455 53.35119629 C8.05841519 58.37865802 8.05386337 63.40612457 8.04882812 68.43359375 C8.03811968 78.28907553 8.02106297 88.14453529 8 98 C7.67 98 7.34 98 7 98 C6.67 76.22 6.34 54.44 6 32 C5.34 32.66 4.68 33.32 4 34 C4 33.01 4 32.02 4 31 C3.01 30.67 2.02 30.34 1 30 C1.99 30 2.98 30 4 30 C4 29.01 4 28.02 4 27 C2.68 27 1.36 27 0 27 C0 29.31 0 31.62 0 34 C-0.66 33.34 -1.32 32.68 -2 32 C-2.33 52.79 -2.66 73.58 -3 95 C-3.33 95 -3.66 95 -4 95 C-4.02323098 84.85512052 -4.04096975 74.71024744 -4.05181217 64.56534672 C-4.05701753 59.85402037 -4.06407233 55.14271231 -4.07543945 50.43139648 C-4.08635203 45.87968709 -4.0922945 41.32799521 -4.09487724 36.77627373 C-4.09671646 35.04486249 -4.10030786 33.31345214 -4.10573006 31.58204842 C-4.11305175 29.14590553 -4.11398629 26.70983387 -4.11352539 24.27368164 C-4.11712067 23.56733078 -4.12071594 22.86097992 -4.12442017 22.13322449 C-4.11407 17.03525621 -3.64701643 12.05504083 -3 7 C-2.34 7.33 -1.68 7.66 -1 8 C-0.67 5.36 -0.34 2.72 0 0 Z " fill="#838383" transform="translate(231,112)"/>
<path d="M0 0 C0.66 0.33 1.32 0.66 2 1 C2 1.66 2 2.32 2 3 C2.66 3 3.32 3 4 3 C3.52557748 6.60480781 3.04464879 10.20871812 2.5625 13.8125 C2.42779297 14.83666016 2.29308594 15.86082031 2.15429688 16.91601562 C2.02216797 17.89892578 1.89003906 18.88183594 1.75390625 19.89453125 C1.63345947 20.80050049 1.5130127 21.70646973 1.38891602 22.63989258 C1 25 1 25 0 28 C-6.41481258 28.42765417 -11.88595404 26.85743168 -18 25 C-18.75 22.75 -18.75 22.75 -19 20 C-17.28125 18.01171875 -17.28125 18.01171875 -15 16 C-13.19328063 13.42067037 -11.48660818 10.79171224 -9.78125 8.14453125 C-8 6 -8 6 -5.84375 5.13671875 C-5.2353125 5.09160156 -4.626875 5.04648438 -4 5 C-3.67 5.33 -3.34 5.66 -3 6 C-2.67 5.34 -2.34 4.68 -2 4 C-1.34 4 -0.68 4 0 4 C0 2.68 0 1.36 0 0 Z " fill="#8E8E8E" transform="translate(221,224)"/>
<path d="M0 0 C3.58706303 3.58706303 3.05691921 8.3449806 3.09765625 13.1796875 C3.09106437 15.07814972 3.07922033 16.97659996 3.0625 18.875 C3.05798828 19.84953125 3.05347656 20.8240625 3.04882812 21.828125 C3.03710906 24.21881434 3.02070219 26.6093744 3 29 C2.0409375 29.19529297 2.0409375 29.19529297 1.0625 29.39453125 C-1.13104728 29.78388173 -1.13104728 29.78388173 -2 31.6875 C-2.33 32.450625 -2.66 33.21375 -3 34 C-5 37.25 -5 37.25 -7 40 C-7.66 40 -8.32 40 -9 40 C-9 33.73 -9 27.46 -9 21 C-9.66 20.67 -10.32 20.34 -11 20 C-9.35 17.36 -7.7 14.72 -6 12 C-7.57974609 11.63648438 -7.57974609 11.63648438 -9.19140625 11.265625 C-18.8485643 9.02726308 -28.43808993 6.61665079 -38 4 C-38 3.67 -38 3.34 -38 3 C-31.63259647 3.65612589 -25.58224394 4.95700612 -19.375 6.5 C-11.24268298 8.51471195 -11.24268298 8.51471195 -3 10 C-3.061875 9.278125 -3.12375 8.55625 -3.1875 7.8125 C-2.96476068 4.47141026 -1.8717754 2.72967245 0 0 Z " fill="#3F3F3F" transform="translate(214,200)"/>
<path d="M0 0 C3.12270126 2.51830747 3.94523098 3.7261549 4.75 7.75 C4.8325 8.8225 4.915 9.895 5 11 C6.98 10.67 8.96 10.34 11 10 C9.02 10.99 9.02 10.99 7 12 C9.82522609 16.67248931 12.67760044 19.65996398 17 23 C16.34 23.33 15.68 23.66 15 24 C13.02 22.68 11.04 21.36 9 20 C9.66 20.99 10.32 21.98 11 23 C11.22705078 24.99291992 11.22705078 24.99291992 11.1953125 27.23046875 C11.18564453 28.43413086 11.18564453 28.43413086 11.17578125 29.66210938 C11.15902344 30.49548828 11.14226562 31.32886719 11.125 32.1875 C11.11597656 33.03248047 11.10695313 33.87746094 11.09765625 34.74804688 C11.07410703 36.83215243 11.03823647 38.91611217 11 41 C10.34 41 9.68 41 9 41 C7.7109375 39.5390625 7.7109375 39.5390625 6.375 37.625 C5.92898438 36.99851563 5.48296875 36.37203125 5.0234375 35.7265625 C4 34 4 34 4 32 C3.34 32 2.68 32 2 32 C2 31.34 2 30.68 2 30 C1.01 30 0.02 30 -1 30 C-2.23936531 26.28190407 -2.19084808 22.81081027 -2.1875 18.9375 C-2.1884668 17.79873413 -2.1884668 17.79873413 -2.18945312 16.63696289 C-2.1358424 10.91462713 -1.52308404 5.5347786 0 0 Z " fill="#414141" transform="translate(251,200)"/>
<path d="M0 0 C0.33 0 0.66 0 1 0 C1.02319713 10.96172416 1.04095266 21.92344246 1.05181217 32.8851862 C1.05702487 37.97546825 1.06409321 43.06573348 1.07543945 48.15600586 C1.08632567 53.07080182 1.09228899 57.98558163 1.09487724 62.90038872 C1.09672116 64.77300712 1.10032184 66.64562466 1.10573006 68.51823616 C1.1130166 71.14637267 1.11398773 73.77444287 1.11352539 76.40258789 C1.11712067 77.17223373 1.12071594 77.94187958 1.12442017 78.73484802 C1.11584115 83.25834535 0.74264553 87.53624126 0 92 C-0.33 92 -0.66 92 -1 92 C-1.93079989 87.24830548 -2.16804709 82.61770946 -2.20532227 77.79150391 C-2.21522186 76.99083496 -2.22512146 76.19016602 -2.23532104 75.36523438 C-2.26674609 72.7357065 -2.29161784 70.1061606 -2.31640625 67.4765625 C-2.33699221 65.64667305 -2.3579891 63.81678818 -2.37937927 61.98690796 C-2.43443042 57.18328574 -2.48391412 52.37962182 -2.53222656 47.57592773 C-2.58256579 42.66907056 -2.63818687 37.76227354 -2.69335938 32.85546875 C-2.80073339 23.23703063 -2.90222401 13.61854015 -3 4 C-2.01 3.67 -1.02 3.34 0 3 C0 2.01 0 1.02 0 0 Z " fill="#B4B9B8" transform="translate(87,18)"/>
<path d="M0 0 C0.33 0 0.66 0 1 0 C1 26.73 1 53.46 1 81 C-0.32 81 -1.64 81 -3 81 C-6.13293435 75.85244907 -6.37993835 71.94749378 -6.1875 66.125 C-6.16719727 64.949375 -6.16719727 64.949375 -6.14648438 63.75 C-6.11141789 61.83303218 -6.05762072 59.91642249 -6 58 C-4.68 58.33 -3.36 58.66 -2 59 C-1.96241577 57.4382605 -1.96241577 57.4382605 -1.92407227 55.8449707 C-0.99956987 17.73704832 -0.99956987 17.73704832 0 0 Z " fill="#838988" transform="translate(84,23)"/>
<path d="M0 0 C0.144375 0.598125 0.28875 1.19625 0.4375 1.8125 C0.8872439 3.56150404 1.42892341 5.28677023 2 7 C2.09473338 9.21152694 2.12794239 11.42584976 2.12939453 13.6394043 C2.13114685 14.30974197 2.13289917 14.98007965 2.13470459 15.67073059 C2.13910793 17.88858628 2.13618879 20.10636224 2.1328125 22.32421875 C2.13348637 23.87018346 2.13445709 25.41614807 2.13571167 26.96211243 C2.13718691 30.20611579 2.1350411 33.45009163 2.13037109 36.6940918 C2.12469773 40.83534555 2.12793866 44.97653414 2.13394356 49.11778545 C2.13757423 52.31354758 2.1363987 55.50929453 2.13381577 58.70505714 C2.13315218 60.23075175 2.13395491 61.75644777 2.13629532 63.28214073 C2.15385514 77.95827529 2.15385514 77.95827529 1 85 C0.34 85 -0.32 85 -1 85 C-1.02314874 74.36034449 -1.04092805 63.72069495 -1.05181217 53.0810194 C-1.05703544 48.14083658 -1.06412304 43.20067097 -1.07543945 38.26049805 C-1.08628802 33.49484907 -1.09228104 28.72921666 -1.09487724 23.96355629 C-1.09672793 22.14345349 -1.10034173 20.32335161 -1.10573006 18.50325584 C-1.11296658 15.95812378 -1.11398983 13.41306058 -1.11352539 10.86791992 C-1.11712067 10.11194519 -1.12071594 9.35597046 -1.12442017 8.5770874 C-1.1182124 5.44271375 -0.99910474 2.99731423 0 0 Z " fill="#B2B7B6" transform="translate(377,26)"/>
<path d="M0 0 C0.33 0 0.66 0 1 0 C3.07707615 8.66487913 3.27848396 17.16240499 3.20581055 26.0144043 C3.1876145 28.29812946 3.18530133 30.58144429 3.18554688 32.86523438 C3.16308829 41.95359668 2.78742524 50.94143831 2 60 C0 56.25 0 56.25 0 54 C-4.62 54 -9.24 54 -14 54 C-14.33 54.99 -14.66 55.98 -15 57 C-16.16532027 49.65939989 -16.1134298 42.42007939 -16.0625 35 C-16.05798828 33.74832031 -16.05347656 32.49664062 -16.04882812 31.20703125 C-16.03711415 28.13797059 -16.02071073 25.06901093 -16 22 C-15.67 22 -15.34 22 -15 22 C-14.93941406 23.12019531 -14.87882813 24.24039063 -14.81640625 25.39453125 C-14.73198576 26.86719984 -14.64733851 28.33985544 -14.5625 29.8125 C-14.52318359 30.55048828 -14.48386719 31.28847656 -14.44335938 32.04882812 C-14.25618965 35.23071342 -14.01279207 37.96162378 -13 41 C-12.86600297 45.00383132 -12.95691113 48.9927355 -13 53 C-9.04 53 -5.08 53 -1 53 C-0.67 35.51 -0.34 18.02 0 0 Z " fill="#555555" transform="translate(240,170)"/>
<path d="M0 0 C0.66 0.33 1.32 0.66 2 1 C2.50094632 3.46453221 2.85603543 5.8191183 3.125 8.3125 C3.25128784 9.46637207 3.25128784 9.46637207 3.38012695 10.64355469 C5.04927786 27.42638511 3.88072996 44.45135462 3.35620117 61.27636719 C3.11616478 69.12921751 2.94194897 76.97925595 2.90625 84.8359375 C2.8997644 85.58154938 2.89327881 86.32716125 2.88659668 87.09536743 C2.88335317 90.85929564 3.09142629 94.34146457 4 98 C3.01 97.67 2.02 97.34 1 97 C0.67 69.94 0.34 42.88 0 15 C-0.99 15.33 -1.98 15.66 -3 16 C-2.88544319 14.08268082 -2.75793742 12.1661325 -2.625 10.25 C-2.55539063 9.18265625 -2.48578125 8.1153125 -2.4140625 7.015625 C-2.0271777 4.19793568 -1.44313834 2.4169634 0 0 Z " fill="#7E8482" transform="translate(87,6)"/>
<path d="M0 0 C0.66 0.33 1.32 0.66 2 1 C2.33 1.99 2.66 2.98 3 4 C2.01 4.33 1.02 4.66 0 5 C-0.33 5.99 -0.66 6.98 -1 8 C0.32 8 1.64 8 3 8 C3.33 7.01 3.66 6.02 4 5 C4.33 5.99 4.66 6.98 5 8 C3.52652887 10.38561992 2.52264461 11.73867769 0 13 C-0.65213292 15.02463255 -0.65213292 15.02463255 -1 17 C-1 15.68 -1 14.36 -1 13 C-1.66 13 -2.32 13 -3 13 C-3 15.97 -3 18.94 -3 22 C-5.31 21.67 -7.62 21.34 -10 21 C-10.39852399 9.59778598 -10.39852399 9.59778598 -8 6 C-5.44560303 3.82615605 -2.77667475 1.87909849 0 0 Z " fill="#9E9D9D" transform="translate(175,179)"/>
<path d="M0 0 C4.26499082 4.26499082 3.29815132 11.29744066 3.51757812 17.02929688 C3.73414503 21.3402041 4.4441557 24.9749615 6 29 C8.56148445 29.07115235 10.71212955 29.0822487 13.1875 28.375 C13.785625 28.25125 14.38375 28.1275 15 28 C15.66 28.66 16.32 29.32 17 30 C16.34 30.33 15.68 30.66 15 31 C14.27306096 32.97888961 13.60183749 34.97954558 13 37 C11.68 36.67 10.36 36.34 9 36 C9 34.35 9 32.7 9 31 C5.16774573 30.91087781 1.73437848 31.12132271 -2 32 C-3.88658269 29.87759447 -4.91956289 28.34856081 -5.5625 25.5625 C-5 23 -5 23 -2 20.8125 C0.19309317 19.17155029 0.9094636 18.4714418 1.43359375 15.7421875 C1.43759349 13.12636036 1.27934137 10.60062877 1 8 C0.91878906 7.19949219 0.83757812 6.39898437 0.75390625 5.57421875 C0.53886161 3.71160137 0.27477728 1.85474665 0 0 Z " fill="#6F726D" transform="translate(75,75)"/>
<path d="M0 0 C0.33 0 0.66 0 1 0 C1.33 2.64 1.66 5.28 2 8 C2.33 8 2.66 8 3 8 C2.67 20.54 2.34 33.08 2 46 C1.67 46 1.34 46 1 46 C0.67 43.36 0.34 40.72 0 38 C-3.0927781 40.06185207 -3.68076198 40.90369802 -5.1875 44.125 C-5.53167969 44.84945312 -5.87585938 45.57390625 -6.23046875 46.3203125 C-6.48441406 46.87460938 -6.73835937 47.42890625 -7 48 C-7.66 48 -8.32 48 -9 48 C-9 47.34 -9 46.68 -9 46 C-10.98 46.66 -12.96 47.32 -15 48 C-12.92318478 45.8462657 -10.98755761 43.99160139 -8.5 42.3125 C-3.68581725 37.85938096 -1.84374607 32.08377209 -1.42578125 25.625 C-1.36949283 23.75046473 -1.33192624 21.87527957 -1.3125 20 C-1.26976712 18.12493312 -1.22422562 16.24992801 -1.17578125 14.375 C-1.15467285 13.47910156 -1.13356445 12.58320312 -1.11181641 11.66015625 C-0.94709422 7.74135073 -0.49030638 3.89056123 0 0 Z " fill="#3A3A3A" transform="translate(211,111)"/>
<path d="M0 0 C0.33 0 0.66 0 1 0 C0.67 9.24 0.34 18.48 0 28 C-0.66 28 -1.32 28 -2 28 C-2.33 29.32 -2.66 30.64 -3 32 C-3.99 31.67 -4.98 31.34 -6 31 C-5.938125 32.093125 -5.87625 33.18625 -5.8125 34.3125 C-6 38 -6 38 -7.51171875 39.73046875 C-8.00285156 40.14941406 -8.49398437 40.56835938 -9 41 C-5.26896285 11.03973168 -5.26896285 11.03973168 0 0 Z " fill="#565959" transform="translate(84,10)"/>
<path d="M0 0 C0.33 0 0.66 0 1 0 C1.1559673 8.09485721 1.30407639 16.18980857 1.4429636 24.28497505 C1.50772918 28.04650713 1.57490294 31.80795954 1.64819336 35.56933594 C1.98120849 52.75255953 2.10970231 69.83490709 1 87 C0.34 87 -0.32 87 -1 87 C-1.02356013 79.34798008 -1.04113069 71.69596409 -1.05181217 64.04391575 C-1.05694836 60.48767851 -1.06386857 56.93146673 -1.07543945 53.37524414 C-1.13190185 35.56107239 -0.90879558 17.79641953 0 0 Z " fill="#7E8382" transform="translate(380,16)"/>
<path d="M0 0 C0.33 0 0.66 0 1 0 C2.10087193 7.01805857 2.09733092 13.90565767 2 21 C2.66 21 3.32 21 4 21 C4.33 23.31 4.66 25.62 5 28 C6.32 27.67 7.64 27.34 9 27 C9 29.31 9 31.62 9 34 C8.67 32.68 8.34 31.36 8 30 C4.16774573 29.91087781 0.73437848 30.12132271 -3 31 C-5.13630675 28.68566769 -5.96438371 27.18599621 -6.5625 24.0625 C-6 21 -6 21 -2.98828125 18.828125 C-1.05432084 17.29983438 -0.13169505 16.50779888 0.49291992 14.09936523 C0.58936184 11.93486438 0.52564404 9.84866259 0.375 7.6875 C0.34792969 6.94693359 0.32085937 6.20636719 0.29296875 5.44335938 C0.22268284 3.62764002 0.11507089 1.81343199 0 0 Z " fill="#74756F" transform="translate(367,77)"/>
<path d="M0 0 C8.04809402 9.74002287 8.27693861 24.69699554 9.67456055 36.73266602 C9.98217754 38.87583104 10.43402972 40.91180611 11 43 C10.01 42.67 9.02 42.34 8 42 C7.67 42.99 7.34 43.98 7 45 C6.67 44.34 6.34 43.68 6 43 C5.01 42.67 4.02 42.34 3 42 C1.64148681 35.70143885 1.64148681 35.70143885 3.4375 32.1875 C3.953125 31.465625 4.46875 30.74375 5 30 C5 29.34 5 28.68 5 28 C4.34 28 3.68 28 3 28 C2.67 27.01 2.34 26.02 2 25 C2.66 24.34 3.32 23.68 4 23 C4 23.99 4 24.98 4 26 C4.66 26 5.32 26 6 26 C5.57293819 23.47700364 5.13370614 20.95712176 4.6875 18.4375 C4.51057617 17.38079102 4.51057617 17.38079102 4.33007812 16.30273438 C3.68469285 12.71174453 2.88838091 9.49826474 1.39453125 6.16015625 C0 3 0 3 0 0 Z " fill="#414141" transform="translate(381,8)"/>
<path d="M0 0 C0.66 0.33 1.32 0.66 2 1 C1.01 1.598125 0.02 2.19625 -1 2.8125 C-1.99 3.534375 -2.98 4.25625 -4 5 C-4 5.99 -4 6.98 -4 8 C-5.98 8.99 -5.98 8.99 -8 10 C-7.67 11.32 -7.34 12.64 -7 14 C-7.54269531 14.25394531 -8.08539063 14.50789062 -8.64453125 14.76953125 C-9.35996094 15.11371094 -10.07539063 15.45789063 -10.8125 15.8125 C-11.52019531 16.14894531 -12.22789062 16.48539063 -12.95703125 16.83203125 C-15.17655427 18.10093638 -16.49528931 18.92206619 -18 21 C-18.79950463 24.41563186 -18.79950463 24.41563186 -19.1875 28.1875 C-19.34605469 29.45980469 -19.50460938 30.73210937 -19.66796875 32.04296875 C-19.83232422 33.50669922 -19.83232422 33.50669922 -20 35 C-20.33 35 -20.66 35 -21 35 C-22.45731842 17.4000775 -22.45731842 17.4000775 -19.41796875 12.39453125 C-17.04256321 10.59264704 -14.67187786 9.32289629 -12 8 C-9.79920337 6.54069041 -7.611783 5.06102719 -5.4375 3.5625 C-3.62728962 2.37151265 -1.81560166 1.18275235 0 0 Z " fill="#979797" transform="translate(185,165)"/>
<path d="M0 0 C0.33 0 0.66 0 1 0 C0.93039063 1.16917969 0.86078125 2.33835937 0.7890625 3.54296875 C0.73276725 5.09108821 0.67816898 6.63927002 0.625 8.1875 C0.57472656 8.95642578 0.52445312 9.72535156 0.47265625 10.51757812 C0.27752958 14.88753101 0.27752958 14.88753101 2.36230469 18.53686523 C3.88903943 19.71647202 5.44338361 20.86011556 7 22 C7 25.6875 7 25.6875 6 29 C5.34 29.66 4.68 30.32 4 31 C1.3984375 30.9765625 1.3984375 30.9765625 -1.625 30.625 C-2.62789063 30.51414062 -3.63078125 30.40328125 -4.6640625 30.2890625 C-5.82035156 30.14597656 -5.82035156 30.14597656 -7 30 C-6.34 29.34 -5.68 28.68 -5 28 C-4.31246699 26.34183216 -3.64438717 24.67540664 -3 23 C-2.67 22.67 -2.34 22.34 -2 22 C-1.85572127 20.62154321 -1.7731173 19.2364826 -1.71875 17.8515625 C-1.68136719 17.01109375 -1.64398438 16.170625 -1.60546875 15.3046875 C-1.57066406 14.42039062 -1.53585938 13.53609375 -1.5 12.625 C-1.43102532 10.88785983 -1.35826417 9.15086482 -1.28125 7.4140625 C-1.25095703 6.6401416 -1.22066406 5.8662207 -1.18945312 5.06884766 C-1 3 -1 3 0 0 Z " fill="#424545" transform="translate(99,76)"/>
<path d="M0 0 C0.33 0 0.66 0 1 0 C1.10546143 0.69859131 1.21092285 1.39718262 1.31958008 2.11694336 C3.38674167 15.77501535 5.50219187 29.41343758 8 43 C9.98 42.505 9.98 42.505 12 42 C12 44 12 44 10.6875 45.625 C9 47 9 47 6 47 C5.01 44.03 4.02 41.06 3 38 C2.01 40.475 2.01 40.475 1 43 C-0.25342606 39.65753051 0.24883618 36.89784782 0.73828125 33.43359375 C1.92483917 22.40037609 0.69408662 11.04341393 0 0 Z " fill="#2B2B2B" transform="translate(239,65)"/>
<path d="M0 0 C0.66 0.33 1.32 0.66 2 1 C2.4140625 3.28515625 2.4140625 3.28515625 2.625 6.0625 C2.69976562 6.98160156 2.77453125 7.90070313 2.8515625 8.84765625 C2.90054688 9.55792969 2.94953125 10.26820312 3 11 C3.66 11 4.32 11 5 11 C5 13.64 5 16.28 5 19 C4.34 19 3.68 19 3 19 C2.67 19.99 2.34 20.98 2 22 C0.02 22 -1.96 22 -4 22 C-4 19.69 -4 17.38 -4 15 C-4.66 15 -5.32 15 -6 15 C-5.67 14.01 -5.34 13.02 -5 12 C-2.525 13.98 -2.525 13.98 0 16 C0 15.34 0 14.68 0 14 C0.66 14 1.32 14 2 14 C2 12.68 2 11.36 2 10 C-0.97 9.505 -0.97 9.505 -4 9 C-3.67 6.69 -3.34 4.38 -3 2 C-2.01 2.33 -1.02 2.66 0 3 C0 2.01 0 1.02 0 0 Z " fill="#B39C78" transform="translate(234,88)"/>
<path d="M0 0 C0.99 0.33 1.98 0.66 3 1 C2.01 1.495 2.01 1.495 1 2 C0.67 2.99 0.34 3.98 0 5 C1.32 5.33 2.64 5.66 4 6 C2.35 6.33 0.7 6.66 -1 7 C3.3670011 9.91133407 7.77736894 9.05795029 12.83984375 8.83398438 C18.64079154 8.68820666 18.64079154 8.68820666 20.74414062 10.51391602 C21.15857422 11.00432373 21.57300781 11.49473145 22 12 C21.67 12.66 21.34 13.32 21 14 C20.34 13.34 19.68 12.68 19 12 C16.62213064 11.75508512 16.62213064 11.75508512 13.87890625 11.875 C12.86119141 11.89046875 11.84347656 11.9059375 10.79492188 11.921875 C8.64387793 11.97386398 6.49283625 12.02594697 4.34179688 12.078125 C2.81329102 12.10132812 2.81329102 12.10132812 1.25390625 12.125 C0.31877197 12.14820312 -0.6163623 12.17140625 -1.57983398 12.1953125 C-4 12 -4 12 -7 10 C-7.5 7.625 -7.5 7.625 -7 5 C-4.77639103 2.89342308 -2.73477132 1.36738566 0 0 Z " fill="#57594B" transform="translate(344,61)"/>
<path d="M0 0 C0.33 0 0.66 0 1 0 C1.06058594 1.12019531 1.12117187 2.24039063 1.18359375 3.39453125 C1.26801424 4.86719984 1.35266149 6.33985544 1.4375 7.8125 C1.47681641 8.55048828 1.51613281 9.28847656 1.55664062 10.04882812 C1.74381035 13.23071342 1.98720793 15.96162378 3 19 C3.13399703 23.00383132 3.04308887 26.9927355 3 31 C7.29 31 11.58 31 16 31 C16.33 26.05 16.66 21.1 17 16 C17.33 16 17.66 16 18 16 C18 23.26 18 30.52 18 38 C16 34 16 34 16 32 C11.38 32 6.76 32 2 32 C1.67 32.99 1.34 33.98 1 35 C-0.16532027 27.65939989 -0.1134298 20.42007939 -0.0625 13 C-0.05798828 11.74832031 -0.05347656 10.49664062 -0.04882812 9.20703125 C-0.03711415 6.13797059 -0.02071073 3.06901093 0 0 Z " fill="#4F4F4F" transform="translate(224,192)"/>
<path d="M0 0 C0.33 0 0.66 0 1 0 C2.35863492 10.01993253 2.56966097 19.99341133 1 30 C0.67 30 0.34 30 0 30 C0 28.35 0 26.7 0 25 C-0.66 25 -1.32 25 -2 25 C-3.73848978 18.11787932 -5.3277216 10.65544319 -2 4 C-1.34 4 -0.68 4 0 4 C0 2.68 0 1.36 0 0 Z " fill="#47433F" transform="translate(239,74)"/>
<path d="M0 0 C0.33 0 0.66 0 1 0 C1.07347656 1.13888672 1.07347656 1.13888672 1.1484375 2.30078125 C1.22320312 3.29464844 1.29796875 4.28851563 1.375 5.3125 C1.44460938 6.29863281 1.51421875 7.28476563 1.5859375 8.30078125 C1.83865472 11.21528433 1.83865472 11.21528433 4 14 C4 14.99 4 15.98 4 17 C4.66 17 5.32 17 6 17 C6 19.31 6 21.62 6 24 C5.67 23.01 5.34 22.02 5 21 C4.34 21 3.68 21 3 21 C2.87625 21.515625 2.7525 22.03125 2.625 22.5625 C1.81358372 25.72702351 0.9054087 28.86124985 0 32 C-0.33 32 -0.66 32 -1 32 C-1.02921779 27.97918212 -1.04687188 23.95839186 -1.0625 19.9375 C-1.07087891 18.80376953 -1.07925781 17.67003906 -1.08789062 16.50195312 C-1.10424847 10.89121133 -1.01812097 5.52350669 0 0 Z " fill="#656A69" transform="translate(382,64)"/>
<path d="M0 0 C0.33 0 0.66 0 1 0 C1.06356689 0.72590332 1.12713379 1.45180664 1.19262695 2.19970703 C1.51321149 5.5156789 1.91190202 8.81778011 2.3125 12.125 C2.41111328 13.26710938 2.50972656 14.40921875 2.61132812 15.5859375 C3.4326211 22.2185672 3.4326211 22.2185672 7.62255859 27.14355469 C10.37153308 28.64299532 13.06716637 29.90913084 16 31 C13 32 13 32 10.73828125 31.00390625 C7.36914062 29.00195312 7.36914062 29.00195312 4 27 C4 31.95 4 36.9 4 42 C3.67 42 3.34 42 3 42 C3 38.04 3 34.08 3 30 C2.34 30 1.68 30 1 30 C1.33 28.02 1.66 26.04 2 24 C1.34 23.67 0.68 23.34 0 23 C-1.1506106 19.54816821 -0.90234797 17.35826242 -0.5625 13.75 C-0.16027683 9.13474697 0.10765586 4.62920213 0 0 Z " fill="#4F5251" transform="translate(96,25)"/>
<path d="M0 0 C2.04315802 3.06473703 2.74260315 5.26954295 3.625 8.8125 C3.88539063 9.82957031 4.14578125 10.84664062 4.4140625 11.89453125 C5.001462 15.00774858 5.10390886 17.84022615 5 21 C4.01 21 3.02 21 2 21 C2 21.66 2 22.32 2 23 C2.66 23 3.32 23 4 23 C4.33 24.32 4.66 25.64 5 27 C3.68 27.99 2.36 28.98 1 30 C-0.40912096 27.18175808 -0.11183553 24.82748718 -0.09765625 21.6796875 C-0.09443359 20.42285156 -0.09121094 19.16601562 -0.08789062 17.87109375 C-0.07951172 16.55238281 -0.07113281 15.23367187 -0.0625 13.875 C-0.05748489 12.53515789 -0.05292201 11.195314 -0.04882812 9.85546875 C-0.03701086 6.57026794 -0.02053617 3.28515603 0 0 Z " fill="#656766" transform="translate(382,13)"/>
<path d="M0 0 C1.15563797 3.56249298 0.90812696 6.66327592 0.6875 10.375 C0.50730653 14.96340868 0.50730653 14.96340868 2.3671875 18.97265625 C2.92664063 19.45605469 3.48609375 19.93945312 4.0625 20.4375 C5.031875 21.283125 6.00125 22.12875 7 23 C7 27.0108799 6.22912939 28.65630592 4 32 C3.29875 31.855625 2.5975 31.71125 1.875 31.5625 C-1.07556141 30.98521625 -4.03270151 30.48304859 -7 30 C-5.68 29.01 -4.36 28.02 -3 27 C-2.13375 27.5259375 -2.13375 27.5259375 -1.25 28.0625 C1.35801776 29.14917407 2.39417629 28.93065133 5 28 C5 26.35 5 24.7 5 23 C4.34 23 3.68 23 3 23 C3 24.32 3 25.64 3 27 C2.34 26.67 1.68 26.34 1 26 C1.33 24.68 1.66 23.36 2 22 C1.01 22 0.02 22 -1 22 C-3.16666667 6.33333333 -3.16666667 6.33333333 0 0 Z " fill="#3C3D3A" transform="translate(390,76)"/>
<path d="M0 0 C0.99 0 1.98 0 3 0 C3.33 1.98 3.66 3.96 4 6 C4.66 6 5.32 6 6 6 C6 8.64 6 11.28 6 14 C3.36 14.33 0.72 14.66 -2 15 C-2.22577402 9.5814234 -1.46670113 5.22512279 0 0 Z " fill="#818383" transform="translate(231,58)"/>
<path d="M0 0 C0.33 0 0.66 0 1 0 C1.01981934 0.57854736 1.03963867 1.15709473 1.06005859 1.75317383 C1.51312684 16.99169283 1.51312684 16.99169283 4 32 C2.68 32 1.36 32 0 32 C-0.66 32.99 -1.32 33.98 -2 35 C-2 25.43 -2 15.86 -2 6 C-1.67 6 -1.34 6 -1 6 C-0.67 4.02 -0.34 2.04 0 0 Z " fill="#404040" transform="translate(255,117)"/>
<path d="M0 0 C0.33 0 0.66 0 1 0 C1.12375 1.2375 1.2475 2.475 1.375 3.75 C1.67039154 6.19875307 1.8991717 7.81020556 3.0625 10 C4.58762415 13.25359819 4.1186155 16.44153492 4 20 C2.68 20 1.36 20 0 20 C-3.39366878 14.62669111 -3.32712342 10.13053511 -3 4 C-2.34 3.67 -1.68 3.34 -1 3 C-0.67 2.01 -0.34 1.02 0 0 Z " fill="#777D7B" transform="translate(81,84)"/>
<path d="M0 0 C0.66 0 1.32 0 2 0 C1.67 1.98 1.34 3.96 1 6 C3.64 6.33 6.28 6.66 9 7 C9 8.32 9 9.64 9 11 C8.34 11 7.68 11 7 11 C7 11.66 7 12.32 7 13 C3.125 11.125 3.125 11.125 2 10 C1.67 10.66 1.34 11.32 1 12 C1.66 12 2.32 12 3 12 C3 13.98 3 15.96 3 18 C2.34 18 1.68 18 1 18 C-0.6678216 12.26686324 -1.56334799 6.98721 -1 1 C-0.67 0.67 -0.34 0.34 0 0 Z " fill="#968364" transform="translate(227,91)"/>
<path d="M0 0 C2.475 0.495 2.475 0.495 5 1 C5.19627391 2.58226965 5.38165538 4.16589271 5.5625 5.75 C5.66691406 6.63171875 5.77132813 7.5134375 5.87890625 8.421875 C5.99684108 10.93274551 5.95716642 12.67769458 5 15 C4.01 15.33 3.02 15.66 2 16 C1.34 15.67 0.68 15.34 0 15 C0 10.05 0 5.1 0 0 Z " fill="#777D7D" transform="translate(369,79)"/>
<path d="M0 0 C0.66 0.33 1.32 0.66 2 1 C3.66166254 7.85560172 2.88119449 14.95186325 2.5625 21.9375 C2.51029297 23.19369141 2.45808594 24.44988281 2.40429688 25.74414062 C2.27524235 28.82971701 2.1403033 31.91491805 2 35 C1.67 35 1.34 35 1 35 C0.67 28.4 0.34 21.8 0 15 C-0.99 15.33 -1.98 15.66 -3 16 C-2.88544319 14.08268082 -2.75793742 12.1661325 -2.625 10.25 C-2.55539063 9.18265625 -2.48578125 8.1153125 -2.4140625 7.015625 C-2.0271777 4.19793568 -1.44313834 2.4169634 0 0 Z " fill="#898F8E" transform="translate(87,6)"/>
<path d="M0 0 C0.33 0 0.66 0 1 0 C1.1964031 3.29119935 1.38060745 6.58296934 1.5625 9.875 C1.61857422 10.81214844 1.67464844 11.74929687 1.73242188 12.71484375 C1.78076172 13.61074219 1.82910156 14.50664062 1.87890625 15.4296875 C1.9260376 16.25710449 1.97316895 17.08452148 2.02172852 17.93701172 C2 20 2 20 1 22 C-0.68652344 22.68603516 -0.68652344 22.68603516 -2.859375 23.2890625 C-3.64570313 23.50820312 -4.43203125 23.72734375 -5.2421875 23.953125 C-6.06976563 24.17484375 -6.89734375 24.3965625 -7.75 24.625 C-8.96816406 24.96917969 -8.96816406 24.96917969 -10.2109375 25.3203125 C-14.21680972 26.41638177 -17.80582618 27.32394025 -22 27 C-17.7938048 24.70395766 -13.6739088 23.96227534 -9 23 C-9 19.7 -9 16.4 -9 13 C-8.34 13 -7.68 13 -7 13 C-7 15.97 -7 18.94 -7 22 C-3.535 21.505 -3.535 21.505 0 21 C0 14.07 0 7.14 0 0 Z " fill="#4E4F4E" transform="translate(301,179)"/>
<path d="M0 0 C0.33 0 0.66 0 1 0 C1 14.19 1 28.38 1 43 C0.67 43 0.34 43 0 43 C-0.33 40.36 -0.66 37.72 -1 35 C-1.33 35 -1.66 35 -2 35 C-2.02710123 32.4374282 -2.04688771 29.87514635 -2.0625 27.3125 C-2.07087891 26.59126953 -2.07925781 25.87003906 -2.08789062 25.12695312 C-2.10555289 21.25891651 -1.82122522 17.76797453 -1 14 C-0.78301513 11.56494763 -0.59709255 9.12698616 -0.4375 6.6875 C-0.35371094 5.43324219 -0.26992187 4.17898437 -0.18359375 2.88671875 C-0.12300781 1.93410156 -0.06242188 0.98148438 0 0 Z " fill="#5E5E5E" transform="translate(225,165)"/>
<path d="M0 0 C0.99 0.66 1.98 1.32 3 2 C2.34 2 1.68 2 1 2 C0.67 3.65 0.34 5.3 0 7 C-0.99 7 -1.98 7 -3 7 C-3 7.99 -3 8.98 -3 10 C-2.34 10.33 -1.68 10.66 -1 11 C-4.3 11 -7.6 11 -11 11 C-11 9.35 -11 7.7 -11 6 C-10.01 6.495 -10.01 6.495 -9 7 C-9.33 7.99 -9.66 8.98 -10 10 C-9.01 10 -8.02 10 -7 10 C-7.33 8.02 -7.66 6.04 -8 4 C-5.32521756 2.3372974 -3.0004856 1.00016187 0 0 Z " fill="#9FA19D" transform="translate(59,60)"/>
<path d="M0 0 C1.65 0 3.3 0 5 0 C4.44210432 7.01524148 3.81552077 14.00982196 3 21 C2.34 21 1.68 21 1 21 C0.14626761 13.97195301 -0.12109311 7.07721931 0 0 Z " fill="#A1A1A1" transform="translate(231,112)"/>
<path d="M0 0 C-0.185625 0.78375 -0.37125 1.5675 -0.5625 2.375 C-1.25962266 4.97089775 -1.25962266 4.97089775 0 7 C-1.32 7 -2.64 7 -4 7 C-3.67 8.65 -3.34 10.3 -3 12 C-5.97 12 -8.94 12 -12 12 C-12 11.34 -12 10.68 -12 10 C-10.68 9.34 -9.36 8.68 -8 8 C-8 7.01 -8 6.02 -8 5 C-7.34 4.34 -6.68 3.68 -6 3 C-6 2.01 -6 1.02 -6 0 C-3 -1 -3 -1 0 0 Z " fill="#989E9C" transform="translate(360,58)"/>
<path d="M0 0 C0.33 0 0.66 0 1 0 C1 14.19 1 28.38 1 43 C-0.98 42.67 -2.96 42.34 -5 42 C-4.75 39.625 -4.75 39.625 -4 37 C-1.953125 35.8359375 -1.953125 35.8359375 0 35 C-0.03552979 33.97527588 -0.07105957 32.95055176 -0.10766602 31.89477539 C-0.2376754 28.10619988 -0.36096137 24.31743066 -0.48217773 20.52856445 C-0.53566959 18.88625066 -0.59100431 17.24399584 -0.64819336 15.60180664 C-0.72990479 13.24638594 -0.80506639 10.89083518 -0.87890625 8.53515625 C-0.90594131 7.79660904 -0.93297638 7.05806183 -0.96083069 6.2971344 C-1.0129438 4.53214384 -1.0118612 2.7657199 -1 1 C-0.67 0.67 -0.34 0.34 0 0 Z " fill="#8C8C8C" transform="translate(221,166)"/>
<path d="M0 0 C5.875 1.875 5.875 1.875 7 3 C7.125 6.5 7.125 6.5 7 10 C6.67 10.33 6.34 10.66 6 11 C4.3360338 10.99229384 2.6722876 10.91514895 1.01171875 10.80859375 C-0.51291992 10.72254883 -0.51291992 10.72254883 -2.06835938 10.63476562 C-4.21968578 10.50395047 -6.37074049 10.36858233 -8.52148438 10.22851562 C-10.05192383 10.1444043 -10.05192383 10.1444043 -11.61328125 10.05859375 C-12.54954346 9.99986084 -13.48580566 9.94112793 -14.45043945 9.88061523 C-17.16476355 10.00771516 -18.69455885 10.6088847 -21 12 C-20.34 10.68 -19.68 9.36 -19 8 C-11.6094524 7.85284308 -4.35575165 8.29223008 3 9 C3.144375 8.38125 3.28875 7.7625 3.4375 7.125 C4 5 4 5 5 3 C3.35 2.34 1.7 1.68 0 1 C0 0.67 0 0.34 0 0 Z " fill="#2E2F2C" transform="translate(413,62)"/>
<path d="M0 0 C2 3 2 3 2.5 6.625 C2.665 7.73875 2.83 8.8525 3 10 C3.66 10.33 4.32 10.66 5 11 C4.21625 11.0825 3.4325 11.165 2.625 11.25 C-0.14749104 11.72806339 -0.14749104 11.72806339 -1.3125 14.0625 C-1.539375 14.701875 -1.76625 15.34125 -2 16 C-2.33 14.68 -2.66 13.36 -3 12 C-3.66 12 -4.32 12 -5 12 C-4.74438677 9.6568787 -4.40729228 7.32156597 -4 5 C-3.34 4.67 -2.68 4.34 -2 4 C-0.86649466 1.98330173 -0.86649466 1.98330173 0 0 Z " fill="#545453" transform="translate(242,102)"/>
<path d="M0 0 C0.33 0 0.66 0 1 0 C1 1.65 1 3.3 1 5 C1.66 5 2.32 5 3 5 C3.33 3.68 3.66 2.36 4 1 C5.76462683 4.08809695 6 5.23312136 6 9 C5.34 9 4.68 9 4 9 C3.67 10.32 3.34 11.64 3 13 C2.01 12.67 1.02 12.34 0 12 C0.061875 13.093125 0.12375 14.18625 0.1875 15.3125 C0 19 0 19 -3 22 C-2.01 14.74 -1.02 7.48 0 0 Z " fill="#515253" transform="translate(78,29)"/>
<path d="M0 0 C3.15920024 0.98044145 3.99003159 1.98301678 5.6875 4.875 C8.03338754 10.96405236 8.97746823 18.72303644 7 25 C6.34 25 5.68 25 5 25 C4.67 25.66 4.34 26.32 4 27 C3.67 26.01 3.34 25.02 3 24 C3.99 24 4.98 24 6 24 C5.67 19.71 5.34 15.42 5 11 C4.34 11 3.68 11 3 11 C2.67 9.02 2.34 7.04 2 5 C1.34 5 0.68 5 0 5 C0 3.35 0 1.7 0 0 Z " fill="#3E3D3D" transform="translate(232,53)"/>
<path d="M0 0 C3.73669693 0.41518855 6.73738338 1.11772118 10 3 C10 4.98 10 6.96 10 9 C7.37472811 9.05382106 4.75055287 9.09358313 2.125 9.125 C1.37863281 9.14175781 0.63226563 9.15851563 -0.13671875 9.17578125 C-2.09194461 9.1933959 -4.04742021 9.10320189 -6 9 C-6.66 8.34 -7.32 7.68 -8 7 C-2.55306686 6.90311779 2.63904667 6.87137825 8 8 C7.67 7.01 7.34 6.02 7 5 C4.69 4.67 2.38 4.34 0 4 C-0.33 3.01 -0.66 2.02 -1 1 C-0.67 0.67 -0.34 0.34 0 0 Z " fill="#A2A08F" transform="translate(118,62)"/>
<path d="M0 0 C0.33 0 0.66 0 1 0 C1 11.88 1 23.76 1 36 C1.99 36.33 2.98 36.66 4 37 C3.01 37 2.02 37 1 37 C1 43.93 1 50.86 1 58 C-1.16815576 53.66368848 -1.24901478 50.63175643 -1.15625 45.9453125 C-1.14815308 45.15496613 -1.14005615 44.36461975 -1.13171387 43.55032349 C-1.10109839 41.03313035 -1.05335047 38.5168083 -1 36 C-0.98356445 35.19477905 -0.96712891 34.38955811 -0.95019531 33.55993652 C-0.83046583 27.99731591 -0.66955844 22.43628927 -0.5 16.875 C-0.45158345 15.22266325 -0.40340551 13.57031949 -0.35546875 11.91796875 C-0.23971091 7.94522685 -0.12079044 3.97259194 0 0 Z " fill="#6D7372" transform="translate(90,44)"/>
<path d="M0 0 C1.12148437 0.12568359 1.12148437 0.12568359 2.265625 0.25390625 C3.74289063 0.40666016 3.74289063 0.40666016 5.25 0.5625 C6.71179688 0.71912109 6.71179688 0.71912109 8.203125 0.87890625 C10.93439013 1.13723866 10.93439013 1.13723866 13.234375 0.40234375 C13.81703125 0.26957031 14.3996875 0.13679688 15 0 C15.66 0.66 16.32 1.32 17 2 C16.01 2.495 16.01 2.495 15 3 C14.27306096 4.97888961 13.60183749 6.97954558 13 9 C11.68 8.67 10.36 8.34 9 8 C9 6.35 9 4.7 9 3 C5.16774573 2.91087781 1.73437848 3.12132271 -2 4 C-2.33 3.34 -2.66 2.68 -3 2 C-1.68 2.33 -0.36 2.66 1 3 C0.67 2.01 0.34 1.02 0 0 Z " fill="#4C4D4B" transform="translate(75,103)"/>
<path d="M0 0 C0.66 0 1.32 0 2 0 C2 6.6 2 13.2 2 20 C1.34 18.68 0.68 17.36 0 16 C-0.33 18.31 -0.66 20.62 -1 23 C-1.33 23 -1.66 23 -2 23 C-2.02696009 20.2291017 -2.04681952 17.4584655 -2.0625 14.6875 C-2.07087891 13.90181641 -2.07925781 13.11613281 -2.08789062 12.30664062 C-2.09111328 11.54931641 -2.09433594 10.79199219 -2.09765625 10.01171875 C-2.10289307 9.31522217 -2.10812988 8.61872559 -2.11352539 7.90112305 C-2 6 -2 6 -1 3 C-0.34 3 0.32 3 1 3 C0.67 2.01 0.34 1.02 0 0 Z " fill="#929695" transform="translate(377,13)"/>
<path d="M0 0 C-1.98 0.99 -1.98 0.99 -4 2 C-4 3.98 -4 5.96 -4 8 C-4.99 8 -5.98 8 -7 8 C-7.33 6.68 -7.66 5.36 -8 4 C-8 5.65 -8 7.3 -8 9 C-7.44054688 8.9278125 -6.88109375 8.855625 -6.3046875 8.78125 C1.14082655 7.91938985 8.51172488 7.9028898 16 8 C16 8.33 16 8.66 16 9 C7.64399592 10.10102642 -0.58807963 10.10094304 -9 10 C-9.17578125 6.65625 -9.17578125 6.65625 -9 3 C-4.09090909 -1.36363636 -4.09090909 -1.36363636 0 0 Z " fill="#3E3E39" transform="translate(56,62)"/>
<path d="M0 0 C0.66 0.33 1.32 0.66 2 1 C1.2575 2.1446875 1.2575 2.1446875 0.5 3.3125 C-1.24368308 5.92363751 -1.24368308 5.92363751 -1 9 C-1.66 9.66 -2.32 10.32 -3 11 C-3.45847689 13.36030696 -3.82143131 15.7398174 -4.125 18.125 C-4.29257813 19.40632813 -4.46015625 20.68765625 -4.6328125 22.0078125 C-4.75398437 22.99523437 -4.87515625 23.98265625 -5 25 C-5.33 25 -5.66 25 -6 25 C-6.17499733 21.7715237 -6.28106618 18.54427074 -6.375 15.3125 C-6.42527344 14.40048828 -6.47554687 13.48847656 -6.52734375 12.54882812 C-6.67307052 5.86968432 -6.67307052 5.86968432 -4.63769531 3.23974609 C-2.9765625 1.85546875 -2.9765625 1.85546875 0 0 Z " fill="#5D5C5C" transform="translate(170,175)"/>
<path d="M0 0 C3 1 3 1 4.1875 3.0625 C4.455625 3.701875 4.72375 4.34125 5 5 C5.66 5 6.32 5 7 5 C7.33 10.28 7.66 15.56 8 21 C7.67 21 7.34 21 7 21 C5.86235649 16.73383684 5 13.43513689 5 9 C4.38125 8.690625 3.7625 8.38125 3.125 8.0625 C1.75 7.375 0.375 6.6875 -1 6 C-0.67 4.02 -0.34 2.04 0 0 Z " fill="#50514D" transform="translate(223,104)"/>
<path d="M0 0 C0.33 0 0.66 0 1 0 C3.38302283 9.7214973 3.23188432 19.25834994 3.125 29.1875 C3.1149459 30.8235622 3.10582436 32.45963042 3.09765625 34.09570312 C3.07584492 38.06395316 3.04145053 42.03190851 3 46 C2.67 46 2.34 46 2 46 C1.67 35.77 1.34 25.54 1 15 C0.67 15 0.34 15 0 15 C0 10.05 0 5.1 0 0 Z " fill="#606060" transform="translate(240,170)"/>
<path d="M0 0 C0.97591583 3.38317487 0.85856655 5.5657338 0 9 C0.66 9 1.32 9 2 9 C2.33 7.02 2.66 5.04 3 3 C3.33 3 3.66 3 4 3 C4.05416188 4.60379341 4.09286638 6.20811406 4.125 7.8125 C4.14820313 8.70582031 4.17140625 9.59914063 4.1953125 10.51953125 C4 13 4 13 2 16 C2 14.68 2 13.36 2 12 C1.34 12 0.68 12 0 12 C-0.12117188 12.92683594 -0.24234375 13.85367188 -0.3671875 14.80859375 C-0.61855469 16.60490234 -0.61855469 16.60490234 -0.875 18.4375 C-1.03742188 19.63246094 -1.19984375 20.82742187 -1.3671875 22.05859375 C-1.68042969 23.51458984 -1.68042969 23.51458984 -2 25 C-2.66 25.33 -3.32 25.66 -4 26 C-2.98074847 17.26046032 -1.94183957 8.59367299 0 0 Z " fill="#464848" transform="translate(370,25)"/>
<path d="M0 0 C0.33 0 0.66 0 1 0 C0.93039063 1.16917969 0.86078125 2.33835937 0.7890625 3.54296875 C0.73276725 5.09108821 0.67816898 6.63927002 0.625 8.1875 C0.57472656 8.95642578 0.52445312 9.72535156 0.47265625 10.51757812 C0.27798657 14.88659541 0.27798657 14.88659541 2.36010742 18.53686523 C3.8867187 19.71759136 5.44219772 20.86074224 7 22 C7.0625 25.6875 7.0625 25.6875 6 29 C5.01 29.66 4.02 30.32 3 31 C2.67 30.01 2.34 29.02 2 28 C2.99 28 3.98 28 5 28 C5 26.35 5 24.7 5 23 C4.01 23.33 3.02 23.66 2 24 C2 23.01 2 22.02 2 21 C1.34 21 0.68 21 0 21 C-1.57152719 17.85694562 -1.14318589 14.508726 -1.125 11.0625 C-1.12886719 10.33353516 -1.13273437 9.60457031 -1.13671875 8.85351562 C-1.1308304 5.64142264 -1.02261853 3.0678556 0 0 Z " fill="#373633" transform="translate(99,76)"/>
<path d="M0 0 C1.0625 1.8125 1.0625 1.8125 2 4 C1.67 4.99 1.34 5.98 1 7 C1 6.34 1 5.68 1 5 C-2.0927781 7.06185207 -2.68076198 7.90369802 -4.1875 11.125 C-4.53167969 11.84945312 -4.87585938 12.57390625 -5.23046875 13.3203125 C-5.48441406 13.87460938 -5.73835937 14.42890625 -6 15 C-6.66 15 -7.32 15 -8 15 C-8 14.34 -8 13.68 -8 13 C-9.98 13.66 -11.96 14.32 -14 15 C-11.90469426 12.82709034 -9.87892987 10.9114121 -7.4375 9.125 C-4.63898796 6.68527155 -3.55531312 4.33281382 -2 1 C-1.34 0.67 -0.68 0.34 0 0 Z " fill="#585858" transform="translate(210,144)"/>
<path d="M0 0 C0.33 0 0.66 0 1 0 C1 3.63 1 7.26 1 11 C1.66 11 2.32 11 3 11 C3.09765625 17.15234375 3.09765625 17.15234375 3 19 C2.67 19.33 2.34 19.66 2 20 C1.76636119 21.84891946 1.58696365 23.70488031 1.4375 25.5625 C1.35371094 26.57441406 1.26992187 27.58632812 1.18359375 28.62890625 C1.12300781 29.41136719 1.06242188 30.19382813 1 31 C0.34 31 -0.32 31 -1 31 C-0.67 20.77 -0.34 10.54 0 0 Z " fill="#797979" transform="translate(213,131)"/>
<path d="M0 0 C0.33 0 0.66 0 1 0 C3.23003378 15.33148222 3.23003378 15.33148222 0 21 C-0.66 21 -1.32 21 -2 21 C-2.33 21.66 -2.66 22.32 -3 23 C-3.66 22.67 -4.32 22.34 -5 22 C-3.12297673 26.89562693 -3.12297673 26.89562693 0 31 C-1.875 30.6875 -1.875 30.6875 -4 30 C-6.35048538 26.47427193 -6.66397817 25.14986355 -6 21 C-5.00742187 20.28199219 -4.01484375 19.56398438 -2.9921875 18.82421875 C-1.05594467 17.29772025 -0.13203248 16.50878259 0.49316406 14.09960938 C0.58934327 11.9350709 0.52564594 9.8486899 0.375 7.6875 C0.34792969 6.94693359 0.32085937 6.20636719 0.29296875 5.44335938 C0.22268284 3.62764002 0.11507089 1.81343199 0 0 Z " fill="#33322E" transform="translate(367,77)"/>
<path d="M0 0 C0.33 0 0.66 0 1 0 C1.33 2.64 1.66 5.28 2 8 C2.33 8 2.66 8 3 8 C3 11.96 3 15.92 3 20 C2.67 20 2.34 20 2 20 C1.67 23.3 1.34 26.6 1 30 C0.67 30 0.34 30 0 30 C-0.19977261 26.68812351 -0.38251777 23.37550624 -0.5625 20.0625 C-0.61857422 19.13630859 -0.67464844 18.21011719 -0.73242188 17.25585938 C-1.04292831 11.35623718 -0.81051594 5.8537262 0 0 Z " fill="#555555" transform="translate(211,111)"/>
<path d="M0 0 C0.33 0 0.66 0 1 0 C1 7.26 1 14.52 1 22 C-1 18 -1 18 -1 16 C-5.62 16 -10.24 16 -15 16 C-15.33 16.99 -15.66 17.98 -16 19 C-16 17.68 -16 16.36 -16 15 C-11.05 15 -6.1 15 -1 15 C-0.67 10.05 -0.34 5.1 0 0 Z " fill="#363638" transform="translate(241,208)"/>
<path d="M0 0 C2.31 0 4.62 0 7 0 C6.67 2.31 6.34 4.62 6 7 C4.68 7.33 3.36 7.66 2 8 C1.67 9.65 1.34 11.3 1 13 C0.67 13 0.34 13 0 13 C0 8.71 0 4.42 0 0 Z " fill="#64696A" transform="translate(91,81)"/>
<path d="M0 0 C0.5775 0.495 1.155 0.99 1.75 1.5 C4.10400629 3.36980013 4.10400629 3.36980013 8 3 C8 5.31 8 7.62 8 10 C6.02 10 4.04 10 2 10 C2 7.69 2 5.38 2 3 C1.34 3 0.68 3 0 3 C0 2.01 0 1.02 0 0 Z " fill="#D0C2AC" transform="translate(228,100)"/>
<path d="M0 0 C0.33 0 0.66 0 1 0 C1 3.96 1 7.92 1 12 C0.34 12 -0.32 12 -1 12 C-1.33 12.99 -1.66 13.98 -2 15 C-2 14.01 -2 13.02 -2 12 C-2.99 12 -3.98 12 -5 12 C-5 10.35 -5 8.7 -5 7 C-4.01 6.67 -3.02 6.34 -2 6 C-0.77479736 2.99152582 -0.77479736 2.99152582 0 0 Z " fill="#575B59" transform="translate(97,82)"/>
<path d="M0 0 C3.5376882 3.5376882 3.17644381 8.19432908 3.25 13 C3.28867188 14.5159375 3.28867188 14.5159375 3.328125 16.0625 C2.84518431 20.38596905 1.03096816 22.96903184 -2 26 C-2 25.34 -2 24.68 -2 24 C-2.66 24 -3.32 24 -4 24 C-4.33 25.32 -4.66 26.64 -5 28 C-5.375 25.8125 -5.375 25.8125 -5 23 C-4.01 22.278125 -3.02 21.55625 -2 20.8125 C0.19309317 19.17155029 0.9094636 18.4714418 1.43359375 15.7421875 C1.43759349 13.12636036 1.27934137 10.60062877 1 8 C0.91878906 7.19949219 0.83757812 6.39898437 0.75390625 5.57421875 C0.53886161 3.71160137 0.27477728 1.85474665 0 0 Z " fill="#242827" transform="translate(75,75)"/>
<path d="M0 0 C0 1.65 0 3.3 0 5 C-2.64 5.33 -5.28 5.66 -8 6 C-8.33 4.35 -8.66 2.7 -9 1 C-5.57367167 -0.61798838 -3.61944899 -1.34053666 0 0 Z " fill="#909291" transform="translate(401,65)"/>
<path d="M0 0 C0.33 0 0.66 0 1 0 C1.02687279 1.81242052 1.04633715 3.62495233 1.0625 5.4375 C1.07410156 6.44683594 1.08570313 7.45617187 1.09765625 8.49609375 C1 11 1 11 0 12 C-3 12.125 -3 12.125 -6 12 C-7 11 -7 11 -7.09765625 8.71484375 C-7.08605469 7.79832031 -7.07445312 6.88179687 -7.0625 5.9375 C-7.05347656 5.01839844 -7.04445312 4.09929687 -7.03515625 3.15234375 C-7.02355469 2.44207031 -7.01195312 1.73179688 -7 1 C-6.67 1 -6.34 1 -6 1 C-5.34 3.97 -4.68 6.94 -4 10 C-3.01 10 -2.02 10 -1 10 C-0.67 6.7 -0.34 3.4 0 0 Z " fill="#999999" transform="translate(236,125)"/>
<path d="M0 0 C0.33 0 0.66 0 1 0 C1 4.29 1 8.58 1 13 C-5.93359375 13.09765625 -5.93359375 13.09765625 -8 13 C-9 12 -9 12 -9.09765625 9.49609375 C-9.08605469 8.48675781 -9.07445312 7.47742188 -9.0625 6.4375 C-9.05347656 5.42558594 -9.04445312 4.41367188 -9.03515625 3.37109375 C-9.02355469 2.58863281 -9.01195312 1.80617187 -9 1 C-8.67 1 -8.34 1 -8 1 C-7.664061 2.4577353 -7.33133376 3.91621106 -7 5.375 C-6.814375 6.18710938 -6.62875 6.99921875 -6.4375 7.8359375 C-6 10 -6 10 -6 12 C-4.02 12 -2.04 12 0 12 C0 8.04 0 4.08 0 0 Z " fill="#8A8A8C" transform="translate(237,210)"/>
<path d="M0 0 C3 1 3 1 4.60546875 4.203125 C5.14452765 5.54744472 5.67140963 6.89669636 6.1875 8.25 C6.46013672 8.91902344 6.73277344 9.58804687 7.01367188 10.27734375 C8.45989903 13.96721654 9.34622131 17.02999568 9 21 C6.83034602 17.74551903 5.63856738 14.4746415 4.375 10.8125 C4.14554687 10.15830078 3.91609375 9.50410156 3.6796875 8.83007812 C3.11604856 7.22135865 2.55752016 5.61085023 2 4 C1.34 4 0.68 4 0 4 C-0.66 4.66 -1.32 5.32 -2 6 C-1.125 1.125 -1.125 1.125 0 0 Z " fill="#2B2D2C" transform="translate(87,4)"/>
<path d="M0 0 C2.96175123 0.61277612 4.38058783 1.25372522 7 3 C5.10614563 3.50744423 3.20981334 4.00564574 1.3125 4.5 C0.25675781 4.7784375 -0.79898437 5.056875 -1.88671875 5.34375 C-4.71142672 5.9391715 -7.12836708 6.12786492 -10 6 C-10 5.34 -10 4.68 -10 4 C-3.375 2 -3.375 2 0 2 C0 1.34 0 0.68 0 0 Z " fill="#757575" transform="translate(272,242)"/>
<path d="M0 0 C0.99 0.33 1.98 0.66 3 1 C3 6.94 3 12.88 3 19 C2.34 19 1.68 19 1 19 C-0.26582219 15.13276369 -0.1118765 11.26848738 -0.0625 7.25 C-0.05798828 6.55261719 -0.05347656 5.85523438 -0.04882812 5.13671875 C-0.0371002 3.42444197 -0.01916653 1.71220967 0 0 Z " fill="#474747" transform="translate(259,222)"/>
<path d="M0 0 C0.66 0 1.32 0 2 0 C2 1.65 2 3.3 2 5 C2.66 5 3.32 5 4 5 C4.33 6.65 4.66 8.3 5 10 C3.68 10 2.36 10 1 10 C0.34 10.99 -0.32 11.98 -1 13 C-1.02696365 11.20841511 -1.04637917 9.41671527 -1.0625 7.625 C-1.07410156 6.62726563 -1.08570313 5.62953125 -1.09765625 4.6015625 C-1 2 -1 2 0 0 Z " fill="#6B6B6B" transform="translate(254,139)"/>
<path d="M0 0 C0.33 0 0.66 0 1 0 C1 2.31 1 4.62 1 7 C1.99 6.67 2.98 6.34 4 6 C4 6.99 4 7.98 4 9 C2.35 9 0.7 9 -1 9 C-1 11.31 -1 13.62 -1 16 C-2.32 15.67 -3.64 15.34 -5 15 C-4.34 15 -3.68 15 -3 15 C-3 12.36 -3 9.72 -3 7 C-2.01 7 -1.02 7 0 7 C-0.185625 6.030625 -0.37125 5.06125 -0.5625 4.0625 C-0.706875 3.051875 -0.85125 2.04125 -1 1 C-0.67 0.67 -0.34 0.34 0 0 Z " fill="#4D4E4E" transform="translate(381,96)"/>
<path d="M0 0 C1.32 0 2.64 0 4 0 C4.125 7.625 4.125 7.625 3 11 C2.01 10.67 1.02 10.34 0 10 C0 6.7 0 3.4 0 0 Z " fill="#8E7A60" transform="translate(231,80)"/>
<path d="M0 0 C0.33 0 0.66 0 1 0 C1.25028042 2.7078532 1.47571011 5.41408936 1.6875 8.125 C1.76033203 8.88554688 1.83316406 9.64609375 1.90820312 10.4296875 C2.27843828 15.48230845 1.75948362 18.55928858 -1 23 C-1.92321855 19.96094614 -2.02162761 17.60005212 -1.66015625 14.453125 C-1.56669922 13.60878906 -1.47324219 12.76445313 -1.37695312 11.89453125 C-1.27318359 11.02183594 -1.16941406 10.14914063 -1.0625 9.25 C-0.96259766 8.36183594 -0.86269531 7.47367187 -0.75976562 6.55859375 C-0.51284599 4.37159129 -0.25938365 2.18555333 0 0 Z " fill="#403E3A" transform="translate(241,85)"/>
<path d="M0 0 C0.99 0.33 1.98 0.66 3 1 C2.67 1.99 2.34 2.98 2 4 C1.34 4 0.68 4 0 4 C-1.98 9.28 -3.96 14.56 -6 20 C-6.33 20 -6.66 20 -7 20 C-6.40373356 13.29200257 -4.87551498 4.87551498 0 0 Z " fill="#2D2F2E" transform="translate(378,4)"/>
<path d="M0 0 C0.66 0 1.32 0 2 0 C2.66 2.97 3.32 5.94 4 9 C3.34 9 2.68 9 2 9 C1.67 9.99 1.34 10.98 1 12 C0.67 11.01 0.34 10.02 0 9 C-1.49985609 7.33289654 -1.49985609 7.33289654 -3 6 C-2.01 4.02 -1.02 2.04 0 0 Z " fill="#5B5F5E" transform="translate(385,85)"/>
<path d="M0 0 C3.84814487 -0.58305225 5.76308635 0.2997117 8.8125 2.5 C9.88364055 3.32219744 10.9491359 4.15204049 12 5 C10 6 10 6 7.125 5.5 C4.22381058 5.03580969 2.71780756 5.05922046 0 6 C0.185625 5.38125 0.37125 4.7625 0.5625 4.125 C1.23686176 1.95839822 1.23686176 1.95839822 0 0 Z " fill="#767676" transform="translate(265,224)"/>
<path d="M0 0 C5.57142857 2.42236025 5.57142857 2.42236025 7.4375 4.9375 C8.09394201 7.34445404 7.83051911 8.67454648 7 11 C5.68 10.67 4.36 10.34 3 10 C3.020625 9.236875 3.04125 8.47375 3.0625 7.6875 C3.12942841 4.89814214 3.12942841 4.89814214 2 2 C1.34 2 0.68 2 0 2 C0 1.34 0 0.68 0 0 Z " fill="#797979" transform="translate(293,174)"/>
<path d="M0 0 C2.475 0.99 2.475 0.99 5 2 C5 6.29 5 10.58 5 15 C4.67 15 4.34 15 4 15 C4 13.35 4 11.7 4 10 C3.34 10 2.68 10 2 10 C1.34 6.7 0.68 3.4 0 0 Z " fill="#827458" transform="translate(235,89)"/>
<path d="M0 0 C0.33 0 0.66 0 1 0 C1 1.98 1 3.96 1 6 C1.99 6.33 2.98 6.66 4 7 C3.5359375 8.7325 3.5359375 8.7325 3.0625 10.5 C2.01654926 14.65413062 1.4560958 18.7431059 1 23 C0.67 23 0.34 23 0 23 C0 15.41 0 7.82 0 0 Z " fill="#6B7171" transform="translate(381,73)"/>
<path d="M0 0 C1.2065625 0.0309375 1.2065625 0.0309375 2.4375 0.0625 C2.7675 2.0425 3.0975 4.0225 3.4375 6.0625 C2.1175 6.0625 0.7975 6.0625 -0.5625 6.0625 C-0.8925 7.7125 -1.2225 9.3625 -1.5625 11.0625 C-1.8925 11.0625 -2.2225 11.0625 -2.5625 11.0625 C-2.5625 8.4225 -2.5625 5.7825 -2.5625 3.0625 C-3.2225 3.0625 -3.8825 3.0625 -4.5625 3.0625 C-3.06867284 0.07484568 -3.06867284 0.07484568 0 0 Z " fill="#626766" transform="translate(370.5625,73.9375)"/>
<path d="M0 0 C0.79921875 0.00902344 1.5984375 0.01804687 2.421875 0.02734375 C3.02515625 0.03894531 3.6284375 0.05054687 4.25 0.0625 C4.58 1.3825 4.91 2.7025 5.25 4.0625 C3.66590006 3.94762252 2.08271037 3.82015492 0.5 3.6875 C-0.38171875 3.61789063 -1.2634375 3.54828125 -2.171875 3.4765625 C-4.74066382 3.06399945 -6.50841015 2.35089043 -8.75 1.0625 C-5.75519083 0.1901588 -3.11424089 -0.04579766 0 0 Z " fill="#93958A" transform="translate(120.75,65.9375)"/>
<path d="M0 0 C0.33 0 0.66 0 1 0 C1.53350857 3.41481264 2.04958186 6.83203896 2.5625 10.25 C2.71396484 11.21808594 2.86542969 12.18617187 3.02148438 13.18359375 C3.16005859 14.11816406 3.29863281 15.05273438 3.44140625 16.015625 C3.57232666 16.87446289 3.70324707 17.73330078 3.83813477 18.61816406 C4.0007082 21.01042114 3.71976511 22.72802578 3 25 C1.39274365 21.78548731 1.94251815 18.56387464 2 15 C1.34 15 0.68 15 0 15 C0 10.05 0 5.1 0 0 Z " fill="#2D2D2D" transform="translate(96,25)"/>
<path d="M0 0 C1.65 0.33 3.3 0.66 5 1 C5 2.65 5 4.3 5 6 C4.01 6.495 4.01 6.495 3 7 C3 7.66 3 8.32 3 9 C1.68 8.34 0.36 7.68 -1 7 C-0.67 4.69 -0.34 2.38 0 0 Z " fill="#656360" transform="translate(99,98)"/>
<path d="M0 0 C0 2.33333333 0 4.66666667 0 7 C-2.31 6.67 -4.62 6.34 -7 6 C-6.875 4.125 -6.875 4.125 -6 2 C-2.9375 0.75 -2.9375 0.75 0 0 Z " fill="#A7A9A8" transform="translate(351,60)"/>
<path d="M0 0 C0.33 0 0.66 0 1 0 C1.33 3.63 1.66 7.26 2 11 C2.66 11 3.32 11 4 11 C4.33 12.32 4.66 13.64 5 15 C3.68 15.99 2.36 16.98 1 18 C-0.59412284 14.81175432 -0.10174735 11.37103338 -0.0625 7.875 C-0.05798828 7.12089844 -0.05347656 6.36679687 -0.04882812 5.58984375 C-0.03703499 3.72652873 -0.01909942 1.86325445 0 0 Z " fill="#5A5D5D" transform="translate(382,25)"/>
<path d="M0 0 C0.66 0 1.32 0 2 0 C2 4.29 2 8.58 2 13 C1.01 13.33 0.02 13.66 -1 14 C-0.67 9.38 -0.34 4.76 0 0 Z " fill="#757575" transform="translate(248,164)"/>
<path d="M0 0 C0.96070434 2.88211302 1.10581883 4.69850044 1.0625 7.6875 C1.05347656 8.49574219 1.04445312 9.30398437 1.03515625 10.13671875 C1.02355469 10.75160156 1.01195312 11.36648437 1 12 C1.66 12 2.32 12 3 12 C3 13.98 3 15.96 3 18 C2.34 18 1.68 18 1 18 C-0.6678216 12.26686324 -1.56334799 6.98721 -1 1 C-0.67 0.67 -0.34 0.34 0 0 Z " fill="#827968" transform="translate(227,91)"/>
<path d="M0 0 C0.66 0 1.32 0 2 0 C2 3.3 2 6.6 2 10 C2.66 10.33 3.32 10.66 4 11 C2.54077307 10.88590407 1.08259402 10.75834456 -0.375 10.625 C-1.18710938 10.55539063 -1.99921875 10.48578125 -2.8359375 10.4140625 C-5 10 -5 10 -7 8 C-4.69 8.33 -2.38 8.66 0 9 C0 6.03 0 3.06 0 0 Z " fill="#666666" transform="translate(172,192)"/>
<path d="M0 0 C3.80635497 3.20760251 7.54563567 6.40746109 11 10 C10.21625 9.979375 9.4325 9.95875 8.625 9.9375 C6.01885039 9.81315937 6.01885039 9.81315937 4 11 C3.67 9.02 3.34 7.04 3 5 C2.34 5 1.68 5 1 5 C0.67 3.35 0.34 1.7 0 0 Z " fill="#5C5C5C" transform="translate(259,149)"/>
<path d="M0 0 C1.90389849 2.85584773 2.69462177 4.9311762 3.625 8.1875 C4.01558594 9.53908203 4.01558594 9.53908203 4.4140625 10.91796875 C4.60742188 11.60503906 4.80078125 12.29210938 5 13 C3.68 13 2.36 13 1 13 C0.83052421 11.58366664 0.66454493 10.16691467 0.5 8.75 C0.4071875 7.96109375 0.314375 7.1721875 0.21875 6.359375 C0 4 0 4 0 0 Z " fill="#616463" transform="translate(89,8)"/>
<path d="M0 0 C0.66 0.33 1.32 0.66 2 1 C1.01 1.598125 0.02 2.19625 -1 2.8125 C-1.99 3.534375 -2.98 4.25625 -4 5 C-4 5.99 -4 6.98 -4 8 C-7.80504787 9.79682816 -8.70600835 10.07349791 -13 9 C-8.71 6.03 -4.42 3.06 0 0 Z " fill="#494949" transform="translate(185,165)"/>
<path d="M0 0 C1.65 0 3.3 0 5 0 C5 1.65 5 3.3 5 5 C4.01 5.33 3.02 5.66 2 6 C1.67 7.65 1.34 9.3 1 11 C0.67 11 0.34 11 0 11 C0 7.37 0 3.74 0 0 Z " fill="#939292" transform="translate(231,112)"/>
<path d="M0 0 C0.66 0 1.32 0 2 0 C2.66 3.3 3.32 6.6 4 10 C3.01 10.33 2.02 10.66 1 11 C0 10 0 10 -0.09765625 7.71484375 C-0.08605469 6.79832031 -0.07445312 5.88179688 -0.0625 4.9375 C-0.05347656 4.01839844 -0.04445312 3.09929687 -0.03515625 2.15234375 C-0.02355469 1.44207031 -0.01195312 0.73179688 0 0 Z " fill="#544839" transform="translate(236,80)"/>
<path d="M0 0 C5.875 1.875 5.875 1.875 7 3 C7.04092937 5.33297433 7.04241723 7.66705225 7 10 C5.68 9.67 4.36 9.34 3 9 C3.50603992 6.83125748 3.99983813 5.00032373 5 3 C2.525 2.01 2.525 2.01 0 1 C0 0.67 0 0.34 0 0 Z " fill="#6C664C" transform="translate(413,62)"/>
<path d="M0 0 C0.66 0 1.32 0 2 0 C2 5.28 2 10.56 2 16 C1.67 14.68 1.34 13.36 1 12 C0.34 12 -0.32 12 -1 12 C-0.67 8.04 -0.34 4.08 0 0 Z " fill="#606966" transform="translate(97,56)"/>
<path d="M0 0 C1.03115279 3.26913624 0.9638984 5.86041348 0.5625 9.25 C0.46066406 10.14203125 0.35882813 11.0340625 0.25390625 11.953125 C0.17011719 12.62859375 0.08632813 13.3040625 0 14 C-0.33 14 -0.66 14 -1 14 C-1 11.69 -1 9.38 -1 7 C-1.66 7 -2.32 7 -3 7 C-3.33 5.02 -3.66 3.04 -4 1 C-2 0 -2 0 0 0 Z " fill="#4D5250" transform="translate(389,74)"/>
<path d="M0 0 C0.99 0.66 1.98 1.32 3 2 C2.34 2 1.68 2 1 2 C1 3.32 1 4.64 1 6 C-0.65 6 -2.3 6 -4 6 C-4 5.34 -4 4.68 -4 4 C-4.66 3.67 -5.32 3.34 -6 3 C-4.02 2.01 -2.04 1.02 0 0 Z " fill="#ABADAA" transform="translate(59,60)"/>
<path d="M0 0 C0.33 0 0.66 0 1 0 C1 3.3 1 6.6 1 10 C0.34 10 -0.32 10 -1 10 C-1.33 11.32 -1.66 12.64 -2 14 C-2.33 10.7 -2.66 7.4 -3 4 C-2.01 3.67 -1.02 3.34 0 3 C0 2.01 0 1.02 0 0 Z " fill="#959C9A" transform="translate(87,18)"/>
<path d="M0 0 C4.95 0.33 9.9 0.66 15 1 C14.67 1.99 14.34 2.98 14 4 C9.03083364 3.48594831 4.70973649 2.76615118 0 1 C0 0.67 0 0.34 0 0 Z " fill="#606060" transform="translate(188,244)"/>
<path d="M0 0 C0.66 0 1.32 0 2 0 C2 3.3 2 6.6 2 10 C1.01 10 0.02 10 -1 10 C-2.25 3.375 -2.25 3.375 0 0 Z " fill="#828282" transform="translate(251,131)"/>
<path d="M0 0 C0.33 0.66 0.66 1.32 1 2 C1.66 2 2.32 2 3 2 C3 1.34 3 0.68 3 0 C3.66 0 4.32 0 5 0 C4.67 2.97 4.34 5.94 4 9 C4.99 9.33 5.98 9.66 7 10 C5.68 10 4.36 10 3 10 C0.96564469 6.27034861 0 4.33094958 0 0 Z " fill="#868C8A" transform="translate(78,94)"/>
<path d="M0 0 C1.32 0.33 2.64 0.66 4 1 C4 3.64 4 6.28 4 9 C0.06153846 5.67692308 0.06153846 5.67692308 -0.25 2.25 C-0.1675 1.5075 -0.085 0.765 0 0 Z " fill="#A0A2A1" transform="translate(364,67)"/>
<path d="M0 0 C0.66 0.66 1.32 1.32 2 2 C1.625 5.125 1.625 5.125 1 8 C-0.32 8.33 -1.64 8.66 -3 9 C-2.44271087 5.65626525 -1.64826111 2.96687001 0 0 Z " fill="#464646" transform="translate(214,200)"/>
<path d="M0 0 C0.99 0.33 1.98 0.66 3 1 C1.02 1.99 1.02 1.99 -1 3 C-1 4.98 -1 6.96 -1 9 C-1.99 9 -2.98 9 -4 9 C-4.33 7.02 -4.66 5.04 -5 3 C-2.6875 1.4375 -2.6875 1.4375 0 0 Z " fill="#6B675A" transform="translate(53,61)"/>
<path d="M0 0 C2.97 0.495 2.97 0.495 6 1 C6.33 1.99 6.66 2.98 7 4 C4.6875 4.6875 4.6875 4.6875 2 5 C0.1875 3.5625 0.1875 3.5625 -1 2 C-0.67 1.34 -0.34 0.68 0 0 Z " fill="#9D9FA2" transform="translate(118,62)"/>
<path d="M0 0 C0.33 0 0.66 0 1 0 C0.61271765 5.71241466 0.12989477 8.73688282 -4 13 C-3.50269348 8.02693484 -2.44697666 4.36200187 0 0 Z " fill="#2A2A2A" transform="translate(231,53)"/>
<path d="M0 0 C0 1.32 0 2.64 0 4 C-3.73567172 4.76411467 -6.34811918 5.07174763 -10 4 C-8.71086513 3.32845067 -7.41859796 2.66291141 -6.125 2 C-5.40570313 1.62875 -4.68640625 1.2575 -3.9453125 0.875 C-2 0 -2 0 0 0 Z " fill="#636666" transform="translate(78,50)"/>
<path d="M0 0 C0.66 1.32 1.32 2.64 2 4 C1.01 4 0.02 4 -1 4 C-0.67 2.68 -0.34 1.36 0 0 Z M-1 4 C-0.75 6.3125 -0.75 6.3125 -1 9 C-3 10.8125 -3 10.8125 -5 12 C-4.74438677 9.6568787 -4.40729228 7.32156597 -4 5 C-2 4 -2 4 -1 4 Z " fill="#4E4C48" transform="translate(242,102)"/>
<path d="M0 0 C0.66 0 1.32 0 2 0 C2 0.66 2 1.32 2 2 C3.32 1.67 4.64 1.34 6 1 C6 3.31 6 5.62 6 8 C5.67 6.68 5.34 5.36 5 4 C2.36 4 -0.28 4 -3 4 C-1.625 2 -1.625 2 0 0 Z " fill="#232524" transform="translate(370,103)"/>
<path d="M0 0 C0.99 0.33 1.98 0.66 3 1 C2.01 1.495 2.01 1.495 1 2 C0.67 2.99 0.34 3.98 0 5 C1.32 5.33 2.64 5.66 4 6 C2.35 6.33 0.7 6.66 -1 7 C-1.66 6.01 -2.32 5.02 -3 4 C-3.66 3.67 -4.32 3.34 -5 3 C-2.6875 1.4375 -2.6875 1.4375 0 0 Z " fill="#666764" transform="translate(344,61)"/>
<path d="M0 0 C0.33 0.99 0.66 1.98 1 3 C1.66 3 2.32 3 3 3 C3.33 2.34 3.66 1.68 4 1 C4.33 3.64 4.66 6.28 5 9 C4.34 9 3.68 9 3 9 C2.67 7.68 2.34 6.36 2 5 C1.34 5 0.68 5 0 5 C-0.33 4.01 -0.66 3.02 -1 2 C-0.67 1.34 -0.34 0.68 0 0 Z " fill="#454645" transform="translate(384,31)"/>
<path d="M0 0 C1.65 0.33 3.3 0.66 5 1 C4.34 1.66 3.68 2.32 3 3 C2.28591666 4.98356483 1.61382258 6.98315437 1 9 C0.01 8.67 -0.98 8.34 -2 8 C-1.34 8 -0.68 8 0 8 C0 5.36 0 2.72 0 0 Z " fill="#3A3A3A" transform="translate(87,103)"/>
<path d="M0 0 C0.33 0 0.66 0 1 0 C1.0270043 1.45823212 1.04639787 2.91660675 1.0625 4.375 C1.07410156 5.18710937 1.08570313 5.99921875 1.09765625 6.8359375 C1 9 1 9 0 11 C-0.66 11 -1.32 11 -2 11 C-1.85957123 9.35369672 -1.71250671 7.70795821 -1.5625 6.0625 C-1.48128906 5.14597656 -1.40007812 4.22945312 -1.31640625 3.28515625 C-1 1 -1 1 0 0 Z " fill="#989999" transform="translate(372,23)"/>
<path d="M0 0 C0.33 0 0.66 0 1 0 C1.17835515 4.54805635 0.99785435 7.8794254 -1 12 C-2.32 11.67 -3.64 11.34 -5 11 C-5 10.34 -5 9.68 -5 9 C-4.01 8.67 -3.02 8.34 -2 8 C-1.19787372 6.12612784 -1.19787372 6.12612784 -0.8125 3.9375 C-0.65394531 3.20402344 -0.49539062 2.47054687 -0.33203125 1.71484375 C-0.22246094 1.14894531 -0.11289063 0.58304687 0 0 Z " fill="#333333" transform="translate(222,100)"/>
<path d="M0 0 C1.42944945 2.35438733 2.08661261 3.48032433 1.625 6.25 C1.41875 6.8275 1.2125 7.405 1 8 C-0.32 7.34 -1.64 6.68 -3 6 C-1.125 1.125 -1.125 1.125 0 0 Z " fill="#696E6C" transform="translate(368,94)"/>
<path d="M0 0 C0.66 0 1.32 0 2 0 C1.71872579 1.48117801 1.42466268 2.95993249 1.125 4.4375 C0.96257812 5.26121094 0.80015625 6.08492188 0.6328125 6.93359375 C0.31957031 7.95646484 0.31957031 7.95646484 0 9 C-0.99 9.495 -0.99 9.495 -2 10 C-2.1953125 3.9453125 -2.1953125 3.9453125 -2 2 C-1.34 1.34 -0.68 0.68 0 0 Z " fill="#939997" transform="translate(101,65)"/>
<path d="M0 0 C0.33 1.32 0.66 2.64 1 4 C0.01 4.33 -0.98 4.66 -2 5 C-2.33 5.66 -2.66 6.32 -3 7 C-3.33 6.01 -3.66 5.02 -4 4 C-3.67 3.67 -3.34 3.34 -3 3 C-4.32 2.67 -5.64 2.34 -7 2 C-4.35261084 0.5393715 -3.10551666 0 0 0 Z " fill="#767A78" transform="translate(354,58)"/>
<path d="M0 0 C0 1.98 0 3.96 0 6 C-0.66 6 -1.32 6 -2 6 C-2.33 6.66 -2.66 7.32 -3 8 C-3 6.02 -3 4.04 -3 2 C-3.66 1.67 -4.32 1.34 -5 1 C-3 0 -3 0 0 0 Z " fill="#B5A894" transform="translate(239,101)"/>
<path d="M0 0 C1.65 0 3.3 0 5 0 C4.67 1.98 4.34 3.96 4 6 C3.34 6 2.68 6 2 6 C2 5.34 2 4.68 2 4 C1.34 4 0.68 4 0 4 C0 2.68 0 1.36 0 0 Z " fill="#858A89" transform="translate(369,94)"/>
<path d="M0 0 C0.66 0 1.32 0 2 0 C1 7.42857143 1 7.42857143 0 11 C-0.66 11 -1.32 11 -2 11 C-1.34 7.37 -0.68 3.74 0 0 Z " fill="#686C6D" transform="translate(370,37)"/>
<path d="M0 0 C0.33 0 0.66 0 1 0 C1.125 7.625 1.125 7.625 0 11 C-0.66 11 -1.32 11 -2 11 C-1.85892253 9.54119891 -1.71197585 8.08296449 -1.5625 6.625 C-1.48128906 5.81289063 -1.40007812 5.00078125 -1.31640625 4.1640625 C-1 2 -1 2 0 0 Z " fill="#999999" transform="translate(81,23)"/>
<path d="M0 0 C0.66 0 1.32 0 2 0 C2 3.63 2 7.26 2 11 C0.35 11 -1.3 11 -3 11 C-2.505 10.67 -2.01 10.34 -1.5 10 C0.88179561 6.82427253 0.19168226 3.89753934 0 0 Z " fill="#A8AAA9" transform="translate(299,189)"/>
<path d="M0 0 C0.33 0 0.66 0 1 0 C1.4726477 8.19256018 1.4726477 8.19256018 -0.5 11.5625 C-0.995 12.036875 -1.49 12.51125 -2 13 C-2.19294408 8.17639811 -1.75747614 4.50353262 0 0 Z " fill="#9F9F9F" transform="translate(247,163)"/>
<path d="M0 0 C1.0625 1.8125 1.0625 1.8125 2 4 C1.67 4.99 1.34 5.98 1 7 C1 6.34 1 5.68 1 5 C-0.98 5.99 -0.98 5.99 -3 7 C-2.625 4.0625 -2.625 4.0625 -2 1 C-1.34 0.67 -0.68 0.34 0 0 Z " fill="#787878" transform="translate(210,144)"/>
<path d="M0 0 C2.1519437 3.22791555 2.20086443 4.28400809 2 8 C1.01 8.33 0.02 8.66 -1 9 C-1.125 2.25 -1.125 2.25 0 0 Z " fill="#5F6361" transform="translate(383,94)"/>
<path d="M0 0 C0.66 0 1.32 0 2 0 C2.625 2.8125 2.625 2.8125 3 6 C2.34 6.99 1.68 7.98 1 9 C0 8 0 8 -0.09765625 6.15234375 C-0.06510417 4.1015625 -0.03255208 2.05078125 0 0 Z " fill="#5F6362" transform="translate(91,94)"/>
<path d="M0 0 C0.33 0.99 0.66 1.98 1 3 C-1.97 3 -4.94 3 -8 3 C-8 2.34 -8 1.68 -8 1 C-5.10765685 0.17361624 -3.11257569 0 0 0 Z " fill="#A1A5A6" transform="translate(356,67)"/>
<path d="M0 0 C0.33 0 0.66 0 1 0 C1.33 3.3 1.66 6.6 2 10 C0.02 10.99 0.02 10.99 -2 12 C-1.34 8.04 -0.68 4.08 0 0 Z " fill="#836E50" transform="translate(230,85)"/>
<path d="M0 0 C0.99 0 1.98 0 3 0 C2.67 2.97 2.34 5.94 2 9 C0 7 0 7 -0.125 3.375 C-0.08375 2.26125 -0.0425 1.1475 0 0 Z " fill="#868B8D" transform="translate(369,81)"/>
<path d="M0 0 C0.33 0 0.66 0 1 0 C1 1.65 1 3.3 1 5 C0.34 5 -0.32 5 -1 5 C-1 6.98 -1 8.96 -1 11 C-1.99 11.495 -1.99 11.495 -3 12 C-2.88601335 10.37419034 -2.75844341 8.74932843 -2.625 7.125 C-2.55539063 6.22007813 -2.48578125 5.31515625 -2.4140625 4.3828125 C-2 2 -2 2 0 0 Z " fill="#8F9291" transform="translate(87,10)"/>
<path d="M0 0 C0 0.66 0 1.32 0 2 C-6.625 6 -6.625 6 -10 6 C-2.92307692 0 -2.92307692 0 0 0 Z " fill="#353535" transform="translate(197,225)"/>
<path d="M0 0 C0.99 0.33 1.98 0.66 3 1 C3.33 2.98 3.66 4.96 4 7 C3.34 7 2.68 7 2 7 C0 5 0 5 -0.125 2.375 C-0.08375 1.59125 -0.0425 0.8075 0 0 Z " fill="#7C7C7C" transform="translate(212,115)"/>
<path d="M0 0 C0.66 0 1.32 0 2 0 C3.42258812 3.82320557 4.24042276 6.91281305 4 11 C2 7.25 2 7.25 2 5 C1.34 5 0.68 5 0 5 C0 3.35 0 1.7 0 0 Z " fill="#5C5C5C" transform="translate(232,53)"/>
<path d="M0 0 C0.66 0 1.32 0 2 0 C2.33 1.98 2.66 3.96 3 6 C0.03 5.505 0.03 5.505 -3 5 C-1.625 2.5 -1.625 2.5 0 0 Z " fill="#3A3A3A" transform="translate(213,224)"/>
<path d="M0 0 C-0.33 1.32 -0.66 2.64 -1 4 C-4 3 -4 3 -6 0 C-3.50907189 -1.24546405 -2.58919267 -0.7767578 0 0 Z " fill="#939393" transform="translate(196,203)"/>
<path d="M0 0 C2.64 1.32 5.28 2.64 8 4 C3.44968209 5.13757948 1.36915594 4.4283779 -3 3 C-2.01 2.01 -1.02 1.02 0 0 Z " fill="#242525" transform="translate(386,103)"/>
<path d="M0 0 C1.32 0.33 2.64 0.66 4 1 C3.67 2.65 3.34 4.3 3 6 C2.01 6 1.02 6 0 6 C0 4.02 0 2.04 0 0 Z " fill="#565958" transform="translate(384,50)"/>
<path d="M0 0 C0.66 0.33 1.32 0.66 2 1 C2.40729228 3.32156597 2.74438677 5.6568787 3 8 C2.34 8 1.68 8 1 8 C0.67 7.01 0.34 6.02 0 5 C-0.99 5.495 -0.99 5.495 -2 6 C-1.34 4.02 -0.68 2.04 0 0 Z " fill="#838584" transform="translate(87,6)"/>
<path d="M0 0 C1.32 0.66 2.64 1.32 4 2 C2.515 4.475 2.515 4.475 1 7 C-0.0625 5.1875 -0.0625 5.1875 -1 3 C-0.67 2.01 -0.34 1.02 0 0 Z " fill="#5E5D5D" transform="translate(239,111)"/>
<path d="M0 0 C-0.33 1.65 -0.66 3.3 -1 5 C-1.33 4.34 -1.66 3.68 -2 3 C-2.66 3 -3.32 3 -4 3 C-4.33 4.32 -4.66 5.64 -5 7 C-5.1875 4.625 -5.1875 4.625 -5 2 C-2 0 -2 0 0 0 Z " fill="#433F3B" transform="translate(75,96)"/>
</svg>
