<?xml version="1.0" encoding="UTF-8"?>
<svg version="1.1" xmlns="http://www.w3.org/2000/svg" width="213" height="164">
<path d="M0 0 C0.33 0.66 0.66 1.32 1 2 C0.08789062 4.21142578 0.08789062 4.21142578 -1.34375 6.9453125 C-1.84777344 7.94046875 -2.35179687 8.935625 -2.87109375 9.9609375 C-3.94750439 12.05180709 -5.03329516 14.13787714 -6.12890625 16.21875 C-9.27052285 22.46984391 -10.94825729 26.17763283 -9 33 C-7.7944221 36.20315637 -6.41039616 39.28675139 -4.9375 42.375 C-4.19351985 43.96470117 -3.45248026 45.55578291 -2.71484375 47.1484375 C-2.22165649 48.18750244 -2.22165649 48.18750244 -1.71850586 49.24755859 C-1 51 -1 51 -1 53 C7.53329817 54.01250192 7.53329817 54.01250192 16 53 C19.15141491 50.43051086 21.28077529 47.70507029 23.7421875 44.484375 C26.25887691 41.71514582 27.37580631 41.04313161 31.0625 40.75 C37.52601911 41.50204468 41.04890438 46.25713276 45 51 C45.84498047 51.88751953 45.84498047 51.88751953 46.70703125 52.79296875 C48.125 54.3125 48.125 54.3125 50 57 C49.8649181 60.00250223 49.05120314 60.94974507 46.890625 63.0703125 C45.58351562 64.08738281 45.58351562 64.08738281 44.25 65.125 C43.38890625 65.80820313 42.5278125 66.49140625 41.640625 67.1953125 C39.13889232 68.90507655 36.8505112 70.00539717 34 71 C35.65 71.66 37.3 72.32 39 73 C39 75.97 39 78.94 39 82 C36.525 82.99 36.525 82.99 34 84 C34.969375 84.33 35.93875 84.66 36.9375 85 C42.14444245 87.18734263 45.96508403 91.14807342 50 95 C49.40716913 98.60571107 47.97258223 100.54429438 45.5625 103.25 C44.94503906 103.95640625 44.32757813 104.6628125 43.69140625 105.390625 C42 107 42 107 40 107 C39.7525 107.61875 39.505 108.2375 39.25 108.875 C37.71177504 111.48998244 36.87649576 112.06708246 34 113 C30.07673921 113.42799209 27.84139241 113.51304415 24.4375 111.4375 C22 109 22 109 20.95703125 107.2109375 C19.44509286 104.83293731 18.3908338 103.55037004 16 102 C10.43956432 100.81309871 4.65910782 100.95588669 -1 101 C-1.1144043 101.73758545 -1.22880859 102.4751709 -1.34667969 103.23510742 C-2.01121903 106.04747966 -2.92234121 107.81007407 -4.453125 110.23828125 C-9.94374341 119.68628182 -9.94374341 119.68628182 -10.35839844 130.27978516 C-8.04646913 136.81812043 -4.82463267 142.84974132 -1.26611328 148.78955078 C0 151 0 151 1 154 C-2.01450894 155.50725447 -4.83444181 155.40692869 -8.1875 155.5625 C-9.48042969 155.64628906 -10.77335938 155.73007813 -12.10546875 155.81640625 C-17.74395321 154.63441703 -19.7337341 151.54256182 -23 147 C-23.51892822 146.28013916 -24.03785645 145.56027832 -24.57250977 144.81860352 C-26.14569549 142.56743713 -27.67068308 140.28947672 -29.1875 138 C-33.86357212 131.0485482 -38.68750899 124.2574813 -43.77807617 117.60351562 C-44.45640503 116.7150293 -44.45640503 116.7150293 -45.1484375 115.80859375 C-45.86132935 114.91962402 -45.86132935 114.91962402 -46.58862305 114.01269531 C-48 112 -48 112 -49.17114258 109.37011719 C-50.8142238 106.09623619 -52.08592727 104.25848622 -55 102 C-61.72083316 100.04027685 -69.0009423 100.41364378 -75.9375 100.375 C-77.88097093 100.32868447 -79.82434186 100.27794827 -81.76757812 100.22265625 C-86.51209052 100.0972602 -91.25397809 100.03235708 -96 100 C-95.67 98.02 -95.34 96.04 -95 94 C-95.77859375 93.97421875 -96.5571875 93.9484375 -97.359375 93.921875 C-117.94289336 92.87847084 -136.79932144 87.70036165 -155 78 C-142.49607911 63.26323609 -112.50009156 61.8956662 -95 60 C-95.33 58.35 -95.66 56.7 -96 55 C-91.6853582 53.92120844 -87.54799726 53.94468108 -83.13671875 54.03515625 C-81.5944094 54.04118659 -80.05208666 54.04435148 -78.50976562 54.04492188 C-76.09875456 54.0466379 -73.69268265 54.06236163 -71.2824707 54.12670898 C-61.77569893 54.58622456 -61.77569893 54.58622456 -53.31396484 50.98828125 C-51.24426809 48.42949048 -49.61306521 45.86498867 -48 43 C-47.02002351 41.61181781 -46.02620526 40.23325164 -45.015625 38.8671875 C-44.09113961 37.5382705 -43.16930041 36.20750906 -42.25 34.875 C-37.68574516 28.33023824 -33.02726326 21.87129465 -28.13842773 15.56396484 C-25.92446632 12.68868086 -23.99710066 9.99453891 -22.2890625 6.77734375 C-17.29648673 -2.61345353 -9.47535829 -0.95926012 0 0 Z " fill="#71758A" transform="translate(162,6)"/>
<path d="M0 0 C0.495 0.99 0.495 0.99 1 2 C0.08789062 4.21142578 0.08789062 4.21142578 -1.34375 6.9453125 C-1.84777344 7.94046875 -2.35179687 8.935625 -2.87109375 9.9609375 C-3.94750439 12.05180709 -5.03329516 14.13787714 -6.12890625 16.21875 C-9.27052285 22.46984391 -10.94825729 26.17763283 -9 33 C-7.7944221 36.20315637 -6.41039616 39.28675139 -4.9375 42.375 C-4.19351985 43.96470117 -3.45248026 45.55578291 -2.71484375 47.1484375 C-2.38605225 47.84114746 -2.05726074 48.53385742 -1.71850586 49.24755859 C-1 51 -1 51 -1 53 C7.53329817 54.01250192 7.53329817 54.01250192 16 53 C19.15141491 50.43051086 21.28077529 47.70507029 23.7421875 44.484375 C26.25887691 41.71514582 27.37580631 41.04313161 31.0625 40.75 C37.52601911 41.50204468 41.04890438 46.25713276 45 51 C45.84498047 51.88751953 45.84498047 51.88751953 46.70703125 52.79296875 C48.125 54.3125 48.125 54.3125 50 57 C49.8649181 60.00250223 49.05120314 60.94974507 46.890625 63.0703125 C45.58351562 64.08738281 45.58351562 64.08738281 44.25 65.125 C43.38890625 65.80820313 42.5278125 66.49140625 41.640625 67.1953125 C38.24123514 69.51856415 34.88122223 70.70625926 31 72 C30.34 71.34 29.68 70.68 29 70 C25.62505213 69.54643216 22.21440231 69.67599932 18.8125 69.6875 C17.87857422 69.67138672 16.94464844 69.65527344 15.98242188 69.63867188 C11.66149889 69.63563111 8.6266344 69.71801452 4.640625 71.51171875 C-0.87016591 73.76452061 -6.17625336 73.27014476 -12.0625 73.125 C-14.47912332 73.09406126 -16.89579499 73.06668278 -19.3125 73.04296875 C-20.46621094 73.03056152 -21.61992187 73.0181543 -22.80859375 73.00537109 C-32.68917234 72.63024135 -32.68917234 72.63024135 -42 75 C-52.02690941 76.14463995 -62.05147854 76.09230492 -72.12084961 75.75805664 C-74.35578101 75.68610664 -76.59070945 75.63266299 -78.82617188 75.58007812 C-80.25524131 75.53755242 -81.68427992 75.4939745 -83.11328125 75.44921875 C-84.38985596 75.41143311 -85.66643066 75.37364746 -86.98168945 75.3347168 C-90 75 -90 75 -92 73 C-92 72.01 -92 71.02 -92 70 C-84.93131492 67.42219971 -78.02167967 66.61542174 -70.5625 66.25 C-69.68625977 66.20560791 -68.81001953 66.16121582 -67.90722656 66.11547852 C-63.8946075 65.95700409 -60.95750485 66.01062379 -57 67 C-57 63.37 -57 59.74 -57 56 C-68.22 55.67 -79.44 55.34 -91 55 C-91 54.67 -91 54.34 -91 54 C-89.47246094 54.03311279 -89.47246094 54.03311279 -87.9140625 54.06689453 C-84.10407174 54.13608336 -80.29634231 54.13868697 -76.48583984 54.12207031 C-74.84281735 54.1240067 -73.19971108 54.14355557 -71.55712891 54.18164062 C-61.88275035 54.63628832 -61.88275035 54.63628832 -53.29199219 50.98388672 C-51.22536116 48.42634499 -49.6037045 45.86680379 -48 43 C-47.02047401 41.6114999 -46.02666978 40.23290788 -45.015625 38.8671875 C-44.09113961 37.5382705 -43.16930041 36.20750906 -42.25 34.875 C-37.68574516 28.33023824 -33.02726326 21.87129465 -28.13842773 15.56396484 C-25.92446632 12.68868086 -23.99710066 9.99453891 -22.2890625 6.77734375 C-17.29648673 -2.61345353 -9.47535829 -0.95926012 0 0 Z " fill="#7A7F94" transform="translate(162,6)"/>
<path d="M0 0 C13.2 0 26.4 0 40 0 C39.67 3.96 39.34 7.92 39 12 C33.88731401 12.08665569 29.01828356 11.89533303 23.9375 11.3125 C15.99953009 10.61651686 8.69814022 12.25087186 1 14 C1.495 14.8971875 1.495 14.8971875 2 15.8125 C3 18 3 18 3 21 C10.71152724 22.05648755 18.28665821 22.11624053 26.0625 22.0625 C27.30966797 22.05798828 28.55683594 22.05347656 29.84179688 22.04882812 C32.89458221 22.03713163 35.94726498 22.02074086 39 22 C39.495 26.455 39.495 26.455 40 31 C40.66 31 41.32 31 42 31 C41.505 35.95 41.505 35.95 41 41 C43.31 41 45.62 41 48 41 C48 41.33 48 41.66 48 42 C45.03 42 42.06 42 39 42 C39 42.66 39 43.32 39 44 C26.46 44 13.92 44 1 44 C1 42.35 1 40.7 1 39 C-0.16789062 38.96132812 -0.16789062 38.96132812 -1.359375 38.921875 C-21.94289336 37.87847084 -40.79932144 32.70036165 -59 23 C-46.49607911 8.26323609 -16.50009156 6.8956662 1 5 C0.505 2.525 0.505 2.525 0 0 Z " fill="#696D82" transform="translate(66,61)"/>
<path d="M0 0 C0 0.33 0 0.66 0 1 C-0.95519531 1.04898438 -1.91039063 1.09796875 -2.89453125 1.1484375 C-10.73815629 1.60200704 -18.29791643 2.35069728 -26 4 C-25.34 5.32 -24.68 6.64 -24 8 C-19.25377028 8.16996243 -14.50733844 8.33022168 -9.76049805 8.48217773 C-8.15168835 8.53496505 -6.54295766 8.59022912 -4.93432617 8.64819336 C10.96740512 10.09504475 10.96740512 10.09504475 26 7 C32.8671745 6.05881365 39.76925167 5.96856859 46.6875 6.04296875 C47.87802979 6.05465088 49.06855957 6.06633301 50.29516602 6.07836914 C52.69431271 6.10908414 55.09332916 6.15350077 57.49194336 6.21264648 C63.95140603 6.29819309 68.06120993 5.67245553 74 3 C77.61168472 2.5904681 81.18191327 2.62486048 84.8125 2.6875 C85.76576172 2.68427734 86.71902344 2.68105469 87.70117188 2.67773438 C94.73255022 2.73255022 94.73255022 2.73255022 97 5 C99.32817964 5.36760731 101.6618385 5.70241581 104 6 C105 7 105 7 105.09765625 9.06640625 C105.08025391 10.30197266 105.08025391 10.30197266 105.0625 11.5625 C105.05347656 12.38878906 105.04445312 13.21507813 105.03515625 14.06640625 C105.01775391 15.02353516 105.01775391 15.02353516 105 16 C102.525 16.99 102.525 16.99 100 18 C100.969375 18.33 101.93875 18.66 102.9375 19 C108.14444245 21.18734263 111.96508403 25.14807342 116 29 C115.40716913 32.60571107 113.97258223 34.54429438 111.5625 37.25 C110.94503906 37.95640625 110.32757813 38.6628125 109.69140625 39.390625 C108 41 108 41 106 41 C105.62875 41.928125 105.62875 41.928125 105.25 42.875 C103.71177504 45.48998244 102.87649576 46.06708246 100 47 C96.07673921 47.42799209 93.84139241 47.51304415 90.4375 45.4375 C88 43 88 43 86.95703125 41.2109375 C85.44509286 38.83293731 84.3908338 37.55037004 82 36 C76.43956432 34.81309871 70.65910782 34.95588669 65 35 C64.88487061 35.73541016 64.76974121 36.47082031 64.65112305 37.22851562 C63.99040687 40.04083286 63.068638 41.88596686 61.58203125 44.34375 C56.20607344 53.62741687 56.20607344 53.62741687 55.55957031 63.98535156 C57.64452264 69.73557041 60.60481022 74.95080518 63.93920898 80.06494141 C65 82 65 82 65 85 C61.04 85 57.08 85 53 85 C53.66666667 83 54.33333333 81 55 79 C54.01 78.46375 53.02 77.9275 52 77.375 C51.01 76.59125 50.02 75.8075 49 75 C48.6875 71.875 48.6875 71.875 49 69 C48.67 68.34 48.34 67.68 48 67 C48.66 67 49.32 67 50 67 C49.67 66.01 49.34 65.02 49 64 C49.99 62.515 49.99 62.515 51 61 C50.34 61 49.68 61 49 61 C48.505 61.99 48.505 61.99 48 63 C48 62.34 48 61.68 48 61 C47.34 61 46.68 61 46 61 C52.3 40.7 52.3 40.7 57 36 C59.625 35.875 59.625 35.875 62 36 C62 35.34 62 34.68 62 34 C63.65 33.67 65.3 33.34 67 33 C67 24.75 67 16.5 67 8 C55.21765268 7.88098639 43.6736251 8.38984481 32 10 C30.72125 10.165 29.4425 10.33 28.125 10.5 C25.10377527 10.82299325 25.10377527 10.82299325 23 12 C20.95501575 11.91219597 18.91255052 11.75758462 16.875 11.5625 C15.23144531 11.40974609 15.23144531 11.40974609 13.5546875 11.25390625 C12.71164063 11.17011719 11.86859375 11.08632812 11 11 C11 13.31 11 15.62 11 18 C10.01 18.495 10.01 18.495 9 19 C8.505 15.535 8.505 15.535 8 12 C7.25951416 12.01047363 6.51902832 12.02094727 5.75610352 12.03173828 C2.35827105 12.07365081 -1.03950675 12.09943745 -4.4375 12.125 C-5.60216797 12.14175781 -6.76683594 12.15851563 -7.96679688 12.17578125 C-22.98612047 12.26039716 -22.98612047 12.26039716 -27 10 C-28.69997324 7.3174169 -29.23883815 5.14613565 -30 2 C-19.64744191 -0.19449435 -10.57495512 -1.52647178 0 0 Z " fill="#6E7288" transform="translate(96,72)"/>
<path d="M0 0 C0.495 0.99 0.495 0.99 1 2 C0.67 2.99 0.34 3.98 0 5 C0.63446045 4.83701416 1.2689209 4.67402832 1.92260742 4.50610352 C6.04704147 3.82780508 10.06597407 3.87698356 14.23828125 3.90234375 C15.11904831 3.9037587 15.99981537 3.90517365 16.90727234 3.90663147 C19.70905003 3.91221063 22.51074662 3.92475929 25.3125 3.9375 C27.21679572 3.94251769 29.12109269 3.94708013 31.02539062 3.95117188 C35.68362481 3.96217323 40.34179867 3.97942351 45 4 C44.01 4.33 43.02 4.66 42 5 C42 5.99 42 6.98 42 8 C42.845625 7.96519531 43.69125 7.93039063 44.5625 7.89453125 C51.41207481 7.73107549 56.89603369 7.71324891 63 11 C63.495 12.98 63.495 12.98 64 15 C69.61 15.33 75.22 15.66 81 16 C81 16.33 81 16.66 81 17 C79.17275391 17.05607422 79.17275391 17.05607422 77.30859375 17.11328125 C75.6848671 17.17898117 74.06117051 17.24542709 72.4375 17.3125 C71.23770508 17.34633789 71.23770508 17.34633789 70.01367188 17.38085938 C65.35845391 17.58986916 62.28090976 18.30512103 58.03979492 20.34741211 C53.24196942 21.88237172 47.91495416 21.24773549 42.9375 21.125 C40.52087668 21.09406126 38.10420501 21.06668278 35.6875 21.04296875 C34.53378906 21.03056152 33.38007813 21.0181543 32.19140625 21.00537109 C22.31082766 20.63024135 22.31082766 20.63024135 13 23 C2.97309059 24.14463995 -7.05147854 24.09230492 -17.12084961 23.75805664 C-19.35578101 23.68610664 -21.59070945 23.63266299 -23.82617188 23.58007812 C-25.25524131 23.53755242 -26.68427992 23.4939745 -28.11328125 23.44921875 C-30.02814331 23.39254028 -30.02814331 23.39254028 -31.98168945 23.3347168 C-35 23 -35 23 -37 21 C-37 20.01 -37 19.02 -37 18 C-29.93131492 15.42219971 -23.02167967 14.61542174 -15.5625 14.25 C-14.68625977 14.20560791 -13.81001953 14.16121582 -12.90722656 14.11547852 C-8.8946075 13.95700409 -5.95750485 14.01062379 -2 15 C-2 11.37 -2 7.74 -2 4 C-13.22 3.67 -24.44 3.34 -36 3 C-36 2.67 -36 2.34 -36 2 C-34.41747437 1.96241577 -34.41747437 1.96241577 -32.80297852 1.92407227 C-28.90229372 1.83015891 -25.00179375 1.72989966 -21.10131836 1.62768555 C-19.41060701 1.58427561 -17.71985009 1.54260511 -16.02905273 1.50268555 C-13.60386394 1.44512906 -11.17890585 1.38139351 -8.75390625 1.31640625 C-7.99348526 1.29969376 -7.23306427 1.28298126 -6.44960022 1.26576233 C-2.92917969 1.47908732 -2.92917969 1.47908732 0 0 Z " fill="#AEB3C9" transform="translate(107,58)"/>
<path d="M0 0 C-0.66 0.99 -1.32 1.98 -2 3 C-2.45915507 5.96842658 -2.45915507 5.96842658 -2.625 9.1875 C-2.69976562 10.27417969 -2.77453125 11.36085938 -2.8515625 12.48046875 C-2.90054688 13.31191406 -2.94953125 14.14335938 -3 15 C-3.66 15 -4.32 15 -5 15 C-4.505 20.94 -4.505 20.94 -4 27 C-2.35 27 -0.7 27 1 27 C0.01 27.99 -0.98 28.98 -2 30 C-0.02 30.66 1.96 31.32 4 32 C3.67 32.99 3.34 33.98 3 35 C3 34.34 3 33.68 3 33 C1.83210938 32.96132812 1.83210938 32.96132812 0.640625 32.921875 C-19.94289336 31.87847084 -38.79932144 26.70036165 -57 17 C-45.99470242 4.02947071 -15.88453152 -0.73881542 0 0 Z " fill="#696D81" transform="translate(64,67)"/>
<path d="M0 0 C6.46351911 0.75204468 9.98640438 5.50713276 13.9375 10.25 C14.50082031 10.84167969 15.06414062 11.43335938 15.64453125 12.04296875 C17.0625 13.5625 17.0625 13.5625 18.9375 16.25 C18.8024181 19.25250223 17.98870314 20.19974507 15.828125 22.3203125 C14.95671875 22.99835938 14.0853125 23.67640625 13.1875 24.375 C12.32640625 25.05820313 11.4653125 25.74140625 10.578125 26.4453125 C7.17873514 28.76856415 3.81872223 29.95625926 -0.0625 31.25 C-0.75730469 30.78980469 -1.45210937 30.32960938 -2.16796875 29.85546875 C-6.20261108 27.61763069 -9.83114359 27.6880209 -14.375 27.5625 C-15.21095703 27.52833984 -16.04691406 27.49417969 -16.90820312 27.45898438 C-18.95917772 27.37694539 -21.01081538 27.3117849 -23.0625 27.25 C-23.0625 25.93 -23.0625 24.61 -23.0625 23.25 C-30.00055182 20.12107467 -36.50031278 19.58430401 -44.0625 19.25 C-44.0625 18.26 -44.0625 17.27 -44.0625 16.25 C-41.04759443 15.24503148 -39.02068308 15.14664697 -35.875 15.1875 C-34.97394531 15.19652344 -34.07289063 15.20554687 -33.14453125 15.21484375 C-32.45746094 15.22644531 -31.77039063 15.23804688 -31.0625 15.25 C-31.3925 14.26 -31.7225 13.27 -32.0625 12.25 C-30.95132813 12.37761719 -29.84015625 12.50523438 -28.6953125 12.63671875 C-19.78279206 13.52752549 -19.78279206 13.52752549 -12.05859375 9.80078125 C-10.45853613 7.79493052 -8.87835436 5.77303316 -7.3203125 3.734375 C-4.80362309 0.96514582 -3.68669369 0.29313161 0 0 Z " fill="#F2F5FA" transform="translate(193.0625,46.75)"/>
<path d="M0 0 C0.495 0.99 0.495 0.99 1 2 C0.67 2.99 0.34 3.98 0 5 C0.66604248 4.83701416 1.33208496 4.67402832 2.01831055 4.50610352 C5.59898073 3.89833071 9.08872233 3.87551276 12.70703125 3.90234375 C13.79512337 3.90446617 13.79512337 3.90446617 14.90519714 3.90663147 C17.2076745 3.91220069 19.51005235 3.92474739 21.8125 3.9375 C23.37955588 3.94251898 24.9466133 3.94708119 26.51367188 3.95117188 C30.34248589 3.96216002 34.17122611 3.97940327 38 4 C38 4.33 38 4.66 38 5 C37.05125 5.0825 36.1025 5.165 35.125 5.25 C28.53551666 6.21041053 22.39493144 8.78167893 17.0625 12.75 C14 15 14 15 11 15 C11 15.66 11 16.32 11 17 C7.16775311 18.24753696 3.36329745 18.10940357 -0.6171875 18.0625 C-1.3519632 18.05871338 -2.08673889 18.05492676 -2.84378052 18.05102539 C-5.9761648 18.03473837 -9.10841672 18.0066453 -12.24072266 17.97949219 C-14.53287138 17.96132709 -16.82499847 17.94928197 -19.1171875 17.9375 C-20.16747635 17.92505249 -20.16747635 17.92505249 -21.23898315 17.91235352 C-25.27075673 17.89239695 -29.04504586 18.21748132 -33 19 C-33.33 19.99 -33.66 20.98 -34 22 C-27.62778921 21.88256977 -21.25575472 21.75773553 -14.88378906 21.62768555 C-12.71487744 21.58430081 -10.54593087 21.54262839 -8.37695312 21.50268555 C-5.26421565 21.44506861 -2.15165465 21.38134962 0.9609375 21.31640625 C1.934935 21.29969376 2.9089325 21.28298126 3.91244507 21.26576233 C5.26361923 21.2358445 5.26361923 21.2358445 6.64208984 21.20532227 C7.83455826 21.18200584 7.83455826 21.18200584 9.05111694 21.15821838 C11.07997774 21.11558275 11.07997774 21.11558275 13 20 C15.71760108 19.92818179 18.40859388 19.90700494 21.125 19.9375 C21.87910156 19.94201172 22.63320312 19.94652344 23.41015625 19.95117188 C25.27347127 19.96296501 27.13674555 19.98090058 29 20 C29 20.33 29 20.66 29 21 C28.01257813 21.06058594 27.02515625 21.12117188 26.0078125 21.18359375 C24.72648437 21.26738281 23.44515625 21.35117188 22.125 21.4375 C20.84882812 21.51871094 19.57265625 21.59992188 18.2578125 21.68359375 C15.11699848 21.79206027 15.11699848 21.79206027 13 23 C2.97309059 24.14463995 -7.05147854 24.09230492 -17.12084961 23.75805664 C-19.35578101 23.68610664 -21.59070945 23.63266299 -23.82617188 23.58007812 C-25.25524131 23.53755242 -26.68427992 23.4939745 -28.11328125 23.44921875 C-30.02814331 23.39254028 -30.02814331 23.39254028 -31.98168945 23.3347168 C-35 23 -35 23 -37 21 C-37 20.01 -37 19.02 -37 18 C-29.93131492 15.42219971 -23.02167967 14.61542174 -15.5625 14.25 C-14.68625977 14.20560791 -13.81001953 14.16121582 -12.90722656 14.11547852 C-8.8946075 13.95700409 -5.95750485 14.01062379 -2 15 C-2 11.37 -2 7.74 -2 4 C-13.22 3.67 -24.44 3.34 -36 3 C-36 2.67 -36 2.34 -36 2 C-34.41747437 1.96241577 -34.41747437 1.96241577 -32.80297852 1.92407227 C-28.90229372 1.83015891 -25.00179375 1.72989966 -21.10131836 1.62768555 C-19.41060701 1.58427561 -17.71985009 1.54260511 -16.02905273 1.50268555 C-13.60386394 1.44512906 -11.17890585 1.38139351 -8.75390625 1.31640625 C-7.99348526 1.29969376 -7.23306427 1.28298126 -6.44960022 1.26576233 C-2.92917969 1.47908732 -2.92917969 1.47908732 0 0 Z " fill="#999DB2" transform="translate(107,58)"/>
<path d="M0 0 C5.07003738 1.79449546 8.18959319 5.84300511 11.52734375 9.89453125 C12.79578125 11.34859375 12.79578125 11.34859375 14.08984375 12.83203125 C15.52734375 14.89453125 15.52734375 14.89453125 15.52734375 16.89453125 C7.79413244 19.82822953 1.0459601 20.22133418 -7.16015625 19.76953125 C-8.24876953 19.7334375 -9.33738281 19.69734375 -10.45898438 19.66015625 C-16.48163715 19.38190603 -21.12552806 18.72491384 -26.47265625 15.89453125 C-26.47265625 15.23453125 -26.47265625 14.57453125 -26.47265625 13.89453125 C-23.50265625 13.89453125 -20.53265625 13.89453125 -17.47265625 13.89453125 C-16.81265625 12.57453125 -16.15265625 11.25453125 -15.47265625 9.89453125 C-11.39709144 3.86109707 -7.73598192 -0.70327108 0 0 Z " fill="#343542" transform="translate(195.47265625,47.10546875)"/>
<path d="M0 0 C6.93 0 13.86 0 21 0 C20.67 0.66 20.34 1.32 20 2 C14.39 1.67 8.78 1.34 3 1 C2.67 2.65 2.34 4.3 2 6 C0.90161133 8.16210938 0.90161133 8.16210938 -0.41796875 10.34375 C-5.79392656 19.62741687 -5.79392656 19.62741687 -6.44042969 29.98535156 C-4.35547736 35.73557041 -1.39518978 40.95080518 1.93920898 46.06494141 C3 48 3 48 3 51 C-0.96 51 -4.92 51 -9 51 C-8.33333333 49 -7.66666667 47 -7 45 C-7.99 44.46375 -8.98 43.9275 -10 43.375 C-10.99 42.59125 -11.98 41.8075 -13 41 C-13.3125 37.875 -13.3125 37.875 -13 35 C-13.33 34.34 -13.66 33.68 -14 33 C-13.34 33 -12.68 33 -12 33 C-12.495 31.515 -12.495 31.515 -13 30 C-12.34 29.01 -11.68 28.02 -11 27 C-11.66 27 -12.32 27 -13 27 C-13.33 27.66 -13.66 28.32 -14 29 C-14 28.34 -14 27.68 -14 27 C-14.66 27 -15.32 27 -16 27 C-9.7 6.7 -9.7 6.7 -5 2 C-2.375 1.875 -2.375 1.875 0 2 C0 1.34 0 0.68 0 0 Z " fill="#868A9D" transform="translate(158,106)"/>
<path d="M0 0 C13.2 0 26.4 0 40 0 C37.96053655 4.07892691 36.03944691 6.6566084 33 10 C32.34 10 31.68 10 31 10 C30.7525 10.61875 30.505 11.2375 30.25 11.875 C28.71177504 14.48998244 27.87649576 15.06708246 25 16 C21.01520084 16.43470536 18.81753527 16.50609326 15.375 14.375 C12.67509534 11.67509534 10.28354013 9.06646817 8 6 C8 5.01 8 4.02 8 3 C5.03 3 2.06 3 -1 3 C-0.67 2.01 -0.34 1.02 0 0 Z " fill="#5F6274" transform="translate(171,103)"/>
<path d="M0 0 C3.45075574 0.37110856 6.51277071 1.03811107 9.80859375 2.13671875 C10.30359375 5.10671875 10.30359375 5.10671875 10.80859375 8.13671875 C10.15262207 8.22236084 9.49665039 8.30800293 8.82080078 8.39624023 C5.85789675 8.78518376 2.89575122 9.17963148 -0.06640625 9.57421875 C-1.09894531 9.70892578 -2.13148438 9.84363281 -3.1953125 9.98242188 C-4.18144531 10.11455078 -5.16757813 10.24667969 -6.18359375 10.3828125 C-7.0947998 10.50325928 -8.00600586 10.62370605 -8.94482422 10.74780273 C-11.21874049 11.03034826 -11.21874049 11.03034826 -13.19140625 12.13671875 C-14.64177732 12.22621292 -16.09619254 12.25430315 -17.54931641 12.25024414 C-18.90049057 12.25013084 -18.90049057 12.25013084 -20.27896118 12.25001526 C-21.25295868 12.24485397 -22.22695618 12.23969269 -23.23046875 12.234375 C-24.22646088 12.23296005 -25.222453 12.2315451 -26.24862671 12.23008728 C-29.43791678 12.22447811 -32.62713731 12.21192405 -35.81640625 12.19921875 C-37.9752594 12.19420493 -40.13411366 12.18964182 -42.29296875 12.18554688 C-47.59247175 12.1745057 -52.89193403 12.15775863 -58.19140625 12.13671875 C-57.86140625 10.81671875 -57.53140625 9.49671875 -57.19140625 8.13671875 C-52.59406608 7.227849 -48.18657274 7.03104833 -43.51953125 7.109375 C-42.03515864 7.1220279 -40.55078351 7.13438837 -39.06640625 7.14648438 C-36.75838095 7.17117829 -34.45049185 7.19908656 -32.14257812 7.23266602 C-19.46196179 7.72743949 -19.46196179 7.72743949 -7.19140625 5.13671875 C-6.34578125 4.24984375 -5.50015625 3.36296875 -4.62890625 2.44921875 C-2.19140625 0.13671875 -2.19140625 0.13671875 0 0 Z " fill="#C2C6DD" transform="translate(131.19140625,67.86328125)"/>
<path d="M0 0 C0 0.33 0 0.66 0 1 C-0.95519531 1.04898438 -1.91039063 1.09796875 -2.89453125 1.1484375 C-10.73815629 1.60200704 -18.29791643 2.35069728 -26 4 C-25.34 5.32 -24.68 6.64 -24 8 C-19.25377028 8.16996243 -14.50733844 8.33022168 -9.76049805 8.48217773 C-8.15168835 8.53496505 -6.54295766 8.59022912 -4.93432617 8.64819336 C10.96740512 10.09504475 10.96740512 10.09504475 26 7 C38.65643977 5.26536105 51.66652506 5.90514605 64.40307617 5.98413086 C66.26869012 5.99553115 68.13435122 6 70 6 C68 8 68 8 64.98046875 8.16015625 C63.72878906 8.12792969 62.47710937 8.09570312 61.1875 8.0625 C51.38055152 7.90277771 41.71448648 8.66007083 32 10 C30.72125 10.165 29.4425 10.33 28.125 10.5 C25.10377527 10.82299325 25.10377527 10.82299325 23 12 C20.95501575 11.91219597 18.91255052 11.75758462 16.875 11.5625 C15.23144531 11.40974609 15.23144531 11.40974609 13.5546875 11.25390625 C12.71164063 11.17011719 11.86859375 11.08632812 11 11 C11 13.31 11 15.62 11 18 C10.01 18.495 10.01 18.495 9 19 C8.505 15.535 8.505 15.535 8 12 C7.25951416 12.01047363 6.51902832 12.02094727 5.75610352 12.03173828 C2.35827105 12.07365081 -1.03950675 12.09943745 -4.4375 12.125 C-5.60216797 12.14175781 -6.76683594 12.15851563 -7.96679688 12.17578125 C-22.98612047 12.26039716 -22.98612047 12.26039716 -27 10 C-28.69997324 7.3174169 -29.23883815 5.14613565 -30 2 C-19.64744191 -0.19449435 -10.57495512 -1.52647178 0 0 Z " fill="#83889E" transform="translate(96,72)"/>
<path d="M0 0 C0.495 1.485 0.495 1.485 1 3 C-10.15261959 13.14806378 -10.15261959 13.14806378 -18 13 C-18.12375 12.360625 -18.2475 11.72125 -18.375 11.0625 C-18.58125 10.381875 -18.7875 9.70125 -19 9 C-21.91710994 7.54144503 -24.69307532 7.68750029 -27.9375 7.5 C-34.66958698 7.11013767 -34.66958698 7.11013767 -38 6 C-38 4.35 -38 2.7 -38 1 C-37.01 1.33 -36.02 1.66 -35 2 C-30.80154344 2.41088239 -26.58852341 2.56036832 -22.375 2.75 C-21.22386719 2.81832031 -20.07273438 2.88664062 -18.88671875 2.95703125 C-11.81113807 3.27168079 -6.55897297 2.7130933 0 0 Z " fill="#9598B1" transform="translate(211,63)"/>
<path d="M0 0 C2.83515893 4.2527384 4.62457575 8.87087999 6.625 13.5625 C7.25535156 15.01946289 7.25535156 15.01946289 7.8984375 16.50585938 C8.29546875 17.43333984 8.6925 18.36082031 9.1015625 19.31640625 C9.46588379 20.16662354 9.83020508 21.01684082 10.20556641 21.89282227 C11 24 11 24 11 26 C6.38 26 1.76 26 -3 26 C-2.34 25.34 -1.68 24.68 -1 24 C-0.01 24 0.98 24 2 24 C1.59007812 23.19175781 1.18015625 22.38351563 0.7578125 21.55078125 C0.21898437 20.48214844 -0.31984375 19.41351563 -0.875 18.3125 C-1.40867188 17.25675781 -1.94234375 16.20101562 -2.4921875 15.11328125 C-6 7.87046632 -6 7.87046632 -6 4 C-4.35 3.67 -2.7 3.34 -1 3 C-0.67 2.01 -0.34 1.02 0 0 Z " fill="#81859A" transform="translate(151,36)"/>
<path d="M0 0 C14.33299616 -0.58992515 14.33299616 -0.58992515 21 3 C21.33 4.32 21.66 5.64 22 7 C27.61 7.33 33.22 7.66 39 8 C39 8.33 39 8.66 39 9 C37.17275391 9.05607422 37.17275391 9.05607422 35.30859375 9.11328125 C33.6848671 9.17898117 32.06117051 9.24542709 30.4375 9.3125 C29.63763672 9.33505859 28.83777344 9.35761719 28.01367188 9.38085938 C22.6251772 9.62279179 18.86235234 10.69038264 14 13 C7.94835636 13.77020919 4.09615793 11.96503734 -1 9 C-0.67 8.34 -0.34 7.68 0 7 C1.41681634 7.31182069 2.83344651 7.62448737 4.25 7.9375 C5.03890625 8.11152344 5.8278125 8.28554687 6.640625 8.46484375 C8.76878703 8.947556 10.88532842 9.46163178 13 10 C13 7.36 13 4.72 13 2 C8.71 2 4.42 2 0 2 C0 1.34 0 0.68 0 0 Z " fill="#AEB3C7" transform="translate(149,66)"/>
<path d="M0 0 C-4.2058747 4.2058747 -8.6686311 5.20192609 -14.4375 5.25 C-16.29252784 5.18876112 -18.1470105 5.10634086 -20 5 C-21.17755859 4.95359375 -21.17755859 4.95359375 -22.37890625 4.90625 C-25.78573748 4.65528637 -27.57772945 4.43546651 -30 1.9375 C-30.33 1.298125 -30.66 0.65875 -31 0 C-28.93355561 -2.06644439 -24.72872003 -1.41695073 -21.875 -1.5625 C-21.12734375 -1.60568359 -20.3796875 -1.64886719 -19.609375 -1.69335938 C-6.2218536 -2.42804043 -6.2218536 -2.42804043 0 0 Z " fill="#56586C" transform="translate(198,87)"/>
<path d="M0 0 C8.75740747 1.62105202 13.83055518 5.73866983 20 12 C19.67 12.99 19.34 13.98 19 15 C14.51558642 14.90628901 10.03168913 14.80015655 5.54785156 14.68261719 C4.02319342 14.64438734 2.49844693 14.609524 0.97363281 14.578125 C-1.22102381 14.53234338 -3.4150754 14.47437234 -5.609375 14.4140625 C-6.2886908 14.40251129 -6.96800659 14.39096008 -7.66790771 14.37905884 C-11.54913049 14.25862899 -13.40846414 13.79576793 -17 12 C-8.42 11.67 0.16 11.34 9 11 C8.67 9.35 8.34 7.7 8 6 C7.360625 5.87625 6.72125 5.7525 6.0625 5.625 C5.0415625 5.315625 5.0415625 5.315625 4 5 C3.67 4.34 3.34 3.68 3 3 C2.01 2.67 1.02 2.34 0 2 C0 1.34 0 0.68 0 0 Z " fill="#82879D" transform="translate(192,89)"/>
<path d="M0 0 C0.33 0 0.66 0 1 0 C1 2.97 1 5.94 1 9 C-0.65 9.33 -2.3 9.66 -4 10 C-4 9.34 -4 8.68 -4 8 C-6.85160391 7.18565857 -9.36626131 6.88118758 -12.328125 6.90234375 C-13.52695313 6.90717773 -13.52695313 6.90717773 -14.75 6.91210938 C-15.575 6.92048828 -16.4 6.92886719 -17.25 6.9375 C-18.09046875 6.94201172 -18.9309375 6.94652344 -19.796875 6.95117188 C-21.86461401 6.96292039 -23.93231624 6.98085478 -26 7 C-26.33 5.68 -26.66 4.36 -27 3 C-26.34 3 -25.68 3 -25 3 C-25 2.34 -25 1.68 -25 1 C-22.35409986 0.97315321 -19.70846904 0.95323643 -17.0625 0.9375 C-16.30775391 0.92912109 -15.55300781 0.92074219 -14.77539062 0.91210938 C-12.85005687 0.90347559 -10.92464419 0.94775667 -9 1 C-8.67 1.33 -8.34 1.66 -8 2 C-6.65252916 2.23075082 -5.29622435 2.41153063 -3.9375 2.5625 C-2.638125 2.706875 -1.33875 2.85125 0 3 C0 2.01 0 1.02 0 0 Z " fill="#9DA0AB" transform="translate(200,79)"/>
<path d="M0 0 C2.70108504 0.090916 5.36930311 0.23740766 8.0625 0.4375 C9.20041992 0.51581055 9.20041992 0.51581055 10.36132812 0.59570312 C12.24121722 0.72575835 14.12065685 0.86228038 16 1 C16 3.64 16 6.28 16 9 C14.58297487 8.85769192 13.1663904 8.71099254 11.75 8.5625 C10.56664062 8.44068359 10.56664062 8.44068359 9.359375 8.31640625 C7.17635361 8.02365007 5.1226818 7.57935581 3 7 C5.22189824 9.22189824 7.08482708 9.92598892 10 11 C6.33012779 12.22329074 3.66032178 11.88021006 -0.1875 11.5625 C-1.45980469 11.46066406 -2.73210937 11.35882813 -4.04296875 11.25390625 C-5.01878906 11.17011719 -5.99460938 11.08632812 -7 11 C-5 10 -3 9 -1 8 C-1.020625 6.865625 -1.04125 5.73125 -1.0625 4.5625 C-1 1 -1 1 0 0 Z " fill="#A3A8BF" transform="translate(146,67)"/>
<path d="M0 0 C1 3 1 3 0.19555664 4.7175293 C-0.22862549 5.33023682 -0.65280762 5.94294434 -1.08984375 6.57421875 C-1.54423828 7.24130859 -1.99863281 7.90839844 -2.46679688 8.59570312 C-2.95212891 9.28599609 -3.43746094 9.97628906 -3.9375 10.6875 C-4.65969727 11.7403418 -4.65969727 11.7403418 -5.39648438 12.81445312 C-6.58846676 14.54931858 -7.79306473 16.27550373 -9 18 C-8.34 18 -7.68 18 -7 18 C-8 20 -8 20 -10.875 22.1875 C-13.37049258 24.17795242 -14.51972042 25.7596047 -15.625 28.75 C-17 32 -17 32 -19.1875 32.9375 C-19.785625 32.958125 -20.38375 32.97875 -21 33 C-22 31 -22 31 -21.125 28.125 C-18.94144701 23.3191893 -15.63034562 19.3097248 -12.421875 15.15234375 C-9.38652595 11.20149426 -6.50792236 7.14755097 -3.62890625 3.08203125 C-2 1 -2 1 0 0 Z " fill="#686B76" transform="translate(142,12)"/>
<path d="M0 0 C1.13179687 -0.00773437 2.26359375 -0.01546875 3.4296875 -0.0234375 C4.51765625 -0.02085938 5.605625 -0.01828125 6.7265625 -0.015625 C8.20890381 -0.01224121 8.20890381 -0.01224121 9.72119141 -0.00878906 C12.41848253 0.25424025 14.06686067 0.87182253 16.375 2.25 C15.64909668 2.24476318 14.92319336 2.23952637 14.17529297 2.23413086 C10.86687088 2.21326503 7.55846269 2.20030931 4.25 2.1875 C3.10789062 2.17912109 1.96578125 2.17074219 0.7890625 2.16210938 C-0.31953125 2.15888672 -1.428125 2.15566406 -2.5703125 2.15234375 C-3.58625488 2.14710693 -4.60219727 2.14187012 -5.64892578 2.13647461 C-8.71614726 2.25347691 -11.61133134 2.68223583 -14.625 3.25 C-14.955 4.24 -15.285 5.23 -15.625 6.25 C-9.25278921 6.13256977 -2.88075472 6.00773553 3.49121094 5.87768555 C5.66012256 5.83430081 7.82906913 5.79262839 9.99804688 5.75268555 C13.11078435 5.69506861 16.22334535 5.63134962 19.3359375 5.56640625 C20.309935 5.54969376 21.2839325 5.53298126 22.28744507 5.51576233 C23.18822784 5.49581711 24.08901062 5.47587189 25.01708984 5.45532227 C26.20955826 5.43200584 26.20955826 5.43200584 27.42611694 5.40821838 C29.45497774 5.36558275 29.45497774 5.36558275 31.375 4.25 C34.09260108 4.17818179 36.78359388 4.15700494 39.5 4.1875 C40.25410156 4.19201172 41.00820312 4.19652344 41.78515625 4.20117188 C43.64847127 4.21296501 45.51174555 4.23090058 47.375 4.25 C47.375 4.58 47.375 4.91 47.375 5.25 C46.38757813 5.31058594 45.40015625 5.37117188 44.3828125 5.43359375 C43.10148437 5.51738281 41.82015625 5.60117188 40.5 5.6875 C39.22382812 5.76871094 37.94765625 5.84992188 36.6328125 5.93359375 C33.49199848 6.04206027 33.49199848 6.04206027 31.375 7.25 C21.34809059 8.39463995 11.32352146 8.34230492 1.25415039 8.00805664 C-0.98078101 7.93610664 -3.21570945 7.88266299 -5.45117188 7.83007812 C-6.88024131 7.78755242 -8.30927992 7.7439745 -9.73828125 7.69921875 C-11.65314331 7.64254028 -11.65314331 7.64254028 -13.60668945 7.5847168 C-16.625 7.25 -16.625 7.25 -18.625 5.25 C-18.625 4.26 -18.625 3.27 -18.625 2.25 C-12.58867331 -0.43755181 -6.47185216 -0.04453109 0 0 Z " fill="#A0A5BB" transform="translate(88.625,73.75)"/>
<path d="M0 0 C1.45019531 -0.01836914 1.45019531 -0.01836914 2.9296875 -0.03710938 C4.31414062 -0.04000977 4.31414062 -0.04000977 5.7265625 -0.04296875 C6.57041504 -0.04707764 7.41426758 -0.05118652 8.28369141 -0.05541992 C10.375 0.1875 10.375 0.1875 12.375 2.1875 C14.69775177 2.58797444 17.03239357 2.9272104 19.375 3.1875 C19.375 4.5075 19.375 5.8275 19.375 7.1875 C13.80926396 7.38278898 9.75737074 6.73835259 4.375 5.1875 C0.71590525 4.73631081 -2.94729795 4.44021732 -6.625 4.1875 C-6.625 3.8575 -6.625 3.5275 -6.625 3.1875 C-2.17 2.6925 -2.17 2.6925 2.375 2.1875 C-0.04260876 2.30176509 -2.45847218 2.42849661 -4.875 2.5625 C-5.55691406 2.5934375 -6.23882812 2.624375 -6.94140625 2.65625 C-10.61239038 2.87009374 -13.48751616 3.19827055 -16.625 5.1875 C-15.875 3.25 -15.875 3.25 -14.625 1.1875 C-9.94870103 -0.4454012 -4.88733381 0.0032845 0 0 Z " fill="#73788B" transform="translate(180.625,74.8125)"/>
<path d="M0 0 C8.625 0.875 8.625 0.875 12 2 C12.33 3.98 12.66 5.96 13 8 C7.06 8 1.12 8 -5 8 C-3.35 5.36 -1.7 2.72 0 0 Z " fill="#CCD1E6" transform="translate(129,68)"/>
<path d="M0 0 C0.99 0.33 1.98 0.66 3 1 C3.0825 1.78375 3.165 2.5675 3.25 3.375 C3.4975 4.24125 3.745 5.1075 4 6 C5.93330603 7.09166275 5.93330603 7.09166275 8 8 C9.69066658 10.6205332 10 11.82629722 10 15 C6.04 15 2.08 15 -2 15 C-1.33333333 13 -0.66666667 11 0 9 C-0.66 8.34 -1.32 7.68 -2 7 C-1.34 4.69 -0.68 2.38 0 0 Z " fill="#878B9D" transform="translate(151,142)"/>
<path d="M0 0 C0.66 0.33 1.32 0.66 2 1 C0 3 0 3 -3.01953125 3.16015625 C-4.27121094 3.12792969 -5.52289063 3.09570312 -6.8125 3.0625 C-15.16842953 2.92640994 -23.40970835 3.3393866 -31.69140625 4.53125 C-36.789797 5.18183698 -41.86843822 5.10850711 -47 5.0625 C-47.96550781 5.05798828 -48.93101563 5.05347656 -49.92578125 5.04882812 C-52.28392089 5.03715417 -54.64192602 5.02078021 -57 5 C-57 4.67 -57 4.34 -57 4 C-56.08476563 3.93941406 -55.16953125 3.87882812 -54.2265625 3.81640625 C-52.44378906 3.69072266 -52.44378906 3.69072266 -50.625 3.5625 C-49.44164063 3.48128906 -48.25828125 3.40007812 -47.0390625 3.31640625 C-44.08481099 3.18915064 -44.08481099 3.18915064 -42 2 C-31.41963615 0.54989937 -20.62899303 0.93096454 -9.98071289 1.03686523 C-8.26356079 1.04955444 -8.26356079 1.04955444 -6.51171875 1.0625 C-5.47490967 1.07410156 -4.43810059 1.08570312 -3.36987305 1.09765625 C-1.04402684 1.26982481 -1.04402684 1.26982481 0 0 Z " fill="#8E93A9" transform="translate(164,77)"/>
<path d="M0 0 C0.33 0.66 0.66 1.32 1 2 C0.34 3.32 -0.32 4.64 -1 6 C9.23 6 19.46 6 30 6 C30 6.33 30 6.66 30 7 C23.01828196 9.19716278 16.70981511 9.1510462 9.4375 8.8125 C7.79104492 8.76512695 7.79104492 8.76512695 6.11132812 8.71679688 C0.04278984 8.46439836 -4.61662368 7.86547004 -10 5 C-10 4.34 -10 3.68 -10 3 C-7.03 3 -4.06 3 -1 3 C-0.67 2.01 -0.34 1.02 0 0 Z " fill="#686C7D" transform="translate(179,58)"/>
<path d="M0 0 C2.55084822 3.82627233 4.26791748 7.86601847 6.125 12.0625 C6.68380859 13.30483398 6.68380859 13.30483398 7.25390625 14.57226562 C7.60582031 15.36439453 7.95773438 16.15652344 8.3203125 16.97265625 C8.64273926 17.69718994 8.96516602 18.42172363 9.29736328 19.16821289 C10 21 10 21 10 23 C9.01 23 8.02 23 7 23 C6.89042969 22.36191406 6.78085938 21.72382812 6.66796875 21.06640625 C6.50941406 20.24011719 6.35085937 19.41382812 6.1875 18.5625 C6.03667969 17.73878906 5.88585937 16.91507813 5.73046875 16.06640625 C5.48941406 15.38449219 5.24835938 14.70257813 5 14 C4.01 13.67 3.02 13.34 2 13 C1.34 12.01 0.68 11.02 0 10 C-2.56282742 9.27034634 -2.56282742 9.27034634 -5 9 C-5.33 7.35 -5.66 5.7 -6 4 C-4.35 3.67 -2.7 3.34 -1 3 C-0.67 2.01 -0.34 1.02 0 0 Z " fill="#8F93A6" transform="translate(151,36)"/>
<path d="M0 0 C2.54173977 -0.02716824 5.08318415 -0.04691969 7.625 -0.0625 C8.33785156 -0.07087891 9.05070312 -0.07925781 9.78515625 -0.08789062 C13.97344438 -0.10710296 17.8728462 0.1732673 22 1 C22 1.66 22 2.32 22 3 C19.54724859 4.2263757 17.9494219 4.11415314 15.2109375 4.09765625 C14.26992187 4.09443359 13.32890625 4.09121094 12.359375 4.08789062 C11.37453125 4.07951172 10.3896875 4.07113281 9.375 4.0625 C8.38242188 4.05798828 7.38984375 4.05347656 6.3671875 4.04882812 C3.9113984 4.03702145 1.45572896 4.020554 -1 4 C-0.67 2.68 -0.34 1.36 0 0 Z " fill="#D1D7EA" transform="translate(74,76)"/>
<path d="M0 0 C16.70842825 -0.18451025 16.70842825 -0.18451025 25 1 C25 1.99 25 2.98 25 4 C29.95 3.67 34.9 3.34 40 3 C38 5 38 5 35.56982422 5.22705078 C34.5748291 5.21657715 33.57983398 5.20610352 32.5546875 5.1953125 C31.47832031 5.18886719 30.40195313 5.18242188 29.29296875 5.17578125 C28.16503906 5.15902344 27.03710938 5.14226562 25.875 5.125 C24.73933594 5.11597656 23.60367188 5.10695313 22.43359375 5.09765625 C19.62218701 5.07403098 16.81119702 5.04109013 14 5 C14.66 4.67 15.32 4.34 16 4 C16 3.34 16 2.68 16 2 C10.72 1.67 5.44 1.34 0 1 C0 0.67 0 0.34 0 0 Z " fill="#B9BED3" transform="translate(80,75)"/>
<path d="M0 0 C0 0.33 0 0.66 0 1 C-1.423125 1.12375 -1.423125 1.12375 -2.875 1.25 C-9.46448334 2.21041053 -15.60506856 4.78167893 -20.9375 8.75 C-24 11 -24 11 -27 11 C-27 11.66 -27 12.32 -27 13 C-30.67410785 14.17571451 -34.16929183 14.07366746 -38 14 C-38 13.67 -38 13.34 -38 13 C-37.09507813 12.85304688 -37.09507813 12.85304688 -36.171875 12.703125 C-31.19430884 11.77183843 -28.35450549 11.02540659 -25 7 C-24.34 7 -23.68 7 -23 7 C-22.67 6.34 -22.34 5.68 -22 5 C-15.29306877 0.12223183 -7.98508271 -0.33271178 0 0 Z " fill="#A5AAC1" transform="translate(145,62)"/>
<path d="M0 0 C0.33 0.66 0.66 1.32 1 2 C1.82019119 1.97454605 1.82019119 1.97454605 2.6569519 1.94857788 C8.33398265 1.77439785 14.01128633 1.61445988 19.68896484 1.46289062 C21.80951217 1.40439277 23.92996162 1.34223016 26.05029297 1.27636719 C29.09324324 1.18247531 32.13629898 1.10165065 35.1796875 1.0234375 C36.13181122 0.99124115 37.08393494 0.9590448 38.06491089 0.9258728 C39.38605392 0.89561508 39.38605392 0.89561508 40.73388672 0.86474609 C41.51110077 0.84253998 42.28831482 0.82033386 43.08908081 0.79745483 C45 1 45 1 47 3 C45.35 3 43.7 3 42 3 C41.67 3.66 41.34 4.32 41 5 C27.47 4.34 13.94 3.68 0 3 C0 2.01 0 1.02 0 0 Z " fill="#A1A4AD" transform="translate(66,103)"/>
<path d="M0 0 C5.61 0 11.22 0 17 0 C17.33 0.66 17.66 1.32 18 2 C17.67 2.66 17.34 3.32 17 4 C11.06 4.33 5.12 4.66 -1 5 C-0.67 3.35 -0.34 1.7 0 0 Z " fill="#73747F" transform="translate(145,6)"/>
<path d="M0 0 C0.33 0.99 0.66 1.98 1 3 C-0.40533184 4.34527493 -1.82472452 5.6758731 -3.25 7 C-4.43335938 8.11375 -4.43335938 8.11375 -5.640625 9.25 C-8 11 -8 11 -12 11 C-11.67 9.02 -11.34 7.04 -11 5 C-12.32 4.34 -13.64 3.68 -15 3 C-14.195625 3.061875 -13.39125 3.12375 -12.5625 3.1875 C-8.02351267 2.94860593 -4.23098399 1.57956736 0 0 Z " fill="#888D9F" transform="translate(211,63)"/>
<path d="M0 0 C3.28351318 0.96300917 4.59787621 2.7155988 6.2109375 5.6484375 C4.5609375 5.9784375 2.9109375 6.3084375 1.2109375 6.6484375 C0.8809375 5.3284375 0.5509375 4.0084375 0.2109375 2.6484375 C-1.4390625 2.3184375 -3.0890625 1.9884375 -4.7890625 1.6484375 C-4.4590625 3.6284375 -4.1290625 5.6084375 -3.7890625 7.6484375 C-5.1090625 7.9784375 -6.4290625 8.3084375 -7.7890625 8.6484375 C-7.7890625 7.6584375 -7.7890625 6.6684375 -7.7890625 5.6484375 C-10.15747562 7.22737958 -11.85651478 8.6238637 -13.7890625 10.6484375 C-14.4490625 10.3184375 -15.1090625 9.9884375 -15.7890625 9.6484375 C-11.34063852 3.38585179 -8.08714367 -0.72162205 0 0 Z " fill="#494B52" transform="translate(195.7890625,47.3515625)"/>
<path d="M0 0 C0.66 0.66 1.32 1.32 2 2 C3.31747324 2.69748583 4.64914193 3.36959957 6 4 C5.01 4.33 4.02 4.66 3 5 C4.32 5.66 5.64 6.32 7 7 C1.36718401 7.2396943 -3.54538831 6.38529821 -9 5 C-7.2421875 1.1640625 -7.2421875 1.1640625 -5.0625 -0.3125 C-3 -1 -3 -1 0 0 Z " fill="#797A88" transform="translate(46,91)"/>
<path d="M0 0 C0.66 0 1.32 0 2 0 C1.65986985 5.44208234 -1.70296528 8.93668198 -5 13 C-6.32 12.67 -7.64 12.34 -9 12 C-7.60090738 7.54834166 -5.39864635 5.14374788 -2 2 C-1.34 1.34 -0.68 0.68 0 0 Z " fill="#4B4E58" transform="translate(118,46)"/>
<path d="M0 0 C-0.33 0.66 -0.66 1.32 -1 2 C-4.3 2 -7.6 2 -11 2 C-11 2.66 -11 3.32 -11 4 C-11.66 4 -12.32 4 -13 4 C-13 4.66 -13 5.32 -13 6 C-11.68 6.33 -10.36 6.66 -9 7 C-10.65 7.33 -12.3 7.66 -14 8 C-14 5.36 -14 2.72 -14 0 C-15.32 -0.33 -16.64 -0.66 -18 -1 C-4.36956522 -2.91304348 -4.36956522 -2.91304348 0 0 Z " fill="#71768C" transform="translate(186,78)"/>
<path d="M0 0 C14.33299616 -0.58992515 14.33299616 -0.58992515 21 3 C21.703125 5.109375 21.703125 5.109375 22 7 C21.01 7.33 20.02 7.66 19 8 C18.67 6.68 18.34 5.36 18 4 C16.35 4 14.7 4 13 4 C13 3.34 13 2.68 13 2 C8.71 2 4.42 2 0 2 C0 1.34 0 0.68 0 0 Z " fill="#C4C8DA" transform="translate(149,66)"/>
<path d="M0 0 C5.61 0 11.22 0 17 0 C17.33 0.99 17.66 1.98 18 3 C15.22837566 4.38581217 13.19973744 3.9393428 10.125 3.6875 C9.07570312 3.60886719 8.02640625 3.53023437 6.9453125 3.44921875 C4.1881133 3.02869102 2.37883829 2.40776662 0 1 C0 0.67 0 0.34 0 0 Z " fill="#686A74" transform="translate(145,157)"/>
<path d="M0 0 C-0.99 1.485 -0.99 1.485 -2 3 C-2.45915507 5.96842658 -2.45915507 5.96842658 -2.625 9.1875 C-2.69976562 10.27417969 -2.77453125 11.36085938 -2.8515625 12.48046875 C-2.90054688 13.31191406 -2.94953125 14.14335938 -3 15 C-3.66 15 -4.32 15 -5 15 C-5 10.71 -5 6.42 -5 2 C-5.99 2.165 -6.98 2.33 -8 2.5 C-12.02732942 3.08474517 -15.93474623 3.07132024 -20 3 C-20 2.67 -20 2.34 -20 2 C-6.3667426 -0.29612756 -6.3667426 -0.29612756 0 0 Z " fill="#9396A6" transform="translate(64,67)"/>
<path d="M0 0 C2 1.375 2 1.375 4 3 C4 3.66 4 4.32 4 5 C5.80597656 4.98259766 5.80597656 4.98259766 7.6484375 4.96484375 C9.22395679 4.95546566 10.79947775 4.94636548 12.375 4.9375 C13.1690625 4.92912109 13.963125 4.92074219 14.78125 4.91210938 C20.7734375 4.88671875 20.7734375 4.88671875 23 6 C23 7.65 23 9.3 23 11 C23.66 11.33 24.32 11.66 25 12 C23.35 12 21.7 12 20 12 C19.87625 11.360625 19.7525 10.72125 19.625 10.0625 C19.41875 9.381875 19.2125 8.70125 19 8 C16.08289006 6.54144503 13.30692468 6.68750029 10.0625 6.5 C3.33041302 6.11013767 3.33041302 6.11013767 0 5 C0 3.35 0 1.7 0 0 Z " fill="#B7BBCC" transform="translate(173,64)"/>
<path d="M0 0 C0.66 1.32 1.32 2.64 2 4 C-0.76452033 5.38226016 -3.0461363 5.09525387 -6.125 5.0625 C-7.22070312 5.05347656 -8.31640625 5.04445313 -9.4453125 5.03515625 C-10.70988281 5.01775391 -10.70988281 5.01775391 -12 5 C-9.234375 1.09375 -9.234375 1.09375 -7.125 0.25 C-4.73068929 -0.03168361 -2.40866079 -0.06690724 0 0 Z " fill="#EDF4FD" transform="translate(136,71)"/>
<path d="M0 0 C1.65 0 3.3 0 5 0 C6.65 2.97 8.3 5.94 10 9 C8.68 9.33 7.36 9.66 6 10 C4.99421411 8.71283353 3.99553202 7.42011342 3 6.125 C2.443125 5.40570313 1.88625 4.68640625 1.3125 3.9453125 C0 2 0 2 0 0 Z " fill="#555762" transform="translate(108,107)"/>
<path d="M0 0 C11.88 0 23.76 0 36 0 C35.67 0.66 35.34 1.32 35 2 C33.9330188 1.98428955 33.9330188 1.98428955 32.84448242 1.96826172 C29.62552414 1.92671999 26.40662224 1.90067961 23.1875 1.875 C21.50817383 1.84986328 21.50817383 1.84986328 19.79492188 1.82421875 C18.18520508 1.81455078 18.18520508 1.81455078 16.54296875 1.8046875 C15.55321045 1.79421387 14.56345215 1.78374023 13.54370117 1.77294922 C10.7556048 1.81732596 10.7556048 1.81732596 8 4 C8 3.01 8 2.02 8 1 C5.69 1 3.38 1 1 1 C0.67 1.66 0.34 2.32 0 3 C0 2.01 0 1.02 0 0 Z " fill="#6D7281" transform="translate(66,61)"/>
<path d="M0 0 C0.99 0 1.98 0 3 0 C5.04296875 2.625 5.04296875 2.625 7.1875 6 C7.55552734 6.57234375 7.92355469 7.1446875 8.30273438 7.734375 C9.21125071 9.15024462 10.10686477 10.57437797 11 12 C10.01 12.495 10.01 12.495 9 13 C5.63050557 11.31525278 4.12055614 10.1808342 2 7 C1.875 4.3125 1.875 4.3125 2 2 C1.34 2 0.68 2 0 2 C0 1.34 0 0.68 0 0 Z " fill="#545661" transform="translate(120,122)"/>
<path d="M0 0 C0.88751953 0.2165625 0.88751953 0.2165625 1.79296875 0.4375 C5.92529941 1.40822694 9.7229762 2.27593702 14 2 C14 3.32 14 4.64 14 6 C7.92671312 6.50610724 4.22771463 5.04157942 -1 2 C-0.67 1.34 -0.34 0.68 0 0 Z " fill="#C0C5D9" transform="translate(149,73)"/>
<path d="M0 0 C1.98 0 3.96 0 6 0 C6.625 2.3125 6.625 2.3125 7 5 C6.01 6.485 6.01 6.485 5 8 C1.375 8.1875 1.375 8.1875 -2 8 C-2 7.34 -2 6.68 -2 6 C-1.34 5.67 -0.68 5.34 0 5 C0 3.35 0 1.7 0 0 Z " fill="#64687B" transform="translate(67,62)"/>
<path d="M0 0 C0.66 0 1.32 0 2 0 C1.34 1.32 0.68 2.64 0 4 C-2.24940295 4.08119503 -4.49964871 4.13927819 -6.75 4.1875 C-8.00296875 4.22230469 -9.2559375 4.25710937 -10.546875 4.29296875 C-14.14109357 3.98802939 -15.44725126 3.45605371 -18 1 C-16.17662109 1.01740234 -16.17662109 1.01740234 -14.31640625 1.03515625 C-12.73177236 1.04453278 -11.14713682 1.05363313 -9.5625 1.0625 C-8.76005859 1.07087891 -7.95761719 1.07925781 -7.13085938 1.08789062 C-5.08704779 1.0965143 -3.04316098 1.0522815 -1 1 C-0.67 0.67 -0.34 0.34 0 0 Z " fill="#61667A" transform="translate(190,90)"/>
<path d="M0 0 C3.96 0 7.92 0 12 0 C12.33 0.99 12.66 1.98 13 3 C8.38 3 3.76 3 -1 3 C-0.67 2.01 -0.34 1.02 0 0 Z " fill="#EFF5FE" transform="translate(78,76)"/>
<path d="M0 0 C2.61666628 2.61666628 3.71634007 5.64348017 5.125 9 C5.54072266 9.96292969 5.54072266 9.96292969 5.96484375 10.9453125 C8 15.73745382 8 15.73745382 8 18 C7.01 18 6.02 18 5 18 C4.89042969 17.36191406 4.78085938 16.72382812 4.66796875 16.06640625 C4.50941406 15.24011719 4.35085937 14.41382813 4.1875 13.5625 C3.96126953 12.32693359 3.96126953 12.32693359 3.73046875 11.06640625 C3.36888672 10.04353516 3.36888672 10.04353516 3 9 C2.01 8.67 1.02 8.34 0 8 C0 5.36 0 2.72 0 0 Z " fill="#B2B6C3" transform="translate(153,41)"/>
<path d="M0 0 C0.99 0 1.98 0 3 0 C2.41196203 3.02419525 1.77321882 6.01758453 1 9 C-0.32 9.33 -1.64 9.66 -3 10 C-3.33 9.34 -3.66 8.68 -4 8 C-1.48571429 1.48571429 -1.48571429 1.48571429 0 0 Z " fill="#5C5D6A" transform="translate(124,35)"/>
<path d="M0 0 C0.66 0 1.32 0 2 0 C2 0.66 2 1.32 2 2 C2.928125 2.12375 2.928125 2.12375 3.875 2.25 C6 3 6 3 7.0625 4.9375 C7.371875 5.618125 7.68125 6.29875 8 7 C10.91765 8.9451 12.62537285 9.45276317 16 10 C16 10.33 16 10.66 16 11 C12.91387083 11.43314094 10.97993013 11.69047161 8 11 C4.27008136 7.95791806 1.52416059 4.57248178 0 0 Z " fill="#91929B" transform="translate(138,150)"/>
<path d="M0 0 C3 0 3 0 4.6875 1.3125 C6 3 6 3 6 6 C5.34 6 4.68 6 4 6 C4 6.66 4 7.32 4 8 C4.66 8 5.32 8 6 8 C5.67 8.99 5.34 9.98 5 11 C2.69 8.03 0.38 5.06 -2 2 C-1.34 1.34 -0.68 0.68 0 0 Z " fill="#6B6E76" transform="translate(116,116)"/>
<path d="M0 0 C1.8871875 0.0309375 1.8871875 0.0309375 3.8125 0.0625 C2.8225 0.5575 2.8225 0.5575 1.8125 1.0625 C1.8125 1.7225 1.8125 2.3825 1.8125 3.0625 C3.1325 3.3925 4.4525 3.7225 5.8125 4.0625 C1.5225 4.0625 -2.7675 4.0625 -7.1875 4.0625 C-7.1875 3.0725 -7.1875 2.0825 -7.1875 1.0625 C-4.43671116 0.14557039 -2.82801087 -0.04636083 0 0 Z " fill="#E0E5F3" transform="translate(156.1875,61.9375)"/>
<path d="M0 0 C3.87755812 3.47059416 5.29586018 7.84115862 7.25 12.5625 C7.81460938 13.87637695 7.81460938 13.87637695 8.390625 15.21679688 C8.74125 16.05404297 9.091875 16.89128906 9.453125 17.75390625 C9.77442383 18.52033447 10.09572266 19.2867627 10.42675781 20.07641602 C11 22 11 22 10 24 C8.53176379 21.06352757 7.06425123 18.1267418 5.6015625 15.1875 C4.65510493 13.3038186 3.69646288 11.42603891 2.7109375 9.5625 C0.85045658 6.02892473 0 4.07923176 0 0 Z " fill="#46495B" transform="translate(141,35)"/>
<path d="M0 0 C0.66 0.33 1.32 0.66 2 1 C1.67 1.66 1.34 2.32 1 3 C0.40832031 2.86980469 -0.18335938 2.73960938 -0.79296875 2.60546875 C-3.26939685 2.17320479 -5.48556226 1.88107389 -8 2 C-10.70848923 4.37505218 -10.70848923 4.37505218 -13 7 C-16.3125 7.3125 -16.3125 7.3125 -19 7 C-12.53671203 1.64470425 -8.48681905 -0.86702277 0 0 Z " fill="#B7BBD1" transform="translate(137,67)"/>
<path d="M0 0 C5.61 0.33 11.22 0.66 17 1 C17 1.33 17 1.66 17 2 C14.03 2 11.06 2 8 2 C8 2.66 8 3.32 8 4 C8.99 4.33 9.98 4.66 11 5 C9.02 5 7.04 5 5 5 C5 4.34 5 3.68 5 3 C3.68 3 2.36 3 1 3 C0.67 2.01 0.34 1.02 0 0 Z " fill="#D2D5DC" transform="translate(161,59)"/>
<path d="M0 0 C1 3 1 3 0.109375 5.04296875 C-0.33921875 5.75066406 -0.7878125 6.45835938 -1.25 7.1875 C-1.68828125 7.90292969 -2.1265625 8.61835938 -2.578125 9.35546875 C-3.28195313 10.16951172 -3.28195313 10.16951172 -4 11 C-4.99 11 -5.98 11 -7 11 C-7.99 11.495 -7.99 11.495 -9 12 C-7.11833565 7.72349011 -4.28426692 2.14213346 0 0 Z " fill="#6D6E79" transform="translate(142,12)"/>
<path d="M0 0 C1.65 0 3.3 0 5 0 C3.515 1.485 3.515 1.485 2 3 C3.98 3.66 5.96 4.32 8 5 C7.67 5.99 7.34 6.98 7 8 C7 7.34 7 6.68 7 6 C0.07 5.505 0.07 5.505 -7 5 C-7 4.67 -7 4.34 -7 4 C-5.35 4 -3.7 4 -2 4 C-1.34 2.68 -0.68 1.36 0 0 Z " fill="#8D8E9C" transform="translate(60,94)"/>
<path d="M0 0 C0.33 0 0.66 0 1 0 C1 1.65 1 3.3 1 5 C1.99 5.33 2.98 5.66 4 6 C2.68 6.33 1.36 6.66 0 7 C0 7.66 0 8.32 0 9 C3.96 9 7.92 9 12 9 C12 9.33 12 9.66 12 10 C7.38 10 2.76 10 -2 10 C-2 8.68 -2 7.36 -2 6 C-2.66 5.34 -3.32 4.68 -4 4 C-2.68 4 -1.36 4 0 4 C0 2.68 0 1.36 0 0 Z " fill="#DBDFF0" transform="translate(172,64)"/>
<path d="M0 0 C0.33 0.99 0.66 1.98 1 3 C-1.97 5.475 -1.97 5.475 -5 8 C-5.99 7.01 -6.98 6.02 -8 5 C-7.67 4.01 -7.34 3.02 -7 2 C-3.4375 0.8125 -3.4375 0.8125 0 0 Z " fill="#9296A5" transform="translate(211,63)"/>
<path d="M0 0 C0 0.33 0 0.66 0 1 C-0.99 1.103125 -1.98 1.20625 -3 1.3125 C-6.64961543 1.80849236 -9.75101673 2.98721313 -13.10546875 4.4765625 C-15.40639966 5.11228362 -16.76348212 4.74385295 -19 4 C-14.19680462 -0.80319538 -6.36918685 -0.26538279 0 0 Z " fill="#9A9FB4" transform="translate(145,62)"/>
<path d="M0 0 C0.99 0.33 1.98 0.66 3 1 C3.33 3.31 3.66 5.62 4 8 C2.125 8.625 2.125 8.625 0 9 C-0.66 8.34 -1.32 7.68 -2 7 C-1.34 4.69 -0.68 2.38 0 0 Z " fill="#7B8194" transform="translate(151,142)"/>
<path d="M0 0 C1.65 0 3.3 0 5 0 C3.33248852 3.94139078 0.77289351 6.7892812 -2 10 C-4 9 -4 9 -5 6 C-1.25 4 -1.25 4 1 4 C0.67 2.68 0.34 1.36 0 0 Z " fill="#7C808E" transform="translate(206,103)"/>
<path d="M0 0 C5.37305699 -0.35233161 5.37305699 -0.35233161 8 0 C10 2 10 2 11 4 C10.67 4.66 10.34 5.32 10 6 C9.34 5.67 8.68 5.34 8 5 C8 4.34 8 3.68 8 3 C5.03 3 2.06 3 -1 3 C-0.67 2.01 -0.34 1.02 0 0 Z " fill="#464857" transform="translate(171,103)"/>
<path d="M0 0 C0.66 0 1.32 0 2 0 C2 0.66 2 1.32 2 2 C2.598125 1.79375 3.19625 1.5875 3.8125 1.375 C6 1 6 1 9 3 C10.32567199 3.68177416 11.65753688 4.35191436 13 5 C13.33 4.34 13.66 3.68 14 3 C14.99 4.32 15.98 5.64 17 7 C10.38914524 6.51030705 5.05022986 4.66557258 -1 2 C-0.67 1.34 -0.34 0.68 0 0 Z " fill="#9699A2" transform="translate(20,88)"/>
<path d="M0 0 C1.32 0.33 2.64 0.66 4 1 C4 2.32 4 3.64 4 5 C-1.12919186 7.10428384 -5.5610835 7.21755666 -11 7 C-11 6.67 -11 6.34 -11 6 C-5.06 5.505 -5.06 5.505 1 5 C0.67 3.35 0.34 1.7 0 0 Z " fill="#B5BAD0" transform="translate(141,71)"/>
<path d="M0 0 C3.057952 1.73559438 5.63379989 3.38472619 8 6 C7.67 6.99 7.34 7.98 7 9 C3.7 8.34 0.4 7.68 -3 7 C-3 6.67 -3 6.34 -3 6 C-0.69 6 1.62 6 4 6 C3.34 5.38125 2.68 4.7625 2 4.125 C0 2 0 2 0 0 Z " fill="#B4B9C6" transform="translate(204,95)"/>
<path d="M0 0 C4.62 0 9.24 0 14 0 C13.01 1.485 13.01 1.485 12 3 C9.3984375 3.29296875 9.3984375 3.29296875 6.375 3.1875 C4.87066406 3.14689453 4.87066406 3.14689453 3.3359375 3.10546875 C2.56507813 3.07066406 1.79421875 3.03585938 1 3 C0.67 2.01 0.34 1.02 0 0 Z " fill="#9DA2B5" transform="translate(177,80)"/>
<path d="M0 0 C2.97 0 5.94 0 9 0 C8.34 1.32 7.68 2.64 7 4 C4.69 3.67 2.38 3.34 0 3 C0 2.01 0 1.02 0 0 Z " fill="#5F6475" transform="translate(163,102)"/>
<path d="M0 0 C0.66 0.33 1.32 0.66 2 1 C1.34 1.66 0.68 2.32 0 3 C3.63 3.33 7.26 3.66 11 4 C11 4.33 11 4.66 11 5 C5.39 5 -0.22 5 -6 5 C-4.00856305 2.01284458 -3.23356015 1.21258505 0 0 Z " fill="#D3D8EC" transform="translate(125,72)"/>
<path d="M0 0 C0.66 0 1.32 0 2 0 C2.33 0.66 2.66 1.32 3 2 C6.27555608 2.47001033 6.27555608 2.47001033 10.0625 2.625 C11.99802734 2.73714844 11.99802734 2.73714844 13.97265625 2.8515625 C15.47119141 2.92503906 15.47119141 2.92503906 17 3 C17 3.33 17 3.66 17 4 C10.73 4 4.46 4 -2 4 C-2 3.34 -2 2.68 -2 2 C-1.34 2 -0.68 2 0 2 C0 1.34 0 0.68 0 0 Z " fill="#808599" transform="translate(175,80)"/>
<path d="M0 0 C0 0.99 0 1.98 0 3 C-0.99 3 -1.98 3 -3 3 C-3 3.66 -3 4.32 -3 5 C-3.99 4.67 -4.98 4.34 -6 4 C-6 3.34 -6 2.68 -6 2 C-7.98 2.33 -9.96 2.66 -12 3 C-7.87960164 0.25306776 -4.92304458 0 0 0 Z " fill="#9295A2" transform="translate(44,70)"/>
<path d="M0 0 C1.6286551 0.42369072 3.25287378 0.8644623 4.875 1.3125 C5.77992188 1.55613281 6.68484375 1.79976563 7.6171875 2.05078125 C10 3 10 3 12 6 C9.525 5.01 9.525 5.01 7 4 C7 4.66 7 5.32 7 6 C6.01 5.67 5.02 5.34 4 5 C3.67 4.34 3.34 3.68 3 3 C2.01 2.67 1.02 2.34 0 2 C0 1.34 0 0.68 0 0 Z " fill="#AEB2C1" transform="translate(192,89)"/>
<path d="M0 0 C2.31 0 4.62 0 7 0 C7.12375 0.61875 7.2475 1.2375 7.375 1.875 C7.87197356 4.19120832 7.87197356 4.19120832 10 6 C7.69 5.67 5.38 5.34 3 5 C2.67 4.01 2.34 3.02 2 2 C1.34 1.34 0.68 0.68 0 0 Z " fill="#5D5F70" transform="translate(31,89)"/>
<path d="M0 0 C0.66 0.33 1.32 0.66 2 1 C2 2.98 2 4.96 2 7 C0.02 6.34 -1.96 5.68 -4 5 C-4 4.01 -4 3.02 -4 2 C-2.125 0.9375 -2.125 0.9375 0 0 Z " fill="#B2B4B9" transform="translate(12,80)"/>
<path d="M0 0 C1.65 0 3.3 0 5 0 C5 1.32 5 2.64 5 4 C2.36 4 -0.28 4 -3 4 C-3 3.34 -3 2.68 -3 2 C-2.01 2 -1.02 2 0 2 C0 1.34 0 0.68 0 0 Z " fill="#95979D" transform="translate(195,78)"/>
<path d="M0 0 C3.38115651 -0.29036649 6.62919149 -0.44908891 10 0 C12.625 2.5 12.625 2.5 14 5 C12.35 5.33 10.7 5.66 9 6 C8.67 4.68 8.34 3.36 8 2 C5.36 1.67 2.72 1.34 0 1 C0 0.67 0 0.34 0 0 Z " fill="#8C8C94" transform="translate(188,48)"/>
<path d="M0 0 C2.52394612 3.12488567 4.39701907 6.31314387 6 10 C5.67 10.66 5.34 11.32 5 12 C4.01 11.34 3.02 10.68 2 10 C1.8125 7.375 1.8125 7.375 2 5 C1.34 5 0.68 5 0 5 C0 3.35 0 1.7 0 0 Z " fill="#B4B8C2" transform="translate(152,138)"/>
<path d="M0 0 C-0.66 1.32 -1.32 2.64 -2 4 C-3.98 4 -5.96 4 -8 4 C-8 3.34 -8 2.68 -8 2 C-4.77208445 -0.1519437 -3.71599191 -0.20086443 0 0 Z " fill="#666980" transform="translate(172,78)"/>
<path d="M0 0 C0.66 0.33 1.32 0.66 2 1 C1.45276317 4.37462715 0.9451 6.08235 -1 9 C-1.66 9 -2.32 9 -3 9 C-2.5020163 5.26512223 -2.12508244 3.18762365 0 0 Z " fill="#444653" transform="translate(70,96)"/>
<path d="M0 0 C2.64 0 5.28 0 8 0 C8.33 0.99 8.66 1.98 9 3 C5.7 2.67 2.4 2.34 -1 2 C-0.67 1.34 -0.34 0.68 0 0 Z " fill="#545664" transform="translate(49,95)"/>
<path d="M0 0 C0.33 0.99 0.66 1.98 1 3 C-0.8125 5.6875 -0.8125 5.6875 -3 8 C-3.66 8 -4.32 8 -5 8 C-4.64950425 4.75791433 -4.43778819 3.38472296 -1.9375 1.1875 C-1.298125 0.795625 -0.65875 0.40375 0 0 Z " fill="#4F535E" transform="translate(136,21)"/>
<path d="M0 0 C4.455 0.99 4.455 0.99 9 2 C8.01 2.33 7.02 2.66 6 3 C5.67 3.66 5.34 4.32 5 5 C3.02 4.01 1.04 3.02 -1 2 C-0.67 1.34 -0.34 0.68 0 0 Z " fill="#B4B9CF" transform="translate(149,73)"/>
<path d="M0 0 C2 1.375 2 1.375 4 3 C4 3.66 4 4.32 4 5 C6.97 5 9.94 5 13 5 C13 5.33 13 5.66 13 6 C11.39592672 6.02708567 9.7917215 6.04643483 8.1875 6.0625 C6.84751953 6.07990234 6.84751953 6.07990234 5.48046875 6.09765625 C3 6 3 6 0 5 C0 3.35 0 1.7 0 0 Z " fill="#C2C4D8" transform="translate(173,64)"/>
<path d="M0 0 C1.65 0 3.3 0 5 0 C4.34 1.98 3.68 3.96 3 6 C3.66 6.33 4.32 6.66 5 7 C3.35 7 1.7 7 0 7 C0.66 5.02 1.32 3.04 2 1 C1.34 0.67 0.68 0.34 0 0 Z " fill="#9699AF" transform="translate(196,68)"/>
<path d="M0 0 C1.5625 1.25 1.5625 1.25 3 3 C2.6875 5.1875 2.6875 5.1875 2 7 C0.68 7 -0.64 7 -2 7 C-1.125 1.125 -1.125 1.125 0 0 Z " fill="#737886" transform="translate(109,56)"/>
<path d="M0 0 C-0.33 1.65 -0.66 3.3 -1 5 C-2.65 5.33 -4.3 5.66 -6 6 C-6 5.01 -6 4.02 -6 3 C-2.66666667 0 -2.66666667 0 0 0 Z " fill="#555662" transform="translate(120,46)"/>
<path d="M0 0 C1.98 0.495 1.98 0.495 4 1 C3.67 1.66 3.34 2.32 3 3 C4.32 3.33 5.64 3.66 7 4 C4.36 4 1.72 4 -1 4 C-0.67 2.68 -0.34 1.36 0 0 Z " fill="#C6C9E0" transform="translate(74,76)"/>
<path d="M0 0 C0.33 0.66 0.66 1.32 1 2 C0.06421005 4.35981813 -0.93347808 6.69631264 -2 9 C-3.125 7.25 -3.125 7.25 -4 5 C-3.07451225 2.30066074 -2.57626463 1.28813232 0 0 Z " fill="#A8ABB6" transform="translate(154,121)"/>
<path d="M0 0 C0.99 0.33 1.98 0.66 3 1 C2.67 2.32 2.34 3.64 2 5 C0.35 4.67 -1.3 4.34 -3 4 C-2.67 3.01 -2.34 2.02 -2 1 C-1.34 0.67 -0.68 0.34 0 0 Z " fill="#606676" transform="translate(29,74)"/>
<path d="M0 0 C0.99 0.33 1.98 0.66 3 1 C3.6875 3.0625 3.6875 3.0625 4 5 C2.02 5.99 0.04 6.98 -2 8 C-2 7.34 -2 6.68 -2 6 C-1.34 5.67 -0.68 5.34 0 5 C0 3.35 0 1.7 0 0 Z " fill="#464A57" transform="translate(67,62)"/>
<path d="M0 0 C0.66 1.32 1.32 2.64 2 4 C-0.22189824 6.22189824 -2.08482708 6.92598892 -5 8 C-3.62845496 5.04590299 -2.01136276 2.55991624 0 0 Z " fill="#85858D" transform="translate(120,41)"/>
<path d="M0 0 C0 0.33 0 0.66 0 1 C-0.969375 1.12375 -1.93875 1.2475 -2.9375 1.375 C-4.4534375 1.684375 -4.4534375 1.684375 -6 2 C-6.33 2.66 -6.66 3.32 -7 4 C-7.99 4 -8.98 4 -10 4 C-10 3.01 -10 2.02 -10 1 C-6.78548731 -0.60725635 -3.56387464 -0.05748185 0 0 Z " fill="#ADB1C7" transform="translate(80,75)"/>
<path d="M0 0 C3.96 0 7.92 0 12 0 C12 0.33 12 0.66 12 1 C8.7 1 5.4 1 2 1 C2 1.66 2 2.32 2 3 C1.01 3 0.02 3 -1 3 C-0.67 2.01 -0.34 1.02 0 0 Z " fill="#DCE0F3" transform="translate(78,76)"/>
<path d="M0 0 C3.3 0 6.6 0 10 0 C10 0.99 10 1.98 10 3 C9.01 3.495 9.01 3.495 8 4 C8 3.01 8 2.02 8 1 C5.69 1 3.38 1 1 1 C0.67 1.66 0.34 2.32 0 3 C0 2.01 0 1.02 0 0 Z " fill="#898C99" transform="translate(66,61)"/>
</svg>
