<?xml version="1.0" encoding="UTF-8"?>
<svg version="1.1" xmlns="http://www.w3.org/2000/svg" width="500" height="500">
<path d="M0 0 C0.99 0.33 1.98 0.66 3 1 C3.33 5.62 3.66 10.24 4 15 C5.98 15.495 5.98 15.495 8 16 C8 16.66 8 17.32 8 18 C8.598125 18.2475 9.19625 18.495 9.8125 18.75 C12.38438757 20.21965004 13.53194377 21.43090159 15 24 C15.1875 26.75 15.1875 26.75 15 29 C15.66 29 16.32 29 17 29 C19.82735876 36.82572515 20.32711624 44.30986662 20.375 52.5625 C20.39530273 53.99734741 20.39530273 53.99734741 20.41601562 55.46118164 C20.36258985 64.13915917 19.00522723 71.76180148 14.43237305 79.20507812 C11.59796268 84.20438601 11.26742756 88.401462 11.29296875 94.06640625 C11.27784744 94.98590561 11.26272614 95.90540497 11.24714661 96.85276794 C11.20455645 99.75626703 11.19545952 102.6587208 11.1875 105.5625 C11.16433336 107.54494911 11.13896355 109.52737377 11.11132812 111.50976562 C11.04875936 116.33993499 11.01620027 121.16946162 11 126 C11.61488281 125.98839844 12.22976563 125.97679687 12.86328125 125.96484375 C13.67152344 125.95582031 14.47976563 125.94679688 15.3125 125.9375 C16.51326172 125.92009766 16.51326172 125.92009766 17.73828125 125.90234375 C20 126 20 126 23 127 C22.82082031 126.23816406 22.64164062 125.47632813 22.45703125 124.69140625 C20.98442349 117.54256493 20.87570162 112.65173204 24 106 C24.66 106.33 25.32 106.66 26 107 C27.37720457 113.70638746 26.99120602 120.28182584 26 127 C30.95 126.505 30.95 126.505 36 126 C35.79375 125.195625 35.5875 124.39125 35.375 123.5625 C34.89918072 119.04221683 35.83064128 115.34885474 37 111 C37.99 111 38.98 111 40 111 C40.1958009 112.91583647 40.38132214 114.83272539 40.5625 116.75 C40.66691406 117.81734375 40.77132813 118.8846875 40.87890625 119.984375 C40.98560074 122.64141204 40.81930395 124.49960572 40 127 C40.86238281 126.98839844 41.72476562 126.97679687 42.61328125 126.96484375 C49.49189473 126.91399867 56.31887672 127.02385744 63.1875 127.4375 C71.07663207 127.90251473 78.95925772 128.13947402 86.85958862 128.32424927 C106.12618093 128.78107438 125.37357205 129.63083791 144.625 130.5 C146.10335253 130.56647462 147.5817054 130.63294197 149.06005859 130.69940186 C175.37609741 131.88477669 175.37609741 131.88477669 186.73046875 132.5625 C197.25811171 133.1834213 207.79779811 133.34460228 218.34008789 133.55224609 C229.25900584 133.77185345 240.10837462 134.18056737 251 135 C251 141.6 251 148.2 251 155 C243.52656823 155.83302033 236.11610952 156.24520022 228.6015625 156.46484375 C226.17773087 156.54220803 223.75390288 156.61968641 221.33007812 156.69726562 C220.07267822 156.73634033 218.81527832 156.77541504 217.51977539 156.81567383 C199.83698124 157.36878072 182.15996536 157.92961906 164.5 159 C150.33922789 159.85197486 136.17517468 160.49778736 122 161.0625 C120.40091797 161.12629349 120.40091797 161.12629349 118.76953125 161.19137573 C103.22848648 161.80554632 87.68635134 162.32017098 72.13671875 162.65844727 C64.1497696 162.8316644 64.1497696 162.8316644 56.1953125 163.5234375 C48.30109864 164.41527653 40.30706223 164.1037237 32.375 164.0625 C30.68619924 164.05747477 28.99739704 164.05291368 27.30859375 164.04882812 C23.20569289 164.03790399 19.10286273 164.0206958 15 164 C15 166.64 15 169.28 15 172 C15.66 172.33 16.32 172.66 17 173 C16.18670731 173.38952347 15.37341461 173.77904694 14.53547668 174.18037415 C11.80324254 175.73058958 11.80324254 175.73058958 11.39872742 178.33488464 C11.40983047 179.25199722 11.42093353 180.1691098 11.43237305 181.11401367 C11.4327507 182.15486618 11.43312836 183.19571869 11.43351746 184.26811218 C11.45932388 185.39006485 11.48513031 186.51201752 11.51171875 187.66796875 C11.51879349 188.81791824 11.52586823 189.96786774 11.53315735 191.15266418 C11.56118338 194.8315999 11.62394152 198.509023 11.6875 202.1875 C11.71257205 204.67901451 11.73538711 207.17055283 11.75585938 209.66210938 C11.81103711 215.77525714 11.89474657 221.88752053 12 228 C12.82387207 228.10546143 13.64774414 228.21092285 14.49658203 228.31958008 C30.56809974 230.37908551 46.63723769 232.44861604 62.68603516 234.6796875 C64.91901899 234.98879014 67.15274787 235.29187583 69.38671875 235.59375 C70.66160156 235.7690625 71.93648438 235.944375 73.25 236.125 C74.32765625 236.27195312 75.4053125 236.41890625 76.515625 236.5703125 C79 237 79 237 81 238 C81 242.95 81 247.9 81 253 C73.63982181 253.57853601 66.27900045 254.14777943 58.91748047 254.70898438 C56.42119686 254.90053646 53.92509566 255.09448315 51.42919922 255.29101562 C37.26193734 256.40484769 23.21494445 257.33895546 9 257 C8.67 254.69 8.34 252.38 8 250 C6.72553612 252.54892776 6.82427016 254.45364621 6.75390625 257.3046875 C6.72103516 258.36300781 6.68816406 259.42132813 6.65429688 260.51171875 C6.59331486 262.74599608 6.53599682 264.98037654 6.48242188 267.21484375 C6.44826172 268.27574219 6.41410156 269.33664062 6.37890625 270.4296875 C6.34132202 271.88737549 6.34132202 271.88737549 6.30297852 273.37451172 C5.99640691 276.03113624 5.35060963 277.71487253 4 280 C2.02 280 0.04 280 -2 280 C-3.93029202 276.73409457 -4.28169795 274.19986908 -4.37890625 270.4296875 C-4.41306641 269.36878906 -4.44722656 268.30789063 -4.48242188 267.21484375 C-4.52206055 265.56162109 -4.52206055 265.56162109 -4.5625 263.875 C-4.62227946 261.68478234 -4.68588625 259.49466473 -4.75390625 257.3046875 C-4.77783447 256.33515137 -4.8017627 255.36561523 -4.82641602 254.36669922 C-4.85038342 251.98207473 -4.85038342 251.98207473 -6 250 C-6.33 252.31 -6.66 254.62 -7 257 C-19.6467959 257.19693724 -32.088351 256.62817339 -44.6875 255.5625 C-47.18576872 255.35789936 -49.68419847 255.15535536 -52.18264771 254.95297241 C-53.80094363 254.82170158 -55.41917078 254.68957973 -57.037323 254.55654907 C-64.35379799 253.95855748 -71.67410735 253.4683842 -79 253 C-79 248.05 -79 243.1 -79 238 C-74.46751174 236.48917058 -71.09216779 235.6145967 -66.46875 235.0703125 C-65.19660645 234.9165918 -63.92446289 234.76287109 -62.61376953 234.60449219 C-61.24251432 234.44465035 -59.87125778 234.28481988 -58.5 234.125 C-55.63247273 233.78144522 -52.76547715 233.43353487 -49.8984375 233.0859375 C-49.16744843 232.9979187 -48.43645935 232.9098999 -47.68331909 232.81921387 C-38.51702178 231.71046152 -29.36947846 230.46294999 -20.22070312 229.21923828 C-18.44469727 228.97923096 -18.44469727 228.97923096 -16.6328125 228.734375 C-15.06877686 228.52119629 -15.06877686 228.52119629 -13.47314453 228.30371094 C-11 228 -11 228 -9 228 C-9.33 210.84 -9.66 193.68 -10 176 C-11.65 175.34 -13.3 174.68 -15 174 C-15 173.34 -15 172.68 -15 172 C-14.34 172 -13.68 172 -13 172 C-13 169.36 -13 166.72 -13 164 C-14.55726807 164.00785522 -14.55726807 164.00785522 -16.14599609 164.01586914 C-20.04116943 164.03413053 -23.93633907 164.04550837 -27.83154297 164.05493164 C-29.50928384 164.05992396 -31.18702045 164.06672015 -32.86474609 164.07543945 C-48.89261939 164.15658116 -48.89261939 164.15658116 -56.33837891 163.25170898 C-63.02524878 162.61933301 -69.78700447 162.64902293 -76.5 162.5 C-85.49151547 162.29668382 -94.47058805 162.06798776 -103.44921875 161.53125 C-111.00073474 161.08051687 -118.55320818 160.76984357 -126.11328125 160.5 C-127.26645844 160.45879028 -128.41963562 160.41758057 -129.60775757 160.37512207 C-134.38401352 160.2060569 -139.16036046 160.03973698 -143.93676758 159.875 C-147.47485701 159.75229447 -151.01281838 159.62629485 -154.55078125 159.5 C-155.60840164 159.46455078 -156.66602203 159.42910156 -157.75569153 159.39257812 C-162.98823234 159.2044891 -168.19515222 158.92544461 -173.4140625 158.5 C-180.21392587 157.95220936 -187.00642093 157.7027418 -193.82421875 157.5 C-196.42513046 157.4166746 -199.02604191 157.33334103 -201.62695312 157.25 C-204.99158224 157.14467986 -208.35625916 157.040917 -211.72094727 156.9375 C-216.3388284 156.79541135 -220.95653111 156.6482726 -225.57421875 156.5 C-226.77237717 156.46455078 -227.97053558 156.42910156 -229.20500183 156.39257812 C-235.84741632 156.17823561 -242.39535979 155.74405382 -249 155 C-249 148.4 -249 141.8 -249 135 C-238.62290991 134.22587676 -228.297378 133.80977236 -217.89508057 133.61184692 C-203.95513634 133.33888209 -190.04392488 132.87416763 -176.125 132.0625 C-161.3800561 131.20697612 -146.63318404 130.52360959 -131.875 129.9375 C-130.80774689 129.89506165 -129.74049377 129.85262329 -128.64089966 129.80889893 C-113.52354123 129.21278609 -98.40565767 128.71892161 -83.28173828 128.32617188 C-75.19987703 128.11332695 -67.13554908 127.79005412 -59.06542969 127.30664062 C-52.04102021 126.90221497 -45.03443374 126.90536636 -38 127 C-38.17402344 125.94683594 -38.34804687 124.89367187 -38.52734375 123.80859375 C-38.92151357 120.63243196 -38.99604842 118.19368303 -38.5625 115.0625 C-38.40974609 113.90427734 -38.40974609 113.90427734 -38.25390625 112.72265625 C-38.17011719 112.15417969 -38.08632812 111.58570313 -38 111 C-37.01 111 -36.02 111 -35 111 C-34.63684334 112.9358351 -34.28477269 114.87375248 -33.9375 116.8125 C-33.74027344 117.89144531 -33.54304687 118.97039062 -33.33984375 120.08203125 C-33 123 -33 123 -34 126 C-30.7 126.33 -27.4 126.66 -24 127 C-24.08378906 126.2265625 -24.16757813 125.453125 -24.25390625 124.65625 C-24.85229856 118.53598436 -25.04934578 113.0628867 -24 107 C-23.01 106.67 -22.02 106.34 -21 106 C-19.31114053 113.67781496 -18.72767166 119.42557221 -21 127 C-20.505 126.835 -20.01 126.67 -19.5 126.5 C-15.97386748 125.7947735 -12.5960465 125.97076385 -9 126 C-8.99462595 120.23748006 -9.02878639 114.47695558 -9.09765625 108.71484375 C-9.11568664 106.75983443 -9.12340858 104.80469907 -9.12011719 102.84960938 C-9.07725815 88.03938901 -9.07725815 88.03938901 -14.56323242 74.46264648 C-18.51387877 67.69116481 -18.35503286 59.82347721 -18.3125 52.1875 C-18.31056641 50.74479736 -18.31056641 50.74479736 -18.30859375 49.27294922 C-18.21218994 42.13063208 -17.39999539 35.77141555 -15 29 C-14.34 29 -13.68 29 -13 29 C-12.9175 28.113125 -12.835 27.22625 -12.75 26.3125 C-11.90015652 22.55902463 -10.65972191 20.74031954 -8 18 C-7.34 18 -6.68 18 -6 18 C-6 17.34 -6 16.68 -6 16 C-4.35 15.67 -2.7 15.34 -1 15 C-1.01160156 14.00097656 -1.02320313 13.00195312 -1.03515625 11.97265625 C-1.04417969 10.68230469 -1.05320313 9.39195313 -1.0625 8.0625 C-1.07410156 6.77472656 -1.08570313 5.48695312 -1.09765625 4.16015625 C-1 1 -1 1 0 0 Z " fill="#7C7C7C" transform="translate(249,109)"/>
<path d="M0 0 C0.66 0.33 1.32 0.66 2 1 C3.37720457 7.70638746 2.99120602 14.28182584 2 21 C5.3 20.67 8.6 20.34 12 20 C11.79375 19.195625 11.5875 18.39125 11.375 17.5625 C10.89918072 13.04221683 11.83064128 9.34885474 13 5 C13.99 5 14.98 5 16 5 C16.1958009 6.91583647 16.38132214 8.83272539 16.5625 10.75 C16.66691406 11.81734375 16.77132813 12.8846875 16.87890625 13.984375 C16.98560074 16.64141204 16.81930395 18.49960572 16 21 C16.86238281 20.98839844 17.72476563 20.97679687 18.61328125 20.96484375 C25.49189473 20.91399867 32.31887672 21.02385744 39.1875 21.4375 C47.07663207 21.90251473 54.95925772 22.13947402 62.85958862 22.32424927 C82.12618093 22.78107438 101.37357205 23.63083791 120.625 24.5 C122.10335253 24.56647462 123.5817054 24.63294197 125.06005859 24.69940186 C151.37609741 25.88477669 151.37609741 25.88477669 162.73046875 26.5625 C173.25811171 27.1834213 183.79779811 27.34460228 194.34008789 27.55224609 C205.25900584 27.77185345 216.10837462 28.18056737 227 29 C227 35.6 227 42.2 227 49 C219.52656823 49.83302033 212.11610952 50.24520022 204.6015625 50.46484375 C202.17773087 50.54220803 199.75390288 50.61968641 197.33007812 50.69726562 C195.44397827 50.75587769 195.44397827 50.75587769 193.51977539 50.81567383 C175.83698124 51.36878072 158.15996536 51.92961906 140.5 53 C126.33922789 53.85197486 112.17517468 54.49778736 98 55.0625 C96.93394531 55.10502899 95.86789062 55.14755798 94.76953125 55.19137573 C79.22848648 55.80554632 63.68635134 56.32017098 48.13671875 56.65844727 C40.1497696 56.8316644 40.1497696 56.8316644 32.1953125 57.5234375 C24.30109864 58.41527653 16.30706223 58.1037237 8.375 58.0625 C6.68619924 58.05747477 4.99739704 58.05291368 3.30859375 58.04882812 C-0.79430711 58.03790399 -4.89713727 58.0206958 -9 58 C-9 60.64 -9 63.28 -9 66 C-8.34 66.33 -7.68 66.66 -7 67 C-7.99 67.99 -7.99 67.99 -9 69 C-10.65 69 -12.3 69 -14 69 C-14 78.57 -14 88.14 -14 98 C-14.33 98 -14.66 98 -15 98 C-15.0231834 88.69872355 -15.04094569 79.39745708 -15.05181217 70.09615803 C-15.05702786 65.77706697 -15.06410168 61.45799569 -15.07543945 57.13891602 C-15.08631499 52.96977227 -15.09228674 48.80064754 -15.09487724 44.63149071 C-15.09672307 43.04190967 -15.1003275 41.45232966 -15.10573006 39.86275673 C-15.11300241 37.63414902 -15.11398833 35.40561964 -15.11352539 33.17700195 C-15.115746 31.90903275 -15.11796661 30.64106354 -15.12025452 29.33467102 C-15 26 -15 26 -14 21 C-9.71 21 -5.42 21 -1 21 C-1.391875 19.205625 -1.78375 17.41125 -2.1875 15.5625 C-3.21869808 9.56732773 -2.5658708 5.46282171 0 0 Z " fill="#343434" transform="translate(273,215)"/>
<path d="M0 0 C0.33 0 0.66 0 1 0 C1 26.07 1 52.14 1 79 C-0.32 79.33 -1.64 79.66 -3 80 C-3 79.34 -3 78.68 -3 78 C-4.09876465 78.00523682 -5.1975293 78.01047363 -6.32958984 78.01586914 C-10.4483965 78.03411763 -14.56719966 78.0455038 -18.68603516 78.05493164 C-20.46078088 78.05992684 -22.23552255 78.06672528 -24.01025391 78.07543945 C-41.01589842 78.15678328 -41.01589842 78.15678328 -48.37353516 77.25170898 C-55.04706224 76.61214713 -61.79961626 76.64874296 -68.5 76.5 C-77.49151547 76.29668382 -86.47058805 76.06798776 -95.44921875 75.53125 C-103.00073474 75.08051687 -110.55320818 74.76984357 -118.11328125 74.5 C-119.26645844 74.45879028 -120.41963562 74.41758057 -121.60775757 74.37512207 C-126.38401352 74.2060569 -131.16036046 74.03973698 -135.93676758 73.875 C-139.47485701 73.75229447 -143.01281838 73.62629485 -146.55078125 73.5 C-148.13721184 73.44682617 -148.13721184 73.44682617 -149.75569153 73.39257812 C-154.98823234 73.2044891 -160.19515222 72.92544461 -165.4140625 72.5 C-172.21392587 71.95220936 -179.00642093 71.7027418 -185.82421875 71.5 C-188.42513046 71.4166746 -191.02604191 71.33334103 -193.62695312 71.25 C-196.99158224 71.14467986 -200.35625916 71.040917 -203.72094727 70.9375 C-208.3388284 70.79541135 -212.95653111 70.6482726 -217.57421875 70.5 C-218.77237717 70.46455078 -219.97053558 70.42910156 -221.20500183 70.39257812 C-227.84741632 70.17823561 -234.39535979 69.74405382 -241 69 C-241 62.4 -241 55.8 -241 49 C-230.62290991 48.22587676 -220.297378 47.80977236 -209.89508057 47.61184692 C-195.95513634 47.33888209 -182.04392488 46.87416763 -168.125 46.0625 C-153.3800561 45.20697612 -138.63318404 44.52360959 -123.875 43.9375 C-122.80774689 43.89506165 -121.74049377 43.85262329 -120.64089966 43.80889893 C-105.52354123 43.21278609 -90.40565767 42.71892161 -75.28173828 42.32617188 C-67.19987703 42.11332695 -59.13554908 41.79005412 -51.06542969 41.30664062 C-44.04102021 40.90221497 -37.03443374 40.90536636 -30 41 C-30.17402344 39.94683594 -30.34804687 38.89367187 -30.52734375 37.80859375 C-30.92151357 34.63243196 -30.99604842 32.19368303 -30.5625 29.0625 C-30.46066406 28.29035156 -30.35882813 27.51820313 -30.25390625 26.72265625 C-30.17011719 26.15417969 -30.08632812 25.58570313 -30 25 C-29.01 25 -28.02 25 -27 25 C-26.63684334 26.9358351 -26.28477269 28.87375248 -25.9375 30.8125 C-25.74027344 31.89144531 -25.54304687 32.97039062 -25.33984375 34.08203125 C-25 37 -25 37 -26 40 C-22.7 40.33 -19.4 40.66 -16 41 C-16.08378906 40.2265625 -16.16757813 39.453125 -16.25390625 38.65625 C-16.85229856 32.53598436 -17.04934578 27.0628867 -16 21 C-15.01 20.67 -14.02 20.34 -13 20 C-11.31114053 27.67781496 -10.72767166 33.42557221 -13 41 C-8.71 41 -4.42 41 0 41 C0 27.47 0 13.94 0 0 Z " fill="#353535" transform="translate(241,195)"/>
<path d="M0 0 C42.57 0 85.14 0 129 0 C129 5.28 129 10.56 129 16 C126.55358616 17.22320692 124.83754351 17.18921843 122.1015625 17.28125 C121.07869141 17.31798828 120.05582031 17.35472656 119.00195312 17.39257812 C117.88755859 17.42802734 116.77316406 17.46347656 115.625 17.5 C114.47193359 17.54060547 113.31886719 17.58121094 112.13085938 17.62304688 C108.42070859 17.75305216 104.71038467 17.87686564 101 18 C96.16657749 18.16414913 91.33325834 18.33108838 86.5 18.5 C85.32073944 18.54088745 84.14147888 18.5817749 82.92648315 18.62390137 C75.69400142 18.88178996 68.47315593 19.22631432 61.2492981 19.65905762 C52.37306936 20.17749474 43.48704271 20.34821099 34.59912109 20.55224609 C32.33423907 20.60523432 30.06945365 20.66102705 27.8046875 20.71875 C27.07425232 20.73703857 26.34381714 20.75532715 25.59124756 20.77416992 C19.10020904 20.95660475 12.63806312 21.39472445 6.16455078 21.89648438 C3 22 3 22 0 21 C0 14.07 0 7.14 0 0 Z " fill="#0B0B0B" transform="translate(291,251)"/>
<path d="M0 0 C42.9 0 85.8 0 130 0 C130 6.6 130 13.2 130 20 C129 21 129 21 125.11962891 21.10107422 C123.3218955 21.0922017 121.52419072 21.07606256 119.7265625 21.0546875 C118.7320105 21.0447023 117.7374585 21.0347171 116.71276855 21.02442932 C113.34997219 20.98414028 109.98756538 20.93129406 106.625 20.875 C105.46981873 20.85688263 104.31463745 20.83876526 103.12445068 20.82009888 C68.68574343 20.22424611 34.34020557 17.5244015 0 15 C0 10.05 0 5.1 0 0 Z " fill="#060606" transform="translate(79,251)"/>
<path d="M0 0 C0.99 0.33 1.98 0.66 3 1 C3.495 7.93 3.495 7.93 4 15 C5.32 15.33 6.64 15.66 8 16 C8 16.66 8 17.32 8 18 C8.598125 18.2475 9.19625 18.495 9.8125 18.75 C12.38438757 20.21965004 13.53194377 21.43090159 15 24 C15.1875 26.75 15.1875 26.75 15 29 C15.66 29 16.32 29 17 29 C19.82735876 36.82572515 20.32711624 44.30986662 20.375 52.5625 C20.38853516 53.51906494 20.40207031 54.47562988 20.41601562 55.46118164 C20.37349374 62.36803486 19.10699834 68.43342849 17 75 C13.77376992 75.95778705 10.85907209 76.12886198 7.5 76.1328125 C5.9221875 76.13474609 5.9221875 76.13474609 4.3125 76.13671875 C3.219375 76.13285156 2.12625 76.12898438 1 76.125 C-0.093125 76.12886719 -1.18625 76.13273437 -2.3125 76.13671875 C-3.364375 76.13542969 -4.41625 76.13414062 -5.5 76.1328125 C-6.4590625 76.13168457 -7.418125 76.13055664 -8.40625 76.12939453 C-10.75803316 76.01207101 -12.75052606 75.66781258 -15 75 C-20.04404542 60.76858615 -20.04404542 43.23141385 -15 29 C-14.34 29 -13.68 29 -13 29 C-12.9175 28.113125 -12.835 27.22625 -12.75 26.3125 C-11.90015652 22.55902463 -10.65972191 20.74031954 -8 18 C-7.34 18 -6.68 18 -6 18 C-6 17.34 -6 16.68 -6 16 C-4.35 15.67 -2.7 15.34 -1 15 C-1.01160156 14.00097656 -1.02320313 13.00195312 -1.03515625 11.97265625 C-1.04417969 10.68230469 -1.05320313 9.39195313 -1.0625 8.0625 C-1.07410156 6.77472656 -1.08570313 5.48695312 -1.09765625 4.16015625 C-1 1 -1 1 0 0 Z " fill="#262626" transform="translate(249,109)"/>
<path d="M0 0 C3.9909375 0.061875 3.9909375 0.061875 8.0625 0.125 C8.0625 9.035 8.0625 17.945 8.0625 27.125 C-4.24574619 27.27703526 -16.30283256 26.71910033 -28.5625 25.6875 C-31.06749828 25.48296567 -33.57264814 25.28037055 -36.07781982 25.07797241 C-37.70162393 24.94663857 -39.32536433 24.81451453 -40.94903564 24.68154907 C-48.27419327 24.08529336 -55.6031297 23.59421748 -62.9375 23.125 C-62.9375 18.175 -62.9375 13.225 -62.9375 8.125 C-58.2584451 6.56531503 -54.67651361 5.69568121 -49.87890625 5.125 C-48.87959328 5.00318359 -48.87959328 5.00318359 -47.86009216 4.87890625 C-45.7407181 4.6217408 -43.62045609 4.3730689 -41.5 4.125 C-39.42116905 3.87617208 -37.34255941 3.62556383 -35.26399231 3.37454224 C-33.88044707 3.20796147 -32.49672727 3.04282429 -31.11283875 2.87911987 C-27.70550195 2.47347678 -24.3044967 2.04402367 -20.9074707 1.55908203 C-13.88391606 0.56221319 -7.09318714 -0.16080452 0 0 Z " fill="#323232" transform="translate(232.9375,338.875)"/>
<path d="M0 0 C11.24943311 0 11.24943311 0 16.15234375 0.55078125 C17.79275635 0.73072632 17.79275635 0.73072632 19.46630859 0.91430664 C20.61180176 1.04571045 21.75729492 1.17711426 22.9375 1.3125 C24.14229004 1.44712646 25.34708008 1.58175293 26.58837891 1.72045898 C29.11266942 2.00259329 31.63675634 2.28655463 34.16064453 2.57226562 C37.9791701 2.99767939 41.79944701 3.40056338 45.62109375 3.796875 C48.0390646 4.05206348 50.45703342 4.30727111 52.875 4.5625 C54.00284912 4.67698486 55.13069824 4.79146973 56.29272461 4.90942383 C57.34854736 5.02310303 58.40437012 5.13678223 59.4921875 5.25390625 C60.41370605 5.35002197 61.33522461 5.4461377 62.28466797 5.54516602 C65 6 65 6 71 8 C71 12.95 71 17.9 71 23 C47.28502368 24.80881015 23.79590727 26.41504489 0 26 C0 17.42 0 8.84 0 0 Z " fill="#292929" transform="translate(259,339)"/>
<path d="M0 0 C0.66 0 1.32 0 2 0 C2 0.66 2 1.32 2 2 C3.32 1.67 4.64 1.34 6 1 C6 14.53 6 28.06 6 42 C11.61 42 17.22 42 23 42 C23 49.26 23 56.52 23 64 C21.02 64.99 21.02 64.99 19 66 C19.01160156 66.88558594 19.02320313 67.77117187 19.03515625 68.68359375 C19.09145428 76.41250842 18.87501868 84.05619467 18.35571289 91.76757812 C17.99341694 97.37315537 17.95000394 102.94082173 18.0625 108.55859375 C18 111 18 111 17 113 C14.67843403 113.40729228 12.3431213 113.74438677 10 114 C8.71983271 111.43966543 8.8070608 109.48852472 8.71875 106.625 C8.68136719 105.55765625 8.64398438 104.4903125 8.60546875 103.390625 C8.53515625 101.13020833 8.46484375 98.86979167 8.39453125 96.609375 C8.35714844 95.54203125 8.31976563 94.4746875 8.28125 93.375 C8.25095703 92.39273438 8.22066406 91.41046875 8.18945312 90.3984375 C8.14997931 87.98713088 8.14997931 87.98713088 7 86 C6.67 88.31 6.34 90.62 6 93 C5.67 93 5.34 93 5 93 C5 84.09 5 75.18 5 66 C0.71 66 -3.58 66 -8 66 C-8 65.67 -8 65.34 -8 65 C-2.06 64.505 -2.06 64.505 4 64 C3.67 46.84 3.34 29.68 3 12 C0.525 11.01 0.525 11.01 -2 10 C-2 9.34 -2 8.68 -2 8 C-1.34 8 -0.68 8 0 8 C0 5.36 0 2.72 0 0 Z " fill="#696969" transform="translate(236,273)"/>
<path d="M0 0 C21.12 0 42.24 0 64 0 C64 4.29 64 8.58 64 13 C56.4926782 13.02482833 48.98538062 13.04292064 41.47802734 13.05493164 C38.92724185 13.05994205 36.37645921 13.0667522 33.82568359 13.07543945 C30.14680272 13.08764972 26.46796003 13.09326138 22.7890625 13.09765625 C21.09470566 13.10539818 21.09470566 13.10539818 19.36611938 13.11329651 C12.83453628 13.11375315 6.48799884 12.76282818 0 12 C0 8.04 0 4.08 0 0 Z " fill="#060606" transform="translate(0,252)"/>
<path d="M0 0 C20.79 0 41.58 0 63 0 C63 3.96 63 7.92 63 12 C41.98895373 12.75541723 21.0251818 13.13682331 0 13 C0 8.71 0 4.42 0 0 Z " fill="#020202" transform="translate(437,252)"/>
<path d="M0 0 C0.99 0.33 1.98 0.66 3 1 C3.495 7.93 3.495 7.93 4 15 C5.32 15.33 6.64 15.66 8 16 C8 16.66 8 17.32 8 18 C8.598125 18.2475 9.19625 18.495 9.8125 18.75 C12.36513531 20.20864875 13.56732558 21.43626682 15 24 C14.6875 26.25 14.6875 26.25 14 28 C13.67 27.34 13.34 26.68 13 26 C12.67 26.99 12.34 27.98 12 29 C5.07 29 -1.86 29 -9 29 C-9.66 30.98 -10.32 32.96 -11 35 C-11.66 35 -12.32 35 -13 35 C-13.433125 35.928125 -13.433125 35.928125 -13.875 36.875 C-15 39 -15 39 -17 41 C-16.44687265 36.97007218 -15.8441938 32.97977076 -15 29 C-14.34 29 -13.68 29 -13 29 C-12.9175 28.113125 -12.835 27.22625 -12.75 26.3125 C-11.90015652 22.55902463 -10.65972191 20.74031954 -8 18 C-7.34 18 -6.68 18 -6 18 C-6 17.34 -6 16.68 -6 16 C-4.35 15.67 -2.7 15.34 -1 15 C-1.01160156 14.00097656 -1.02320313 13.00195312 -1.03515625 11.97265625 C-1.04417969 10.68230469 -1.05320313 9.39195313 -1.0625 8.0625 C-1.07410156 6.77472656 -1.08570313 5.48695312 -1.09765625 4.16015625 C-1 1 -1 1 0 0 Z " fill="#2B2B2B" transform="translate(249,109)"/>
<path d="M0 0 C0.02469321 4.2358357 0.04285671 8.47163342 0.05493164 12.70751953 C0.05996474 14.1489332 0.06679173 15.59034176 0.07543945 17.03173828 C0.08754983 19.10190085 0.09323847 21.17199601 0.09765625 23.2421875 C0.10289307 24.4885498 0.10812988 25.73491211 0.11352539 27.01904297 C0 30 0 30 -1 32 C-3.32156597 32.40729228 -5.6568787 32.74438677 -8 33 C-9.43316898 30.13366205 -9.13200361 27.62764499 -9.125 24.4375 C-9.12757813 23.26058594 -9.13015625 22.08367187 -9.1328125 20.87109375 C-9 18 -9 18 -8 17 C-7.92674832 14.13732433 -7.90761795 11.299281 -7.9375 8.4375 C-7.94201172 7.63119141 -7.94652344 6.82488281 -7.95117188 5.99414062 C-7.96299482 3.99606244 -7.98093086 1.99802217 -8 0 C-4.71023192 -1.09658936 -3.28696233 -0.79953138 0 0 Z " fill="#363636" transform="translate(254,354)"/>
<path d="M0 0 C0.66 0.33 1.32 0.66 2 1 C2 18.16 2 35.32 2 53 C12.23 54.32 22.46 55.64 33 57 C33 57.33 33 57.66 33 58 C21.90442009 57.47817817 11.01009235 56.48785032 0 55 C0 63.58 0 72.16 0 81 C5.61 81 11.22 81 17 81 C17 81.33 17 81.66 17 82 C11.06 82 5.12 82 -1 82 C-1.33 79.69 -1.66 77.38 -2 75 C-3.27446388 77.54892776 -3.17572984 79.45364621 -3.24609375 82.3046875 C-3.27896484 83.36300781 -3.31183594 84.42132813 -3.34570312 85.51171875 C-3.40668514 87.74599608 -3.46400318 89.98037654 -3.51757812 92.21484375 C-3.55173828 93.27574219 -3.58589844 94.33664062 -3.62109375 95.4296875 C-3.6461499 96.40147949 -3.67120605 97.37327148 -3.69702148 98.37451172 C-4.00359309 101.03113624 -4.64939037 102.71487253 -6 105 C-7.98 105 -9.96 105 -12 105 C-12 104.34 -12 103.68 -12 103 C-9.03 102.505 -9.03 102.505 -6 102 C-6.01160156 101.13503906 -6.02320313 100.27007812 -6.03515625 99.37890625 C-6.09853178 90.53349255 -5.90185529 81.71433596 -5.5625 72.875 C-5.52326416 71.79677979 -5.48402832 70.71855957 -5.44360352 69.60766602 C-4.99569756 58.63697912 -4.99569756 58.63697912 -4 55 C-3.01 54.34 -2.02 53.68 -1 53 C-0.5232915 50.66257775 -0.5232915 50.66257775 -0.56762695 47.90771484 C-0.54783279 46.84676605 -0.52803864 45.78581726 -0.50764465 44.69271851 C-0.50125473 43.54373077 -0.49486481 42.39474304 -0.48828125 41.2109375 C-0.47033005 40.03737701 -0.45237885 38.86381653 -0.43388367 37.6546936 C-0.37956578 33.89483264 -0.34581552 30.13510015 -0.3125 26.375 C-0.27934597 23.8307112 -0.24485813 21.28643941 -0.20898438 18.7421875 C-0.12382702 12.49490687 -0.05556844 6.24761005 0 0 Z " fill="#A7A7A7" transform="translate(259,284)"/>
<path d="M0 0 C4.39656173 -0.02465504 8.7930872 -0.04283842 13.18969727 -0.05493164 C14.68644918 -0.05997121 16.18319616 -0.06680287 17.67993164 -0.07543945 C19.82699807 -0.08752159 21.97399962 -0.09323191 24.12109375 -0.09765625 C26.06133423 -0.10551147 26.06133423 -0.10551147 28.04077148 -0.11352539 C31 0 31 0 32 1 C32.04092937 3.33297433 32.04241723 5.66705225 32 8 C21.10238692 8.2071352 10.72866761 8.15729044 0 6 C0 4.02 0 2.04 0 0 Z " fill="#0D0D0D" transform="translate(202,357)"/>
<path d="M0 0 C10.23 0 20.46 0 31 0 C31.33 1.98 31.66 3.96 32 6 C30.83082031 6.06058594 29.66164063 6.12117188 28.45703125 6.18359375 C26.90884386 6.26804034 25.36066732 6.35268625 23.8125 6.4375 C23.04357422 6.47681641 22.27464844 6.51613281 21.48242188 6.55664062 C17.55049667 6.77601843 13.86214259 7.20640906 10 8 C8.23022239 8.06459042 6.45829848 8.08611065 4.6875 8.0625 C3.80449219 8.05347656 2.92148437 8.04445313 2.01171875 8.03515625 C1.34785156 8.02355469 0.68398438 8.01195312 0 8 C0 5.36 0 2.72 0 0 Z " fill="#040404" transform="translate(266,357)"/>
<path d="M0 0 C0.66 0 1.32 0 2 0 C2.39111271 1.91344374 2.76231167 3.83096553 3.125 5.75 C3.33382812 6.81734375 3.54265625 7.8846875 3.7578125 8.984375 C4.01099324 12.13688351 3.70415175 13.39959066 2 16 C2 13.36 2 10.72 2 8 C0.99740493 11.00778521 0.69685358 13.53820647 0.4375 16.6875 C0.35371094 17.68136719 0.26992187 18.67523438 0.18359375 19.69921875 C0.09271484 20.83810547 0.09271484 20.83810547 0 22 C-1.48113281 21.98259766 -1.48113281 21.98259766 -2.9921875 21.96484375 C-4.27351563 21.95582031 -5.55484375 21.94679687 -6.875 21.9375 C-8.78925781 21.92009766 -8.78925781 21.92009766 -10.7421875 21.90234375 C-13.88664652 21.76823431 -13.88664652 21.76823431 -16 23 C-18.48099734 23.08649451 -20.93344928 23.11565054 -23.4140625 23.09765625 C-24.14370209 23.0962413 -24.87334167 23.09482635 -25.62509155 23.09336853 C-27.95843585 23.08776531 -30.29168464 23.07521235 -32.625 23.0625 C-34.20572778 23.05748541 -35.78645707 23.05292243 -37.3671875 23.04882812 C-41.24482854 23.03779484 -45.12239807 23.02052811 -49 23 C-49 22.67 -49 22.34 -49 22 C-37.65019611 21.31583529 -26.37204047 20.84701291 -15 21 C-15.17402344 19.94683594 -15.34804687 18.89367187 -15.52734375 17.80859375 C-15.92151357 14.63243196 -15.99604842 12.19368303 -15.5625 9.0625 C-15.46066406 8.29035156 -15.35882813 7.51820313 -15.25390625 6.72265625 C-15.17011719 6.15417969 -15.08632812 5.58570313 -15 5 C-14.01 5 -13.02 5 -12 5 C-11.63684334 6.9358351 -11.28477269 8.87375248 -10.9375 10.8125 C-10.64166016 12.43091797 -10.64166016 12.43091797 -10.33984375 14.08203125 C-10 17 -10 17 -11 20 C-7.7 20.33 -4.4 20.66 -1 21 C-1.08378906 20.2265625 -1.16757813 19.453125 -1.25390625 18.65625 C-1.85108244 12.54842269 -2.14018058 7.04295707 -1 1 C-0.67 0.67 -0.34 0.34 0 0 Z " fill="#A7A7A7" transform="translate(226,215)"/>
<path d="M0 0 C3.3 0 6.6 0 10 0 C10 4.95 10 9.9 10 15 C6.7 15 3.4 15 0 15 C0 10.05 0 5.1 0 0 Z " fill="#606060" transform="translate(245,339)"/>
<path d="M0 0 C0.33 0 0.66 0 1 0 C1 10.23 1 20.46 1 31 C1.99 31 2.98 31 4 31 C6.29013653 34.4352048 6.17842973 35.985331 6 40 C6.66 40.33 7.32 40.66 8 41 C7.34 41.66 6.68 42.32 6 43 C4.35 43 2.7 43 1 43 C1 52.57 1 62.14 1 72 C0.67 72 0.34 72 0 72 C0 48.24 0 24.48 0 0 Z " fill="#5B5B5B" transform="translate(258,241)"/>
<path d="M0 0 C0.33 0.66 0.66 1.32 1 2 C1.99 2 2.98 2 4 2 C4 2.66 4 3.32 4 4 C3.01 4 2.02 4 1 4 C1.33 4.66 1.66 5.32 2 6 C2.99 6.33 3.98 6.66 5 7 C5.33 6.34 5.66 5.68 6 5 C6.19491452 6.45736087 6.38069358 7.91594593 6.5625 9.375 C6.66691406 10.18710937 6.77132812 10.99921875 6.87890625 11.8359375 C7 14 7 14 6 16 C3.67843403 16.40729228 1.3431213 16.74438677 -1 17 C-2.4241906 14.15161879 -2.16995508 11.67212092 -2.1875 8.5 C-2.20876953 6.75203125 -2.20876953 6.75203125 -2.23046875 4.96875 C-2 2 -2 2 0 0 Z " fill="#717171" transform="translate(247,370)"/>
<path d="M0 0 C4.62 0 9.24 0 14 0 C13.67 2.64 13.34 5.28 13 8 C11.56465159 8.2226746 10.12654475 8.42761906 8.6875 8.625 C7.88699219 8.74101562 7.08648437 8.85703125 6.26171875 8.9765625 C4 9 4 9 1 7 C0.3125 3.375 0.3125 3.375 0 0 Z " fill="#545454" transform="translate(245,316)"/>
<path d="M0 0 C0.66 0 1.32 0 2 0 C2.82175795 3.18431206 3.04467379 6.1082293 3 9.375 C2.96290866 12.18930537 3.09178444 14.63101805 3.5 17.4375 C4.13736096 21.97869685 4.08288226 26.42305758 4 31 C3.34 31.33 2.68 31.66 2 32 C1.93941406 31.22914063 1.87882813 30.45828125 1.81640625 29.6640625 C1.73261719 28.66117187 1.64882812 27.65828125 1.5625 26.625 C1.44068359 25.12839844 1.44068359 25.12839844 1.31640625 23.6015625 C1.15034374 21.02072387 1.15034374 21.02072387 0 19 C-0.33 21.31 -0.66 23.62 -1 26 C-1.33 26 -1.66 26 -2 26 C-2.19865739 17.10456358 -2.33447255 8.67089803 0 0 Z " fill="#8D8D8D" transform="translate(243,340)"/>
<path d="M0 0 C3.3 0 6.6 0 10 0 C10 2.97 10 5.94 10 9 C6.7 9 3.4 9 0 9 C0 6.03 0 3.06 0 0 Z " fill="#343434" transform="translate(245,296)"/>
<path d="M0 0 C0.33 0 0.66 0 1 0 C1 26.07 1 52.14 1 79 C-0.98 79.495 -0.98 79.495 -3 80 C-3 79.01 -3 78.02 -3 77 C-2.01 77 -1.02 77 0 77 C0 51.59 0 26.18 0 0 Z " fill="#434343" transform="translate(241,195)"/>
<path d="M0 0 C0.66 0.33 1.32 0.66 2 1 C3.37720457 7.70638746 2.99120602 14.28182584 2 21 C5.63 21 9.26 21 13 21 C13 21.33 13 21.66 13 22 C9.04 22 5.08 22 1 22 C0.67 19.69 0.34 17.38 0 15 C-0.99 15.495 -0.99 15.495 -2 16 C-3.43680971 9.86090397 -2.32637691 5.79622721 0 0 Z " fill="#8C8C8C" transform="translate(273,215)"/>
<path d="M0 0 C1.485 0.99 1.485 0.99 3 2 C3.34057617 4.88916016 3.34057617 4.88916016 3.29296875 8.5390625 C3.28330078 9.84101563 3.27363281 11.14296875 3.26367188 12.484375 C3.23860388 13.86458923 3.21320902 15.24479756 3.1875 16.625 C3.17245517 18.01300663 3.15876641 19.40102867 3.14648438 20.7890625 C3.1110257 24.19309509 3.06160298 27.59635622 3 31 C-1.0471454 24.92928191 -0.12160369 17.67197811 -0.0625 10.625 C-0.05798828 9.60277344 -0.05347656 8.58054688 -0.04882812 7.52734375 C-0.037103 5.01816806 -0.02069176 2.5091151 0 0 Z " fill="#535353" transform="translate(231,150)"/>
<path d="M0 0 C0.99 0 1.98 0 3 0 C3.1958009 1.91583647 3.38132214 3.83272539 3.5625 5.75 C3.66691406 6.81734375 3.77132813 7.8846875 3.87890625 8.984375 C4 12 4 12 3 16 C7.95 16 12.9 16 18 16 C18 16.33 18 16.66 18 17 C12.72 17 7.44 17 2 17 C1.67 15.02 1.34 13.04 1 11 C0.34 12.32 -0.32 13.64 -1 15 C-2.4002792 9.53891111 -1.42705634 5.30723432 0 0 Z " fill="#A8A8A8" transform="translate(286,220)"/>
<path d="M0 0 C0.99 0.33 1.98 0.66 3 1 C3.33 5.95 3.66 10.9 4 16 C1.69 16 -0.62 16 -3 16 C-2.34 15.67 -1.68 15.34 -1 15 C-1.01160156 14.00097656 -1.02320313 13.00195312 -1.03515625 11.97265625 C-1.04417969 10.68230469 -1.05320313 9.39195313 -1.0625 8.0625 C-1.07410156 6.77472656 -1.08570313 5.48695312 -1.09765625 4.16015625 C-1 1 -1 1 0 0 Z " fill="#A3A3A3" transform="translate(249,109)"/>
<path d="M0 0 C0 2.31 0 4.62 0 7 C-0.66 7 -1.32 7 -2 7 C-2.66 7.66 -3.32 8.32 -4 9 C-4.33 8.01 -4.66 7.02 -5 6 C-5.99 5.67 -6.98 5.34 -8 5 C-8 3.35 -8 1.7 -8 0 C-4.71023192 -1.09658936 -3.28696233 -0.79953138 0 0 Z " fill="#272727" transform="translate(254,354)"/>
<path d="M0 0 C0.66 0 1.32 0 2 0 C1.84007568 0.70954834 1.68015137 1.41909668 1.51538086 2.15014648 C0.99790106 5.01160634 0.82678036 7.69275188 0.75390625 10.59765625 C0.72103516 11.64630859 0.68816406 12.69496094 0.65429688 13.77539062 C0.5929929 15.97059475 0.53571491 18.16591492 0.48242188 20.36132812 C0.44826172 21.40869141 0.41410156 22.45605469 0.37890625 23.53515625 C0.3538501 24.487854 0.32879395 25.44055176 0.30297852 26.42211914 C-0.00607852 29.05171884 -0.6663067 30.73448898 -2 33 C-3.98 33 -5.96 33 -8 33 C-8 32.34 -8 31.68 -8 31 C-6.02 30.67 -4.04 30.34 -2 30 C-2.02320313 29.00742187 -2.04640625 28.01484375 -2.0703125 26.9921875 C-2.21639368 17.77081307 -1.59399661 9.10855204 0 0 Z " fill="#969696" transform="translate(255,356)"/>
<path d="M0 0 C0.99 0 1.98 0 3 0 C5.29013653 3.4352048 5.17842973 4.985331 5 9 C5.66 9.33 6.32 9.66 7 10 C6.34 10.66 5.68 11.32 5 12 C3.35 12 1.7 12 0 12 C0 8.04 0 4.08 0 0 Z " fill="#474747" transform="translate(259,272)"/>
<path d="M0 0 C0.99 0 1.98 0 3 0 C3.39234694 1.89231945 3.76318316 3.78910657 4.125 5.6875 C4.33382812 6.74324219 4.54265625 7.79898438 4.7578125 8.88671875 C5.01897936 12.24397659 4.49130948 14.0229044 3 17 C2.67 17 2.34 17 2 17 C2 15.02 2 13.04 2 11 C1.34 11 0.68 11 0 11 C0 7.37 0 3.74 0 0 Z " fill="#656565" transform="translate(211,220)"/>
<path d="M0 0 C0.33 0.99 0.66 1.98 1 3 C1.226875 3.639375 1.45375 4.27875 1.6875 4.9375 C2.08580007 7.56628048 1.3546267 8.76885014 0 11 C-0.66 11 -1.32 11 -2 11 C-2.28875 11.61875 -2.5775 12.2375 -2.875 12.875 C-4 15 -4 15 -6 17 C-5.44687265 12.97007218 -4.8441938 8.97977076 -4 5 C-3.34 5 -2.68 5 -2 5 C-2 3.68 -2 2.36 -2 1 C-1.34 0.67 -0.68 0.34 0 0 Z " fill="#404040" transform="translate(238,133)"/>
<path d="M0 0 C0.66 0.33 1.32 0.66 2 1 C2 11.89 2 22.78 2 34 C1.67 34 1.34 34 1 34 C0.18241369 27.65093128 -0.10087376 21.52039636 0 15.125 C0.02552143 13.4610028 0.04655 11.79692897 0.0625 10.1328125 C0.07410156 9.40980957 0.08570313 8.68680664 0.09765625 7.94189453 C0.0760049 5.7810474 0.0760049 5.7810474 -1 3 C-0.67 2.01 -0.34 1.02 0 0 Z " fill="#171717" transform="translate(233,147)"/>
<path d="M0 0 C2.64 0 5.28 0 8 0 C7.67 1.98 7.34 3.96 7 6 C5.02 6.33 3.04 6.66 1 7 C0.67 4.69 0.34 2.38 0 0 Z " fill="#212121" transform="translate(246,380)"/>
<path d="M0 0 C1.98 0 3.96 0 6 0 C6 2.97 6 5.94 6 9 C5.34 9 4.68 9 4 9 C4 7.35 4 5.7 4 4 C3.34 4 2.68 4 2 4 C2 5.65 2 7.3 2 9 C1.34 9 0.68 9 0 9 C0 6.03 0 3.06 0 0 Z " fill="#5E5E5E" transform="translate(247,231)"/>
<path d="M0 0 C1.32 0 2.64 0 4 0 C4 0.66 4 1.32 4 2 C4.598125 2.2475 5.19625 2.495 5.8125 2.75 C8.36513531 4.20864875 9.56732558 5.43626682 11 8 C10.6875 10.25 10.6875 10.25 10 12 C10 11.01 10 10.02 10 9 C8.824375 9.0928125 8.824375 9.0928125 7.625 9.1875 C6.325625 9.0946875 6.325625 9.0946875 5 9 C2.8480563 5.77208445 2.79913557 4.71599191 3 1 C2.01 1.33 1.02 1.66 0 2 C0 1.34 0 0.68 0 0 Z " fill="#515151" transform="translate(253,125)"/>
<path d="M0 0 C0.33 0 0.66 0 1 0 C1.08117951 2.41734542 1.14056926 4.83194949 1.1875 7.25 C1.21263672 7.93191406 1.23777344 8.61382812 1.26367188 9.31640625 C1.31137459 12.59199289 1.21085076 14.65348556 -0.51171875 17.484375 C-1.00285156 17.98453125 -1.49398438 18.4846875 -2 19 C-2.24991456 12.34949576 -1.73955334 6.43013467 0 0 Z " fill="#181818" transform="translate(267,152)"/>
<path d="M0 0 C1.32 0 2.64 0 4 0 C3.67 2.64 3.34 5.28 3 8 C1.35 8 -0.3 8 -2 8 C-1.34 5.36 -0.68 2.72 0 0 Z " fill="#686868" transform="translate(255,316)"/>
<path d="M0 0 C1.65 0 3.3 0 5 0 C4.67 2.31 4.34 4.62 4 7 C2.68 7 1.36 7 0 7 C0 4.69 0 2.38 0 0 Z " fill="#717171" transform="translate(248,316)"/>
<path d="M0 0 C0 2.64 0 5.28 0 8 C-0.66 7.34 -1.32 6.68 -2 6 C-4.06874034 5.3574765 -4.06874034 5.3574765 -6 5 C-6 4.34 -6 3.68 -6 3 C-5.01 3 -4.02 3 -3 3 C-3 2.34 -3 1.68 -3 1 C-3.99 0.67 -4.98 0.34 -6 0 C-2.25 -1.125 -2.25 -1.125 0 0 Z " fill="#575757" transform="translate(254,371)"/>
<path d="M0 0 C0.66 0.33 1.32 0.66 2 1 C1.67 2.65 1.34 4.3 1 6 C2.32 6 3.64 6 5 6 C5 6.66 5 7.32 5 8 C1.7 8 -1.6 8 -5 8 C-3.68 7.34 -2.36 6.68 -1 6 C-0.18415432 2.94091587 -0.18415432 2.94091587 0 0 Z " fill="#5C5C5C" transform="translate(250,328)"/>
<path d="M0 0 C0.33 0 0.66 0 1 0 C1 2.97 1 5.94 1 9 C0.01 8.67 -0.98 8.34 -2 8 C-2.20086443 4.28400809 -2.1519437 3.22791555 0 0 Z " fill="#505050" transform="translate(253,361)"/>
<path d="M0 0 C0 0.33 0 0.66 0 1 C-1.98 1 -3.96 1 -6 1 C-6.33 1.99 -6.66 2.98 -7 4 C-7.99 4 -8.98 4 -10 4 C-10 3.01 -10 2.02 -10 1 C-6.1496895 -1.56687367 -4.41430237 -0.83288724 0 0 Z " fill="#6C6C6C" transform="translate(265,338)"/>
<path d="M0 0 C0.66 0 1.32 0 2 0 C2.98120464 3.05263664 2.98120464 4.94736336 2 8 C1.01 7.67 0.02 7.34 -1 7 C-0.67 4.69 -0.34 2.38 0 0 Z " fill="#666666" transform="translate(243,316)"/>
<path d="M0 0 C0.99 0 1.98 0 3 0 C3 1.98 3 3.96 3 6 C2.01 6.33 1.02 6.66 0 7 C0 4.69 0 2.38 0 0 Z " fill="#B1B1B1" transform="translate(211,220)"/>
<path d="M0 0 C1.32 0 2.64 0 4 0 C4 0.66 4 1.32 4 2 C4.99 2.33 5.98 2.66 7 3 C6.01 3.495 6.01 3.495 5 4 C5 4.66 5 5.32 5 6 C4.34 6 3.68 6 3 6 C3 4.35 3 2.7 3 1 C2.01 1.33 1.02 1.66 0 2 C0 1.34 0 0.68 0 0 Z " fill="#5D5D5D" transform="translate(253,125)"/>
</svg>
