<?xml version="1.0" encoding="UTF-8"?>
<svg version="1.1" xmlns="http://www.w3.org/2000/svg" width="296" height="256">
<path d="M0 0 C5.86772941 2.35464678 7.61123178 7.45189316 10 13 C16.95465084 31.75608418 19.34228811 51.9926337 22.0703125 71.69921875 C24.28750841 86.97850463 27.69849267 98.96570862 36 112 C36.78856442 113.29871797 37.57385399 114.59943141 38.35546875 115.90234375 C39.68028207 118.0987061 41.02891921 120.2688136 42.40625 122.43359375 C44 125 44 125 44.90625 127.03515625 C46.47039005 129.84502213 48.70744229 131.75107123 51 134 C52.67364024 135.68443577 54.34679926 137.36934978 56.01953125 139.0546875 C57.45834458 140.50088274 58.89764481 141.94659145 60.3371582 143.39208984 C61.31625767 144.376212 62.29445695 145.36123062 63.27172852 146.34716797 C64.7060408 147.79380543 66.14373313 149.23701406 67.58203125 150.6796875 C68.42999268 151.53288574 69.2779541 152.38608398 70.15161133 153.26513672 C72.27324332 155.30220893 74.40436265 157.23036171 76.63134766 159.14453125 C85.55091393 166.88818678 93.78675547 175.441628 102.16625977 183.76123047 C104.43855788 186.01558098 106.71911525 188.26106503 109.00708008 190.49951172 C111.78521411 193.2176321 114.54850096 195.95002886 117.30164909 198.69344711 C118.34957477 199.73280753 119.40263207 200.7670205 120.46084785 201.79590225 C121.93300018 203.22933681 123.38528893 204.68036516 124.83422852 206.13720703 C125.66503433 206.95770538 126.49584015 207.77820374 127.3518219 208.62356567 C129 211 129 211 128.88536072 213.67892456 C128 216 128 216 126 218 C122.78816494 217.8420409 121.36020053 217.34042482 119.0078125 215.1171875 C118.38648438 214.37726563 117.76515625 213.63734375 117.125 212.875 C114.00096139 209.47880875 114.00096139 209.47880875 109.5 208.75 C106.11018292 209.96064896 103.15156389 211.38064793 100.08984375 213.2578125 C95.92842437 214.73569976 92.32394435 213.14562146 88.44482422 211.40185547 C87.1442048 210.73115604 85.84764771 210.05253595 84.5546875 209.3671875 C83.13420584 208.63654131 81.71363013 207.90607794 80.29296875 207.17578125 C78.07457868 206.02296757 75.85832178 204.86625753 73.64404297 203.70556641 C71.4943819 202.58253826 69.33760726 201.47424161 67.1796875 200.3671875 C66.1889473 199.83918045 66.1889473 199.83918045 65.17819214 199.30050659 C61.61846917 197.46962133 61.61846917 197.46962133 57.70141602 197.14892578 C53.9450022 199.02794122 51.33736383 202.70092096 48.53515625 205.75 C45.87020394 208.1151965 44.54237971 208.94096034 41 209 C38.4375 206.625 38.4375 206.625 36 204 C34.20029621 202.86104612 34.20029621 202.86104612 32 203 C29.29477362 205.09629317 29.29477362 205.09629317 26.75 207.9375 C25.85796875 208.87464844 24.9659375 209.81179687 24.046875 210.77734375 C23.37140625 211.51082031 22.6959375 212.24429688 22 213 C18.04785441 211.5456626 15.92414319 210.02161463 13 207 C12.01 206.67 11.02 206.34 10 206 C9.79375 206.763125 9.5875 207.52625 9.375 208.3125 C7.44105609 213.49898594 4.7214854 218.19033084 2 223 C-1 222 -1 222 -2.07495117 220.41772461 C-2.39439697 219.75264893 -2.71384277 219.08757324 -3.04296875 218.40234375 C-3.39423828 217.68369141 -3.74550781 216.96503906 -4.10742188 216.22460938 C-4.64206055 215.09249023 -4.64206055 215.09249023 -5.1875 213.9375 C-5.73954102 212.79958008 -5.73954102 212.79958008 -6.30273438 211.63867188 C-7.21085497 209.76346181 -8.10661015 207.88227267 -9 206 C-9.48895752 206.46019531 -9.97791504 206.92039063 -10.48168945 207.39453125 C-15.21411588 211.84857965 -15.21411588 211.84857965 -18.453125 212.47265625 C-22.00590925 211.81332052 -23.20582848 210.12205625 -25.5625 207.4375 C-27.7003867 204.88140018 -27.7003867 204.88140018 -30 203 C-32.15791201 202.90925607 -32.15791201 202.90925607 -34 204 C-34.804375 204.86625 -35.60875 205.7325 -36.4375 206.625 C-39 209 -39 209 -41.31640625 209 C-45.53720138 207.42718551 -48.00767761 204.08887165 -50.89453125 200.7734375 C-52.42103574 199.05811662 -52.42103574 199.05811662 -55 197 C-59.45020867 196.89092626 -63.37244981 199.53974154 -67.25 201.5625 C-68.6686663 202.28244248 -70.08795965 203.00115042 -71.5078125 203.71875 C-73.77507503 204.86980643 -76.04203605 206.02141828 -78.30761719 207.17578125 C-80.57233296 208.32106669 -82.84706183 209.44378926 -85.125 210.5625 C-85.82270508 210.92093994 -86.52041016 211.27937988 -87.23925781 211.64868164 C-91.59872046 213.76566792 -94.33793797 214.43092993 -99 213 C-101.08290677 212.02822794 -102.99730853 210.91366161 -104.97265625 209.7421875 C-107.75430579 208.72385723 -109.21606968 209.02714447 -112 210 C-114.18096499 211.99095668 -116.01571093 214.1433083 -117.9375 216.3828125 C-120 218 -120 218 -122.625 217.8671875 C-125 217 -125 217 -127 215 C-126.9121673 210.04607541 -123.99118587 207.44634893 -120.64160156 204.1875 C-119.80486908 203.34989136 -119.80486908 203.34989136 -118.95123291 202.49536133 C-117.1070207 200.65393264 -115.24904442 198.82708015 -113.390625 197 C-112.10278561 195.71962692 -110.81583097 194.43836337 -109.52972412 193.15625 C-106.14063288 189.78242485 -102.73971414 186.42077131 -99.33618164 183.06152344 C-95.8862509 179.65237011 -92.44747126 176.23201148 -89.0078125 172.8125 C-83.44331892 167.28314117 -77.87214058 161.76062876 -72.29174805 156.24731445 C-69.9338424 153.91703111 -67.58268641 151.5808845 -65.24359131 149.23168945 C-63.42848792 147.42621486 -61.61280564 145.79228943 -59.625 144.1875 C-56.25284096 141.34430709 -53.43120066 138.18433126 -50.5703125 134.8359375 C-48.80609938 132.77330028 -47.03022512 130.80464455 -45 129 C-44.34 129 -43.68 129 -43 129 C-42.85304688 128.45472656 -42.70609375 127.90945312 -42.5546875 127.34765625 C-41.31620371 123.18378835 -39.93638482 119.63031289 -37.4375 116.0625 C-36.28283218 114.38103263 -35.13908242 112.69206428 -34 111 C-33.62438431 110.45635803 -33.24876862 109.91271606 -32.86177063 109.3526001 C-23.49999173 95.47436827 -21.34366817 81.4146116 -19.1875 65.0625 C-18.50959698 60.19684865 -17.81199227 55.33422867 -17.10546875 50.47265625 C-16.9380014 49.30744949 -16.77053406 48.14224274 -16.59799194 46.94172668 C-11.34302424 11.66711065 -11.34302424 11.66711065 0 0 Z " fill="#393939" transform="translate(147,6)"/>
<path d="M0 0 C2.0625 0.6875 2.0625 0.6875 5.0625 2.6875 C5.39583333 5.02083333 5.72916667 7.35416667 6.0625 9.6875 C7.0525 10.3475 8.0425 11.0075 9.0625 11.6875 C8.7840625 13.1725 8.7840625 13.1725 8.5 14.6875 C7.88588317 18.85837678 8.40729095 22.53784269 9.0625 26.6875 C9.660625 26.501875 10.25875 26.31625 10.875 26.125 C13.0625 25.6875 13.0625 25.6875 16.0625 26.6875 C16.3925 27.0175 16.7225 27.3475 17.0625 27.6875 C17.0625 27.0275 17.0625 26.3675 17.0625 25.6875 C17.84625 25.708125 18.63 25.72875 19.4375 25.75 C22.04364961 25.87434063 22.04364961 25.87434063 24.0625 24.6875 C23.7325 25.285625 23.4025 25.88375 23.0625 26.5 C21.85462012 28.74136471 21.85462012 28.74136471 22.0625 31.6875 C24.07386276 29.12758376 25.69095496 26.64159701 27.0625 23.6875 C27.5575 25.1725 27.5575 25.1725 28.0625 26.6875 C28.13597656 25.76517578 28.13597656 25.76517578 28.2109375 24.82421875 C28.28570312 24.01597656 28.36046875 23.20773438 28.4375 22.375 C28.50710937 21.57449219 28.57671875 20.77398437 28.6484375 19.94921875 C29.0625 17.6875 29.0625 17.6875 31.0625 14.6875 C31.7225 14.6875 32.3825 14.6875 33.0625 14.6875 C33.0625 15.6775 33.0625 16.6675 33.0625 17.6875 C35.0425 18.1825 35.0425 18.1825 37.0625 18.6875 C37.0625 19.3475 37.0625 20.0075 37.0625 20.6875 C38.0525 20.6875 39.0425 20.6875 40.0625 20.6875 C40.7225 19.3675 41.3825 18.0475 42.0625 16.6875 C42.7225 16.6875 43.3825 16.6875 44.0625 16.6875 C44.0625 16.0275 44.0625 15.3675 44.0625 14.6875 C45.7125 15.0175 47.3625 15.3475 49.0625 15.6875 C49.0625 16.6775 49.0625 17.6675 49.0625 18.6875 C51.42035318 17.79414203 51.42035318 17.79414203 52.1875 14.625 C52.47625 13.655625 52.765 12.68625 53.0625 11.6875 C55.53050047 12.83923355 57.11033565 13.73533565 59.0625 15.6875 C61.04741642 15.42073796 61.04741642 15.42073796 63.0625 14.6875 C64.0525 14.3575 65.0425 14.0275 66.0625 13.6875 C66.0625 13.0275 66.0625 12.3675 66.0625 11.6875 C66.7225 11.6875 67.3825 11.6875 68.0625 11.6875 C69.26878008 14.01964148 70.2279738 16.18392139 71.0625 18.6875 C74.69043998 16.82183512 74.69043998 16.82183512 77.0625 13.6875 C83.09355563 14.97792857 88.11256145 16.9563285 93.5625 19.8125 C94.28953125 20.18503906 95.0165625 20.55757812 95.765625 20.94140625 C97.53505118 21.84940126 99.2993367 22.76740265 101.0625 23.6875 C101.0625 24.3475 101.0625 25.0075 101.0625 25.6875 C101.990625 25.831875 102.91875 25.97625 103.875 26.125 C107.0625 26.6875 107.0625 26.6875 110.0625 27.6875 C112.20505793 27.29817144 112.20505793 27.29817144 114.0625 26.6875 C113.4025 27.0175 112.7425 27.3475 112.0625 27.6875 C115.23570782 31.22336014 117.22993695 33.27328031 122.0625 33.6875 C122.3925 33.0275 122.7225 32.3675 123.0625 31.6875 C123.7225 32.3475 124.3825 33.0075 125.0625 33.6875 C120.63739599 37.03331035 117.78206988 38.37643441 112.0625 38.6875 C109.20777319 37.81895762 106.69374365 36.45974574 104.08203125 35.03125 C102.97911995 34.45957092 102.97911995 34.45957092 101.85392761 33.87634277 C99.51826739 32.6636704 97.19605498 31.4278687 94.875 30.1875 C92.54225452 28.94936342 90.20715984 27.716858 87.86393738 26.49865723 C86.40956152 25.74184703 84.96124165 24.97325672 83.51997375 24.19177246 C79.95094755 22.20852894 79.95094755 22.20852894 75.99613953 21.95544434 C72.02254137 23.45980696 69.41384698 27.37320591 66.59765625 30.4375 C63.93270394 32.8026965 62.60487971 33.62846034 59.0625 33.6875 C56.5 31.3125 56.5 31.3125 54.0625 28.6875 C52.26279621 27.54854612 52.26279621 27.54854612 50.0625 27.6875 C47.35727362 29.78379317 47.35727362 29.78379317 44.8125 32.625 C43.47445312 34.03072266 43.47445312 34.03072266 42.109375 35.46484375 C41.43390625 36.19832031 40.7584375 36.93179688 40.0625 37.6875 C36.11035441 36.2331626 33.98664319 34.70911463 31.0625 31.6875 C29.5775 31.1925 29.5775 31.1925 28.0625 30.6875 C27.85625 31.450625 27.65 32.21375 27.4375 33 C25.50355609 38.18648594 22.7839854 42.87783084 20.0625 47.6875 C17.0625 46.6875 17.0625 46.6875 15.98754883 45.10522461 C15.66810303 44.44014893 15.34865723 43.77507324 15.01953125 43.08984375 C14.49262695 42.01186523 14.49262695 42.01186523 13.95507812 40.91210938 C13.59865234 40.15736328 13.24222656 39.40261719 12.875 38.625 C12.50697266 37.86638672 12.13894531 37.10777344 11.75976562 36.32617188 C10.85164503 34.45096181 9.95588985 32.56977267 9.0625 30.6875 C8.57354248 31.14769531 8.08458496 31.60789063 7.58081055 32.08203125 C2.84838412 36.53607965 2.84838412 36.53607965 -0.390625 37.16015625 C-3.94340925 36.50082052 -5.14332848 34.80955625 -7.5 32.125 C-9.6378867 29.56890018 -9.6378867 29.56890018 -11.9375 27.6875 C-14.09541201 27.59675607 -14.09541201 27.59675607 -15.9375 28.6875 C-16.741875 29.55375 -17.54625 30.42 -18.375 31.3125 C-20.9375 33.6875 -20.9375 33.6875 -23.25390625 33.6875 C-27.47470138 32.11468551 -29.94517761 28.77637165 -32.83203125 25.4609375 C-34.35853574 23.74561662 -34.35853574 23.74561662 -36.9375 21.6875 C-41.38770867 21.57842626 -45.30994981 24.22724154 -49.1875 26.25 C-50.6061663 26.96994248 -52.02545965 27.68865042 -53.4453125 28.40625 C-55.71257503 29.55730643 -57.97953605 30.70891828 -60.24511719 31.86328125 C-62.50983296 33.00856669 -64.78456183 34.13128926 -67.0625 35.25 C-67.76020508 35.60843994 -68.45791016 35.96687988 -69.17675781 36.33618164 C-73.52541813 38.44792223 -76.27304861 39.06468965 -80.9375 37.6875 C-81.5975 37.3575 -82.2575 37.0275 -82.9375 36.6875 C-82.9375 35.6975 -82.9375 34.7075 -82.9375 33.6875 C-83.5975 33.3575 -84.2575 33.0275 -84.9375 32.6875 C-84.33421875 32.50574219 -83.7309375 32.32398438 -83.109375 32.13671875 C-78.76526385 30.77042573 -75.57401222 29.44623341 -71.9375 26.6875 C-68.6875 26 -68.6875 26 -65.9375 25.6875 C-65.6075 26.6775 -65.2775 27.6675 -64.9375 28.6875 C-64.2775 29.0175 -63.6175 29.3475 -62.9375 29.6875 C-62.97875 28.635625 -63.02 27.58375 -63.0625 26.5 C-61.9375 22.6875 -61.9375 22.6875 -59.71484375 21.109375 C-52.88092672 17.6875 -52.88092672 17.6875 -49.9375 17.6875 C-49.6075 16.0375 -49.2775 14.3875 -48.9375 12.6875 C-48.2775 12.6875 -47.6175 12.6875 -46.9375 12.6875 C-46.9375 12.0275 -46.9375 11.3675 -46.9375 10.6875 C-45.31425914 10.46587671 -43.688779 10.26060197 -42.0625 10.0625 C-41.15757813 9.94648438 -40.25265625 9.83046875 -39.3203125 9.7109375 C-38.53398438 9.70320312 -37.74765625 9.69546875 -36.9375 9.6875 C-36.2775 10.3475 -35.6175 11.0075 -34.9375 11.6875 C-35.9275 13.3375 -36.9175 14.9875 -37.9375 16.6875 C-36.6175 16.3575 -35.2975 16.0275 -33.9375 15.6875 C-33.6075 14.3675 -33.2775 13.0475 -32.9375 11.6875 C-31.6175 11.3575 -30.2975 11.0275 -28.9375 10.6875 C-26.4625 13.6575 -26.4625 13.6575 -23.9375 16.6875 C-20.24331799 15.456106 -18.58640254 13.47958646 -15.9375 10.6875 C-15.4425 12.1725 -15.4425 12.1725 -14.9375 13.6875 C-14.380625 13.1925 -13.82375 12.6975 -13.25 12.1875 C-10.55587017 10.43995633 -9.08374993 10.42531251 -5.9375 10.6875 C-5.9375 9.6975 -5.9375 8.7075 -5.9375 7.6875 C-3.9575 7.0275 -1.9775 6.3675 0.0625 5.6875 C-2.0120356 4.4638932 -2.0120356 4.4638932 -4.9375 4.6875 C-4.5625 2.75 -4.5625 2.75 -3.9375 0.6875 C-1.9375 -0.3125 -1.9375 -0.3125 0 0 Z " fill="#212625" transform="translate(128.9375,181.3125)"/>
<path d="M0 0 C5.86772941 2.35464678 7.61123178 7.45189316 10 13 C15.64941549 28.23597876 17.95173806 44.28866028 20.41210938 60.27490234 C20.98341611 63.89491822 21.59878646 67.50404632 22.234375 71.11328125 C22.42692871 72.21502686 22.61948242 73.31677246 22.81787109 74.4519043 C23.18019254 76.51548532 23.54744068 78.57820947 23.92041016 80.63989258 C24.07815918 81.55536865 24.2359082 82.47084473 24.3984375 83.4140625 C24.53942871 84.2076416 24.68041992 85.0012207 24.82568359 85.81884766 C25.01008553 88.12619623 24.68915129 89.8036041 24 92 C24 91.34 24 90.68 24 90 C23.01 90 22.02 90 21 90 C20.77213542 87.94921875 20.54427083 85.8984375 20.31640625 83.84765625 C20.18113386 81.98859771 20.18113386 81.98859771 19 81 C18.855625 79.865625 18.71125 78.73125 18.5625 77.5625 C18.35152449 73.95941003 18.35152449 73.95941003 16 72 C16.0234375 69.3984375 16.0234375 69.3984375 16.375 66.375 C16.48585937 65.37210937 16.59671875 64.36921875 16.7109375 63.3359375 C16.80632812 62.56507812 16.90171875 61.79421875 17 61 C14.03 61.495 14.03 61.495 11 62 C10.67 61.34 10.34 60.68 10 60 C11.98 59.505 11.98 59.505 14 59 C14 56.69 14 54.38 14 52 C11.64046906 54.35953094 11.50858587 55.77895617 11 59 C10.01 58.67 9.02 58.34 8 58 C8 53.05 8 48.1 8 43 C7.67 43.99 7.34 44.98 7 46 C6.01 46 5.02 46 4 46 C4 46.99 4 47.98 4 49 C4.99 49.33 5.98 49.66 7 50 C7 51.98 7 53.96 7 56 C6.01 56.33 5.02 56.66 4 57 C5.2739589 59.03833424 6.61061923 61.03852126 8 63 C8.66 63 9.32 63 10 63 C10 63.66 10 64.32 10 65 C10.99 65.495 10.99 65.495 12 66 C11.01 66.66 10.02 67.32 9 68 C7.81724166 69.80851322 7.81724166 69.80851322 6.875 71.875 C6.54242188 72.55304688 6.20984375 73.23109375 5.8671875 73.9296875 C5.01500125 75.9641862 4.37301782 77.82557904 4 80 C4.33 80.66 4.66 81.32 5 82 C4.01 82 3.02 82 2 82 C2.165 82.61875 2.33 83.2375 2.5 83.875 C3 86 3 86 3 88 C3.66 88 4.32 88 5 88 C4.67 89.65 4.34 91.3 4 93 C1.69 93 -0.62 93 -3 93 C-3 91.35 -3 89.7 -3 88 C-2.01 88 -1.02 88 0 88 C-0.27714844 87.38511719 -0.55429688 86.77023438 -0.83984375 86.13671875 C-1.38318359 84.92435547 -1.38318359 84.92435547 -1.9375 83.6875 C-2.47697266 82.48673828 -2.47697266 82.48673828 -3.02734375 81.26171875 C-4 79 -4 79 -5 76 C-5.66 76 -6.32 76 -7 76 C-6.85890014 73.89551062 -6.71195825 71.7914123 -6.5625 69.6875 C-6.48128906 68.51574219 -6.40007812 67.34398438 -6.31640625 66.13671875 C-6 63 -6 63 -5 60 C-4.01 60 -3.02 60 -2 60 C-1.67 58.35 -1.34 56.7 -1 55 C-2.98 55.495 -2.98 55.495 -5 56 C-5 54.68 -5 53.36 -5 52 C-5.66 52 -6.32 52 -7 52 C-7 58.27 -7 64.54 -7 71 C-8.32 70.34 -9.64 69.68 -11 69 C-11.99 69.99 -11.99 69.99 -13 71 C-13.6875 68.6875 -13.6875 68.6875 -14 66 C-12.5625 64.1875 -12.5625 64.1875 -11 63 C-11.495 62.505 -11.495 62.505 -12 62 C-14.12578797 65.18868196 -14.38282702 66.64293499 -14.78125 70.3671875 C-14.90113281 71.41777344 -15.02101562 72.46835938 -15.14453125 73.55078125 C-15.26183594 74.64777344 -15.37914062 75.74476562 -15.5 76.875 C-15.73312879 79.03976734 -15.97249764 81.20387373 -16.21875 83.3671875 C-16.32123047 84.32737793 -16.42371094 85.28756836 -16.52929688 86.27685547 C-17.01288052 89.07451727 -17.92822283 91.38197104 -19 94 C-18.98281889 96.69922453 -18.98281889 96.69922453 -18.6875 99.4375 C-18.56665843 104.43899834 -18.56665843 104.43899834 -20.4453125 106.87109375 C-22.3125 108.375 -22.3125 108.375 -24.25 109.71875 C-26.56116839 111.41085543 -27.61991717 113.5303781 -29 116 C-29.66 116 -30.32 116 -31 116 C-31 116.99 -31 117.98 -31 119 C-32.98 119.495 -32.98 119.495 -35 120 C-35.33 121.32 -35.66 122.64 -36 124 C-36.66 123.67 -37.32 123.34 -38 123 C-36.56455422 117.98365724 -34.36145733 114.00277554 -31.625 109.625 C-30.81373172 108.28598682 -30.00381752 106.94615222 -29.1953125 105.60546875 C-28.00117457 103.63519146 -26.79538712 101.6798085 -25.5546875 99.73828125 C-23.27436321 95.84483866 -22.8044399 92.57553035 -22.609375 88.078125 C-22.04709784 79.16407333 -20.65586753 70.42401415 -19.20849609 61.6159668 C-18.75387169 58.83617336 -18.31584868 56.05410481 -17.87890625 53.27148438 C-11.1706522 11.48981369 -11.1706522 11.48981369 0 0 Z " fill="#434342" transform="translate(147,6)"/>
<path d="M0 0 C5.86772941 2.35464678 7.61123178 7.45189316 10 13 C15.64941549 28.23597876 17.95173806 44.28866028 20.41210938 60.27490234 C20.98341611 63.89491822 21.59878646 67.50404632 22.234375 71.11328125 C22.42692871 72.21502686 22.61948242 73.31677246 22.81787109 74.4519043 C23.18019254 76.51548532 23.54744068 78.57820947 23.92041016 80.63989258 C24.07815918 81.55536865 24.2359082 82.47084473 24.3984375 83.4140625 C24.53942871 84.2076416 24.68041992 85.0012207 24.82568359 85.81884766 C25.01008553 88.12619623 24.68915129 89.8036041 24 92 C24 91.34 24 90.68 24 90 C23.01 90 22.02 90 21 90 C20.77213542 87.94921875 20.54427083 85.8984375 20.31640625 83.84765625 C20.18113386 81.98859771 20.18113386 81.98859771 19 81 C18.855625 79.865625 18.71125 78.73125 18.5625 77.5625 C18.35152449 73.95941003 18.35152449 73.95941003 16 72 C16.0234375 69.3984375 16.0234375 69.3984375 16.375 66.375 C16.48585937 65.37210937 16.59671875 64.36921875 16.7109375 63.3359375 C16.80632812 62.56507812 16.90171875 61.79421875 17 61 C14.03 61.495 14.03 61.495 11 62 C10.67 61.34 10.34 60.68 10 60 C11.98 59.505 11.98 59.505 14 59 C14.57167738 51.50467441 13.51198055 45.00497547 11.51074219 37.8359375 C10.56937017 34.43948092 9.84063027 31.16639663 9.4375 27.66015625 C9.05327413 24.44569515 8.57381192 22.72794066 7 20 C7 19.34 7 18.68 7 18 C6.34 17.67 5.68 17.34 5 17 C5.33 15.35 5.66 13.7 6 12 C5.01 12 4.02 12 3 12 C3 13.32 3 14.64 3 16 C2.505 17.485 2.505 17.485 2 19 C1.34 19 0.68 19 0 19 C-0.73080266 17.02253397 -1.39421747 15.01927511 -2 13 C-1.67 12.34 -1.34 11.68 -1 11 C-1.495 10.01 -1.495 10.01 -2 9 C-3.44524884 13.42605006 -3.44524884 13.42605006 -4 18 C-4.66 18 -5.32 18 -6 18 C-8.10888547 23.97606085 -9.82776959 29.92223296 -11.125 36.125 C-11.29749268 36.94830811 -11.46998535 37.77161621 -11.64770508 38.61987305 C-13.13991432 46.08525076 -13.69830334 53.39053968 -14 61 C-15.38532009 85.18982007 -15.38532009 85.18982007 -18.0859375 91.5625 C-19.16819342 94.44851578 -18.97722828 96.38886663 -18.6875 99.4375 C-18.56665843 104.43899834 -18.56665843 104.43899834 -20.4453125 106.87109375 C-22.3125 108.375 -22.3125 108.375 -24.25 109.71875 C-26.56116839 111.41085543 -27.61991717 113.5303781 -29 116 C-29.66 116 -30.32 116 -31 116 C-31 116.99 -31 117.98 -31 119 C-32.98 119.495 -32.98 119.495 -35 120 C-35.33 121.32 -35.66 122.64 -36 124 C-36.66 123.67 -37.32 123.34 -38 123 C-36.56455422 117.98365724 -34.36145733 114.00277554 -31.625 109.625 C-30.81373172 108.28598682 -30.00381752 106.94615222 -29.1953125 105.60546875 C-28.00117457 103.63519146 -26.79538712 101.6798085 -25.5546875 99.73828125 C-23.27436321 95.84483866 -22.8044399 92.57553035 -22.609375 88.078125 C-22.04709784 79.16407333 -20.65586753 70.42401415 -19.20849609 61.6159668 C-18.75387169 58.83617336 -18.31584868 56.05410481 -17.87890625 53.27148438 C-11.1706522 11.48981369 -11.1706522 11.48981369 0 0 Z " fill="#335859" transform="translate(147,6)"/>
<path d="M0 0 C0.66 0 1.32 0 2 0 C2.56943742 4.41313997 3 8.55550771 3 13 C3.66 13 4.32 13 5 13 C5 13.66 5 14.32 5 15 C4.195625 15.2475 3.39125 15.495 2.5625 15.75 C-0.171081 16.72238859 -0.171081 16.72238859 -0.8125 19.125 C-0.9053125 20.053125 -0.9053125 20.053125 -1 21 C-0.773125 20.360625 -0.54625 19.72125 -0.3125 19.0625 C0.120625 18.381875 0.55375 17.70125 1 17 C2.65 16.67 4.3 16.34 6 16 C6.99 19.96 7.98 23.92 9 28 C7.68 27.34 6.36 26.68 5 26 C5.495 27.485 5.495 27.485 6 29 C5.34 29 4.68 29 4 29 C4.99 30.65 5.98 32.3 7 34 C5.68 34 4.36 34 3 34 C2.505 34.99 2.505 34.99 2 36 C0.515 35.505 0.515 35.505 -1 35 C-1 31.23312136 -0.76462683 30.08809695 1 27 C0.34 27 -0.32 27 -1 27 C-1 27.66 -1 28.32 -1 29 C-1.99 29 -2.98 29 -4 29 C-4 28.01 -4 27.02 -4 26 C-5.32 28.31 -6.64 30.62 -8 33 C-8.78375 32.835 -9.5675 32.67 -10.375 32.5 C-12.88208039 31.9376293 -12.88208039 31.9376293 -15 32 C-15.78375 32.825 -16.5675 33.65 -17.375 34.5 C-20 37 -20 37 -24 37 C-24.309375 37.969375 -24.61875 38.93875 -24.9375 39.9375 C-26 43 -26 43 -27 44 C-26.67 44 -26.34 44 -26 44 C-26 45.65 -26 47.3 -26 49 C-26.99 48.67 -27.98 48.34 -29 48 C-30.1875 44.4375 -30.1875 44.4375 -31 41 C-29.68 40.34 -28.36 39.68 -27 39 C-30.11338216 38.67356372 -30.11338216 38.67356372 -32.23657227 40.92773438 C-33.08791748 41.80751953 -33.9392627 42.68730469 -34.81640625 43.59375 C-35.273535 44.05986694 -35.73066376 44.52598389 -36.2016449 45.00622559 C-37.66257828 46.49721522 -39.11323066 47.9976764 -40.5625 49.5 C-42.01618124 51.00142552 -43.47196781 52.50054304 -44.93406677 53.99377441 C-46.2592338 55.34783115 -47.57622174 56.70987789 -48.89282227 58.07226562 C-51 60 -51 60 -53 60 C-53.23460938 60.56203125 -53.46921875 61.1240625 -53.7109375 61.703125 C-55.30663 64.54635891 -57.28924543 66.48098127 -59.625 68.75 C-60.44226563 69.54921875 -61.25953125 70.3484375 -62.1015625 71.171875 C-62.72804688 71.77515625 -63.35453125 72.3784375 -64 73 C-62.02 72.505 -62.02 72.505 -60 72 C-63.50413223 77.63164109 -63.50413223 77.63164109 -66.1875 79.625 C-68.41003425 81.31106047 -68.38673242 82.37171038 -69 85 C-70.485 85.495 -70.485 85.495 -72 86 C-73.84133105 87.98231463 -75.49610866 90.07342472 -77.18359375 92.1875 C-79.15001292 94.14969031 -80.29003923 94.61881871 -83 95 C-83.66 93.68 -84.32 92.36 -85 91 C-84.37351562 90.39671875 -83.74703125 89.7934375 -83.1015625 89.171875 C-82.28429687 88.37265625 -81.46703125 87.5734375 -80.625 86.75 C-79.81289062 85.96109375 -79.00078125 85.1721875 -78.1640625 84.359375 C-75.99360062 82.23354767 -75.99360062 82.23354767 -75.14363098 80.14561462 C-73.66602022 77.37340636 -71.76533388 75.52615107 -69.5378418 73.31079102 C-68.61315598 72.38625626 -67.68847015 71.4617215 -66.73576355 70.50917053 C-65.72368486 69.5073118 -64.71150064 68.50555967 -63.69921875 67.50390625 C-62.65986641 66.46828846 -61.62095802 65.43222495 -60.58247375 64.39573669 C-57.84827865 61.66916843 -55.10813815 58.94865238 -52.36669922 56.22937012 C-49.59050314 53.47355757 -46.81988071 50.71215462 -44.04882812 47.95117188 C-39.16104132 43.08250802 -34.26837631 38.21880199 -29.37211609 33.35865784 C-27.67910818 31.67525525 -25.99155773 29.98635672 -24.30769348 28.29380798 C-22.46947353 26.46664869 -20.63691221 24.81175107 -18.625 23.1875 C-15.25284096 20.34430709 -12.43120066 17.18433126 -9.5703125 13.8359375 C-7.80609938 11.77330028 -6.03022512 9.80464455 -4 8 C-3.34 8 -2.68 8 -2 8 C-1.34 5.36 -0.68 2.72 0 0 Z " fill="#413F3E" transform="translate(106,127)"/>
<path d="M0 0 C0.99 0 1.98 0 3 0 C3.3403125 0.63164063 3.680625 1.26328125 4.03125 1.9140625 C7.38471324 8.10369944 10.82447584 14.23432388 14.37109375 20.31494141 C15.84439011 22.86348309 17.06567089 25.19701266 18 28 C18.99 28 19.98 28 21 28 C21.391875 28.886875 21.78375 29.77375 22.1875 30.6875 C24.06229051 34.11384127 26.23087288 36.33716687 29 39 C31.94467843 41.88858247 34.87857364 44.78800362 37.8125 47.6875 C38.60076172 48.45900391 39.38902344 49.23050781 40.20117188 50.02539062 C40.94560547 50.76337891 41.69003906 51.50136719 42.45703125 52.26171875 C43.13741455 52.93162842 43.81779785 53.60153809 44.51879883 54.29174805 C46 56 46 56 46 58 C45.01 58.33 44.02 58.66 43 59 C43.99 59.99 44.98 60.98 46 62 C45.67 62.99 45.34 63.98 45 65 C44.67 64.01 44.34 63.02 44 62 C42.68 62 41.36 62 40 62 C38.66666667 60.66666667 37.33333333 59.33333333 36 58 C34.68 58 33.36 58 32 58 C31.01 53.05 31.01 53.05 30 48 C31.65 48.66 33.3 49.32 35 50 C34.21625 49.030625 33.4325 48.06125 32.625 47.0625 C32.18414062 46.51722656 31.74328125 45.97195312 31.2890625 45.41015625 C30.0333609 43.86733563 30.0333609 43.86733563 28 43 C28.66 44.32 29.32 45.64 30 47 C28.68 46.67 27.36 46.34 26 46 C26 46.66 26 47.32 26 48 C25.01 48 24.02 48 23 48 C22.505 45.525 22.505 45.525 22 43 C21.34 43 20.68 43 20 43 C20 42.34 20 41.68 20 41 C17.08347826 40.83318891 17.08347826 40.83318891 14 41 C13.34 41.66 12.68 42.32 12 43 C12.33 41.35 12.66 39.7 13 38 C12.01 38.495 12.01 38.495 11 39 C9.98965502 37.25595212 8.99207578 35.50450439 8 33.75 C7.443125 32.77546875 6.88625 31.8009375 6.3125 30.796875 C5 28 5 28 5 24 C3.35 24 1.7 24 0 24 C-0.625 22.125 -0.625 22.125 -1 20 C-0.34 19.34 0.32 18.68 1 18 C4.125 18.375 4.125 18.375 7 19 C7 18.01 7 17.02 7 16 C6.401875 15.835 5.80375 15.67 5.1875 15.5 C1.7863817 13.16780459 0.976548 9.906192 0 6 C-0.1875 2.5 -0.1875 2.5 0 0 Z " fill="#424241" transform="translate(169,101)"/>
<path d="M0 0 C1.65 0 3.3 0 5 0 C8.0669145 5.39776952 8.0669145 5.39776952 7.75 8.25 C7.20662295 9.51787979 6.61689185 10.7662163 6 12 C5.93085069 13.35256045 5.91538146 14.70835372 5.9375 16.0625 C6 20 6 20 6 21 C6.99 21.33 7.98 21.66 9 22 C9 23.98 9 25.96 9 28 C8.01 28.33 7.02 28.66 6 29 C7.2739589 31.03833424 8.61061923 33.03852126 10 35 C10.66 35 11.32 35 12 35 C12 35.66 12 36.32 12 37 C12.66 37.33 13.32 37.66 14 38 C13.01 38.66 12.02 39.32 11 40 C9.81724166 41.80851322 9.81724166 41.80851322 8.875 43.875 C8.54242188 44.55304688 8.20984375 45.23109375 7.8671875 45.9296875 C7.01500125 47.9641862 6.37301782 49.82557904 6 52 C6.33 52.66 6.66 53.32 7 54 C6.01 54 5.02 54 4 54 C4.165 54.61875 4.33 55.2375 4.5 55.875 C5 58 5 58 5 60 C5.66 60 6.32 60 7 60 C6.505 62.475 6.505 62.475 6 65 C3.69 65 1.38 65 -1 65 C-1 63.35 -1 61.7 -1 60 C-0.01 60 0.98 60 2 60 C1.72285156 59.38511719 1.44570312 58.77023438 1.16015625 58.13671875 C0.79792969 57.32847656 0.43570313 56.52023438 0.0625 55.6875 C-0.29714844 54.88699219 -0.65679687 54.08648437 -1.02734375 53.26171875 C-2 51 -2 51 -3 48 C-3.66 48 -4.32 48 -5 48 C-4.85890014 45.89551062 -4.71195825 43.7914123 -4.5625 41.6875 C-4.48128906 40.51574219 -4.40007812 39.34398437 -4.31640625 38.13671875 C-4 35 -4 35 -3 32 C-2.01 32 -1.02 32 0 32 C0.66 28.04 1.32 24.08 2 20 C1.34 20 0.68 20 0 20 C0.06510417 18.01432292 0.13020833 16.02864583 0.1953125 14.04296875 C0.13254462 11.68640281 0.13254462 11.68640281 -2 9 C-1.46808511 2.93617021 -1.46808511 2.93617021 0 0 Z " fill="#494949" transform="translate(145,34)"/>
<path d="M0 0 C0.984375 2.36328125 0.984375 2.36328125 1.75 5.3125 C2.01296875 6.27800781 2.2759375 7.24351562 2.546875 8.23828125 C3.28186958 12.7179465 1.7139441 15.88653416 0 20 C-1.32 20 -2.64 20 -4 20 C-3.67 19.34 -3.34 18.68 -3 18 C-3.33 17.01 -3.66 16.02 -4 15 C-6.31 16.65 -8.62 18.3 -11 20 C-11.33 19.34 -11.66 18.68 -12 18 C-12.33 18.33 -12.66 18.66 -13 19 C-12.34 21.31 -11.68 23.62 -11 26 C-11.66 26 -12.32 26 -13 26 C-12.896875 26.7425 -12.79375 27.485 -12.6875 28.25 C-13 31 -13 31 -15.5 33.3125 C-16.325 33.869375 -17.15 34.42625 -18 35 C-19.79640787 31.63173525 -20 29.81739679 -20 26 C-17.525 27.98 -17.525 27.98 -15 30 C-16.32 26.37 -17.64 22.74 -19 19 C-20.32 19 -21.64 19 -23 19 C-23.28875 19.969375 -23.5775 20.93875 -23.875 21.9375 C-25 25 -25 25 -27 26 C-25.25 19.25 -25.25 19.25 -23 17 C-21.01178687 16.60235737 -19.01055661 16.26224651 -17 16 C-17 16.99 -17 17.98 -17 19 C-16.34 19 -15.68 19 -15 19 C-14.979375 18.0925 -14.95875 17.185 -14.9375 16.25 C-14.10215828 10.27976358 -10.59893581 4.72406895 -7 0 C-4.01473299 -1.3356644 -3.18505418 -1.06168473 0 0 Z " fill="#2C2B29" transform="translate(130,125)"/>
<path d="M0 0 C0.33 0 0.66 0 1 0 C2.45797969 10.6918511 -5.82378542 20.57754076 -11.36328125 29.1875 C-12.75079629 31.57177406 -13.5540631 33.31145292 -14 36 C-13.38125 35.34 -12.7625 34.68 -12.125 34 C-10 32 -10 32 -8 32 C-8 31.01 -8 30.02 -8 29 C-7.34 29 -6.68 29 -6 29 C-5.731875 28.195625 -5.46375 27.39125 -5.1875 26.5625 C-4.795625 25.716875 -4.40375 24.87125 -4 24 C-3.01 23.67 -2.02 23.34 -1 23 C-0.67 22.34 -0.34 21.68 0 21 C0.66 21 1.32 21 2 21 C2.66 20.67 3.32 20.34 4 20 C4.125 23.375 4.125 23.375 4 27 C3.34 27.66 2.68 28.32 2 29 C2 29.99 2 30.98 2 32 C0.515 32.495 0.515 32.495 -1 33 C-2.33984531 35.26135465 -3.50311743 37.4475145 -4.625 39.8125 C-4.93695313 40.44220703 -5.24890625 41.07191406 -5.5703125 41.72070312 C-7.05067376 44.76118649 -8.37808587 47.66351474 -9 51 C-9.66 51 -10.32 51 -11 51 C-11 50.01 -11 49.02 -11 48 C-11.61875 47.95875 -12.2375 47.9175 -12.875 47.875 C-15 47 -15 47 -16.3125 44.0625 C-17 41 -17 41 -16 39 C-16.268125 38.154375 -16.53625 37.30875 -16.8125 36.4375 C-17.05754156 31.94507133 -15.60268051 30.51269009 -13.03125 26.96484375 C-10.3433807 23.04158837 -8.01493101 18.95702277 -5.6875 14.8125 C-5.24301514 14.0400293 -4.79853027 13.26755859 -4.34057617 12.47167969 C-2.01013149 8.30410597 -0.40991924 4.84942194 0 0 Z " fill="#414040" transform="translate(124,93)"/>
<path d="M0 0 C3.67202977 7.34405955 -0.46120476 22.12498907 -2 30 C-2.53753906 31.2684375 -2.53753906 31.2684375 -3.0859375 32.5625 C-4.16819342 35.44851578 -3.97722828 37.38886663 -3.6875 40.4375 C-3.56665843 45.43899834 -3.56665843 45.43899834 -5.4453125 47.87109375 C-7.3125 49.375 -7.3125 49.375 -9.25 50.71875 C-11.56116839 52.41085543 -12.61991717 54.5303781 -14 57 C-14.66 57 -15.32 57 -16 57 C-16 57.99 -16 58.98 -16 60 C-17.98 60.495 -17.98 60.495 -20 61 C-20.33 62.32 -20.66 63.64 -21 65 C-21.66 64.67 -22.32 64.34 -23 64 C-21.56455422 58.98365724 -19.36145733 55.00277554 -16.625 50.625 C-15.81373172 49.28598682 -15.00381752 47.94615222 -14.1953125 46.60546875 C-13.00117457 44.63519146 -11.79538712 42.6798085 -10.5546875 40.73828125 C-7.60062314 35.69448987 -7.53184178 30.79486091 -7.28125 25.03125 C-6.87699815 17.61996601 -5.31469634 10.29284383 -4 3 C-3.67 3.99 -3.34 4.98 -3 6 C-2.34 6 -1.68 6 -1 6 C-1.020625 5.195625 -1.04125 4.39125 -1.0625 3.5625 C-1 1 -1 1 0 0 Z " fill="#555253" transform="translate(132,65)"/>
<path d="M0 0 C0.495 0.99 0.495 0.99 1 2 C0.01 2.66 -0.98 3.32 -2 4 C-3.06246527 5.96752828 -4.07137808 7.96587579 -5 10 C-4.34 10 -3.68 10 -3 10 C-2.505 11.485 -2.505 11.485 -2 13 C-2.66 13.33 -3.32 13.66 -4 14 C-4.99 13.67 -5.98 13.34 -7 13 C-6.505 14.98 -6.505 14.98 -6 17 C-9.37097383 18.49821059 -11.20442119 19 -15 19 C-14.67 19.33 -14.34 19.66 -14 20 C-14 20.99 -14 21.98 -14 23 C-14.5775 23.2475 -15.155 23.495 -15.75 23.75 C-18.3002997 25.16683317 -20.01785701 26.87627537 -22 29 C-22 28.01 -22 27.02 -22 26 C-22.391875 26.86625 -22.78375 27.7325 -23.1875 28.625 C-25 32 -25 32 -27.5625 35.0625 C-29.81068058 37.77184583 -30.85298433 39.73541693 -32 43 C-32.66 43.99 -33.32 44.98 -34 46 C-34 46.99 -34 47.98 -34 49 C-35.98 48.67 -37.96 48.34 -40 48 C-40.3125 45.75 -40.3125 45.75 -40 43 C-37.5625 40.875 -37.5625 40.875 -35 39 C-34.67 38.01 -34.34 37.02 -34 36 C-34.99 36 -35.98 36 -37 36 C-32.94726562 31.94726562 -32.94726562 31.94726562 -28.89453125 27.89453125 C-28.40331787 27.4032373 -27.91210449 26.91194336 -27.40600586 26.40576172 C-26.18531863 25.18528645 -24.96382507 23.96561776 -23.7421875 22.74609375 C-21.29856109 20.29898639 -18.86160358 17.84549437 -16.42578125 15.390625 C-14.72141771 13.67702013 -13.0169889 11.96348018 -11.3125 10.25 C-10.44560547 9.37472656 -9.57871094 8.49945313 -8.68554688 7.59765625 C-7.85732422 6.76621094 -7.02910156 5.93476563 -6.17578125 5.078125 C-5.42208252 4.31918945 -4.66838379 3.56025391 -3.8918457 2.77832031 C-2 1 -2 1 0 0 Z " fill="#3F4140" transform="translate(78,164)"/>
<path d="M0 0 C0 0.66 0 1.32 0 2 C-1.4050293 3.38818359 -1.4050293 3.38818359 -3.38671875 5.0234375 C-8.43828357 9.32155236 -13.12253969 13.93870086 -17.8125 18.625 C-18.65748047 19.45773438 -19.50246094 20.29046875 -20.37304688 21.1484375 C-21.18451172 21.95796875 -21.99597656 22.7675 -22.83203125 23.6015625 C-23.56139893 24.32682129 -24.2907666 25.05208008 -25.04223633 25.79931641 C-27.05910783 28.06644195 -28.48025637 30.3820965 -30 33 C-31.51663081 34.64760066 -33.08091699 36.25248462 -34.6875 37.8125 C-35.49574219 38.60269531 -36.30398437 39.39289063 -37.13671875 40.20703125 C-37.75160156 40.79871094 -38.36648437 41.39039063 -39 42 C-37.02 41.505 -37.02 41.505 -35 41 C-38.50413223 46.63164109 -38.50413223 46.63164109 -41.1875 48.625 C-43.41003425 50.31106047 -43.38673242 51.37171038 -44 54 C-45.485 54.495 -45.485 54.495 -47 55 C-48.84133105 56.98231463 -50.49610866 59.07342472 -52.18359375 61.1875 C-54.15001292 63.14969031 -55.29003923 63.61881871 -58 64 C-58.66 62.68 -59.32 61.36 -60 60 C-59.37351562 59.39671875 -58.74703125 58.7934375 -58.1015625 58.171875 C-57.28429687 57.37265625 -56.46703125 56.5734375 -55.625 55.75 C-54.81289063 54.96109375 -54.00078125 54.1721875 -53.1640625 53.359375 C-50.99410037 51.23432218 -50.99410037 51.23432218 -50.14660645 49.15057373 C-48.65598624 46.35476818 -46.72850785 44.47403851 -44.49023438 42.23144531 C-43.80698845 41.54294243 -43.80698845 41.54294243 -43.10993958 40.8405304 C-41.6095207 39.33133945 -40.10194115 37.82954588 -38.59375 36.328125 C-37.54735523 35.28038275 -36.50125749 34.23234378 -35.45544434 33.184021 C-33.26633957 30.9919715 -31.07366731 28.8035712 -28.87841797 26.61767578 C-26.06026231 23.81094246 -23.25121745 20.99528862 -20.44475555 18.17686844 C-18.28828892 16.0131897 -16.12709999 13.85427872 -13.96443176 11.69680023 C-12.92630545 10.66001075 -11.88967012 9.62172619 -10.85453796 8.58194733 C-9.41110988 7.13346181 -7.96061089 5.69203276 -6.50976562 4.25097656 C-5.68528931 3.42809143 -4.86081299 2.6052063 -4.01135254 1.75738525 C-2 0 -2 0 0 0 Z " fill="#184342" transform="translate(81,158)"/>
<path d="M0 0 C1.69915471 1.5446861 2.89726993 2.77986413 3.875 4.875 C5.40507134 7.76513475 7.67834835 9.74105803 10 12 C12.94320491 14.89008365 15.87857245 17.78800245 18.8125 20.6875 C19.99489258 21.84475586 19.99489258 21.84475586 21.20117188 23.02539062 C22.31782227 24.13237305 22.31782227 24.13237305 23.45703125 25.26171875 C24.13741455 25.93162842 24.81779785 26.60153809 25.51879883 27.29174805 C27 29 27 29 27 31 C26.01 31.33 25.02 31.66 24 32 C24.99 32.99 25.98 33.98 27 35 C26.67 35.99 26.34 36.98 26 38 C25.67 37.01 25.34 36.02 25 35 C23.68 35 22.36 35 21 35 C19.66666667 33.66666667 18.33333333 32.33333333 17 31 C15.68 31 14.36 31 13 31 C12.34 27.7 11.68 24.4 11 21 C13.475 21.99 13.475 21.99 16 23 C15.21625 22.030625 14.4325 21.06125 13.625 20.0625 C13.18414062 19.51722656 12.74328125 18.97195312 12.2890625 18.41015625 C11.0333609 16.86733563 11.0333609 16.86733563 9 16 C9.66 17.32 10.32 18.64 11 20 C9.68 19.67 8.36 19.34 7 19 C7 19.66 7 20.32 7 21 C6.01 21 5.02 21 4 21 C3.67 19.35 3.34 17.7 3 16 C2.34 16 1.68 16 1 16 C0.67 14.02 0.34 12.04 0 10 C1.32 10.33 2.64 10.66 4 11 C3.071875 10.13375 3.071875 10.13375 2.125 9.25 C0.18652947 7.19750179 -0.90014249 5.56633418 -2 3 C-1.34 2.01 -0.68 1.02 0 0 Z " fill="#3F4345" transform="translate(188,128)"/>
<path d="M0 0 C2.0625 0.6875 2.0625 0.6875 5.0625 2.6875 C5.39583333 5.02083333 5.72916667 7.35416667 6.0625 9.6875 C7.0525 10.3475 8.0425 11.0075 9.0625 11.6875 C8.1544838 12.81949353 7.23566174 13.94282363 6.3125 15.0625 C5.80203125 15.68898437 5.2915625 16.31546875 4.765625 16.9609375 C2.98050519 18.77062318 1.38300356 19.68867455 -0.9375 20.6875 C-1.9275 20.0275 -2.9175 19.3675 -3.9375 18.6875 C-3.9375 18.0275 -3.9375 17.3675 -3.9375 16.6875 C-5.5875 16.6875 -7.2375 16.6875 -8.9375 16.6875 C-8.9375 18.3375 -8.9375 19.9875 -8.9375 21.6875 C-9.9275 22.0175 -10.9175 22.3475 -11.9375 22.6875 C-11.9375 20.7075 -11.9375 18.7275 -11.9375 16.6875 C-12.5975 16.6875 -13.2575 16.6875 -13.9375 16.6875 C-13.6875 14.8125 -13.6875 14.8125 -12.9375 12.6875 C-10.35597698 10.96648465 -9.08831975 10.6875 -5.9375 10.6875 C-5.9375 9.6975 -5.9375 8.7075 -5.9375 7.6875 C-3.9575 7.0275 -1.9775 6.3675 0.0625 5.6875 C-2.0120356 4.4638932 -2.0120356 4.4638932 -4.9375 4.6875 C-4.5625 2.75 -4.5625 2.75 -3.9375 0.6875 C-1.9375 -0.3125 -1.9375 -0.3125 0 0 Z " fill="#333333" transform="translate(128.9375,181.3125)"/>
<path d="M0 0 C0 3 0 3 -1.8984375 5.26171875 C-2.71570313 6.06222656 -3.53296875 6.86273438 -4.375 7.6875 C-5.59316406 8.89986328 -5.59316406 8.89986328 -6.8359375 10.13671875 C-9 12 -9 12 -11 12 C-11.39832031 12.87398437 -11.39832031 12.87398437 -11.8046875 13.765625 C-13.03302996 16.06174228 -14.40314939 17.80356018 -16.125 19.75 C-16.66382813 20.36359375 -17.20265625 20.9771875 -17.7578125 21.609375 C-18.16773438 22.06828125 -18.57765625 22.5271875 -19 23 C-17.68 23 -16.36 23 -15 23 C-15.495 24.485 -15.495 24.485 -16 26 C-16.66 26 -17.32 26 -18 26 C-18.33 27.32 -18.66 28.64 -19 30 C-20.32 30 -21.64 30 -23 30 C-23.309375 30.969375 -23.61875 31.93875 -23.9375 32.9375 C-25 36 -25 36 -26 37 C-25.67 37 -25.34 37 -25 37 C-25 38.65 -25 40.3 -25 42 C-26.485 41.505 -26.485 41.505 -28 41 C-29.1875 37.4375 -29.1875 37.4375 -30 34 C-28.68 33.34 -27.36 32.68 -26 32 C-29.11513788 31.67620793 -29.11513788 31.67620793 -31.26831055 33.92773438 C-32.13238525 34.80751953 -32.99645996 35.68730469 -33.88671875 36.59375 C-34.5795269 37.29292542 -34.5795269 37.29292542 -35.28633118 38.00622559 C-36.76056952 39.4972629 -38.22404088 40.99838872 -39.6875 42.5 C-40.68485528 43.51240054 -41.68289417 44.52412811 -42.68164062 45.53515625 C-45.12907564 48.01567629 -47.56695887 50.50535089 -50 53 C-50.66 52.67 -51.32 52.34 -52 52 C-48.34017795 48.2908542 -44.67392152 44.58823822 -41.00146484 40.89160156 C-39.75226298 39.63232287 -38.50485944 38.37125764 -37.25927734 37.10839844 C-35.47178925 35.29673588 -33.67799773 33.49153161 -31.8828125 31.6875 C-31.04521896 30.83442261 -31.04521896 30.83442261 -30.19070435 29.96411133 C-28.83124115 28.6042535 -27.41993393 27.29658827 -26 26 C-25.34 26 -24.68 26 -24 26 C-23.90203125 25.42121094 -23.8040625 24.84242188 -23.703125 24.24609375 C-22.85805921 21.54657804 -21.64931075 20.14761288 -19.75 18.0625 C-19.11449219 17.36253906 -18.47898438 16.66257813 -17.82421875 15.94140625 C-15.59863824 13.57285483 -13.32650928 11.26976515 -11 9 C-10.34644531 8.32453125 -9.69289062 7.6490625 -9.01953125 6.953125 C-8.31183594 6.22609375 -7.60414062 5.4990625 -6.875 4.75 C-6.21242187 4.06421875 -5.54984375 3.3784375 -4.8671875 2.671875 C-3 1 -3 1 0 0 Z " fill="#536060" transform="translate(105,134)"/>
<path d="M0 0 C3.8503625 0.54496785 5.23450234 2.0530292 7.68359375 4.9921875 C11.9707522 9.92518761 16.47141356 14.57925563 21.09765625 19.1953125 C21.82213959 19.91877869 22.54662292 20.64224487 23.2930603 21.38763428 C25.54758402 23.63539637 27.80497028 25.8802574 30.0625 28.125 C31.61156199 29.66903625 33.160392 31.21330526 34.70898438 32.7578125 C38.46998643 36.50789568 42.23384039 40.25509688 46 44 C45.505 44.99 45.505 44.99 45 46 C37.26297333 39.51088086 37.26297333 39.51088086 34.125 35.5625 C33.42375 34.716875 32.7225 33.87125 32 33 C31.34 33 30.68 33 30 33 C30.99 33.66 31.98 34.32 33 35 C33 35.66 33 36.32 33 37 C29.5625 36.1875 29.5625 36.1875 26 35 C25.67 34.01 25.34 33.02 25 32 C23.09821215 31.39938767 23.09821215 31.39938767 21 31 C20.01 30.34 19.02 29.68 18 29 C18 29.66 18 30.32 18 31 C18.66 31.33 19.32 31.66 20 32 C19.01 32 18.02 32 17 32 C17.0825 31.278125 17.165 30.55625 17.25 29.8125 C16.92573441 26.16451206 15.42680413 24.65431702 13 22 C14.32 22.33 15.64 22.66 17 23 C17.15811388 19.94729537 17.15811388 19.94729537 16 17 C14.53764938 15.51370857 14.53764938 15.51370857 12.75 14.125 C9.64359323 11.55020511 6.72858985 8.97664348 4 6 C4 5.34 4 4.68 4 4 C2.68 3.34 1.36 2.68 0 2 C0 1.34 0 0.68 0 0 Z " fill="#464645" transform="translate(215,160)"/>
<path d="M0 0 C2.64 0 5.28 0 8 0 C8.433125 1.03125 8.86625 2.0625 9.3125 3.125 C10.33404302 5.54265181 11.41490663 7.7529787 12.6875 10.0625 C14.13063602 13.29237586 14.24977941 15.50308824 14 19 C12.35 19.33 10.7 19.66 9 20 C9 19.34 9 18.68 9 18 C8.34 18 7.68 18 7 18 C6.8453125 16.824375 6.8453125 16.824375 6.6875 15.625 C6.22404978 12.66954819 6.22404978 12.66954819 3 11 C3 11.66 3 12.32 3 13 C2.67 13.33 2.34 13.66 2 14 C2 14.99 2 15.98 2 17 C1.67 17.66 1.34 18.32 1 19 C1.66 19.33 2.32 19.66 3 20 C2.01 20.33 1.02 20.66 0 21 C0 20.34 0 19.68 0 19 C-0.66 18.67 -1.32 18.34 -2 18 C-2.33333333 16 -2.66666667 14 -3 12 C-3.66 11.67 -4.32 11.34 -5 11 C-4.34 11 -3.68 11 -3 11 C-2.86722656 10.37351563 -2.73445312 9.74703125 -2.59765625 9.1015625 C-2.33275391 7.87566406 -2.33275391 7.87566406 -2.0625 6.625 C-1.88847656 5.81289062 -1.71445313 5.00078125 -1.53515625 4.1640625 C-1 2 -1 2 0 0 Z " fill="#2B2929" transform="translate(166,125)"/>
<path d="M0 0 C0 0.66 0 1.32 0 2 C0.66 2 1.32 2 2 2 C2 1.34 2 0.68 2 0 C4.375 -0.1875 4.375 -0.1875 7 0 C9 3 9 3 9 7 C9.99 7.33 10.98 7.66 12 8 C11.443125 8.226875 10.88625 8.45375 10.3125 8.6875 C7.77182304 9.97022312 7.77182304 9.97022312 5.5625 12.6875 C3 15 3 15 0.625 15.25 C-3.37378748 13.34581549 -6.05333536 10.25237049 -9 7 C-8.34 6.67 -7.68 6.34 -7 6 C-6.34444881 3.47266765 -6.34444881 3.47266765 -6 1 C-3.92446352 0.4465236 -2.15634036 0 0 0 Z " fill="#2C2F2D" transform="translate(105,200)"/>
<path d="M0 0 C7.42857143 -0.14285714 7.42857143 -0.14285714 11 1 C11 1.66 11 2.32 11 3 C12.32 3.33 13.64 3.66 15 4 C11.79239749 7.80635497 8.59253891 11.54563567 5 15 C1.01636642 13.67212214 -1.10630834 11.99014805 -4 9 C-4.99 8.67 -5.98 8.34 -7 8 C-7 7.34 -7 6.68 -7 6 C-6.34 6 -5.68 6 -5 6 C-4.34 4.68 -3.68 3.36 -3 2 C-2.01 3.485 -2.01 3.485 -1 5 C-0.67 3.35 -0.34 1.7 0 0 Z " fill="#2E2F2B" transform="translate(164,204)"/>
<path d="M0 0 C3.76687864 0 4.91190305 0.23537317 8 2 C8 2.99 8 3.98 8 5 C8.99 4.67 9.98 4.34 11 4 C11 4.99 11 5.98 11 7 C11.99 7 12.98 7 14 7 C12.8648916 9.27021681 11.63253154 10.43072162 9.75 12.125 C9.16734375 12.66382813 8.5846875 13.20265625 7.984375 13.7578125 C5.36356464 15.39839851 4.04418139 15.54674795 1 15 C-1.45703125 13.03125 -1.45703125 13.03125 -3.8125 10.5 C-4.60269531 9.6646875 -5.39289063 8.829375 -6.20703125 7.96875 C-6.79871094 7.3190625 -7.39039062 6.669375 -8 6 C-5.50935112 5.31292445 -3.62113708 5 -1 5 C-1.66 3.68 -2.32 2.36 -3 1 C-2.01 1.33 -1.02 1.66 0 2 C0 1.34 0 0.68 0 0 Z " fill="#363637" transform="translate(125,203)"/>
<path d="M0 0 C0.99 0.33 1.98 0.66 3 1 C3 2.65 3 4.3 3 6 C3.66 6 4.32 6 5 6 C5.84761822 7.70129086 6.6774868 9.41143084 7.5 11.125 C7.9640625 12.07632812 8.428125 13.02765625 8.90625 14.0078125 C10.07748116 17.21196631 10.20076124 19.61717313 10 23 C9.34 23.33 8.68 23.66 8 24 C7.87625 23.030625 7.7525 22.06125 7.625 21.0625 C7.41875 20.051875 7.2125 19.04125 7 18 C6.34 17.67 5.68 17.34 5 17 C5.33 15.35 5.66 13.7 6 12 C5.01 12 4.02 12 3 12 C3 13.32 3 14.64 3 16 C2.67 16.99 2.34 17.98 2 19 C1.34 19 0.68 19 0 19 C-0.73080266 17.02253397 -1.39421747 15.01927511 -2 13 C-1.67 12.34 -1.34 11.68 -1 11 C-1.33 10.34 -1.66 9.68 -2 9 C-3.44524884 13.42605006 -3.44524884 13.42605006 -4 18 C-4.66 18 -5.32 18 -6 18 C-6.33 19.32 -6.66 20.64 -7 22 C-7.66 22 -8.32 22 -9 22 C-7.00878667 14.10501383 -3.81085857 7.17773362 0 0 Z " fill="#505D60" transform="translate(147,6)"/>
<path d="M0 0 C3.74456934 7.48913868 -0.24005151 24.62525536 -2.796875 32.43359375 C-3.625 34.375 -3.625 34.375 -5 37 C-5.99 36.34 -6.98 35.68 -8 35 C-7.49408601 24.14901727 -5.92443806 13.67518472 -4 3 C-3.67 3.99 -3.34 4.98 -3 6 C-2.34 6 -1.68 6 -1 6 C-1.020625 5.195625 -1.04125 4.39125 -1.0625 3.5625 C-1 1 -1 1 0 0 Z " fill="#3C5354" transform="translate(132,65)"/>
<path d="M0 0 C3.83466327 1.58778397 6.30522243 4.02666911 9.2434082 6.92114258 C9.75278427 7.42058884 10.26216034 7.9200351 10.78697205 8.43461609 C12.46383509 10.08235585 14.13289085 11.73771246 15.80078125 13.39453125 C16.9633088 14.54555151 18.12584039 15.69656768 19.28837585 16.84757996 C21.72062934 19.25885152 24.14821483 21.674725 26.57348633 24.09301758 C29.68519284 27.19372398 32.81503146 30.27542831 35.94950581 33.35309315 C38.35554802 35.72194209 40.74812137 38.10404828 43.13716698 40.49002647 C44.28570567 41.6325038 45.43925427 42.76996714 46.59780312 43.90229225 C48.21417894 45.48464675 49.81065118 47.08475051 51.40356445 48.69067383 C52.31749466 49.59731277 53.23142487 50.50395172 54.17304993 51.43806458 C56 54 56 54 55.97477722 56.70683289 C55 59 55 59 52 61 C52.04833984 60.12988281 52.04833984 60.12988281 52.09765625 59.2421875 C52.0394992 55.32627944 51.91226003 52.89775093 49.03515625 50.06640625 C44.40882404 46.86855506 44.40882404 46.86855506 39 46 C39.23839096 45.26211243 39.47678192 44.52422485 39.72239685 43.76397705 C40.29769703 40.96590517 40.29769703 40.96590517 38.60169983 38.88690186 C37.88888351 38.19042542 37.1760672 37.49394897 36.44165039 36.77636719 C35.64074478 35.97914246 34.83983917 35.18191772 34.0146637 34.36053467 C33.13455124 33.51452698 32.25443878 32.66851929 31.34765625 31.796875 C30.45839951 30.91847961 29.56914276 30.04008423 28.65293884 29.1350708 C26.28761736 26.80318605 23.91046988 24.48487662 21.52618408 22.17248535 C18.16339036 18.90434514 14.82509418 15.61112965 11.48277283 12.32208252 C9.70092245 10.57154713 7.91482883 8.82531922 6.12428284 7.0836792 C5.32022507 6.29906311 4.5161673 5.51444702 3.68774414 4.70605469 C2.97413223 4.01276062 2.26052032 3.31946655 1.52528381 2.60516357 C0 1 0 1 0 0 Z " fill="#094348" transform="translate(220,163)"/>
<path d="M0 0 C0.66 0 1.32 0 2 0 C2.56943742 4.41313997 3 8.55550771 3 13 C3.66 13 4.32 13 5 13 C5 13.66 5 14.32 5 15 C4.236875 15.20625 3.47375 15.4125 2.6875 15.625 C-0.82229103 17.42070704 -1.52599781 19.43136312 -3 23 C-4.98 22.34 -6.96 21.68 -9 21 C-9.0825 21.61875 -9.165 22.2375 -9.25 22.875 C-10 25 -10 25 -12.0625 26.25 C-12.701875 26.4975 -13.34125 26.745 -14 27 C-14 24 -14 24 -12 21 C-12 20.34 -12 19.68 -12 19 C-10.35546875 17.4140625 -10.35546875 17.4140625 -8.1875 15.625 C-5.35520187 13.2828081 -3.10737561 11.01813415 -1 8 C-1.33 7.34 -1.66 6.68 -2 6 C-1.39421747 3.98072489 -0.73080266 1.97746603 0 0 Z " fill="#464546" transform="translate(106,127)"/>
<path d="M0 0 C1.65 0 3.3 0 5 0 C8.0669145 5.39776952 8.0669145 5.39776952 7.75 8.25 C7.20662295 9.51787979 6.61689185 10.7662163 6 12 C6.020625 13.2375 6.04125 14.475 6.0625 15.75 C6.12437318 19.51738912 5.40936774 22.47658065 4 26 C3.34 26 2.68 26 2 26 C2 24.02 2 22.04 2 20 C1.34 20 0.68 20 0 20 C0.06510417 18.01432292 0.13020833 16.02864583 0.1953125 14.04296875 C0.13254462 11.68640281 0.13254462 11.68640281 -2 9 C-1.46808511 2.93617021 -1.46808511 2.93617021 0 0 Z " fill="#4D4D4D" transform="translate(145,34)"/>
<path d="M0 0 C2.375 0 2.375 0 5 1 C7.09231587 4.88572947 8.33984854 8.64300033 9 13 C8.34 13 7.68 13 7 13 C7 14.32 7 15.64 7 17 C6.67 17.99 6.34 18.98 6 20 C5.34 20 4.68 20 4 20 C3.67 19.34 3.34 18.68 3 18 C0.97536745 17.34786708 0.97536745 17.34786708 -1 17 C-0.67 15.02 -0.34 13.04 0 11 C-0.99 11.33 -1.98 11.66 -3 12 C-2.69230293 10.18667846 -2.37870936 8.37435655 -2.0625 6.5625 C-1.80146484 5.04849609 -1.80146484 5.04849609 -1.53515625 3.50390625 C-1 1 -1 1 0 0 Z " fill="#3D3A38" transform="translate(184,143)"/>
<path d="M0 0 C0.4031543 0.7206665 0.80630859 1.44133301 1.22167969 2.18383789 C2.73477367 4.88824353 4.24815316 7.59248914 5.76171875 10.29663086 C6.73198743 12.03031499 7.70193427 13.76417924 8.671875 15.49804688 C11.75842294 21.01203616 14.85115177 26.52132214 18 32 C17.01 32.99 16.02 33.98 15 35 C14.649375 33.741875 14.29875 32.48375 13.9375 31.1875 C12.25906419 26.09597701 9.5936569 21.96452182 6.6484375 17.515625 C4.05266185 13.55429913 1.89945474 9.67716463 1 5 C0.01 5 -0.98 5 -2 5 C-1.690625 6.216875 -1.38125 7.43375 -1.0625 8.6875 C-0.28842823 11.7782972 0.41262688 14.86734334 1 18 C0.34 18 -0.32 18 -1 18 C-0.67 19.32 -0.34 20.64 0 22 C-0.66 22 -1.32 22 -2 22 C-2.68707555 19.50935112 -3 17.62113708 -3 15 C-3.31421071 12.99690671 -3.6451046 10.99628664 -4 9 C-4.66 10.65 -5.32 12.3 -6 14 C-7.03719328 10.78543644 -6.94068337 8.59074417 -6.1875 5.3125 C-6.01605469 4.52488281 -5.84460938 3.73726563 -5.66796875 2.92578125 C-4.57525786 -0.22454897 -3.20632304 0 0 0 Z " fill="#434645" transform="translate(171,96)"/>
<path d="M0 0 C0.99 0 1.98 0 3 0 C3.3403125 0.63164063 3.680625 1.26328125 4.03125 1.9140625 C4.75828125 3.25597656 4.75828125 3.25597656 5.5 4.625 C6.03882813 5.62015625 6.57765625 6.6153125 7.1328125 7.640625 C8.45030018 10.01100033 9.78909836 12.3456652 11.1796875 14.671875 C11.72592773 15.59492432 11.72592773 15.59492432 12.28320312 16.53662109 C12.99954671 17.74280786 13.72455793 18.94389766 14.45898438 20.13916016 C16.48869601 23.57641548 17.43470122 25.99775083 17 30 C16.34 29.34 15.68 28.68 15 28 C15 26.68 15 25.36 15 24 C13.35 23.67 11.7 23.34 10 23 C10 22.34 10 21.68 10 21 C9.34 21 8.68 21 8 21 C7.9175 20.21625 7.835 19.4325 7.75 18.625 C7.5025 17.75875 7.255 16.8925 7 16 C6.38125 15.731875 5.7625 15.46375 5.125 15.1875 C2.08291796 13.48751298 1.61278333 11.32462306 0.52734375 8.109375 C-0.16038589 5.35845643 -0.21139838 2.81864502 0 0 Z " fill="#515755" transform="translate(169,101)"/>
<path d="M0 0 C0.33 0.99 0.66 1.98 1 3 C1.99 3 2.98 3 4 3 C8.22566108 5.3183588 11.51422643 7.5426793 13.0625 12.1875 C13 15 13 15 12 18 C7.95105948 17.47428335 6.18069025 15.46350492 3.4375 12.5625 C1.00163453 10.00340357 -1.04978421 7.96681053 -4 6 C-1.125 1.125 -1.125 1.125 0 0 Z " fill="#3C4648" transform="translate(260,206)"/>
<path d="M0 0 C4.05174027 2.13841847 6.18358031 4.43805745 9 8 C11.26767421 10.08115555 13.61724044 12.05229485 16 14 C15.690625 14.598125 15.38125 15.19625 15.0625 15.8125 C13.89790296 18.08956772 13.89790296 18.08956772 13 21 C13.66 21.66 14.32 22.32 15 23 C12.6875 23.6875 12.6875 23.6875 10 24 C8.125 22.8125 8.125 22.8125 7 21 C7.375 19 7.375 19 8 17 C7.67 16.01 7.34 15.02 7 14 C6.34 13.67 5.68 13.34 5 13 C4.68573231 10.7058459 4.62075424 8.44226779 4.5390625 6.12890625 C4.2110395 3.80573801 4.2110395 3.80573801 1.9609375 2.71484375 C1.31382812 2.47894531 0.66671875 2.24304688 0 2 C0 1.34 0 0.68 0 0 Z " fill="#404344" transform="translate(244,191)"/>
<path d="M0 0 C0.99 0.99 1.98 1.98 3 3 C2.34 3 1.68 3 1 3 C1 3.66 1 4.32 1 5 C1.60328125 4.91621094 2.2065625 4.83242187 2.828125 4.74609375 C3.62734375 4.64425781 4.4265625 4.54242188 5.25 4.4375 C6.03890625 4.33308594 6.8278125 4.22867188 7.640625 4.12109375 C10.00532874 3.99972651 11.7511037 4.30366743 14 5 C14.33 6.98 14.66 8.96 15 11 C14.01 11 13.02 11 12 11 C11.01 11.33 10.02 11.66 9 12 C8.26676204 14.01508358 8.26676204 14.01508358 8 16 C4.08158173 14.69386058 1.67359191 13.16870152 -1 10 C-1 9.34 -1 8.68 -1 8 C-0.34 8 0.32 8 1 8 C0.67 7.34 0.34 6.68 0 6 C-0.039992 4.00039988 -0.04346799 1.99952758 0 0 Z " fill="#2E2E2B" transform="translate(183,196)"/>
<path d="M0 0 C2.475 0.99 2.475 0.99 5 2 C5 2.66 5 3.32 5 4 C6.77068176 6.18739868 6.77068176 6.18739868 9 8 C9.99 8 10.98 8 12 8 C12 7.01 12 6.02 12 5 C12.66 5 13.32 5 14 5 C14 3.68 14 2.36 14 1 C15.32 0.67 16.64 0.34 18 0 C16.3341708 6.16356805 13.12194714 11.48259656 10 17 C7 16 7 16 5.17578125 12.91015625 C4.54434632 11.6326637 3.92363056 10.3498293 3.3125 9.0625 C2.99216797 8.41603516 2.67183594 7.76957031 2.34179688 7.10351562 C0 2.29509262 0 2.29509262 0 0 Z " fill="#122726" transform="translate(139,212)"/>
<path d="M0 0 C0.66 0.33 1.32 0.66 2 1 C1.33871094 1.60328125 0.67742188 2.2065625 -0.00390625 2.828125 C-0.84824219 3.62734375 -1.69257813 4.4265625 -2.5625 5.25 C-3.40941406 6.03890625 -4.25632812 6.8278125 -5.12890625 7.640625 C-7.28740637 9.80181321 -7.28740637 9.80181321 -6.77734375 12.296875 C-6.39255859 13.13992187 -6.39255859 13.13992187 -6 14 C-1.46915336 11.6698503 0.90180868 8.93554032 4 5 C4.66 4.34 5.32 3.68 6 3 C6.66 3.33 7.32 3.66 8 4 C8.33 2.68 8.66 1.36 9 0 C9.33 0.99 9.66 1.98 10 3 C13.51190809 4.22969878 13.51190809 4.22969878 17 5 C17 6.32 17 7.64 17 9 C16.113125 8.649375 15.22625 8.29875 14.3125 7.9375 C10.78280906 6.93853087 9.43024079 6.8987399 6 8 C3.81903501 9.99095668 1.98428907 12.1433083 0.0625 14.3828125 C-2 16 -2 16 -4.625 15.8671875 C-7 15 -7 15 -9 13 C-8.77346043 8.59343991 -7.08413616 6.63434973 -3.9375 3.6875 C-3.20402344 2.99011719 -2.47054688 2.29273438 -1.71484375 1.57421875 C-1.14894531 1.05472656 -0.58304688 0.53523437 0 0 Z " fill="#0C3033" transform="translate(29,208)"/>
<path d="M0 0 C2.0625 0.6875 2.0625 0.6875 5.0625 2.6875 C5.39583333 5.02083333 5.72916667 7.35416667 6.0625 9.6875 C7.0525 10.3475 8.0425 11.0075 9.0625 11.6875 C7.77284824 13.06312854 6.43560707 14.39516393 5.0625 15.6875 C4.4025 15.6875 3.7425 15.6875 3.0625 15.6875 C2.5675 16.1825 2.0725 16.6775 1.5625 17.1875 C1.0675 17.6825 0.5725 18.1775 0.0625 18.6875 C-0.5975 18.6875 -1.2575 18.6875 -1.9375 18.6875 C-0.1875 12.9375 -0.1875 12.9375 2.0625 10.6875 C1.74208603 8.08469432 1.74208603 8.08469432 1.0625 5.6875 C-1.88479537 4.52938612 -1.88479537 4.52938612 -4.9375 4.6875 C-4.5625 2.75 -4.5625 2.75 -3.9375 0.6875 C-1.9375 -0.3125 -1.9375 -0.3125 0 0 Z " fill="#2C2C2C" transform="translate(128.9375,181.3125)"/>
<path d="M0 0 C0 3 0 3 -1.8984375 5.26171875 C-2.71570313 6.06222656 -3.53296875 6.86273438 -4.375 7.6875 C-5.18710938 8.49574219 -5.99921875 9.30398437 -6.8359375 10.13671875 C-9 12 -9 12 -11 12 C-11.268125 12.58265625 -11.53625 13.1653125 -11.8125 13.765625 C-13.01480991 16.02786601 -14.33825913 17.80576318 -16 19.75 C-16.515625 20.36359375 -17.03125 20.9771875 -17.5625 21.609375 C-19 23 -19 23 -21 23 C-21 23.66 -21 24.32 -21 25 C-21.99 25 -22.98 25 -24 25 C-22.81372803 20.10662814 -19.86147542 17.9750331 -16.16015625 14.8984375 C-12.75437772 11.90529398 -9.93478334 8.44387841 -7 5 C-3.44444444 1.14814815 -3.44444444 1.14814815 0 0 Z " fill="#316160" transform="translate(105,134)"/>
<path d="M0 0 C1.65 0 3.3 0 5 0 C5.66 3.63 6.32 7.26 7 11 C5.68 11 4.36 11 3 11 C1.31301918 11.61344757 -0.35965807 12.27095914 -2 13 C-2 12.34 -2 11.68 -2 11 C-2.99 11 -3.98 11 -5 11 C-3.78651845 6.9861764 -2.62773046 3.30899391 0 0 Z " fill="#3F3B39" transform="translate(124,127)"/>
<path d="M0 0 C1.67299959 0.65061095 3.33859237 1.32033324 5 2 C5.680625 2.268125 6.36125 2.53625 7.0625 2.8125 C11.55721926 5.56732793 14.24132748 10.26877892 15.625 15.25 C15.74875 15.8275 15.8725 16.405 16 17 C15.34 16.67 14.68 16.34 14 16 C14 15.34 14 14.68 14 14 C12.68 14 11.36 14 10 14 C8.66666667 12.66666667 7.33333333 11.33333333 6 10 C4.68 10 3.36 10 2 10 C1.34 6.7 0.68 3.4 0 0 Z " fill="#494547" transform="translate(199,149)"/>
<path d="M0 0 C0 0.99 0 1.98 0 3 C2.97 3.495 2.97 3.495 6 4 C6 4.66 6 5.32 6 6 C6.598125 5.835 7.19625 5.67 7.8125 5.5 C10 5 10 5 13 5 C15.10820797 4.6814823 15.10820797 4.6814823 17 4 C17.33 3.34 17.66 2.68 18 2 C18.66 2.66 19.32 3.32 20 4 C15.60717028 7.32140784 12.70870369 8.8618862 7 9 C3.66425055 7.86035493 0.64967496 6.25161507 -2.4375 4.5625 C-3.67790039 3.9118457 -3.67790039 3.9118457 -4.94335938 3.24804688 C-6.97140794 2.18126989 -8.98908293 1.09863028 -11 0 C-6.80715834 -2.50457356 -4.54961843 -1.57486792 0 0 Z " fill="#0F292C" transform="translate(234,211)"/>
<path d="M0 0 C0.33 0.66 0.66 1.32 1 2 C-0.25 4.5625 -0.25 4.5625 -2 7 C-2.99 7.33 -3.98 7.66 -5 8 C-5 8.66 -5 9.32 -5 10 C-7.31 10.33 -9.62 10.66 -12 11 C-12.33 10.34 -12.66 9.68 -13 9 C-10.36 8.01 -7.72 7.02 -5 6 C-5 5.34 -5 4.68 -5 4 C-7.97 5.32 -10.94 6.64 -14 8 C-13.67 6.35 -13.34 4.7 -13 3 C-12.34 3 -11.68 3 -11 3 C-11 2.34 -11 1.68 -11 1 C-7.32589215 -0.17571451 -3.83070817 -0.07366746 0 0 Z " fill="#2F2D2D" transform="translate(93,191)"/>
<path d="M0 0 C2.3203125 0.22265625 2.3203125 0.22265625 5 1 C6.6171875 2.99609375 6.6171875 2.99609375 7.875 5.4375 C8.30554688 6.24058594 8.73609375 7.04367188 9.1796875 7.87109375 C9.45039063 8.57363281 9.72109375 9.27617187 10 10 C9.67 10.66 9.34 11.32 9 12 C8.34 12 7.68 12 7 12 C7 11.34 7 10.68 7 10 C5.20800528 9.21717352 5.20800528 9.21717352 3 9 C0.75244247 10.3516367 0.75244247 10.3516367 -1 12 C-1.66 11.67 -2.32 11.34 -3 11 C-2.690625 10.29875 -2.38125 9.5975 -2.0625 8.875 C-0.96697322 5.91063343 -0.43577008 3.12301892 0 0 Z " fill="#444340" transform="translate(167,126)"/>
<path d="M0 0 C1.9375 0.6875 1.9375 0.6875 4 2 C5.09809194 5.29427581 5.11196276 6.66411172 4 10 C3.67 10.33 3.34 10.66 3 11 C3.99 11 4.98 11 6 11 C5.34 12.65 4.68 14.3 4 16 C0.125 14.125 0.125 14.125 -1 13 C-1.66 12.67 -2.32 12.34 -3 12 C-3 11.34 -3 10.68 -3 10 C-2.34 9.67 -1.68 9.34 -1 9 C-0.78918149 5.10540926 -0.78918149 5.10540926 -2 2 C-1.34 2 -0.68 2 0 2 C0 1.34 0 0.68 0 0 Z " fill="#4A4948" transform="translate(169,136)"/>
<path d="M0 0 C0.66 0.33 1.32 0.66 2 1 C1.01 2.485 1.01 2.485 0 4 C0.66 4 1.32 4 2 4 C2.33 4.99 2.66 5.98 3 7 C2.01 7.495 2.01 7.495 1 8 C0.01 7.67 -0.98 7.34 -2 7 C-1.67 8.32 -1.34 9.64 -1 11 C-4.37097383 12.49821059 -6.20442119 13 -10 13 C-12.20067421 13.93283296 -12.20067421 13.93283296 -14 15 C-13.06409496 13.8944811 -12.12620142 12.79064547 -11.1875 11.6875 C-10.66542969 11.07261719 -10.14335938 10.45773438 -9.60546875 9.82421875 C-6.6626898 6.48047722 -6.6626898 6.48047722 -5 5 C-4.34 5 -3.68 5 -3 5 C-2.690625 4.360625 -2.38125 3.72125 -2.0625 3.0625 C-1 1 -1 1 0 0 Z " fill="#484A48" transform="translate(73,170)"/>
<path d="M0 0 C3.88121859 0.54096631 5.28172441 2.10550585 7.75 5.0625 C12.14598741 10.1382031 16.79940484 14.89286811 21.5625 19.625 C22.28985352 20.34824463 23.01720703 21.07148926 23.76660156 21.81665039 C25.50907508 23.5464642 27.25342518 25.27432876 29 27 C28.01 27.33 27.02 27.66 26 28 C23.35812146 25.4336037 20.94536321 22.93242291 18.625 20.0625 C16.25921988 17.16107156 13.58406493 14.84128279 10.71484375 12.44921875 C8.31132606 10.41799993 6.12754703 8.3209604 4 6 C4 5.34 4 4.68 4 4 C2.68 3.34 1.36 2.68 0 2 C0 1.34 0 0.68 0 0 Z " fill="#586D72" transform="translate(215,160)"/>
<path d="M0 0 C0.33 0 0.66 0 1 0 C1.71613193 4.34097846 2.42809168 8.68261457 3.13623047 13.02490234 C3.37760325 14.50132619 3.62010559 15.97756583 3.86376953 17.45361328 C4.21425317 19.57797329 4.56063982 21.70296739 4.90625 23.828125 C5.11572266 25.1059082 5.32519531 26.38369141 5.54101562 27.70019531 C6 31 6 31 6 35 C5.34 35 4.68 35 4 35 C3.77213542 32.94921875 3.54427083 30.8984375 3.31640625 28.84765625 C3.18113386 26.98859771 3.18113386 26.98859771 2 26 C1.855625 24.865625 1.71125 23.73125 1.5625 22.5625 C1.35152449 18.95941003 1.35152449 18.95941003 -1 17 C-0.79987219 15.09878583 -0.5875652 13.19747686 -0.29296875 11.30859375 C0.18476381 7.54406122 0.07891069 3.78771333 0 0 Z " fill="#555F62" transform="translate(164,61)"/>
<path d="M0 0 C0 3.73716372 -1.21114446 5.72284738 -2.875 9.0625 C-5.54161498 14.67245416 -7.19517739 19.85282044 -8 26 C-8.66 26 -9.32 26 -10 26 C-10.12375 26.99 -10.2475 27.98 -10.375 29 C-10.95194727 33.08880024 -11.94963654 37.00861887 -13 41 C-13.33 41 -13.66 41 -14 41 C-13.52934131 34.04645714 -12.35230923 27.65992865 -10.3125 21 C-9.91865112 19.69615356 -9.91865112 19.69615356 -9.5168457 18.3659668 C-7.44517112 11.79878915 -4.97658759 4.97658759 0 0 Z " fill="#215658" transform="translate(146,7)"/>
<path d="M0 0 C3.2268998 1.42062515 5.39942512 3.14245441 7.890625 5.625 C8.59960938 6.33140625 9.30859375 7.0378125 10.0390625 7.765625 C10.76867187 8.50296875 11.49828125 9.2403125 12.25 10 C12.99507812 10.73734375 13.74015625 11.4746875 14.5078125 12.234375 C15.21164063 12.94078125 15.91546875 13.6471875 16.640625 14.375 C17.28547852 15.02210938 17.93033203 15.66921875 18.59472656 16.3359375 C20 18 20 18 20 20 C17.02914221 19.68169381 16.12812832 19.15463763 14.1875 16.8125 C13.465625 15.884375 12.74375 14.95625 12 14 C10.87601383 12.97550543 9.72835062 11.97658915 8.5625 11 C5.54222423 8.46791536 2.63002659 5.94881769 0 3 C0 2.01 0 1.02 0 0 Z " fill="#435E63" transform="translate(195,139)"/>
<path d="M0 0 C3.69418201 1.231394 5.35109746 3.20791354 8 6 C7.67 6.66 7.34 7.32 7 8 C5.35 7.01 3.7 6.02 2 5 C2.33 7.31 2.66 9.62 3 12 C1.68 12.33 0.36 12.66 -1 13 C-2.32 10.36 -3.64 7.72 -5 5 C-4.01 5 -3.02 5 -2 5 C-2 4.34 -2 3.68 -2 3 C-1.01 3 -0.02 3 1 3 C0.67 2.01 0.34 1.02 0 0 Z " fill="#3F4240" transform="translate(197,144)"/>
<path d="M0 0 C0.66 0.33 1.32 0.66 2 1 C1.13375 2.423125 1.13375 2.423125 0.25 3.875 C-1.98548195 7.74349359 -3.53888028 11.77164771 -5.0703125 15.9609375 C-6 18 -6 18 -8 19 C-10.12837953 22.1925693 -11.66592079 25.40824827 -13 29 C-13.66 28.67 -14.32 28.34 -15 28 C-13.56057651 22.97749546 -11.35917747 18.95416087 -8.625 14.5625 C-7.84562435 13.29341666 -7.06697474 12.02388714 -6.2890625 10.75390625 C-5.91040039 10.13789551 -5.53173828 9.52188477 -5.14160156 8.88720703 C-3.36927673 5.95733728 -1.68472912 2.98097047 0 0 Z " fill="#586669" transform="translate(124,101)"/>
<path d="M0 0 C2.05076648 6.15229943 1.36013736 12.09965659 -1 18 C-1.66 18 -2.32 18 -3 18 C-3 16.02 -3 14.04 -3 12 C-3.66 12 -4.32 12 -5 12 C-5 8.7 -5 5.4 -5 2 C-4.01 1.67 -3.02 1.34 -2 1 C-1.34 1.33 -0.68 1.66 0 2 C0 1.34 0 0.68 0 0 Z " fill="#535351" transform="translate(150,42)"/>
<path d="M0 0 C2.36489311 1.97074426 4.69232665 3.96356438 7 6 C7.7528125 6.66128906 8.505625 7.32257813 9.28125 8.00390625 C10.0134375 8.68324219 10.745625 9.36257812 11.5 10.0625 C12.1909375 10.69285156 12.881875 11.32320312 13.59375 11.97265625 C15 14 15 14 14.90625 16.62109375 C14 19 14 19 11 21 C11.04833984 20.12988281 11.04833984 20.12988281 11.09765625 19.2421875 C11.0394992 15.32627944 10.91226003 12.89775093 8.03515625 10.06640625 C3.40882404 6.86855506 3.40882404 6.86855506 -2 6 C-1.34 4.02 -0.68 2.04 0 0 Z " fill="#1E4C51" transform="translate(261,203)"/>
<path d="M0 0 C1 2 1 2 0.3125 4.4375 C-1.15537873 7.30335848 -2.14079458 8.5295515 -5 10 C-7.5 10 -7.5 10 -10 9 C-12.125 6.5625 -12.125 6.5625 -14 4 C-14.99 3.34 -15.98 2.68 -17 2 C-14.25 1.75 -14.25 1.75 -11 2 C-8.625 4 -8.625 4 -7 6 C-6.01 5.67 -5.02 5.34 -4 5 C-4 4.34 -4 3.68 -4 3 C-2 1.375 -2 1.375 0 0 Z " fill="#1D4042" transform="translate(196,205)"/>
<path d="M0 0 C0.33 0 0.66 0 1 0 C2.59265996 11.67950638 -8.08334532 25.28241338 -14.73828125 34.375 C-15.15464844 34.91125 -15.57101563 35.4475 -16 36 C-16.495 34.515 -16.495 34.515 -17 33 C-16.13671875 31.37109375 -16.13671875 31.37109375 -14.6875 29.4375 C-11.38645285 24.71949393 -8.51024086 19.82535956 -5.6875 14.8125 C-5.24301514 14.040271 -4.79853027 13.26804199 -4.34057617 12.47241211 C-2.01060911 8.30434494 -0.40994119 4.84968164 0 0 Z " fill="#0F4949" transform="translate(124,93)"/>
<path d="M0 0 C0.33 0.99 0.66 1.98 1 3 C1.99 3 2.98 3 4 3 C2.8648916 5.27021681 1.63253154 6.43072162 -0.25 8.125 C-0.83265625 8.66382813 -1.4153125 9.20265625 -2.015625 9.7578125 C-4.63643536 11.39839851 -5.95581861 11.54674795 -9 11 C-11.45703125 9.03125 -11.45703125 9.03125 -13.8125 6.5 C-14.60269531 5.6646875 -15.39289063 4.829375 -16.20703125 3.96875 C-16.79871094 3.3190625 -17.39039062 2.669375 -18 2 C-17.01 1.67 -16.02 1.34 -15 1 C-12.69 3.64 -10.38 6.28 -8 9 C-7.01 8.67 -6.02 8.34 -5 8 C-5.33 7.34 -5.66 6.68 -6 6 C-5.01 5.34 -4.02 4.68 -3 4 C-1.96352976 2.69481525 -0.95577057 1.36538653 0 0 Z " fill="#153937" transform="translate(135,207)"/>
<path d="M0 0 C0 3 0 3 -2.1875 5.48046875 C-3.115625 6.37378906 -4.04375 7.26710937 -5 8.1875 C-5.928125 9.08855469 -6.85625 9.98960937 -7.8125 10.91796875 C-8.534375 11.60503906 -9.25625 12.29210937 -10 13 C-8.68 12.67 -7.36 12.34 -6 12 C-8.53363068 16.22271781 -10.56620325 18.78310162 -15 21 C-15 20.01 -15 19.02 -15 18 C-15.66 18.33 -16.32 18.66 -17 19 C-15.60652624 15.84795019 -13.97514921 13.73828227 -11.5234375 11.328125 C-10.51796875 10.33232422 -10.51796875 10.33232422 -9.4921875 9.31640625 C-8.79351562 8.63449219 -8.09484375 7.95257813 -7.375 7.25 C-6.66859375 6.55261719 -5.9621875 5.85523438 -5.234375 5.13671875 C-3.49401297 3.41987512 -1.74915019 1.70788168 0 0 Z " fill="#566867" transform="translate(52,187)"/>
<path d="M0 0 C0.66 0.33 1.32 0.66 2 1 C2 1.66 2 2.32 2 3 C2.61875 3.185625 3.2375 3.37125 3.875 3.5625 C7.05602866 5.71437233 7.19451947 8.37533763 8 12 C4.83214131 12 3.71896141 11.44444825 1 10 C0.01 9.67 -0.98 9.34 -2 9 C-2 8.01 -2 7.02 -2 6 C-0.68 6.33 0.64 6.66 2 7 C2 6.34 2 5.68 2 5 C0.68 4.34 -0.64 3.68 -2 3 C-1.34 2.01 -0.68 1.02 0 0 Z " fill="#4A4947" transform="translate(222,168)"/>
<path d="M0 0 C-1 3 -1 3 -4.16796875 4.859375 C-5.50252395 5.50070661 -6.84267664 6.13048895 -8.1875 6.75 C-8.84814453 7.07871094 -9.50878906 7.40742188 -10.18945312 7.74609375 C-14.510386 9.76793203 -17.24730126 10.38004289 -22 9 C-22.66 8.67 -23.32 8.34 -24 8 C-24 7.34 -24 6.68 -24 6 C-22.205625 6.3403125 -22.205625 6.3403125 -20.375 6.6875 C-16.1175074 7.22441292 -13.60433059 6.46149406 -10 4 C-9.67 3.01 -9.34 2.02 -9 1 C-2.25 0 -2.25 0 0 0 Z " fill="#082526" transform="translate(70,210)"/>
<path d="M0 0 C2.01689599 2.59959525 3.75785189 5.19841333 5.33984375 8.08203125 C5.76330078 8.84966797 6.18675781 9.61730469 6.62304688 10.40820312 C7.05681641 11.20162109 7.49058594 11.99503906 7.9375 12.8125 C8.80038235 14.38172983 9.66365844 15.95074322 10.52734375 17.51953125 C10.94097168 18.27186035 11.35459961 19.02418945 11.78076172 19.79931641 C13.48985311 22.8841682 15.24108279 25.94332021 17 29 C16.01 29.99 15.02 30.98 14 32 C13.649375 30.741875 13.29875 29.48375 12.9375 28.1875 C11.25906419 23.09597701 8.5936569 18.96452182 5.6484375 14.515625 C3.38946536 11.06828363 1.41561872 7.70865476 0.4375 3.6875 C0.293125 3.130625 0.14875 2.57375 0 2 C-0.66 1.67 -1.32 1.34 -2 1 C-1.34 0.67 -0.68 0.34 0 0 Z " fill="#173A3B" transform="translate(172,99)"/>
<path d="M0 0 C2.97 0.495 2.97 0.495 6 1 C6 1.66 6 2.32 6 3 C4.35 3 2.7 3 1 3 C-0.485 8.445 -0.485 8.445 -2 14 C-0.68 13.34 0.64 12.68 2 12 C2 13.65 2 15.3 2 17 C-2 17 -2 17 -4 16 C-3.6083965 10.04492601 -2.62875405 5.37180176 0 0 Z " fill="#2B2929" transform="translate(183,141)"/>
<path d="M0 0 C0.66 0 1.32 0 2 0 C3.4783226 2.95664519 3.06032783 5.74229737 3 9 C3.99 9 4.98 9 6 9 C5.01 11.97 4.02 14.94 3 18 C2.01 17.67 1.02 17.34 0 17 C0 11.39 0 5.78 0 0 Z " fill="#464644" transform="translate(155,47)"/>
<path d="M0 0 C0.99 0.33 1.98 0.66 3 1 C3 2.32 3 3.64 3 5 C2.38125 5.04125 1.7625 5.0825 1.125 5.125 C-1.29800815 5.83611118 -1.29800815 5.83611118 -2.1875 8.6875 C-2.94730127 11.78515133 -3.54905321 14.84337247 -4 18 C-4.66 18 -5.32 18 -6 18 C-6.33 19.32 -6.66 20.64 -7 22 C-7.66 22 -8.32 22 -9 22 C-7.00878667 14.10501383 -3.81085857 7.17773362 0 0 Z " fill="#4F6E6D" transform="translate(147,6)"/>
<path d="M0 0 C0.99 0.33 1.98 0.66 3 1 C3.73046875 2.84765625 3.73046875 2.84765625 4.1875 5.0625 C4.34605469 5.79597656 4.50460938 6.52945313 4.66796875 7.28515625 C4.83232422 8.13400391 4.83232422 8.13400391 5 9 C5.66 9 6.32 9 7 9 C7.33 10.65 7.66 12.3 8 14 C7.01 14 6.02 14 5 14 C5 13.34 5 12.68 5 12 C3.68 11.67 2.36 11.34 1 11 C1 10.01 1 9.02 1 8 C0.34 7.67 -0.32 7.34 -1 7 C-0.67 4.69 -0.34 2.38 0 0 Z " fill="#303030" transform="translate(161,188)"/>
<path d="M0 0 C0 3 0 3 -1 6 C-0.34 6 0.32 6 1 6 C1 6.66 1 7.32 1 8 C1.5775 8.2475 2.155 8.495 2.75 8.75 C5.32939979 10.18299988 7.06121592 11.78424676 9 14 C9 14.66 9 15.32 9 16 C9.99 16 10.98 16 12 16 C12 16.66 12 17.32 12 18 C7.95105948 17.47428335 6.18069025 15.46350492 3.4375 12.5625 C1.00163453 10.00340357 -1.04978421 7.96681053 -4 6 C-1.125 1.125 -1.125 1.125 0 0 Z " fill="#0F2F30" transform="translate(260,206)"/>
<path d="M0 0 C0.99 0 1.98 0 3 0 C1.79013682 2.85967661 0.45962299 4.61757372 -1.625 7 C-4.41380196 9.88497939 -4.41380196 9.88497939 -4 14 C-4.33 14.66 -4.66 15.32 -5 16 C-5.99 16 -6.98 16 -8 16 C-8.66 14.68 -9.32 13.36 -10 12 C-9.04287109 11.07767578 -9.04287109 11.07767578 -8.06640625 10.13671875 C-6.82697266 8.92435547 -6.82697266 8.92435547 -5.5625 7.6875 C-4.73878906 6.88699219 -3.91507813 6.08648437 -3.06640625 5.26171875 C-0.80596523 3.09529192 -0.80596523 3.09529192 0 0 Z " fill="#3E5456" transform="translate(31,206)"/>
<path d="M0 0 C-2.25740623 2.33524782 -4.2805761 4.18705073 -7 6 C-7.33 6.99 -7.66 7.98 -8 9 C-8.99 9.33 -9.98 9.66 -11 10 C-11 9.34 -11 8.68 -11 8 C-11.66 7.67 -12.32 7.34 -13 7 C-11.93262982 3.90462649 -11.02481433 3.01544003 -8.1875 1.25 C-5.13441107 0.05271022 -3.22691821 -0.28472808 0 0 Z " fill="#232F2F" transform="translate(81,202)"/>
<path d="M0 0 C0.66 0 1.32 0 2 0 C2.8680908 1.91040052 3.71901783 3.82860737 4.5625 5.75 C5.03816406 6.81734375 5.51382813 7.8846875 6.00390625 8.984375 C6.9946154 11.98369837 7.16161779 13.13421241 6 16 C4.68 16.33 3.36 16.66 2 17 C1.34 16.01 0.68 15.02 0 14 C0.66 14 1.32 14 2 14 C2 13.34 2 12.68 2 12 C2.66 12 3.32 12 4 12 C3.566875 11.20335937 3.566875 11.20335937 3.125 10.390625 C2.75375 9.68421875 2.3825 8.9778125 2 8.25 C1.62875 7.55390625 1.2575 6.8578125 0.875 6.140625 C0 4 0 4 0 0 Z " fill="#2C2C29" transform="translate(189,144)"/>
<path d="M0 0 C1.25640898 2.51281795 1.20872719 4.21697081 1 7 C0.34 7.66 -0.32 8.32 -1 9 C-1 9.99 -1 10.98 -1 12 C-2.65 12 -4.3 12 -6 12 C-6.93423645 8.98968256 -7.04449911 8.13349732 -6 5 C-5.360625 4.855625 -4.72125 4.71125 -4.0625 4.5625 C-1.79688294 4.19895007 -1.79688294 4.19895007 -0.75 1.9375 C-0.5025 1.298125 -0.255 0.65875 0 0 Z " fill="#434544" transform="translate(127,113)"/>
<path d="M0 0 C1.06541016 0.433125 1.06541016 0.433125 2.15234375 0.875 C3.07144531 1.24625 3.99054688 1.6175 4.9375 2 C5.85402344 2.37125 6.77054688 2.7425 7.71484375 3.125 C9.74782158 4.059598 9.74782158 4.059598 11 4 C11 5.98 11 7.96 11 10 C9.35 10.33 7.7 10.66 6 11 C6 10.34 6 9.68 6 9 C5.34 9 4.68 9 4 9 C3.896875 8.21625 3.79375 7.4325 3.6875 6.625 C3.22404978 3.66954819 3.22404978 3.66954819 0 2 C0 1.34 0 0.68 0 0 Z " fill="#31312E" transform="translate(169,134)"/>
<path d="M0 0 C0.33 0 0.66 0 1 0 C2.64364621 7.21378059 2.56366008 14.76807212 1 22 C-0.98 22.33 -2.96 22.66 -5 23 C-5.33 22.34 -5.66 21.68 -6 21 C-4.68 20.67 -3.36 20.34 -2 20 C-1.505 15.545 -1.505 15.545 -1 11 C-0.67 11 -0.34 11 0 11 C0 7.37 0 3.74 0 0 Z " fill="#3D4D4D" transform="translate(163,45)"/>
<path d="M0 0 C2 1 4 2 6 3 C6 7 6 7 5 10 C4.34 10 3.68 10 3 10 C2.67 9.34 2.34 8.68 2 8 C-0.02463255 7.34786708 -0.02463255 7.34786708 -2 7 C-1.34 4.69 -0.68 2.38 0 0 Z " fill="#464643" transform="translate(185,153)"/>
<path d="M0 0 C3.15685778 2.90926109 5.25095848 5.80261659 7.3125 9.5625 C7.84488281 10.51253906 8.37726563 11.46257812 8.92578125 12.44140625 C10 15 10 15 9 18 C6.02795272 15.42958073 4.54721754 12.49513461 2.8125 9 C2.28269531 7.948125 1.75289062 6.89625 1.20703125 5.8125 C0 3 0 3 0 0 Z " fill="#5D6469" transform="translate(172,104)"/>
<path d="M0 0 C0.61875 0.86625 0.61875 0.86625 1.25 1.75 C3.01957355 4.02516599 4.92852378 5.99995399 7 8 C7.5775 7.71125 8.155 7.4225 8.75 7.125 C10.83333333 6.08333333 12.91666667 5.04166667 15 4 C13.02 6.31 11.04 8.62 9 11 C4.96479403 9.41037341 0.98188718 7.71767682 -3 6 C-3 5.34 -3 4.68 -3 4 C-2.34 4 -1.68 4 -1 4 C-0.67 2.68 -0.34 1.36 0 0 Z " fill="#344243" transform="translate(160,206)"/>
<path d="M0 0 C0.99 1.32 1.98 2.64 3 4 C2.34 4.66 1.68 5.32 1 6 C1.66 6.33 2.32 6.66 3 7 C3 7.66 3 8.32 3 9 C0.50935112 9.68707555 -1.37886292 10 -4 10 C-3.34 9.01 -2.68 8.02 -2 7 C-2.99 6.67 -3.98 6.34 -5 6 C-3.63016497 2.83884224 -3.0109362 2.0072908 0 0 Z " fill="#4B4B4B" transform="translate(126,139)"/>
<path d="M0 0 C0.66 0 1.32 0 2 0 C2 0.99 2 1.98 2 3 C2.66 3.33 3.32 3.66 4 4 C3.34 4 2.68 4 2 4 C2 4.99 2 5.98 2 7 C1.34 7 0.68 7 0 7 C0 9.64 0 12.28 0 15 C-0.99 14.67 -1.98 14.34 -3 14 C-3.33 14.66 -3.66 15.32 -4 16 C-3.84402344 15.43410156 -3.68804687 14.86820313 -3.52734375 14.28515625 C-2.82631559 11.24736754 -2.62484474 8.22410491 -2.37890625 5.12109375 C-2 3 -2 3 0 0 Z " fill="#0D1516" transform="translate(160,196)"/>
<path d="M0 0 C0.8353125 0.9590625 0.8353125 0.9590625 1.6875 1.9375 C4.22066561 4.19680987 5.68341424 4.63149047 9 5 C9 6.32 9 7.64 9 9 C8.13375 8.649375 7.2675 8.29875 6.375 7.9375 C2.75174758 6.931041 0.6146678 7.13936481 -3 8 C-3.33 7.01 -3.66 6.02 -4 5 C-3.34 4.34 -2.68 3.68 -2 3 C-1.34 3.33 -0.68 3.66 0 4 C0 2.68 0 1.36 0 0 Z " fill="#163336" transform="translate(37,208)"/>
<path d="M0 0 C1.32 0.33 2.64 0.66 4 1 C0.79239749 4.80635497 -2.40746109 8.54563567 -6 12 C-10.67692308 10.52307692 -10.67692308 10.52307692 -12.3125 7.875 C-12.539375 7.25625 -12.76625 6.6375 -13 6 C-12.2575 6.53625 -11.515 7.0725 -10.75 7.625 C-8.16141627 9.3096879 -8.16141627 9.3096879 -5.875 8.375 C-4.05626013 7.04125743 -2.5159372 5.66753092 -1 4 C-1.33 3.34 -1.66 2.68 -2 2 C-1.34 2 -0.68 2 0 2 C0 1.34 0 0.68 0 0 Z " fill="#093131" transform="translate(175,207)"/>
<path d="M0 0 C6.02770138 0.47587116 10.76678289 3.19722957 16 6 C16 6.66 16 7.32 16 8 C13 9 13 9 10 8 C9.54625 7.525625 9.0925 7.05125 8.625 6.5625 C6.61423786 4.62907486 4.60947795 3.9168436 2 3 C2 2.34 2 1.68 2 1 C1.34 0.67 0.68 0.34 0 0 Z " fill="#2C2E2F" transform="translate(208,198)"/>
<path d="M0 0 C0.66 0.33 1.32 0.66 2 1 C1.71125 1.845625 1.4225 2.69125 1.125 3.5625 C-0.00772704 7.02361041 -1.01824316 10.49372557 -2 14 C-4 13 -4 13 -5.125 9.9375 C-5.41375 8.968125 -5.7025 7.99875 -6 7 C-5.01 6.34 -4.02 5.68 -3 5 C-2.63837971 3.67405895 -2.30271961 2.34061543 -2 1 C-1.34 0.67 -0.68 0.34 0 0 Z " fill="#192C2C" transform="translate(98,192)"/>
<path d="M0 0 C0.99 0.33 1.98 0.66 3 1 C3 1.66 3 2.32 3 3 C3.66 3 4.32 3 5 3 C4.67 3.99 4.34 4.98 4 6 C1.36 6.33 -1.28 6.66 -4 7 C-4.33 6.34 -4.66 5.68 -5 5 C-3.35 3.35 -1.7 1.7 0 0 Z " fill="#2A2A2A" transform="translate(189,177)"/>
<path d="M0 0 C6.03331362 4.98404168 11.5184171 10.41915303 17 16 C16.67 16.66 16.34 17.32 16 18 C8.26947475 11.51633366 8.26947475 11.51633366 5.1875 7.6875 C3.10119391 4.85430578 3.10119391 4.85430578 0 3 C0 2.01 0 1.02 0 0 Z " fill="#5C7378" transform="translate(244,188)"/>
<path d="M0 0 C1.32 0 2.64 0 4 0 C4 0.66 4 1.32 4 2 C5.65 2.33 7.3 2.66 9 3 C8.67 3.99 8.34 4.98 8 6 C7.01 6.33 6.02 6.66 5 7 C1.8125 5.0625 1.8125 5.0625 -1 3 C-0.67 2.01 -0.34 1.02 0 0 Z " fill="#332E34" transform="translate(243,209)"/>
<path d="M0 0 C0.99 0 1.98 0 3 0 C3 0.66 3 1.32 3 2 C3.5775 1.835 4.155 1.67 4.75 1.5 C7 1 7 1 11 1 C10.67 1.66 10.34 2.32 10 3 C9.34 3 8.68 3 8 3 C7.34 4.32 6.68 5.64 6 7 C2.58841744 5.86280581 1.88145399 4.95657056 0 2 C0 1.34 0 0.68 0 0 Z " fill="#30312F" transform="translate(101,192)"/>
<path d="M0 0 C2 1 4 2 6 3 C5.67 3.99 5.34 4.98 5 6 C-1.75 7.125 -1.75 7.125 -4 6 C-4 5.34 -4 4.68 -4 4 C-3.34 4 -2.68 4 -2 4 C-2 3.34 -2 2.68 -2 2 C-1.34 2 -0.68 2 0 2 C0 1.34 0 0.68 0 0 Z " fill="#2B2B2B" transform="translate(166,180)"/>
<path d="M0 0 C5.875 3.625 5.875 3.625 7 7 C3.18510326 8.46726798 0.70988378 7.43336419 -3 6 C-3 5.34 -3 4.68 -3 4 C-2.34 4 -1.68 4 -1 4 C-0.67 2.68 -0.34 1.36 0 0 Z " fill="#292929" transform="translate(105,176)"/>
<path d="M0 0 C0.5534764 2.07553648 1 3.84365964 1 6 C-2.69541586 6.95024979 -5.30458414 6.95024979 -9 6 C-9 5.34 -9 4.68 -9 4 C-6.01353231 2.00902154 -3.40312738 1.05875074 0 0 Z " fill="#414141" transform="translate(115,161)"/>
<path d="M0 0 C2.37948772 0.17625835 3.70225849 0.69719773 5.37890625 2.40234375 C6.62115486 3.90649092 7.81376056 5.45129851 9 7 C11.88437779 5.70700306 13.87219421 4.34058637 16 2 C16.66 2.33 17.32 2.66 18 3 C16.00135138 5.99797294 14.52780019 7.74809536 11.25 9.3125 C6.54145786 8.85975556 4.6721674 6.25060691 1.5390625 2.8828125 C0 1 0 1 0 0 Z " fill="#053738" transform="translate(96,206)"/>
<path d="M0 0 C0.66 0.66 1.32 1.32 2 2 C1.34 2 0.68 2 0 2 C0.66 2.61875 1.32 3.2375 2 3.875 C4 6 4 6 4 8 C4.66 8.33 5.32 8.66 6 9 C4.125 10.0625 4.125 10.0625 2 11 C0 10 0 10 -1 7.0625 C-1.33 6.051875 -1.66 5.04125 -2 4 C-2.66 3.34 -3.32 2.68 -4 2 C-2.68 1.34 -1.36 0.68 0 0 Z " fill="#3F4043" transform="translate(215,158)"/>
<path d="M0 0 C0.99 0.33 1.98 0.66 3 1 C2.67 1.66 2.34 2.32 2 3 C3.65 3.33 5.3 3.66 7 4 C6.67 4.99 6.34 5.98 6 7 C5.01 7 4.02 7 3 7 C2.67 7.99 2.34 8.98 2 10 C-0.46278801 7.53721199 -0.99771255 5.29323018 -2 2 C-1.34 1.34 -0.68 0.68 0 0 Z " fill="#40403F" transform="translate(118,141)"/>
<path d="M0 0 C2.625 -0.1875 2.625 -0.1875 5 0 C4.38722388 2.96175123 3.74627478 4.38058783 2 7 C0.68 6.67 -0.64 6.34 -2 6 C-2.33 6.66 -2.66 7.32 -3 8 C-2.45276317 4.62537285 -1.9451 2.91765 0 0 Z " fill="#474742" transform="translate(124,127)"/>
<path d="M0 0 C4.05092246 4.05092246 4.125 10.55868904 4.125 16.0625 C4.08375 17.361875 4.0425 18.66125 4 20 C1.6604394 15.3208788 0.77633571 12.19956113 0.4375 6.875 C0.35371094 5.59367187 0.26992187 4.31234375 0.18359375 2.9921875 C0.12300781 2.00476562 0.06242188 1.01734375 0 0 Z " fill="#5C686A" transform="translate(160,40)"/>
<path d="M0 0 C1.67110042 2.96178773 2.32682752 5.37071192 2.625 8.75 C2.69976562 9.54921875 2.77453125 10.3484375 2.8515625 11.171875 C2.90054688 11.77515625 2.94953125 12.3784375 3 13 C3.66 13 4.32 13 5 13 C4.67 13.99 4.34 14.98 4 16 C4 15.34 4 14.68 4 14 C3.01 14 2.02 14 1 14 C0.63659714 12.23103898 0.28459117 10.45973374 -0.0625 8.6875 C-0.25972656 7.70136719 -0.45695313 6.71523437 -0.66015625 5.69921875 C-1 3 -1 3 0 0 Z " fill="#141717" transform="translate(135,196)"/>
<path d="M0 0 C1.65 0 3.3 0 5 0 C5.625 2.375 5.625 2.375 6 5 C5.34 5.66 4.68 6.32 4 7 C2.68 7 1.36 7 0 7 C0 4.69 0 2.38 0 0 Z " fill="#545454" transform="translate(145,34)"/>
<path d="M0 0 C3.76687864 0 4.91190305 0.23537317 8 2 C8 2.99 8 3.98 8 5 C5.92446352 5.5534764 4.15634036 6 2 6 C1.34 4.02 0.68 2.04 0 0 Z " fill="#2D2D2B" transform="translate(125,203)"/>
<path d="M0 0 C2.97526665 2.55022856 4.50122302 5.40293526 6 9 C5.67 9.99 5.34 10.98 5 12 C2.03595495 9.19195732 -0.44499019 6.81684226 -2 3 C-1.34 2.01 -0.68 1.02 0 0 Z " fill="#445D61" transform="translate(188,128)"/>
<path d="M0 0 C3.35770877 2.23847252 3.2145965 2.40958399 4 6 C4.66 6.66 5.32 7.32 6 8 C5.01 8.33 4.02 8.66 3 9 C0.8125 7.6875 0.8125 7.6875 -1 6 C-1 5.34 -1 4.68 -1 4 C-1.66 4 -2.32 4 -3 4 C-3 3.34 -3 2.68 -3 2 C-2.01 1.34 -1.02 0.68 0 0 Z " fill="#333737" transform="translate(262,208)"/>
<path d="M0 0 C0.99 0 1.98 0 3 0 C3 0.99 3 1.98 3 3 C3.99 2.67 4.98 2.34 6 2 C5.40138258 4.35171131 4.73075648 6.6859378 4 9 C3.01 9.495 3.01 9.495 2 10 C0.68373308 6.38026598 0 3.90432869 0 0 Z " fill="#25272A" transform="translate(175,197)"/>
<path d="M0 0 C0.33 0.66 0.66 1.32 1 2 C0.67 2.66 0.34 3.32 0 4 C0.99 4 1.98 4 3 4 C3 3.34 3 2.68 3 2 C3.66 2 4.32 2 5 2 C5 6 5 6 3 9 C2.34 8.67 1.68 8.34 1 8 C1.33 7.34 1.66 6.68 2 6 C1.34 6 0.68 6 0 6 C-0.33 6.66 -0.66 7.32 -1 8 C-2 7 -2 7 -2.1875 4.5625 C-2 2 -2 2 0 0 Z " fill="#292828" transform="translate(102,152)"/>
<path d="M0 0 C1.94268841 2.91403262 3.46395304 5.85808576 5 9 C5.66 9 6.32 9 7 9 C7.66 8.34 8.32 7.68 9 7 C8.67 8.65 8.34 10.3 8 12 C6.35 11.67 4.7 11.34 3 11 C3 10.34 3 9.68 3 9 C2.34 9 1.68 9 1 9 C0.67 6.03 0.34 3.06 0 0 Z " fill="#2C2D2D" transform="translate(184,184)"/>
<path d="M0 0 C2.64 0 5.28 0 8 0 C6.99328314 3.02015057 6.451644 4.09316578 4 6 C2.68 6 1.36 6 0 6 C-1.125 2.25 -1.125 2.25 0 0 Z " fill="#434343" transform="translate(169,119)"/>
<path d="M0 0 C0.66 0.33 1.32 0.66 2 1 C2.3125 3.6875 2.3125 3.6875 2 7 C-0.375 9.875 -0.375 9.875 -3 12 C-3.66 12 -4.32 12 -5 12 C-3.41037341 7.96479403 -1.71767682 3.98188718 0 0 Z " fill="#4B4B46" transform="translate(126,104)"/>
<path d="M0 0 C1.0326802 2.78823655 1.04509293 3.8677274 0.0625 6.75 C-0.288125 7.4925 -0.63875 8.235 -1 9 C-1.66 9 -2.32 9 -3 9 C-3.66 6.69 -4.32 4.38 -5 2 C-4.01 1.67 -3.02 1.34 -2 1 C-1.34 1.33 -0.68 1.66 0 2 C0 1.34 0 0.68 0 0 Z " fill="#626261" transform="translate(150,42)"/>
<path d="M0 0 C1.32 0.33 2.64 0.66 4 1 C4.82638376 3.89234315 5 5.88742431 5 9 C3.02 9.99 3.02 9.99 1 11 C0.31717343 7.24445384 0 3.82882213 0 0 Z " fill="#3F443C" transform="translate(149,17)"/>
<path d="M0 0 C-1.31061591 4.23429756 -2.94356259 8.07407404 -5 12 C-5.33 12 -5.66 12 -6 12 C-6 9.69 -6 7.38 -6 5 C-5.34 5 -4.68 5 -4 5 C-4 3.68 -4 2.36 -4 1 C-2 0 -2 0 0 0 Z " fill="#0C3132" transform="translate(157,212)"/>
<path d="M0 0 C0.33 1.32 0.66 2.64 1 4 C0.34 4 -0.32 4 -1 4 C-1.2475 4.61875 -1.495 5.2375 -1.75 5.875 C-3.20628639 8.35068687 -4.37812506 8.95125002 -7 10 C-7 7 -7 7 -5.625 5.3125 C-4 4 -4 4 -2 4 C-1.34 2.68 -0.68 1.36 0 0 Z " fill="#282B28" transform="translate(174,205)"/>
<path d="M0 0 C2 0 2 0 4 1.9375 C4.99 2.9584375 4.99 2.9584375 6 4 C6.66 4.33 7.32 4.66 8 5 C9.0194119 5.98020375 10.02246356 6.97803008 11 8 C10.67 8.99 10.34 9.98 10 11 C9.67 10.01 9.34 9.02 9 8 C7.68 8 6.36 8 5 8 C0 2.77272727 0 2.77272727 0 0 Z " fill="#514F4F" transform="translate(204,155)"/>
<path d="M0 0 C1.52775619 2.4264363 2.04888437 3.60892503 1.6875 6.5 C1.460625 7.325 1.23375 8.15 1 9 C0.814375 9.763125 0.62875 10.52625 0.4375 11.3125 C0.293125 11.869375 0.14875 12.42625 0 13 C-1.625 10.9375 -1.625 10.9375 -3 8 C-1.75 1.75 -1.75 1.75 0 0 Z " fill="#3D443A" transform="translate(145,14)"/>
<path d="M0 0 C0.66 0.33 1.32 0.66 2 1 C1.33871094 1.59167969 0.67742188 2.18335938 -0.00390625 2.79296875 C-1.27041016 3.97826172 -1.27041016 3.97826172 -2.5625 5.1875 C-3.40941406 5.96480469 -4.25632812 6.74210938 -5.12890625 7.54296875 C-7.32449344 9.85943593 -7.32449344 9.85943593 -6.77734375 12.80078125 C-6.52082031 13.52652344 -6.26429687 14.25226563 -6 15 C-6.99 14.34 -7.98 13.68 -9 13 C-8.51286902 8.58489226 -7.14946803 6.69553355 -3.9375 3.6875 C-3.20402344 2.99011719 -2.47054688 2.29273438 -1.71484375 1.57421875 C-1.14894531 1.05472656 -0.58304688 0.53523437 0 0 Z " fill="#084343" transform="translate(29,208)"/>
<path d="M0 0 C1.65 0.33 3.3 0.66 5 1 C3.54744301 4.82946843 1.57104439 6.12050295 -2 8 C-2.33 7.01 -2.66 6.02 -3 5 C-1.5625 2.3125 -1.5625 2.3125 0 0 Z " fill="#373531" transform="translate(169,204)"/>
<path d="M0 0 C2.33364352 2.92903058 4.04960836 5.88568203 5.6875 9.25 C6.34298828 10.58804688 6.34298828 10.58804688 7.01171875 11.953125 C7.33785156 12.62859375 7.66398438 13.3040625 8 14 C7.01 14.495 7.01 14.495 6 15 C5.18162558 13.58671871 4.37053781 12.16921654 3.5625 10.75 C2.88380859 9.56664063 2.88380859 9.56664063 2.19140625 8.359375 C1 6 1 6 0.46484375 3.765625 C0.31144531 3.18296875 0.15804687 2.6003125 0 2 C-0.66 1.67 -1.32 1.34 -2 1 C-1.34 0.67 -0.68 0.34 0 0 Z " fill="#1C4A4B" transform="translate(172,99)"/>
<path d="M0 0 C1.32 0.66 2.64 1.32 4 2 C3.34 3.98 2.68 5.96 2 8 C1.34 8 0.68 8 0 8 C-0.66 6.02 -1.32 4.04 -2 2 C-1.34 1.34 -0.68 0.68 0 0 Z " fill="#6F685C" transform="translate(147,17)"/>
<path d="M0 0 C5.75 3.75 5.75 3.75 8 6 C8.66 6.33 9.32 6.66 10 7 C8.02 7.99 8.02 7.99 6 9 C4.99406757 7.8803014 3.9954151 6.7540588 3 5.625 C2.443125 4.99851563 1.88625 4.37203125 1.3125 3.7265625 C0 2 0 2 0 0 Z " fill="#2F403D" transform="translate(99,205)"/>
<path d="M0 0 C0.66 0 1.32 0 2 0 C2 0.66 2 1.32 2 2 C2.66 2 3.32 2 4 2 C4.33 1.34 4.66 0.68 5 0 C6.32 1.32 7.64 2.64 9 4 C8.01 4.495 8.01 4.495 7 5 C6.34 4.67 5.68 4.34 5 4 C5 4.66 5 5.32 5 6 C4.01 6 3.02 6 2 6 C1.34 4.02 0.68 2.04 0 0 Z " fill="#494948" transform="translate(190,143)"/>
<path d="M0 0 C0.99 0.495 0.99 0.495 2 1 C2.37400786 3.32716 2.70764733 5.66117862 3 8 C3.33 8.33 3.66 8.66 4 9 C4.04080783 10.99958364 4.04254356 13.00045254 4 15 C3.34 15 2.68 15 2 15 C0.58365167 12.16730334 0.6536995 9.52533562 0.4375 6.375 C0.35371094 5.18648438 0.26992187 3.99796875 0.18359375 2.7734375 C0.12300781 1.85820313 0.06242188 0.94296875 0 0 Z " fill="#464344" transform="translate(164,79)"/>
<path d="M0 0 C1.0625 1.8125 1.0625 1.8125 2 4 C1.67 4.99 1.34 5.98 1 7 C-0.65 6.67 -2.3 6.34 -4 6 C-4 4.35 -4 2.7 -4 1 C-2 0 -2 0 0 0 Z " fill="#524E4A" transform="translate(150,11)"/>
<path d="M0 0 C0.66 0 1.32 0 2 0 C2 0.99 2 1.98 2 3 C2.66 3.33 3.32 3.66 4 4 C3.01 4.495 3.01 4.495 2 5 C1.34444881 7.52733235 1.34444881 7.52733235 1 10 C0.34 9.67 -0.32 9.34 -1 9 C-1.625 5.9375 -1.625 5.9375 -2 3 C-1.34 3 -0.68 3 0 3 C0 2.01 0 1.02 0 0 Z " fill="#252722" transform="translate(162,200)"/>
<path d="M0 0 C0.66 0.33 1.32 0.66 2 1 C-1.18683431 5.33409466 -4.86378916 8.6189962 -9 12 C-9.66 11.67 -10.32 11.34 -11 11 C-7.37 7.37 -3.74 3.74 0 0 Z " fill="#36393B" transform="translate(52,189)"/>
<path d="M0 0 C0 3.59857954 -0.95830515 5.09451118 -3 8 C-3.66 8 -4.32 8 -5 8 C-5.33 5.69 -5.66 3.38 -6 1 C-4.7934375 1.0309375 -4.7934375 1.0309375 -3.5625 1.0625 C-1.06645115 1.29633621 -1.06645115 1.29633621 0 0 Z " fill="#2F312D" transform="translate(152,206)"/>
<path d="M0 0 C1.07310858 3.27185553 0.89263102 5.42947592 0.0625 8.75 C-0.22947266 9.94882813 -0.22947266 9.94882813 -0.52734375 11.171875 C-0.68332031 11.77515625 -0.83929688 12.3784375 -1 13 C-1.66 13 -2.32 13 -3 13 C-2.69240822 11.02006459 -2.3787932 9.04106401 -2.0625 7.0625 C-1.88847656 5.96035156 -1.71445313 4.85820312 -1.53515625 3.72265625 C-1 1 -1 1 0 0 Z " fill="#141C1B" transform="translate(99,193)"/>
<path d="M0 0 C0.66 0 1.32 0 2 0 C6 6.625 6 6.625 6 10 C5.34 10 4.68 10 4 10 C4 9.34 4 8.68 4 8 C3.34 8 2.68 8 2 8 C1.34 5.36 0.68 2.72 0 0 Z " fill="#45423F" transform="translate(187,146)"/>
<path d="M0 0 C0.33 0 0.66 0 1 0 C1.05429959 1.74965358 1.09292823 3.49979787 1.125 5.25 C1.14820313 6.22453125 1.17140625 7.1990625 1.1953125 8.203125 C0.99862781 11.0196498 0.44568916 12.60949036 -1 15 C-1.33 15 -1.66 15 -2 15 C-1.03644647 4.44191344 -1.03644647 4.44191344 0 0 Z " fill="#4C4E4F" transform="translate(129,79)"/>
<path d="M0 0 C0.66 0 1.32 0 2 0 C5 5.75 5 5.75 5 8 C5.66 8 6.32 8 7 8 C7 8.99 7 9.98 7 11 C4 10 4 10 2.83203125 8.22265625 C2.49558594 7.50980469 2.15914062 6.79695312 1.8125 6.0625 C1.46832031 5.35222656 1.12414062 4.64195312 0.76953125 3.91015625 C0 2 0 2 0 0 Z " fill="#062B2D" transform="translate(142,218)"/>
<path d="M0 0 C0.99 0 1.98 0 3 0 C2.71758359 1.46015291 2.42373386 2.91809793 2.125 4.375 C1.96257812 5.18710938 1.80015625 5.99921875 1.6328125 6.8359375 C1 9 1 9 -1 11 C-1.02688151 9.35425434 -1.04634123 7.70838587 -1.0625 6.0625 C-1.07410156 5.14597656 -1.08570312 4.22945312 -1.09765625 3.28515625 C-1 1 -1 1 0 0 Z " fill="#181A19" transform="translate(120,197)"/>
<path d="M0 0 C1.9375 0.75 1.9375 0.75 4 2 C4.75 4.125 4.75 4.125 5 6 C3.35 6.33 1.7 6.66 0 7 C-0.38133299 5.0085944 -0.71325582 3.00720923 -1 1 C-0.67 0.67 -0.34 0.34 0 0 Z " fill="#393737" transform="translate(185,131)"/>
<path d="M0 0 C0.66 0.33 1.32 0.66 2 1 C-0.31 5.29 -2.62 9.58 -5 14 C-5.66 13.01 -6.32 12.02 -7 11 C-6.57847656 10.37351562 -6.15695313 9.74703125 -5.72265625 9.1015625 C-4.90087891 7.87566406 -4.90087891 7.87566406 -4.0625 6.625 C-3.24458984 5.40683594 -3.24458984 5.40683594 -2.41015625 4.1640625 C-0.98906121 2.07280816 -0.98906121 2.07280816 0 0 Z " fill="#0E3C3B" transform="translate(114,115)"/>
<path d="M0 0 C1.65 1.65 3.3 3.3 5 5 C4.34 6.32 3.68 7.64 3 9 C2.34 9 1.68 9 1 9 C0.14670459 5.90680414 0 3.20663885 0 0 Z " fill="#393C3B" transform="translate(253,204)"/>
<path d="M0 0 C1.32 0.33 2.64 0.66 4 1 C3.34 1 2.68 1 2 1 C2.33 1.99 2.66 2.98 3 4 C2.67 4.66 2.34 5.32 2 6 C-0.91517292 4.92598892 -2.77810176 4.22189824 -5 2 C-2.525 2.495 -2.525 2.495 0 3 C0 2.01 0 1.02 0 0 Z " fill="#313232" transform="translate(214,192)"/>
<path d="M0 0 C0.66 0.33 1.32 0.66 2 1 C2 1.66 2 2.32 2 3 C3.32 3.66 4.64 4.32 6 5 C6 5.99 6 6.98 6 8 C5.34 7.34 4.68 6.68 4 6 C2.01643517 5.28591666 0.01684563 4.61382258 -2 4 C-1.34 2.68 -0.68 1.36 0 0 Z " fill="#3E4443" transform="translate(222,168)"/>
<path d="M0 0 C3.875 1.75 3.875 1.75 5 4 C3.68 4 2.36 4 1 4 C0.67 4.66 0.34 5.32 0 6 C-0.99 5.67 -1.98 5.34 -3 5 C-1.125 1.125 -1.125 1.125 0 0 Z " fill="#4D4D4B" transform="translate(108,157)"/>
<path d="M0 0 C3.99996286 1.33332095 4.83782337 3.4957827 7 7 C6.01 7.33 5.02 7.66 4 8 C1.10067643 5.60490662 0.49831724 3.68754757 0 0 Z " fill="#414040" transform="translate(205,152)"/>
<path d="M0 0 C0.66 0 1.32 0 2 0 C2.33 2.64 2.66 5.28 3 8 C1.35 8 -0.3 8 -2 8 C-1.34 5.36 -0.68 2.72 0 0 Z " fill="#345B5B" transform="translate(106,127)"/>
<path d="M0 0 C0 0.99 0 1.98 0 3 C-3 5 -3 5 -7 5 C-6.3125 3.0625 -6.3125 3.0625 -5 1 C-2.375 0.25 -2.375 0.25 0 0 Z " fill="#242521" transform="translate(62,207)"/>
<path d="M0 0 C0.66 0 1.32 0 2 0 C2.69699552 1.45381897 3.38233866 2.91322953 4.0625 4.375 C4.63677734 5.59316406 4.63677734 5.59316406 5.22265625 6.8359375 C5.47917969 7.55007812 5.73570313 8.26421875 6 9 C5.67 9.66 5.34 10.32 5 11 C4.01 10.67 3.02 10.34 2 10 C1.34 6.7 0.68 3.4 0 0 Z " fill="#141919" transform="translate(112,197)"/>
<path d="M0 0 C0.9075 0.37125 1.815 0.7425 2.75 1.125 C5.88097015 2.30359299 5.88097015 2.30359299 8.375 1.125 C8.91125 0.75375 9.4475 0.3825 10 0 C10 0.66 10 1.32 10 2 C9.34 2 8.68 2 8 2 C8 2.66 8 3.32 8 4 C6.02 4.99 6.02 4.99 4 6 C4 5.34 4 4.68 4 4 C3.34 4 2.68 4 2 4 C1.34 2.68 0.68 1.36 0 0 Z " fill="#1B1B1B" transform="translate(123,199)"/>
<path d="M0 0 C0.99 0.33 1.98 0.66 3 1 C3.73046875 3.06640625 3.73046875 3.06640625 4.1875 5.5625 C4.34605469 6.38878906 4.50460938 7.21507812 4.66796875 8.06640625 C4.77753906 8.70449219 4.88710937 9.34257812 5 10 C1.32769295 6.92000054 0.43197635 4.7517398 0 0 Z " fill="#2A2A2A" transform="translate(161,188)"/>
<path d="M0 0 C0.66 0 1.32 0 2 0 C2.33 1.65 2.66 3.3 3 5 C1.02 5.99 1.02 5.99 -1 7 C-2 4 -2 4 -1.0625 1.8125 C-0.5365625 0.9153125 -0.5365625 0.9153125 0 0 Z " fill="#474643" transform="translate(106,146)"/>
<path d="M0 0 C-1.485 1.485 -1.485 1.485 -3 3 C-2.67 3.66 -2.34 4.32 -2 5 C-3.9375 4.6875 -3.9375 4.6875 -6 4 C-6.33 3.01 -6.66 2.02 -7 1 C-3.375 -1.125 -3.375 -1.125 0 0 Z " fill="#302D2D" transform="translate(133,211)"/>
<path d="M0 0 C-0.75 4.75 -0.75 4.75 -3 7 C-3 6.01 -3 5.02 -3 4 C-4.98 4.99 -4.98 4.99 -7 6 C-5.52522876 2.59668175 -4.14385429 0 0 0 Z " fill="#4A4849" transform="translate(101,151)"/>
<path d="M0 0 C0 3 0 3 -1.3125 4.60546875 C-1.869375 5.12753906 -2.42625 5.64960938 -3 6.1875 C-3.556875 6.71730469 -4.11375 7.24710938 -4.6875 7.79296875 C-5.120625 8.19128906 -5.55375 8.58960938 -6 9 C-6.66 8.67 -7.32 8.34 -8 8 C-7.525625 7.566875 -7.05125 7.13375 -6.5625 6.6875 C-4.76313043 4.97690387 -4.76313043 4.97690387 -4 2 C-1.9375 0.8125 -1.9375 0.8125 0 0 Z " fill="#547978" transform="translate(93,146)"/>
<path d="M0 0 C1.32 0.66 2.64 1.32 4 2 C4 3.32 4 4.64 4 6 C2.02 5.34 0.04 4.68 -2 4 C-2 3.34 -2 2.68 -2 2 C-1.34 2 -0.68 2 0 2 C0 1.34 0 0.68 0 0 Z " fill="#3F3E3B" transform="translate(169,136)"/>
<path d="M0 0 C0.66 1.32 1.32 2.64 2 4 C0.68 5.32 -0.64 6.64 -2 8 C-2.66 7.67 -3.32 7.34 -4 7 C-3.43628586 3.73045798 -2.50037734 2.17424117 0 0 Z " fill="#393737" transform="translate(168,130)"/>
<path d="M0 0 C0.66 0 1.32 0 2 0 C2.99 1.98 3.98 3.96 5 6 C4.01 6.495 4.01 6.495 3 7 C1.68 6.01 0.36 5.02 -1 4 C-0.67 2.68 -0.34 1.36 0 0 Z " fill="#4F4E4F" transform="translate(173,111)"/>
<path d="M0 0 C0.25 2.3125 0.25 2.3125 0 5 C-2 6.8125 -2 6.8125 -4 8 C-4.33 6.35 -4.66 4.7 -5 3 C-1.125 0 -1.125 0 0 0 Z " fill="#423F3C" transform="translate(138,69)"/>
<path d="M0 0 C1.5625 1.75 1.5625 1.75 3 4 C2.6875 6.25 2.6875 6.25 2 8 C-0.475 7.01 -0.475 7.01 -3 6 C-3 5.34 -3 4.68 -3 4 C-2.34 4 -1.68 4 -1 4 C-0.67 2.68 -0.34 1.36 0 0 Z " fill="#224140" transform="translate(160,206)"/>
<path d="M0 0 C0.99 0.33 1.98 0.66 3 1 C0.69 3.31 -1.62 5.62 -4 8 C-4.33 7.01 -4.66 6.02 -5 5 C-4.34 5 -3.68 5 -3 5 C-2.5359375 4.0409375 -2.5359375 4.0409375 -2.0625 3.0625 C-1 1 -1 1 0 0 Z " fill="#0B3437" transform="translate(201,202)"/>
<path d="M0 0 C0.66 0.33 1.32 0.66 2 1 C0.8905928 4.48670834 -0.26337666 7.77484237 -2 11 C-3.36176066 4.34250344 -3.36176066 4.34250344 -2 1 C-1.34 0.67 -0.68 0.34 0 0 Z " fill="#272927" transform="translate(98,192)"/>
<path d="M0 0 C0.66 0.66 1.32 1.32 2 2 C1.01 3.485 1.01 3.485 0 5 C-0.66 5 -1.32 5 -2 5 C-2 5.99 -2 6.98 -2 8 C-3.32 8.33 -4.64 8.66 -6 9 C-4.68 6.69 -3.36 4.38 -2 2 C-1.34 2 -0.68 2 0 2 C0 1.34 0 0.68 0 0 Z " fill="#4A4B4B" transform="translate(118,117)"/>
<path d="M0 0 C0.99 0.99 1.98 1.98 3 3 C2.34 4.32 1.68 5.64 1 7 C1 6.34 1 5.68 1 5 C0.34 5 -0.32 5 -1 5 C-1.33 3.68 -1.66 2.36 -2 1 C-1.34 0.67 -0.68 0.34 0 0 Z " fill="#172F35" transform="translate(148,221)"/>
<path d="M0 0 C0.33 0.66 0.66 1.32 1 2 C0.0625 4.125 0.0625 4.125 -1 6 C-1.66 5.67 -2.32 5.34 -3 5 C-3 5.66 -3 6.32 -3 7 C-3.99 6.67 -4.98 6.34 -6 6 C-5.34 5.67 -4.68 5.34 -4 5 C-4 4.34 -4 3.68 -4 3 C-2 1.375 -2 1.375 0 0 Z " fill="#363B3E" transform="translate(196,205)"/>
<path d="M0 0 C-0.33 0.99 -0.66 1.98 -1 3 C-1.66 3 -2.32 3 -3 3 C-3.33 3.99 -3.66 4.98 -4 6 C-4.99 5.67 -5.98 5.34 -7 5 C-6.1875 3.0625 -6.1875 3.0625 -5 1 C-2 0 -2 0 0 0 Z " fill="#554D50" transform="translate(90,157)"/>
<path d="M0 0 C0.99 0.33 1.98 0.66 3 1 C2.34 1.66 1.68 2.32 1 3 C0.29289322 4.64991582 -0.37943989 6.31562256 -1 8 C-1.66 7.67 -2.32 7.34 -3 7 C-1.125 1.125 -1.125 1.125 0 0 Z " fill="#545C5C" transform="translate(112,122)"/>
<path d="M0 0 C0.66 0 1.32 0 2 0 C2 2.31 2 4.62 2 7 C1.01 6.67 0.02 6.34 -1 6 C-1.042721 4.33388095 -1.04063832 2.66617115 -1 1 C-0.67 0.67 -0.34 0.34 0 0 Z " fill="#4E4E4D" transform="translate(152,45)"/>
<path d="M0 0 C0.66 0 1.32 0 2 0 C1.3125 1.9375 1.3125 1.9375 0 4 C-2.625 4.75 -2.625 4.75 -5 5 C-5.33 4.34 -5.66 3.68 -6 3 C-4.02 2.67 -2.04 2.34 0 2 C0 1.34 0 0.68 0 0 Z " fill="#0F3A38" transform="translate(193,210)"/>
<path d="M0 0 C0.33 0 0.66 0 1 0 C1 2.31 1 4.62 1 7 C0.01 7.33 -0.98 7.66 -2 8 C-2.73323796 10.01508358 -2.73323796 10.01508358 -3 12 C-3.43200679 7.24792529 -1.98489083 4.21789302 0 0 Z " fill="#1E2526" transform="translate(155,205)"/>
<path d="M0 0 C0 0.99 0 1.98 0 3 C0.66 3 1.32 3 2 3 C2 3.66 2 4.32 2 5 C-3.75 3.25 -3.75 3.25 -6 1 C-3.92446352 0.4465236 -2.15634036 0 0 0 Z " fill="#0C3231" transform="translate(229,209)"/>
<path d="M0 0 C2.31 0 4.62 0 7 0 C6.34 1.32 5.68 2.64 5 4 C4.01 4 3.02 4 2 4 C2 3.01 2 2.02 2 1 C1.34 0.67 0.68 0.34 0 0 Z " fill="#3C3533" transform="translate(102,204)"/>
<path d="M0 0 C0.66 0 1.32 0 2 0 C2 0.99 2 1.98 2 3 C2.66 3.33 3.32 3.66 4 4 C3.34 4 2.68 4 2 4 C2 4.99 2 5.98 2 7 C1.34 6.67 0.68 6.34 0 6 C0.33 5.34 0.66 4.68 1 4 C0.01 3.67 -0.98 3.34 -2 3 C-1.34 2.01 -0.68 1.02 0 0 Z " fill="#1C1C1B" transform="translate(160,196)"/>
<path d="M0 0 C0.66 0.33 1.32 0.66 2 1 C-0.02882906 3.94180214 -2.05819786 5.97117094 -5 8 C-5 5 -5 5 -2.5 2.3125 C-1.675 1.549375 -0.85 0.78625 0 0 Z " fill="#383939" transform="translate(93,148)"/>
<path d="M0 0 C1.98 0.495 1.98 0.495 4 1 C4 1.99 4 2.98 4 4 C2.35 4.66 0.7 5.32 -1 6 C-0.67 4.02 -0.34 2.04 0 0 Z " fill="#2F2D2C" transform="translate(116,137)"/>
<path d="M0 0 C0.66 0 1.32 0 2 0 C2 1.32 2 2.64 2 4 C3.32 3.67 4.64 3.34 6 3 C5.34 4.32 4.68 5.64 4 7 C2 5.1875 2 5.1875 0 3 C0 2.01 0 1.02 0 0 Z " fill="#393835" transform="translate(140,58)"/>
<path d="M0 0 C-0.33 1.32 -0.66 2.64 -1 4 C-2.32 4 -3.64 4 -5 4 C-5 3.01 -5 2.02 -5 1 C-3 0 -3 0 0 0 Z " fill="#494A49" transform="translate(225,187)"/>
<path d="M0 0 C0.66 0 1.32 0 2 0 C1.67 1.65 1.34 3.3 1 5 C-1.31 5 -3.62 5 -6 5 C-5.67 4.34 -5.34 3.68 -5 3 C-3.66666667 2.66666667 -2.33333333 2.33333333 -1 2 C-0.67 1.34 -0.34 0.68 0 0 Z " fill="#505050" transform="translate(150,94)"/>
<path d="M0 0 C0.33 0 0.66 0 1 0 C1 1.98 1 3.96 1 6 C-0.98 6.99 -0.98 6.99 -3 8 C-3.33 6.35 -3.66 4.7 -4 3 C-2.68 3.33 -1.36 3.66 0 4 C0 2.68 0 1.36 0 0 Z " fill="#373736" transform="translate(154,58)"/>
<path d="M0 0 C0.99 0 1.98 0 3 0 C3 1.65 3 3.3 3 5 C2.01 5.33 1.02 5.66 0 6 C0 4.02 0 2.04 0 0 Z " fill="#51544E" transform="translate(142,56)"/>
<path d="M0 0 C0.99 0.33 1.98 0.66 3 1 C3 1.66 3 2.32 3 3 C2.34 3 1.68 3 1 3 C0.67 4.32 0.34 5.64 0 7 C-0.66 7 -1.32 7 -2 7 C-1.34 4.69 -0.68 2.38 0 0 Z " fill="#566568" transform="translate(140,21)"/>
</svg>
