<?xml version="1.0" encoding="UTF-8"?>
<svg version="1.1" xmlns="http://www.w3.org/2000/svg" width="453" height="404">
<path d="M0 0 C0.66 0 1.32 0 2 0 C2.81352241 5.67495216 3.13614934 11.14692814 3.09765625 16.875 C3.09553383 18.08990112 3.09553383 18.08990112 3.09336853 19.3293457 C3.08782383 21.88626994 3.07528207 24.44310276 3.0625 27 C3.05747784 28.74609247 3.05291619 30.49218634 3.04882812 32.23828125 C3.0378726 36.49222209 3.02064694 40.74609561 3 45 C3.99 45 4.98 45 6 45 C7.40698242 46.64550781 7.40698242 46.64550781 8.85546875 48.953125 C9.39139648 49.79415771 9.92732422 50.63519043 10.47949219 51.50170898 C11.04313477 52.40864502 11.60677734 53.31558105 12.1875 54.25 C13.36283151 56.10054614 14.53861098 57.95080783 15.71484375 59.80078125 C16.28187012 60.70006348 16.84889648 61.5993457 17.43310547 62.52587891 C27.18806973 78.08659767 27.18806973 78.08659767 38.265625 92.69140625 C40 95 40 95 40 98 C40.66 98 41.32 98 42 98 C43.61234483 100.07386005 45.09933403 102.13739861 46.5625 104.3125 C46.97435547 104.90740234 47.38621094 105.50230469 47.81054688 106.11523438 C49.59072341 108.72285794 50.99665382 110.98996145 52 114 C52.66 114 53.32 114 54 114 C55.2890625 115.4609375 55.2890625 115.4609375 56.625 117.375 C57.07101562 118.00148438 57.51703125 118.62796875 57.9765625 119.2734375 C59 121 59 121 59 123 C59.66 123 60.32 123 61 123 C62.2890625 124.4609375 62.2890625 124.4609375 63.625 126.375 C64.07101562 127.00148438 64.51703125 127.62796875 64.9765625 128.2734375 C66 130 66 130 66 132 C66.66 132 67.32 132 68 132 C68 132.99 68 133.98 68 135 C68.66 135 69.32 135 70 135 C71.44526736 136.73548169 72.8087222 138.53975963 74.125 140.375 C74.84945313 141.37273437 75.57390625 142.37046875 76.3203125 143.3984375 C78 146 78 146 78 148 C78.66 148 79.32 148 80 148 C81.61815634 150.22088246 83.10415176 152.42770138 84.5625 154.75 C85.1802832 155.70132813 85.1802832 155.70132813 85.81054688 156.671875 C87.77296745 159.75521993 89.24898718 162.42914658 90 166 C90.66 166 91.32 166 92 166 C92.4125 166.9075 92.825 167.815 93.25 168.75 C94.80943248 172.01895698 94.80943248 172.01895698 97.1875 174.1875 C97.785625 174.785625 98.38375 175.38375 99 176 C99 176.99 99 177.98 99 179 C99.66 179 100.32 179 101 179 C102.58615823 181.17791727 104.05386605 183.3561802 105.5 185.625 C106.39641725 187.00261877 107.29490988 188.37888898 108.1953125 189.75390625 C108.65711914 190.45918457 109.11892578 191.16446289 109.59472656 191.89111328 C112.16520052 195.74861052 114.8820235 199.49983509 117.59960938 203.25439453 C125 213.4961165 125 213.4961165 125 216 C125.66 216 126.32 216 127 216 C127 216.99 127 217.98 127 219 C127.99 219.33 128.98 219.66 130 220 C131.09765625 221.55859375 131.09765625 221.55859375 132.0625 223.4375 C133.26019398 225.74149765 134.13152817 227.13152817 136 229 C136 229.99 136 230.98 136 232 C136.66 232 137.32 232 138 232 C139.12109375 233.40625 139.12109375 233.40625 140.4375 235.5 C143.36077717 240.03537854 146.37504438 244.49558796 149.4375 248.9375 C149.91219727 249.62859863 150.38689453 250.31969727 150.87597656 251.03173828 C154.14715508 255.78787446 157.47099563 260.50324924 160.85546875 265.1796875 C162 267 162 267 162 269 C162.66 269 163.32 269 164 269 C164.474375 269.9075 164.94875 270.815 165.4375 271.75 C168.18748545 276.62997418 171.71716133 280.93729536 175.171875 285.328125 C177 288 177 288 177 291 C177.99 291.33 178.98 291.66 180 292 C181.54296875 294.1171875 181.54296875 294.1171875 183.1875 296.875 C186.27662623 301.90623513 189.6110562 306.65656574 193.11328125 311.40625 C195.22131521 314.30425114 197.19157105 317.2710237 199.15234375 320.26953125 C200.73501244 322.60840105 202.35619059 324.906152 204.00390625 327.19921875 C204.5462793 327.95638184 205.08865234 328.71354492 205.64746094 329.49365234 C206.74328832 331.01977675 207.84407909 332.54235143 208.95019531 334.06103516 C209.45776367 334.76921387 209.96533203 335.47739258 210.48828125 336.20703125 C210.94759033 336.8410083 211.40689941 337.47498535 211.88012695 338.12817383 C213.05058481 340.08455063 213.56662998 341.772694 214 344 C214.66 344 215.32 344 216 344 C220 349.29411765 220 349.29411765 220 353 C220.99 353.33 221.98 353.66 223 354 C224.1875 357.0625 224.1875 357.0625 225 360 C224.34 360 223.68 360 223 360 C223 360.66 223 361.32 223 362 C221.49212839 363.37491299 219.91460239 364.67364462 218.3125 365.9375 C217.31605469 366.73414063 216.31960938 367.53078125 215.29296875 368.3515625 C214.75849121 368.77856445 214.22401367 369.20556641 213.67333984 369.64550781 C210.23129622 372.43168494 206.87523664 375.32077608 203.50512695 378.19311523 C202.00738014 379.46675093 200.50380987 380.73352882 199 382 C198.08992188 382.76699219 197.17984375 383.53398437 196.2421875 384.32421875 C194 386 194 386 192 386 C192 386.66 192 387.32 192 388 C187.8545826 387.42648352 184.98001644 385.0313762 181.75 382.5625 C181.19570313 382.15451172 180.64140625 381.74652344 180.0703125 381.32617188 C178.67189091 380.27046691 177.33049348 379.14012413 176 378 C176 377.34 176 376.68 176 376 C175.41210693 375.72003174 174.82421387 375.44006348 174.21850586 375.15161133 C170.74601896 373.34906696 167.70758232 371.00250194 164.5625 368.6875 C163.90701172 368.21376953 163.25152344 367.74003906 162.57617188 367.25195312 C158.71433538 364.42045616 155.36814588 361.41833348 152 358 C150.25560171 356.63226352 148.48283328 355.30015649 146.6875 354 C140.87286071 349.71098389 135.26690598 345.20585126 129.69604492 340.60546875 C126.54421485 338.01494528 123.38456766 335.54366399 120.01953125 333.234375 C119.02308594 332.49703125 118.02664063 331.7596875 117 331 C117 330.34 117 329.68 117 329 C116.41154297 328.72091797 115.82308594 328.44183594 115.21679688 328.15429688 C113.15200537 327.07914993 111.39188526 325.92306377 109.53125 324.53125 C108.88325439 324.04720703 108.23525879 323.56316406 107.56762695 323.06445312 C106.88531006 322.54818359 106.20299316 322.03191406 105.5 321.5 C104.44075317 320.70239258 104.44075317 320.70239258 103.36010742 319.88867188 C97.95937053 315.79311815 92.7179599 311.54140868 87.55078125 307.15625 C85.0180668 304.94663879 85.0180668 304.94663879 82.16796875 303.03125 C80 301 80 301 79.6875 298.25 C79.790625 297.5075 79.89375 296.765 80 296 C79.29875 296.89460938 78.5975 297.78921875 77.875 298.7109375 C75.90658151 301.22107145 73.93470967 303.72844908 71.9609375 306.234375 C70.18601995 308.48798588 68.42080768 310.74771985 66.6640625 313.015625 C65.99117188 313.87671875 65.31828125 314.7378125 64.625 315.625 C64.03976562 316.38039063 63.45453125 317.13578125 62.8515625 317.9140625 C60.76591242 320.26371892 58.47686543 322.07398944 56 324 C55.113125 324.9075 54.22625 325.815 53.3125 326.75 C51 329 51 329 49 329 C48.67 329.99 48.34 330.98 48 332 C47.34 332 46.68 332 46 332 C45.67 332.99 45.34 333.98 45 335 C44.34 335 43.68 335 43 335 C43 335.66 43 336.32 43 337 C39.53846154 340 39.53846154 340 37 340 C37 340.66 37 341.32 37 342 C33.53846154 345 33.53846154 345 31 345 C30.67 345.99 30.34 346.98 30 348 C28.14453125 349.5 28.14453125 349.5 25.8125 351 C25.05582031 351.495 24.29914063 351.99 23.51953125 352.5 C15.53132805 357.25576748 8.18365505 358.55433079 -1 357 C-5.52897021 355.30367502 -9.13648354 352.88222438 -13 350 C-13.53753906 349.60925293 -14.07507813 349.21850586 -14.62890625 348.81591797 C-20.9748128 344.19452257 -26.99418522 339.2525295 -32.7890625 333.953125 C-36.10519257 331.02368148 -39.61405964 328.3496835 -43.12890625 325.6640625 C-44.05509766 324.84035156 -44.05509766 324.84035156 -45 324 C-45 323.34 -45 322.68 -45 322 C-45.56203125 321.773125 -46.1240625 321.54625 -46.703125 321.3125 C-49.64626861 319.63070365 -51.50044732 317.5289089 -53.75 315 C-54.54921875 314.113125 -55.3484375 313.22625 -56.171875 312.3125 C-58 310 -58 310 -58 308 C-58.66 308 -59.32 308 -60 308 C-60 307.01 -60 306.02 -60 305 C-60.99 304.67 -61.98 304.34 -63 304 C-63.33 303.34 -63.66 302.68 -64 302 C-64.44730469 302.53109375 -64.89460937 303.0621875 -65.35546875 303.609375 C-68.64848775 307.45708163 -71.79149942 311.11417103 -76 314 C-76.66 314 -77.32 314 -78 314 C-78.33 314.99 -78.66 315.98 -79 317 C-81.1875 319.015625 -81.1875 319.015625 -84 321.25 C-84.99257812 322.0440625 -85.98515625 322.838125 -87.0078125 323.65625 C-90.29443237 326.23062588 -93.59436087 328.78586864 -96.9296875 331.296875 C-99.10694939 333.0309773 -99.10694939 333.0309773 -101.31640625 335.32421875 C-104.42411518 338.42288049 -107.70935317 341.23561587 -111.0625 344.0625 C-112.28391925 345.09343448 -113.50400585 346.12595023 -114.72265625 347.16015625 C-115.29258301 347.64371582 -115.86250977 348.12727539 -116.44970703 348.62548828 C-118.16982857 350.11042994 -118.16982857 350.11042994 -120.24609375 352.37109375 C-122 354 -122 354 -125 354 C-125.33 354.99 -125.66 355.98 -126 357 C-126.66 357 -127.32 357 -128 357 C-128.33 357.99 -128.66 358.98 -129 360 C-130.79296875 361.62109375 -130.79296875 361.62109375 -133.1875 363.4375 C-137.62674369 366.88811901 -141.93044966 370.45465669 -146.1875 374.125 C-147.04154419 374.86061157 -147.04154419 374.86061157 -147.9128418 375.61108398 C-148.47140869 376.09262939 -149.02997559 376.5741748 -149.60546875 377.0703125 C-150.1576709 377.54500977 -150.70987305 378.01970703 -151.27880859 378.50878906 C-152.49754294 379.56467976 -153.70803064 380.63012378 -154.91259766 381.70214844 C-155.53569824 382.25161133 -156.15879883 382.80107422 -156.80078125 383.3671875 C-157.36579346 383.8710498 -157.93080566 384.37491211 -158.51293945 384.89404297 C-160 386 -160 386 -162 386 C-162 386.66 -162 387.32 -162 388 C-163.609375 389.76171875 -163.609375 389.76171875 -165.75 391.6875 C-166.44609375 392.33074219 -167.1421875 392.97398437 -167.859375 393.63671875 C-170 395 -170 395 -171.88745117 394.76513672 C-174.32233549 393.88325443 -175.91985314 392.73789415 -177.94140625 391.12109375 C-178.68535645 390.53295898 -179.42930664 389.94482422 -180.19580078 389.33886719 C-181.36731689 388.39769043 -181.36731689 388.39769043 -182.5625 387.4375 C-184.17457424 386.15863328 -185.78785366 384.88128426 -187.40234375 383.60546875 C-188.18593262 382.98591309 -188.96952148 382.36635742 -189.77685547 381.72802734 C-193.49948897 378.83446267 -197.34723771 376.13253852 -201.2265625 373.453125 C-201.81179687 372.97359375 -202.39703125 372.4940625 -203 372 C-203 371.34 -203 370.68 -203 370 C-204.32 369.34 -205.64 368.68 -207 368 C-205.42632842 362.020048 -202.23347467 357.19166035 -199 352 C-198.48308594 351.07316406 -197.96617187 350.14632813 -197.43359375 349.19140625 C-196.96050781 348.46824219 -196.48742187 347.74507813 -196 347 C-195.34 347 -194.68 347 -194 347 C-193.92265625 346.48050781 -193.8453125 345.96101563 -193.765625 345.42578125 C-192.67945472 341.9843948 -190.72415581 339.17293457 -188.75 336.1875 C-188.34394531 335.56383545 -187.93789062 334.9401709 -187.51953125 334.29760742 C-185.41550496 331.08316949 -183.26482283 327.91663953 -181 324.8125 C-178.87645358 322.11614914 -178.87645358 322.11614914 -178 319 C-177.34 319 -176.68 319 -176 319 C-175.76152344 318.14921875 -175.52304688 317.2984375 -175.27734375 316.421875 C-173.85737344 312.61791783 -171.87445723 309.5461675 -169.5625 306.25 C-165.6374181 300.52477941 -161.94730827 294.70134944 -158.375 288.75 C-154.75813906 282.74131329 -150.94652868 277.02331796 -146.7265625 271.4140625 C-144.13808405 267.79487769 -142.03040113 263.95342528 -140 260 C-139.34 260 -138.68 260 -138 260 C-137.81908813 259.12758667 -137.81908813 259.12758667 -137.63452148 258.23754883 C-136.9772302 255.91970557 -136.10621483 254.24680172 -134.84765625 252.19921875 C-134.40558838 251.47645752 -133.96352051 250.75369629 -133.50805664 250.0090332 C-132.7925061 248.85987427 -132.7925061 248.85987427 -132.0625 247.6875 C-131.57322021 246.8936792 -131.08394043 246.0998584 -130.57983398 245.28198242 C-126.96140716 239.44883386 -123.21959641 233.70533081 -119.34985352 228.03588867 C-116.68796244 224.12074899 -114.3042185 220.13079718 -112 216 C-111.34 216 -110.68 216 -110 216 C-109.88011719 215.21302734 -109.88011719 215.21302734 -109.7578125 214.41015625 C-108.70299962 211.05541631 -106.80659402 208.34003245 -104.875 205.4375 C-104.05452591 204.18239728 -103.23421525 202.92718772 -102.4140625 201.671875 C-102.00575195 201.05119141 -101.59744141 200.43050781 -101.17675781 199.79101562 C-99.51827928 197.26682506 -97.88032808 194.72994996 -96.25 192.1875 C-95.73953125 191.39730469 -95.2290625 190.60710937 -94.703125 189.79296875 C-91.49522207 184.53230225 -88.54867781 179.13731807 -85.78125 173.6328125 C-79.2779975 160.72583258 -71.8211963 148.38295168 -62.6796875 137.1484375 C-60.81911198 135.01598326 -60.81911198 135.01598326 -60 132 C-59 131 -58 130 -57 129 C-56.319375 127.948125 -55.63875 126.89625 -54.9375 125.8125 C-54.298125 124.884375 -53.65875 123.95625 -53 123 C-52.34 123 -51.68 123 -51 123 C-50.8453125 122.14535156 -50.8453125 122.14535156 -50.6875 121.2734375 C-49.87543464 118.58808502 -48.66447754 116.88283296 -47 114.625 C-44.77430525 111.54681347 -42.62609587 108.4498571 -40.60546875 105.234375 C-40.20392578 104.5954834 -39.80238281 103.9565918 -39.38867188 103.29833984 C-38.59409642 102.02605012 -37.80493211 100.75036339 -37.02148438 99.47119141 C-36.06603658 97.94712535 -35.03891173 96.46844143 -34 95 C-33.34 95 -32.68 95 -32 95 C-31.9071875 94.45988281 -31.814375 93.91976562 -31.71875 93.36328125 C-30.77912934 90.27376765 -29.22942407 87.91546059 -27.5 85.1875 C-26.77249313 84.03054121 -26.04596981 82.8729635 -25.3203125 81.71484375 C-24.94036133 81.1101123 -24.56041016 80.50538086 -24.16894531 79.88232422 C-22.19197689 76.69886002 -20.28838605 73.47192408 -18.375 70.25 C-15.42983345 65.30209498 -12.39021227 60.45930425 -9.09375 55.734375 C-7.82693147 53.87840208 -7.82693147 53.87840208 -7 51 C-6.34 51 -5.68 51 -5 51 C-4.71125 50.2575 -4.4225 49.515 -4.125 48.75 C-3 46 -3 46 -1.94140625 44.20703125 C-0.71679202 41.33604769 -0.77086026 39.05290942 -0.8125 35.9375 C-0.82667969 34.77476563 -0.84085938 33.61203125 -0.85546875 32.4140625 C-0.97868327 29.50353584 -1.25421783 26.69834679 -1.625 23.8125 C-2.48868396 15.86187506 -1.0489815 7.88036517 0 0 Z " fill="#958F8F" transform="translate(219,2)"/>
<path d="M0 0 C3.54433654 1.41773462 4.33806119 2.67612238 6 6 C6.8957373 6.43662964 6.8957373 6.43662964 7.80957031 6.88208008 C10.40508723 8.20674258 12.01314206 9.80279094 14.046875 11.88671875 C14.81 12.66080078 15.573125 13.43488281 16.359375 14.23242188 C17.14828125 15.04259766 17.9371875 15.85277344 18.75 16.6875 C24.31106668 22.37369068 29.92429723 27.86336769 36 33 C36.64791504 33.54914063 37.29583008 34.09828125 37.96337891 34.6640625 C38.53233887 35.14617187 39.10129883 35.62828125 39.6875 36.125 C43.3050288 39.222255 46.61912996 42.56580368 49.921875 45.99609375 C54.78901017 50.97541466 59.8700843 55.45343232 65.30078125 59.80859375 C69.32117233 63.07261603 73.15034483 66.53818322 77 70 C78.22658508 71.08625543 79.45574787 72.16960725 80.6875 73.25 C81.32042969 73.806875 81.95335937 74.36375 82.60546875 74.9375 C84.59122366 76.64790553 86.5953673 78.32799934 88.61328125 80 C89.25241455 80.53463867 89.89154785 81.06927734 90.55004883 81.62011719 C91.8368505 82.695701 93.12957437 83.76424406 94.4284668 84.82519531 C96.00900945 86.15204934 97.51180943 87.57033378 99 89 C99 89.99 99 90.98 99 92 C98.34 91.67 97.68 91.34 97 91 C97 90.34 97 89.68 97 89 C96.21882813 88.68095703 96.21882813 88.68095703 95.421875 88.35546875 C91.98651331 86.43277439 89.20305038 83.89962292 86.25 81.3125 C85.6202124 80.76650146 84.9904248 80.22050293 84.34155273 79.65795898 C82.55735039 78.10947116 80.77782692 76.55579918 79 75 C77.92685547 74.06414062 77.92685547 74.06414062 76.83203125 73.109375 C75.63233108 72.06063048 74.43446965 71.0097795 73.23828125 69.95703125 C71.36740842 68.32124191 69.48873535 66.69567908 67.60546875 65.07421875 C59.60704851 58.18290698 51.72600918 51.19695542 44 44 C43.04577148 43.11344727 43.04577148 43.11344727 42.07226562 42.20898438 C34.90858238 35.54873186 27.79526733 28.86764872 20.9296875 21.8984375 C19.05545619 20.05455811 17.12249625 18.33370161 15.125 16.625 C11.61758285 13.60748524 8.29136273 10.43665224 5 7.1875 C4.5064502 6.70684082 4.01290039 6.22618164 3.50439453 5.73095703 C2.29620205 4.52618598 1.14291224 3.26686779 0 2 C0 1.34 0 0.68 0 0 Z " fill="#7F7979" transform="translate(304,278)"/>
<path d="M0 0 C0.66 0 1.32 0 2 0 C2.79992991 5.60227732 3.136767 11.00201885 3.09765625 16.65625 C3.0962413 17.44398804 3.09482635 18.23172607 3.09336853 19.04333496 C3.08782612 21.52893064 3.07528485 24.01443211 3.0625 26.5 C3.05747754 28.19791535 3.05291595 29.89583214 3.04882812 31.59375 C3.03787564 35.72920229 3.02065166 39.86458524 3 44 C2.67 44 2.34 44 2 44 C1.505 26.675 1.505 26.675 1 9 C1 20.55 1 32.1 1 44 C0.01 44.495 0.01 44.495 -1 45 C-0.98259766 43.45892578 -0.98259766 43.45892578 -0.96484375 41.88671875 C-0.86669459 32.73533573 -0.86669459 32.73533573 -1.625 23.625 C-2.50781974 15.7521829 -1.0389087 7.80469428 0 0 Z " fill="#F4F4F4" transform="translate(219,2)"/>
<path d="M0 0 C0.66 0.33 1.32 0.66 2 1 C2.33 12.88 2.66 24.76 3 37 C1.02 37.495 1.02 37.495 -1 38 C-1.2165625 38.928125 -1.2165625 38.928125 -1.4375 39.875 C-2 42 -2 42 -3 44 C-3.66 44 -4.32 44 -5 44 C-4.67 44.99 -4.34 45.98 -4 47 C-5.65 47.66 -7.3 48.32 -9 49 C-8.01 46.03 -8.01 46.03 -7 43 C-6.34 43 -5.68 43 -5 43 C-4.731875 42.21625 -4.46375 41.4325 -4.1875 40.625 C-3 38 -3 38 0 36 C0.2667616 33.23371085 0.34804189 30.69380369 0.29296875 27.9296875 C0.28872391 27.13345978 0.28447906 26.33723206 0.28010559 25.51687622 C0.26328834 22.96924271 0.22563179 20.42239511 0.1875 17.875 C0.17245705 16.14975099 0.15876796 14.42448961 0.14648438 12.69921875 C0.11337501 8.46584218 0.06157285 4.23305441 0 0 Z " fill="#A9A8A8" transform="translate(219,10)"/>
<path d="M0 0 C6.13481309 4.36515547 11.63959638 9.24777999 17.14453125 14.36328125 C20.360481 17.3328655 23.65033726 20.18323815 27 23 C26.67 23.66 26.34 24.32 26 25 C25.34 24.67 24.68 24.34 24 24 C24 23.34 24 22.68 24 22 C23.48050781 21.78859375 22.96101563 21.5771875 22.42578125 21.359375 C18.96556883 19.42031876 16.16146398 16.85818231 13.1875 14.25 C12.59646484 13.73695313 12.00542969 13.22390625 11.39648438 12.6953125 C10.20493018 11.66098629 9.01465609 10.6251835 7.82568359 9.58789062 C4.89824151 7.04174415 1.94931607 4.52074446 -1 2 C-0.67 1.34 -0.34 0.68 0 0 Z " fill="#878181" transform="translate(377,345)"/>
<path d="M0 0 C0.99 0 1.98 0 3 0 C4.82421875 2.1875 4.82421875 2.1875 6.6875 5 C7.31011719 5.928125 7.93273437 6.85625 8.57421875 7.8125 C9.04472656 8.534375 9.51523437 9.25625 10 10 C9.67 10.66 9.34 11.32 9 12 C8.34 11.34 7.68 10.68 7 10 C6.01 11.485 6.01 11.485 5 13 C2.52121318 10.8445332 1.42436196 9.28880515 1 6 C1.33 5.34 1.66 4.68 2 4 C1.34 4 0.68 4 0 4 C0 2.68 0 1.36 0 0 Z " fill="#989795" transform="translate(258,100)"/>
<path d="M0 0 C2 3 2 3 2 6 C1 9 1 9 -0.875 10.1875 C-3 11 -3 11 -6 11 C-6.33 11.99 -6.66 12.98 -7 14 C-7.33 13.34 -7.66 12.68 -8 12 C-5.36 8.04 -2.72 4.08 0 0 Z " fill="#C3C0C0" transform="translate(64,286)"/>
<path d="M0 0 C1.65 1.65 3.3 3.3 5 5 C4.01 5.33 3.02 5.66 2 6 C1.67 7.98 1.34 9.96 1 12 C-0.32 12.33 -1.64 12.66 -3 13 C-2.67 11.02 -2.34 9.04 -2 7 C-1.34 7 -0.68 7 0 7 C-0.185625 6.030625 -0.37125 5.06125 -0.5625 4.0625 C-0.706875 3.051875 -0.85125 2.04125 -1 1 C-0.67 0.67 -0.34 0.34 0 0 Z " fill="#7E7A79" transform="translate(271,118)"/>
<path d="M0 0 C2.0625 2.125 2.0625 2.125 4 5 C3.75 8.3125 3.75 8.3125 3 11 C2.34 11 1.68 11 1 11 C1 10.34 1 9.68 1 9 C-0.32 8.34 -1.64 7.68 -3 7 C-1.125 1.125 -1.125 1.125 0 0 Z " fill="#B9B5B5" transform="translate(15,363)"/>
<path d="M0 0 C-1.24976756 3.65316671 -1.67098753 4.78065836 -5 7 C-5.66 6.01 -6.32 5.02 -7 4 C-9.56282742 3.27034634 -9.56282742 3.27034634 -12 3 C-7.78372195 0.18914797 -4.97048208 -0.11045516 0 0 Z " fill="#868080" transform="translate(217,83)"/>
<path d="M0 0 C0.33 0.66 0.66 1.32 1 2 C0.10333658 4.24310013 -0.89146683 6.44754321 -1.9375 8.625 C-2.50339844 9.81351562 -3.06929688 11.00203125 -3.65234375 12.2265625 C-4.09707031 13.14179688 -4.54179688 14.05703125 -5 15 C-5.99 14.67 -6.98 14.34 -8 14 C-7.42137365 10.09427217 -5.47900791 7.98939189 -3 5 C-1.9731657 3.3497306 -0.96432076 1.68756133 0 0 Z " fill="#D1CFCF" transform="translate(77,266)"/>
<path d="M0 0 C3.63559661 3.43361902 6.36113346 6.7973607 9 11 C8.67 11.66 8.34 12.32 8 13 C6.68 12.34 5.36 11.68 4 11 C4 10.34 4 9.68 4 9 C3.34 8.401875 2.68 7.80375 2 7.1875 C0 5 0 5 -0.25 2.25 C-0.1675 1.5075 -0.085 0.765 0 0 Z " fill="#B1B0B0" transform="translate(244,78)"/>
<path d="M0 0 C4.17048478 2.89380576 6.56854369 4.98990293 8 10 C4.03935893 8.25731793 0.25563451 5.85325271 -3 3 C-3 2.34 -3 1.68 -3 1 C-2.01 0.67 -1.02 0.34 0 0 Z " fill="#C7C4C4" transform="translate(193,337)"/>
<path d="M0 0 C1.485 0.99 1.485 0.99 3 2 C3 2.66 3 3.32 3 4 C3.66 4 4.32 4 5 4 C5.66 5.65 6.32 7.3 7 9 C5.68 8.34 4.36 7.68 3 7 C3 8.32 3 9.64 3 11 C2.01 10.67 1.02 10.34 0 10 C0 6.66666667 0 3.33333333 0 0 Z " fill="#AEABAB" transform="translate(268,112)"/>
<path d="M0 0 C0.33 0.66 0.66 1.32 1 2 C0.0625 4.125 0.0625 4.125 -1 6 C-0.34 6.33 0.32 6.66 1 7 C0.071875 7.763125 -0.85625 8.52625 -1.8125 9.3125 C-3.98276101 11.11848552 -6.05568065 12.9476629 -8 15 C-6.62712658 11.30123909 -4.93644547 8.0485524 -2.875 4.6875 C-2.33617187 3.80449219 -1.79734375 2.92148438 -1.2421875 2.01171875 C-0.83226562 1.34785156 -0.42234375 0.68398437 0 0 Z " fill="#D4D3D2" transform="translate(198,77)"/>
<path d="M0 0 C0.625 1.8125 0.625 1.8125 1 4 C0.01 5.485 0.01 5.485 -1 7 C-1.66 7 -2.32 7 -3 7 C-2.67 7.99 -2.34 8.98 -2 10 C-3.65 10.66 -5.3 11.32 -7 12 C-6.34 10.02 -5.68 8.04 -5 6 C-4.34 6 -3.68 6 -3 6 C-2.690625 5.195625 -2.38125 4.39125 -2.0625 3.5625 C-1 1 -1 1 0 0 Z " fill="#CAC7C7" transform="translate(217,47)"/>
<path d="M0 0 C0.33 1.32 0.66 2.64 1 4 C0.01 4.33 -0.98 4.66 -2 5 C-1.67 6.32 -1.34 7.64 -1 9 C-2.98 9.99 -4.96 10.98 -7 12 C-2.38461538 2.38461538 -2.38461538 2.38461538 0 0 Z " fill="#D3D1D1" transform="translate(32,336)"/>
<path d="M0 0 C0 3.90454958 -1.34249676 6.49374314 -3 10 C-5 12 -5 12 -8 13 C-6.53181332 9.89257577 -4.79975 7.09528261 -2.875 4.25 C-2.33617187 3.45078125 -1.79734375 2.6515625 -1.2421875 1.828125 C-0.62730469 0.92320313 -0.62730469 0.92320313 0 0 Z " fill="#D3D1D1" transform="translate(179,107)"/>
<path d="M0 0 C0.33 0 0.66 0 1 0 C1 2.64 1 5.28 1 8 C-0.66666667 8 -2.33333333 8 -4 8 C-4.33 8.99 -4.66 9.98 -5 11 C-5.33 10.34 -5.66 9.68 -6 9 C-5.02501855 7.4972763 -4.04490611 5.99788037 -3.0625 4.5 C-2.51722656 3.6646875 -1.97195312 2.829375 -1.41015625 1.96875 C-0.94480469 1.3190625 -0.47945313 0.669375 0 0 Z " fill="#CBC8C8" transform="translate(89,247)"/>
<path d="M0 0 C2.5 2.3125 2.5 2.3125 5 5 C5 8 5 8 3 11 C0 4.5 0 4.5 0 0 Z " fill="#817E7D" transform="translate(264,109)"/>
<path d="M0 0 C0.6875 1.6875 0.6875 1.6875 1 4 C-0.25 6.6875 -0.25 6.6875 -2 9 C-2.99 9.33 -3.98 9.66 -5 10 C-4.38545304 6.00544473 -2.29353263 3.25533664 0 0 Z " fill="#CDCBCB" transform="translate(21,353)"/>
<path d="M0 0 C1.98 0 3.96 0 6 0 C4.61918777 4.1424367 2.40174442 5.32203099 -1 8 C-1.66 7.67 -2.32 7.34 -3 7 C-2.505 6.401875 -2.01 5.80375 -1.5 5.1875 C0.28276418 3.02970006 0.28276418 3.02970006 0 0 Z " fill="#C3C1C1" transform="translate(114,334)"/>
<path d="M0 0 C3.08089673 2.77280706 4.68775452 5.06326356 6 9 C4.02 8.34 2.04 7.68 0 7 C-0.38133299 5.0085944 -0.71325582 3.00720923 -1 1 C-0.67 0.67 -0.34 0.34 0 0 Z " fill="#BAB9B8" transform="translate(405,305)"/>
<path d="M0 0 C1.485 0.99 1.485 0.99 3 2 C3 2.66 3 3.32 3 4 C3.66 4 4.32 4 5 4 C6.625 6 6.625 6 8 8 C7.67 8.66 7.34 9.32 7 10 C5 9 3 8 1 7 C0.59270772 4.67843403 0.25561323 2.3431213 0 0 Z " fill="#C1C0C0" transform="translate(275,121)"/>
<path d="M0 0 C1 2 1 2 0.25 4.9375 C-0.89861935 7.75161742 -1.60483069 9.20362301 -4 11 C-4.66 11 -5.32 11 -6 11 C-4.54955729 6.89041233 -2.48889248 3.56741255 0 0 Z " fill="#D2CFD0" transform="translate(55,300)"/>
<path d="M0 0 C0.75 1.625 0.75 1.625 1 4 C-0.8125 7.25 -0.8125 7.25 -3 10 C-3.66 10 -4.32 10 -5 10 C-4.38545304 6.00544473 -2.29353263 3.25533664 0 0 Z " fill="#CBC9C9" transform="translate(114,208)"/>
<path d="M0 0 C2.31 0.33 4.62 0.66 7 1 C7.144375 1.61875 7.28875 2.2375 7.4375 2.875 C7.93152225 5.03258322 7.93152225 5.03258322 9 7 C5.18315774 5.44499019 2.80804268 2.96404505 0 0 Z " fill="#C3C2C1" transform="translate(339,334)"/>
<path d="M0 0 C0.66 0 1.32 0 2 0 C2.33 0.99 2.66 1.98 3 3 C0.66666667 7.66666667 0.66666667 7.66666667 -2 9 C-1.41196203 5.97580475 -0.77321882 2.98241547 0 0 Z " fill="#CCCAC9" transform="translate(152,300)"/>
<path d="M0 0 C3 1.625 3 1.625 6 4 C6.375 7.25 6.375 7.25 6 10 C3.25722422 6.80009492 1.3697164 3.99500618 0 0 Z " fill="#A3A0A0" transform="translate(383,276)"/>
<path d="M0 0 C0.5534764 2.07553648 1 3.84365964 1 6 C0.34 6 -0.32 6 -1 6 C-1.33 6.66 -1.66 7.32 -2 8 C-2.99 8.33 -3.98 8.66 -5 9 C-3.7508258 5.54074837 -2.32472205 2.85306797 0 0 Z " fill="#CCC9C9" transform="translate(102,227)"/>
<path d="M0 0 C2.59937954 2.46941056 4.79020692 5.18060883 7 8 C6.67 8.66 6.34 9.32 6 10 C1.77202073 6.91709845 1.77202073 6.91709845 0 5 C-0.375 2.1875 -0.375 2.1875 0 0 Z " fill="#C4C2C1" transform="translate(327,193)"/>
<path d="M0 0 C1 2 1 2 0.3125 5.0625 C-1 8 -1 8 -3.125 8.875 C-3.74375 8.91625 -4.3625 8.9575 -5 9 C-3.7508258 5.54074837 -2.32472205 2.85306797 0 0 Z " fill="#D0CECF" transform="translate(127,188)"/>
<path d="M0 0 C1 2 1 2 0.875 4.5 C0 7 0 7 -2.5625 8.3125 C-3.7690625 8.6528125 -3.7690625 8.6528125 -5 9 C-4.67 7.68 -4.34 6.36 -4 5 C-3.34 5 -2.68 5 -2 5 C-1.7834375 4.0409375 -1.7834375 4.0409375 -1.5625 3.0625 C-1 1 -1 1 0 0 Z " fill="#D2D0D0" transform="translate(189,92)"/>
<path d="M0 0 C2.27521866 2.16687491 4.15794162 4.45620509 6 7 C5.67 7.66 5.34 8.32 5 9 C2.5 7.3125 2.5 7.3125 0 5 C-0.3125 2.25 -0.3125 2.25 0 0 Z " fill="#C2C0C0" transform="translate(371,256)"/>
<path d="M0 0 C2.5 2.3125 2.5 2.3125 5 5 C5 5.99 5 6.98 5 8 C4.01 8 3.02 8 2 8 C1.34 5.36 0.68 2.72 0 0 Z " fill="#C3C1C1" transform="translate(358,238)"/>
<path d="M0 0 C0.99 0 1.98 0 3 0 C2.34 1.98 1.68 3.96 1 6 C0.01 5.67 -0.98 5.34 -2 5 C-1.125 1.125 -1.125 1.125 0 0 Z " fill="#C1BFBE" transform="translate(71,275)"/>
<path d="M0 0 C3 1 3 1 4 3 C4.66 3.66 5.32 4.32 6 5 C4.35 5.33 2.7 5.66 1 6 C0 3 0 3 0 0 Z " fill="#757372" transform="translate(246,86)"/>
<path d="M0 0 C3.24732932 1.62366466 3.70155136 4.75387839 5 8 C2.00675737 6.9024777 1.15389099 6.32317108 -0.25 3.375 C-0.4975 2.59125 -0.745 1.8075 -1 1 C-0.67 0.67 -0.34 0.34 0 0 Z " fill="#B0ADAE" transform="translate(303,301)"/>
<path d="M0 0 C0.99 0 1.98 0 3 0 C3.66 1.65 4.32 3.3 5 5 C3.35 4.67 1.7 4.34 0 4 C0 2.68 0 1.36 0 0 Z " fill="#ADACAB" transform="translate(258,100)"/>
</svg>
